<svg width="401" height="287" viewBox="0 0 401 287" fill="none" xmlns="http://www.w3.org/2000/svg">
<path opacity="0.967401" fill-rule="evenodd" clip-rule="evenodd" d="M52.9653 129.302H32.6434V147.162L35.7455 144.055H52.9653V129.302Z" fill="#2E58D1"/>
<path fill-rule="evenodd" clip-rule="evenodd" d="M22.689 135.11C22.689 135.11 27.6603 137.546 26.4317 144.172C25.202 150.798 24.658 151.692 26.0336 154.28C27.4082 156.869 29.0306 167.914 27.7934 170.008C26.5551 172.102 12.4771 160.808 10.5253 151.333C8.57243 141.858 11.7625 137.643 12.8902 136.074C14.0169 134.504 18.3015 132.879 22.689 135.11Z" fill="#0E2D3D"/>
<path fill-rule="evenodd" clip-rule="evenodd" d="M24.0668 159.031C24.0668 159.031 26.5969 159.546 28.0176 161.641C29.0059 163.099 29.0863 166.336 29.2291 166.947C29.3718 167.556 31.2581 174.457 31.2581 174.457L25.9875 177.995L24.0668 159.031Z" fill="#285173"/>
<path fill-rule="evenodd" clip-rule="evenodd" d="M43.54 277.031C43.54 277.031 46.9801 281.669 46.5079 282.404C46.0358 283.139 42.4187 283.243 40.2168 282.404C38.015 281.563 37.9635 276.128 36.9667 273.792C36.5493 272.814 37.4431 269.927 38.6964 269.719C39.9518 269.509 41.3167 270.124 41.3167 270.124C41.3167 270.124 40.0151 273.413 43.54 277.031Z" fill="#1D3B54"/>
<path fill-rule="evenodd" clip-rule="evenodd" d="M41.3392 270.086C41.3392 270.086 42.0634 272.062 42.3274 273.947C42.5463 275.512 44.7782 278.833 44.673 279.253C44.5689 279.674 41.7373 280.053 40.5838 278.971C39.4313 277.888 38.6888 274.738 38.4345 272.855C38.1984 271.1 37.9001 270.233 37.9001 270.233C37.9001 270.233 40.2382 268.931 41.3392 270.086Z" fill="#FDD5CF"/>
<path fill-rule="evenodd" clip-rule="evenodd" d="M13.6016 277.107C13.6016 277.107 16.9173 281.669 16.4451 282.404C15.973 283.139 12.3559 283.243 10.154 282.404C7.95221 281.563 7.89963 276.128 6.90387 273.792C6.48647 272.814 7.37922 269.927 8.63357 269.719C9.88793 269.509 11.3601 270.168 11.3601 270.168C11.3601 270.168 10.0757 273.491 13.6016 277.107Z" fill="#1D3B54"/>
<path fill-rule="evenodd" clip-rule="evenodd" d="M11.3602 270.168C11.3602 270.168 11.622 272.322 12.0416 273.844C12.4611 275.368 14.7144 278.833 14.6104 279.252C14.5052 279.674 11.6746 280.053 10.5211 278.971C9.36761 277.887 8.477 274.751 8.37185 272.855C8.26669 270.956 8.63366 269.719 8.63366 269.719C8.63366 269.719 10.2593 269.013 11.3602 270.168Z" fill="#FDD5CF"/>
<path fill-rule="evenodd" clip-rule="evenodd" d="M27.9287 194.654C27.9287 194.654 30.8805 208.408 31.5576 211.871C32.2357 215.334 34.1339 232.106 34.3367 234.957C34.5406 237.809 37.4173 248.555 37.2821 249.574C37.1459 250.592 41.5463 271.053 41.5463 271.053C41.5463 271.053 40.043 272.264 38.4592 271.162C37.6448 270.595 28.8042 252.006 28.8042 246.914C28.8042 239.875 23.6076 230.686 22.937 229.111C16.7081 214.481 17.9346 210.007 17.1212 209.056C16.3079 208.107 16.2371 209.644 15.7628 211.748C15.2885 213.853 14.2724 232.051 13.6618 234.36C13.0524 236.67 13.5256 244.477 13.1865 248.416C12.8485 252.355 11.3602 270.168 11.3602 270.168C11.3602 270.168 10.2078 271.977 8.59076 270.215C8.2431 269.836 5.79877 250.372 5.73117 245.685C5.66357 241.001 5.5906 234.539 5.4597 232.513C4.20427 213.098 1.1172 210.324 5.97904 196.584C15.0814 170.856 27.9287 194.654 27.9287 194.654L8.59076 241.301Z" fill="#FDD5CF"/>
<path fill-rule="evenodd" clip-rule="evenodd" d="M8.10683 190.81C8.10683 190.81 -0.301326 202.599 3.31903 227.675C3.31903 227.675 23.2632 230.392 33.9483 224.531C33.9483 224.531 29.5296 198.676 27.9287 194.654C26.3277 190.63 8.10683 190.81 8.10683 190.81Z" fill="#04268B"/>
<path fill-rule="evenodd" clip-rule="evenodd" d="M36.8743 273.384V278.241H37.5041V274.487L36.8743 273.384Z" fill="#1D3B54"/>
<path fill-rule="evenodd" clip-rule="evenodd" d="M6.81167 273.384V278.241H7.44153V274.487L6.81167 273.384Z" fill="#1D3B54"/>
<path fill-rule="evenodd" clip-rule="evenodd" d="M19.3917 157.311C19.3917 157.311 22.4895 158.777 23.5657 158.992C24.6409 159.207 28.8149 164.638 29.5467 166.621C30.2774 168.604 29.5467 171.577 28.0402 175.067C26.5337 178.558 27.9543 179.722 27.2655 183.213C26.5777 186.705 25.9746 194.096 26.1045 196.036C26.2332 197.976 8.70121 198.343 4.69993 194.808C4.69993 194.808 8.7216 188.774 9.23772 187.912C9.75384 187.05 9.32356 182.353 8.85036 181.147C8.37716 179.938 5.22678 169.677 5.22678 169.677C5.22678 169.677 2.65047 161.795 4.97784 159.984C7.00048 158.409 12.5115 157.85 13.5008 157.504C14.4912 157.16 17.369 157.01 19.3917 157.311Z" fill="#D4D8E8"/>
<path fill-rule="evenodd" clip-rule="evenodd" d="M20.382 164.229L22.2641 162.021L20.6299 156.207C20.6299 156.207 20.0805 159.444 20.382 164.229Z" fill="#BBBFD0"/>
<path fill-rule="evenodd" clip-rule="evenodd" d="M20.8714 153.731C20.8714 153.731 20.7856 154.508 20.6858 155.584C20.6429 156.061 20.5946 156.596 20.5506 157.149C20.424 158.716 20.322 160.413 20.3821 161.276C20.3821 161.276 17.1631 164.508 13.5009 157.504C13.5009 157.504 15.0417 154.618 13.8818 150.685C12.7218 146.753 20.8714 153.731 20.8714 153.731Z" fill="#FDD5CF"/>
<path fill-rule="evenodd" clip-rule="evenodd" d="M20.3821 161.276V164.228L16.677 161.455L20.3821 161.276Z" fill="#FDD5CF"/>
<path fill-rule="evenodd" clip-rule="evenodd" d="M20.3821 164.229L18.8434 162.322L13.6618 157.149L11.9857 158.766L20.3821 164.229Z" fill="#BBBFD0"/>
<path fill-rule="evenodd" clip-rule="evenodd" d="M12.9429 157.643C12.9429 157.643 17.2907 164.254 17.4989 167.163C17.706 170.071 15.8829 191.835 14.4226 198.83C12.9622 205.825 2.41016 198.04 2.41016 198.04C2.41016 198.04 9.50065 186.543 6.77841 177.338C4.05724 168.132 3.06792 164.451 3.06792 164.451C3.06792 164.451 4.00466 159.325 7.3235 158.605C10.2335 157.972 12.9429 157.643 12.9429 157.643Z" fill="#B7C9F7"/>
<path fill-rule="evenodd" clip-rule="evenodd" d="M29.8321 167.504C29.8321 167.504 30.6165 170.283 27.5616 176.428C27.5616 176.428 27.6099 184.292 27.6957 186.748C27.7826 189.205 29.5166 198.039 29.5166 198.039L25.3415 200.266C24.7331 200.624 23.9799 200.127 24.0646 199.426C24.9198 192.356 27.7032 165.54 21.6901 158.332L24.1033 159.045C24.1033 159.045 28.39 162.558 29.8321 167.504Z" fill="#B7C9F7"/>
<path fill-rule="evenodd" clip-rule="evenodd" d="M22.2642 162.021L24.6356 162.678L20.63 156.207L22.2642 162.021Z" fill="#E0E4F5"/>
<path fill-rule="evenodd" clip-rule="evenodd" d="M18.8434 162.322L16.677 165.166L12.2283 157.739L13.6618 157.149L18.8434 162.322Z" fill="#E0E4F5"/>
<path fill-rule="evenodd" clip-rule="evenodd" d="M21.9799 173.825L22.5958 173.338L28.3514 180.624L27.7366 181.111L21.9799 173.825Z" fill="#06387F"/>
<path fill-rule="evenodd" clip-rule="evenodd" d="M21.6236 180.288C21.6236 180.288 22.173 180.297 22.5346 180.024C23.1591 179.554 23.3844 178.392 24.4864 178.477C25.5873 178.56 26.0991 182.022 25.8223 182.677C25.5476 183.333 24.0164 183.659 21.7555 183.209C19.4947 182.758 21.6236 180.288 21.6236 180.288Z" fill="#FDD5CF"/>
<path fill-rule="evenodd" clip-rule="evenodd" d="M24.1076 178.5C24.1076 178.5 25.6914 177.96 27.5198 177.564C29.1239 177.216 31.0403 177.103 31.226 177.381C31.4341 177.692 29.6637 177.96 28.0928 178.407C26.6453 178.818 26.9908 178.968 26.9908 178.968C26.9908 178.968 26.8953 178.92 28.5467 178.766C30.3236 178.599 32.152 178.602 32.3333 178.958C32.4202 179.132 32.3591 179.248 31.7196 179.411C32.1037 179.393 32.1584 179.492 32.1724 179.648C32.2496 180.449 29.6583 181.087 28.6293 181.34C29.4212 181.15 30.0178 181.093 29.7334 181.63C29.4083 182.244 25.7107 182.986 24.407 183.375C22.9852 183.798 24.1076 178.5 24.1076 178.5Z" fill="#FDD5CF"/>
<path fill-rule="evenodd" clip-rule="evenodd" d="M7.93616 158.722C6.84705 158.37 3.64839 159.506 3.10866 162.789C2.56786 166.074 2.35112 169.721 1.8468 171.489C1.34248 173.258 0.0570064 181.095 1.13753 181.744C2.21913 182.394 4.26645 182.988 7.13784 182.988C10.1037 182.988 21.6021 183.505 21.6021 183.505L22.3232 179.413C22.3232 179.413 17.956 179.187 15.693 178.844C13.6789 178.538 10.887 177.679 7.60138 177.318C7.60138 177.318 8.29777 172.463 8.80209 171.093C9.30641 169.721 12.8377 160.311 7.93616 158.722Z" fill="#B7C9F7"/>
<path fill-rule="evenodd" clip-rule="evenodd" d="M28.9672 179.728L29.5059 181.044L28.3513 180.216L28.9672 179.728Z" fill="#EEA886"/>
<path fill-rule="evenodd" clip-rule="evenodd" d="M22.6322 186.591L34.2143 184.289L42.8049 165.878L30.4427 167.179L22.6322 186.591Z" fill="#06387F"/>
<path fill-rule="evenodd" clip-rule="evenodd" d="M35.6586 181.166C35.6586 181.166 36.2938 180.575 36.8582 179.748C37.4248 178.921 39.2747 175.765 39.1062 175.567C38.9367 175.369 36.1887 175.302 35.6908 175.751C35.1929 176.199 36.1812 176.376 36.1812 176.376C36.1812 176.376 34.6789 176.531 34.7862 176.956C34.8936 177.381 35.7981 177.263 35.7981 177.263C35.7981 177.263 34.5888 177.495 34.7723 177.868C34.9558 178.241 35.5374 178.237 35.5374 178.237C35.5374 178.237 34.4654 178.372 34.5985 178.779C34.7305 179.186 36.4258 179.571 36.1994 179.909C35.9719 180.248 35.6586 181.166 35.6586 181.166Z" fill="#FDD5CF"/>
<path fill-rule="evenodd" clip-rule="evenodd" d="M21.969 135.845C21.969 135.845 29.1861 138.116 25.2685 150.594C21.3499 163.072 11.4921 149.148 12.5232 141.546C13.5544 133.944 21.969 135.845 21.969 135.845Z" fill="#FDD5CF"/>
<path fill-rule="evenodd" clip-rule="evenodd" d="M26.0057 143.125C26.0057 143.125 22.4197 146.651 16.4172 147.091C16.4172 147.091 14.1103 149.8 13.9332 150.864C13.9332 150.864 8.57886 141.72 15.1607 136.239C21.7437 130.758 28.4254 140.867 26.0057 143.125Z" fill="#0E2D3D"/>
<path fill-rule="evenodd" clip-rule="evenodd" d="M16.4891 147.34C16.443 146.431 15.885 144.364 14.5373 144.943C13.1896 145.522 14.6199 149.73 15.5127 149.471C15.5127 149.471 16.5996 149.488 16.4891 147.34Z" fill="#FDD5CF"/>
<path fill-rule="evenodd" clip-rule="evenodd" d="M20.6857 155.584C20.6428 156.061 20.5945 156.596 20.5505 157.148H20.5494C16.3765 155.085 15.737 152.109 15.7177 152.016C18.691 155.865 20.6857 155.584 20.6857 155.584Z" fill="#D3AFA9"/>
<path fill-rule="evenodd" clip-rule="evenodd" d="M140.984 176.146C140.984 176.146 140.049 183.37 145.26 188.918C150.471 194.465 162.221 192.486 162.221 192.486C162.221 192.486 160.278 185.931 156.017 183.23C151.758 180.528 143.389 179.598 140.984 176.146Z" fill="#8BAAFF"/>
<path fill-rule="evenodd" clip-rule="evenodd" d="M147.046 162.447C147.046 162.447 142.751 170.547 146.441 179.397C150.131 188.246 164.855 191.126 164.855 191.126C164.855 191.126 165.462 182.535 161.635 177.463C157.808 172.39 148.355 167.581 147.046 162.447Z" fill="#638AF6"/>
<path fill-rule="evenodd" clip-rule="evenodd" d="M339.77 58.3127C339.77 58.3127 347.072 69.4094 340.911 75.3027C334.751 81.1972 334.026 74.6159 334.026 74.6159C334.026 74.6159 330.731 74.833 337.281 67.3242C340.369 63.7848 339.77 58.3127 339.77 58.3127Z" fill="#A8BAEC"/>
<path fill-rule="evenodd" clip-rule="evenodd" d="M359.319 52.6494C359.319 52.6494 364.527 62.7282 352.269 72.1717C340.012 81.6153 340.071 88.1223 340.071 88.1223C340.071 88.1223 331.442 64.7639 359.319 52.6494Z" fill="#8BAAFF"/>
<path fill-rule="evenodd" clip-rule="evenodd" d="M338.5 83.8251C333.841 83.6951 340.665 71.845 348.252 69.4405C355.838 67.0351 361.897 68.0347 366.515 65.095C366.515 65.095 361.44 84.4657 338.5 83.8251Z" fill="#638AF6"/>
<path opacity="0.619048" fill-rule="evenodd" clip-rule="evenodd" d="M152.415 163.527H153.394V46.0703H152.415V163.527Z" fill="#A6B9EB"/>
<path opacity="0.600749" fill-rule="evenodd" clip-rule="evenodd" d="M80.559 131.565H161.509V130.584H80.559V131.565Z" fill="#C3D0F1"/>
<path opacity="0.788946" fill-rule="evenodd" clip-rule="evenodd" d="M195.43 84.4776C188.701 84.4776 183.226 90.2301 183.226 97.2993V209.387C183.226 216.457 188.701 222.211 195.43 222.211H354.357C361.086 222.211 366.561 216.457 366.561 209.387V97.2993C366.561 90.2301 361.086 84.4776 354.357 84.4776H195.43ZM354.357 223.389H195.43C188.053 223.389 182.05 217.108 182.05 209.387V97.2993C182.05 89.5798 188.053 83.2996 195.43 83.2996H354.357C361.735 83.2996 367.737 89.5798 367.737 97.2993V209.387C367.737 217.108 361.735 223.389 354.357 223.389Z" fill="#85A2F2"/>
<path opacity="0.922549" fill-rule="evenodd" clip-rule="evenodd" d="M123.765 2.19646C122.438 2.15992 121.108 2.14165 119.813 2.14165C119.372 2.14165 118.933 2.1438 118.494 2.1481L118.483 0.970072C118.925 0.965773 119.369 0.963623 119.813 0.963623C121.119 0.963623 122.459 0.981895 123.797 1.01844L123.765 2.19646ZM107.974 2.68122L107.864 1.50857C109.597 1.34412 111.381 1.21621 113.169 1.12592L113.227 2.30287C111.458 2.39208 109.69 2.51892 107.974 2.68122ZM134.295 2.83169C132.521 2.67047 130.751 2.53504 129.034 2.43078L129.104 1.25383C130.835 1.35916 132.616 1.49567 134.401 1.65797L134.295 2.83169ZM144.777 4.07313C143.011 3.81947 141.25 3.58731 139.543 3.38524L139.681 2.21474C141.398 2.41896 143.168 2.6522 144.944 2.90693L144.777 4.07313ZM97.5523 4.18062L97.3259 3.02409C99.0395 2.68767 100.806 2.38886 102.576 2.1352L102.742 3.3014C100.992 3.55184 99.2466 3.84742 97.5523 4.18062ZM155.199 5.80255C153.441 5.47472 151.691 5.16625 149.996 4.88356L150.189 3.72166C151.892 4.00434 153.65 4.31497 155.414 4.64387L155.199 5.80255ZM87.3661 6.78065L87.011 5.65745C88.6806 5.12648 90.4028 4.6342 92.1303 4.19459L92.4201 5.33607C90.715 5.77031 89.0154 6.25613 87.3661 6.78065ZM165.555 7.91354C163.805 7.52767 162.065 7.159 160.385 6.81612L160.62 5.66067C162.306 6.0057 164.051 6.37544 165.807 6.76131L165.555 7.91354ZM175.854 10.3158C174.104 9.88587 172.375 9.47098 170.712 9.08296L170.979 7.93503C172.645 8.3252 174.38 8.74009 176.134 9.1711L175.854 10.3158ZM77.5749 10.5716L77.0834 9.50107C78.6822 8.76373 80.3325 8.06509 81.9893 7.42448L82.4131 8.52404C80.7789 9.15498 79.1522 9.84395 77.5749 10.5716ZM186.105 12.9287C184.343 12.4644 182.62 12.0183 180.985 11.6002L181.274 10.4588C182.914 10.8769 184.639 11.3251 186.404 11.7894L186.105 12.9287ZM68.3416 15.5728L67.7171 14.5743C69.2161 13.6328 70.7644 12.7288 72.3182 11.8861L72.8772 12.9234C71.346 13.7531 69.8202 14.6442 68.3416 15.5728ZM196.325 15.6782C194.626 15.2138 192.923 14.7506 191.218 14.2906L191.524 13.1534C193.231 13.6123 194.935 14.0767 196.635 14.541L196.325 15.6782ZM206.543 18.4728C205.773 18.275 205.002 18.0686 204.248 17.8601L201.429 17.0808L201.741 15.9447L204.561 16.724C205.308 16.9304 206.073 17.1357 206.836 17.3313L206.543 18.4728ZM216.92 20.7643C215.146 20.4311 213.395 20.0743 211.714 19.7045L211.966 18.5534C213.635 18.921 215.375 19.2746 217.136 19.6056L216.92 20.7643ZM59.8207 21.7134L59.075 20.8009C60.4485 19.6744 61.8702 18.5813 63.2973 17.5516L63.9851 18.5082C62.5763 19.5229 61.176 20.602 59.8207 21.7134ZM227.404 22.4529C225.614 22.2078 223.845 21.9445 222.153 21.6726L222.339 20.5096C224.023 20.7794 225.781 21.0406 227.564 21.2856L227.404 22.4529ZM237.947 23.6943C236.145 23.5127 234.37 23.3203 232.671 23.1214L232.808 21.9509C234.502 22.1498 236.27 22.3411 238.063 22.5217L237.947 23.6943ZM248.515 24.6144C246.699 24.4768 244.92 24.3339 243.228 24.1877L243.329 23.014C245.018 23.1591 246.791 23.3031 248.604 23.4385L248.515 24.6144ZM259.097 25.3173C257.231 25.2066 255.5 25.0981 253.805 24.9863L253.881 23.8104C255.575 23.9222 257.304 24.0308 259.165 24.1404L259.097 25.3173ZM269.696 25.8956C267.925 25.8042 266.155 25.7118 264.388 25.6161L264.451 24.4392C266.219 24.5349 267.986 24.6273 269.755 24.7187L269.696 25.8956ZM280.287 26.4319C278.608 26.346 276.928 26.261 275.248 26.1761L274.996 26.1643L275.055 24.9863L275.306 24.9992C276.987 25.0841 278.668 25.169 280.346 25.255L280.287 26.4319ZM290.842 27.007C289.089 26.9038 287.33 26.8049 285.569 26.7093L285.633 25.5323C287.396 25.629 289.155 25.7269 290.91 25.8311L290.842 27.007ZM301.403 27.7089C299.726 27.582 297.951 27.4573 296.126 27.337L296.202 26.1611C298.03 26.2825 299.81 26.4072 301.492 26.5341L301.403 27.7089ZM311.944 28.6278C310.252 28.4569 308.48 28.2914 306.678 28.1345L306.78 26.9608C308.588 27.1177 310.365 27.2843 312.061 27.4552L311.944 28.6278ZM52.1025 28.8493L51.2559 28.0313C52.4942 26.7469 53.7732 25.4925 55.0587 24.3016L55.8581 25.1679C54.5887 26.3427 53.3247 27.5809 52.1025 28.8493ZM322.443 29.8725C320.754 29.6393 318.99 29.4136 317.2 29.2018L317.337 28.0313C319.134 28.2441 320.906 28.4709 322.602 28.7052L322.443 29.8725ZM332.868 31.5718C331.19 31.2526 329.439 30.9441 327.667 30.6561L327.856 29.4931C329.638 29.7822 331.4 30.0929 333.087 30.4142L332.868 31.5718ZM343.159 33.887C341.509 33.4528 339.786 33.0336 338.035 32.6413L338.291 31.4912C340.057 31.8868 341.794 32.3092 343.459 32.7477L343.159 33.887ZM45.2148 36.8052L44.2867 36.0797C45.3855 34.6717 46.5229 33.2873 47.6656 31.9652L48.5551 32.7359C47.4242 34.044 46.3007 35.4122 45.2148 36.8052ZM353.212 37.018C351.61 36.4323 349.932 35.8669 348.224 35.3359L348.573 34.2106C350.298 34.7458 351.994 35.3187 353.616 35.911L353.212 37.018ZM362.846 41.1981C361.33 40.421 359.733 39.6686 358.097 38.9614L358.562 37.8801C360.221 38.597 361.844 39.3601 363.382 40.1491L362.846 41.1981ZM39.1276 45.4029L38.1394 44.7644C39.1062 43.2607 40.1073 41.7764 41.1138 40.3522L42.0741 41.0336C41.0773 42.4438 40.0858 43.9142 39.1276 45.4029ZM371.776 46.6669C370.396 45.6587 368.931 44.6806 367.422 43.7584L368.034 42.7523C369.572 43.6917 371.062 44.6881 372.469 45.7156L371.776 46.6669ZM379.597 53.5684C378.423 52.3141 377.163 51.092 375.852 49.9387L376.629 49.0541C377.968 50.2332 379.254 51.4811 380.454 52.7623L379.597 53.5684ZM33.7819 54.4928L32.7464 53.9339C33.5941 52.3582 34.4718 50.7986 35.3528 49.297L36.3668 49.8946C35.4922 51.3833 34.6231 52.93 33.7819 54.4928ZM385.924 61.849C385.011 60.37 384.017 58.9244 382.968 57.5507L383.902 56.8349C384.975 58.2386 385.992 59.7176 386.925 61.2299L385.924 61.849ZM29.0992 63.9524L28.0294 63.4634C28.7698 61.8361 29.537 60.2195 30.3085 58.6599L31.3622 59.1823C30.5971 60.7312 29.8353 62.3359 29.0992 63.9524ZM390.537 71.2076C389.906 69.5674 389.205 67.9562 388.448 66.4192L389.503 65.8979C390.274 67.4672 390.992 69.1106 391.634 70.7841L390.537 71.2076ZM393.505 81.2584C393.361 80.6232 393.21 79.9794 393.056 79.3431C392.796 78.2672 392.512 77.1977 392.209 76.1648L393.337 75.8326C393.645 76.8838 393.935 77.9716 394.199 79.0647C394.354 79.7064 394.507 80.3567 394.652 80.9973L393.505 81.2584ZM395.425 91.6339C395.188 89.9313 394.9 88.1793 394.575 86.4273L395.731 86.2113C396.059 87.9805 396.35 89.7497 396.59 91.4694L395.425 91.6339ZM396.367 102.13C396.306 100.415 396.193 98.6461 396.033 96.8705L397.205 96.7641C397.368 98.5612 397.482 100.352 397.541 102.088L396.367 102.13ZM397.247 112.752L396.076 112.639C396.238 110.934 396.345 109.17 396.392 107.394L397.569 107.425C397.52 109.228 397.412 111.02 397.247 112.752ZM395.416 123.257L394.278 122.959C394.71 121.299 395.081 119.576 395.382 117.838L396.542 118.039C396.234 119.81 395.857 121.565 395.416 123.257ZM391.801 133.297L390.737 132.794C391.472 131.234 392.144 129.608 392.736 127.961L393.842 128.36C393.238 130.042 392.551 131.704 391.801 133.297ZM386.323 142.46L385.378 141.758C386.415 140.361 387.39 138.898 388.28 137.409L389.29 138.014C388.379 139.536 387.382 141.032 386.323 142.46ZM379.172 150.386L378.377 149.518C379.67 148.33 380.909 147.079 382.064 145.803L382.936 146.594C381.757 147.897 380.492 149.173 379.172 150.386ZM370.73 156.913L370.089 155.925C371.572 154.959 373.013 153.938 374.37 152.89L375.087 153.824C373.705 154.89 372.239 155.93 370.73 156.913ZM361.395 162.092L360.895 161.026C362.503 160.268 364.08 159.463 365.582 158.632L366.15 159.663C364.625 160.506 363.025 161.323 361.395 162.092ZM351.5 166.071L351.12 164.956C352.805 164.381 354.468 163.766 356.063 163.126L356.501 164.219C354.886 164.867 353.204 165.49 351.5 166.071ZM341.277 169.031L341 167.886C342.727 167.467 344.442 167.012 346.093 166.536L346.419 167.667C344.751 168.15 343.022 168.609 341.277 169.031ZM330.858 171.139L330.667 169.977C332.421 169.687 334.166 169.368 335.86 169.027L336.091 170.181C334.385 170.526 332.624 170.847 330.858 171.139ZM320.315 172.526L320.197 171.354C321.961 171.176 323.726 170.973 325.444 170.747L325.596 171.916C323.867 172.144 322.09 172.348 320.315 172.526ZM283.167 172.818C279.84 172.545 277.887 172.288 277.867 172.284L278.021 171.117C278.04 171.118 279.968 171.373 283.264 171.643L283.167 172.818ZM309.708 173.288L309.655 172.111C311.424 172.032 313.2 171.929 314.931 171.805L315.016 172.981C313.273 173.105 311.487 173.209 309.708 173.288ZM293.77 173.4C291.997 173.347 290.211 173.272 288.467 173.177L288.53 172.001C290.266 172.095 292.041 172.171 293.806 172.223L293.77 173.4ZM300.271 173.497C299.87 173.497 299.474 173.495 299.079 173.493L299.085 172.316C300.817 172.325 302.621 172.313 304.371 172.28L304.394 173.457C303.032 173.484 301.643 173.497 300.271 173.497Z" fill="#2E58D1"/>
<path opacity="0.952846" fill-rule="evenodd" clip-rule="evenodd" d="M352.73 91.8542C338.631 91.8542 327.201 80.405 327.201 66.2827C327.201 52.1604 338.631 40.7112 352.73 40.7112C366.829 40.7112 378.258 52.1604 378.258 66.2827C378.258 80.405 366.829 91.8542 352.73 91.8542ZM385.952 57.6603C385.144 54.5293 383.906 51.5714 382.305 48.852L386.018 43.2575L375.716 32.9379L370.131 36.6569C367.416 35.0543 364.464 33.8129 361.337 33.0035L360.015 26.4233H345.444L344.122 33.0035C340.996 33.8129 338.042 35.0543 335.328 36.6569L329.745 32.9379L319.441 43.2575L323.154 48.852C321.554 51.5714 320.315 54.5293 319.507 57.6603L312.938 58.9856V73.5809L319.507 74.9051C320.315 78.0371 321.554 80.9951 323.154 83.7134L319.441 89.3079L329.745 99.6285L335.328 95.9085C338.042 97.5122 340.996 98.7536 344.122 99.5619L345.444 106.142H360.015L361.337 99.5619C364.464 98.7536 367.416 97.5122 370.131 95.9085L375.716 99.6285L386.018 89.3079L382.305 83.7134C383.906 80.9951 385.144 78.0371 385.952 74.9051L392.521 73.5809V58.9856L385.952 57.6603Z" fill="#1E41A3"/>
<path opacity="0.671829" fill-rule="evenodd" clip-rule="evenodd" d="M352.728 82.8556V194.943C352.728 202.35 346.735 208.356 339.339 208.356H172.969C165.574 208.356 159.579 202.35 159.579 194.943V82.8556C159.579 75.4478 165.574 69.4448 172.969 69.4448H339.339C346.735 69.4448 352.728 75.4478 352.728 82.8556Z" fill="white"/>
<path fill-rule="evenodd" clip-rule="evenodd" d="M221.855 145.906C209.889 150.193 196.99 146.324 189.216 137.171C187.364 134.99 185.801 132.507 184.613 129.763C184.351 129.157 184.106 128.538 183.881 127.908C181.619 121.574 181.631 114.978 183.493 109.02C186.181 100.418 192.724 93.1366 201.847 89.8691C204.859 88.79 207.93 88.2289 210.962 88.1354C223.487 87.757 235.374 95.4088 239.823 107.866C245.346 123.342 237.302 140.372 221.855 145.906ZM249.158 104.522C243.226 87.9075 227.373 77.703 210.667 78.206C206.621 78.3275 202.528 79.0777 198.508 80.5169C186.339 84.8765 177.612 94.5866 174.028 106.058C171.543 114.008 171.527 122.804 174.543 131.254C174.844 132.093 175.17 132.92 175.52 133.727C177.107 137.387 179.188 140.697 181.662 143.607C192.029 155.817 209.234 160.977 225.194 155.26C245.798 147.878 256.527 125.163 249.158 104.522Z" fill="#5D82E9"/>
<path fill-rule="evenodd" clip-rule="evenodd" d="M183.493 109.019L174.028 106.058C177.612 94.5864 186.339 84.8763 198.508 80.5167C202.528 79.0775 206.621 78.3273 210.666 78.2058L210.962 88.1352C207.93 88.2287 204.859 88.7898 201.847 89.8689C192.723 93.1364 186.181 100.417 183.493 109.019Z" fill="#06387F"/>
<path fill-rule="evenodd" clip-rule="evenodd" d="M184.613 129.763L175.52 133.727C175.17 132.919 174.844 132.093 174.543 131.253C171.527 122.804 171.543 114.008 174.028 106.058L183.493 109.019C181.631 114.978 181.619 121.573 183.881 127.907C184.106 128.537 184.351 129.156 184.613 129.763Z" fill="#0849A4"/>
<path fill-rule="evenodd" clip-rule="evenodd" d="M181.662 143.607C179.189 140.697 177.107 137.387 175.52 133.727L184.613 129.763C185.802 132.507 187.364 134.99 189.216 137.17L181.662 143.607Z" fill="#3B66DE"/>
<path fill-rule="evenodd" clip-rule="evenodd" d="M179.107 176.05C181.861 170.219 187.867 166.975 193.927 167.465C195.372 167.581 196.82 167.909 198.227 168.468C198.538 168.589 198.847 168.723 199.154 168.869C202.23 170.326 204.585 172.694 206.049 175.499C208.163 179.545 208.424 184.503 206.323 188.948C205.63 190.417 204.731 191.72 203.677 192.842C199.324 197.473 192.327 198.998 186.277 196.131C178.761 192.569 175.551 183.578 179.107 176.05ZM184.128 200.679C192.197 204.504 201.528 202.471 207.335 196.293C208.74 194.798 209.94 193.06 210.866 191.102C213.666 185.172 213.32 178.558 210.5 173.161C208.546 169.421 205.406 166.263 201.302 164.319C200.895 164.125 200.481 163.946 200.068 163.781C198.191 163.041 196.259 162.602 194.332 162.446C186.249 161.793 178.238 166.118 174.564 173.896C169.821 183.938 174.102 195.929 184.128 200.679Z" fill="#5D82E9"/>
<path fill-rule="evenodd" clip-rule="evenodd" d="M206.049 175.499L210.5 173.162C213.32 178.558 213.666 185.172 210.866 191.102C209.94 193.06 208.74 194.798 207.335 196.293L203.677 192.842C204.731 191.72 205.63 190.417 206.323 188.948C208.424 184.503 208.163 179.545 206.049 175.499Z" fill="#06387F"/>
<path fill-rule="evenodd" clip-rule="evenodd" d="M198.227 168.468L200.068 163.781C200.481 163.946 200.895 164.125 201.302 164.319C205.406 166.263 208.546 169.421 210.5 173.162L206.049 175.499C204.585 172.694 202.23 170.326 199.154 168.869C198.847 168.724 198.538 168.589 198.227 168.468Z" fill="#0849A4"/>
<path fill-rule="evenodd" clip-rule="evenodd" d="M194.332 162.447C196.259 162.602 198.191 163.041 200.068 163.781L198.227 168.468C196.82 167.909 195.372 167.581 193.927 167.465L194.332 162.447Z" fill="#3B66DE"/>
<path opacity="0.837705" fill-rule="evenodd" clip-rule="evenodd" d="M352.729 82.8556V194.943C352.729 202.35 346.735 208.356 339.339 208.356H265.681V69.4448H339.339C346.735 69.4448 352.729 75.4478 352.729 82.8556Z" fill="#6F92F1"/>
<path opacity="0.948754" fill-rule="evenodd" clip-rule="evenodd" d="M339.798 90.9169H278.614C277.651 90.9169 276.867 90.1344 276.867 89.1681V85.6082C276.867 84.642 277.651 83.8584 278.614 83.8584H339.798C340.762 83.8584 341.544 84.642 341.544 85.6082V89.1681C341.544 90.1344 340.762 90.9169 339.798 90.9169Z" fill="#E3F2FF"/>
<path opacity="0.96789" fill-rule="evenodd" clip-rule="evenodd" d="M339.798 106.058H278.614C277.651 106.058 276.867 105.275 276.867 104.308V100.749C276.867 99.7823 277.651 98.9988 278.614 98.9988H339.798C340.762 98.9988 341.544 99.7823 341.544 100.749V104.308C341.544 105.275 340.762 106.058 339.798 106.058Z" fill="#5D82E9"/>
<path fill-rule="evenodd" clip-rule="evenodd" d="M335.671 196.18H282.741C279.496 196.18 276.867 193.547 276.867 190.297V122.246C276.867 118.997 279.496 116.363 282.741 116.363H335.671C338.914 116.363 341.544 118.997 341.544 122.246V190.297C341.544 193.547 338.914 196.18 335.671 196.18Z" fill="#5D82E9"/>
<path opacity="0.616467" fill-rule="evenodd" clip-rule="evenodd" d="M276.867 171.468C274.383 170.324 272.658 167.81 272.658 164.892V120.2C272.658 116.206 275.891 112.967 279.879 112.967H288.405C290.986 112.967 293.25 114.324 294.527 116.363H282.741C279.496 116.363 276.867 118.997 276.867 122.246V171.468Z" fill="#A3BBF6"/>
<path fill-rule="evenodd" clip-rule="evenodd" d="M288.405 172.124H279.879C278.804 172.124 277.785 171.889 276.867 171.468V122.246C276.867 118.997 279.496 116.363 282.741 116.363H294.527C295.223 117.475 295.626 118.79 295.626 120.2V164.892C295.626 168.886 292.393 172.124 288.405 172.124Z" fill="#A3BBF6"/>
<path opacity="0.384998" fill-rule="evenodd" clip-rule="evenodd" d="M123.095 64.0093H270.7V63.0269H123.095V64.0093Z" fill="#2E58D1"/>
<path fill-rule="evenodd" clip-rule="evenodd" d="M137.878 40.2362C134.164 40.2362 131.142 43.2619 131.142 46.983C131.142 50.703 134.164 53.7298 137.878 53.7298C141.592 53.7298 144.613 50.703 144.613 46.983C144.613 43.2619 141.592 40.2362 137.878 40.2362ZM137.878 54.9078C133.516 54.9078 129.966 51.3522 129.966 46.983C129.966 42.6127 133.516 39.0571 137.878 39.0571C142.24 39.0571 145.79 42.6127 145.79 46.983C145.79 51.3522 142.24 54.9078 137.878 54.9078Z" fill="#2E58D1"/>
<path fill-rule="evenodd" clip-rule="evenodd" d="M162.265 265.785H104.36C99.5868 265.785 95.7164 261.908 95.7164 257.128V199.123C95.7164 194.342 99.5868 190.465 104.36 190.465H147.158C150.206 192.382 154.286 192.829 157.43 192.829C158.215 192.829 158.941 192.801 159.579 192.761V194.943C159.579 201.648 164.49 207.205 170.907 208.198V257.128C170.907 261.908 167.038 265.785 162.265 265.785Z" fill="#8CA8F3"/>
<path fill-rule="evenodd" clip-rule="evenodd" d="M157.43 192.829C154.286 192.829 150.206 192.382 147.158 190.465H159.579V192.761C158.941 192.801 158.215 192.829 157.43 192.829Z" fill="#7C9CF5"/>
<path opacity="0.648577" fill-rule="evenodd" clip-rule="evenodd" d="M170.907 208.198C164.49 207.205 159.579 201.648 159.579 194.943V190.465H162.265C167.038 190.465 170.907 194.342 170.907 199.123V208.198Z" fill="#8CA8F3"/>
<path opacity="0.884324" fill-rule="evenodd" clip-rule="evenodd" d="M165.082 119.105C165.082 123.272 161.71 126.65 157.549 126.65H97.4215C93.2614 126.65 89.8889 123.272 89.8889 119.105V76.9902C89.8889 72.822 93.2614 69.4448 97.4215 69.4448H157.549C161.71 69.4448 165.082 72.822 165.082 76.9902V119.105Z" fill="#E3F2FF"/>
<path fill-rule="evenodd" clip-rule="evenodd" d="M163.399 209.638H137.725C136.75 209.638 135.959 208.846 135.959 207.869V203.306C135.959 202.329 136.75 201.536 137.725 201.536H163.399C164.374 201.536 165.166 202.329 165.166 203.306V207.869C165.166 208.846 164.374 209.638 163.399 209.638Z" fill="#E3F2FF"/>
<path fill-rule="evenodd" clip-rule="evenodd" d="M161.099 256.697H140.027C137.78 256.697 135.959 254.872 135.959 252.623V217.83C135.959 215.581 137.78 213.756 140.027 213.756H161.099C163.344 213.756 165.166 215.581 165.166 217.83V252.623C165.166 254.872 163.344 256.697 161.099 256.697Z" fill="#E3F2FF"/>
<path fill-rule="evenodd" clip-rule="evenodd" d="M106.846 211.499C106.888 208.274 108.435 205.423 110.809 203.606C112.539 202.283 114.706 201.508 117.05 201.537C121.359 201.592 125.001 204.35 126.391 208.183L126.393 208.189C126.723 209.099 126.926 210.072 126.981 211.083C126.993 211.306 126.996 211.531 126.994 211.759C126.965 214.04 126.18 216.133 124.886 217.807C123.016 220.222 120.078 221.763 116.791 221.719C115.706 221.705 114.664 221.52 113.689 221.189C109.665 219.827 106.789 215.988 106.846 211.499ZM112.611 224.38C113.91 224.821 115.301 225.068 116.747 225.086C121.131 225.143 125.05 223.091 127.545 219.871C129.274 217.638 130.318 214.845 130.355 211.802C130.36 211.499 130.353 211.198 130.338 210.9C130.266 209.548 129.994 208.25 129.552 207.032C127.7 201.923 122.841 198.245 117.094 198.169C113.997 198.129 111.132 199.142 108.838 200.876C105.632 203.298 103.54 207.124 103.485 211.456C103.409 217.439 107.242 222.56 112.611 224.38Z" fill="#E3F2FF"/>
<path fill-rule="evenodd" clip-rule="evenodd" d="M124.885 217.807L127.544 219.871C125.051 223.091 121.131 225.143 116.748 225.087C115.301 225.068 113.911 224.82 112.611 224.381L113.689 221.189C114.664 221.52 115.706 221.704 116.792 221.718C120.077 221.761 123.015 220.222 124.885 217.807Z" fill="#06387F"/>
<path fill-rule="evenodd" clip-rule="evenodd" d="M126.98 211.082L130.338 210.899C130.353 211.198 130.36 211.499 130.355 211.802C130.317 214.844 129.273 217.638 127.544 219.871L124.885 217.807C126.181 216.134 126.964 214.039 126.994 211.759C126.996 211.531 126.992 211.305 126.98 211.082Z" fill="#3B66DE"/>
<path fill-rule="evenodd" clip-rule="evenodd" d="M126.981 211.083C126.926 210.072 126.723 209.099 126.393 208.189L126.391 208.183L129.552 207.032C129.994 208.25 130.266 209.548 130.338 210.9L126.981 211.083Z" fill="#5D82E9"/>
<path fill-rule="evenodd" clip-rule="evenodd" d="M108.838 200.876C111.132 199.142 113.997 198.129 117.094 198.169C122.841 198.245 127.7 201.923 129.552 207.032L126.393 208.189L126.391 208.183C125.001 204.35 121.359 201.592 117.05 201.537C114.706 201.508 112.539 202.283 110.81 203.606L108.838 200.876Z" fill="#7599FD"/>
<path fill-rule="evenodd" clip-rule="evenodd" d="M17.9163 94.9337L34.1124 69.5847L25.8866 73.3209L17.9163 94.9337Z" fill="#4571EC"/>
<path fill-rule="evenodd" clip-rule="evenodd" d="M17.9163 94.9336L18.9056 79.6558L24.7889 76.2959L17.9163 94.9336Z" fill="#698EFF"/>
<path fill-rule="evenodd" clip-rule="evenodd" d="M30.3879 75.4136L32.4106 78.0846L17.9163 94.9337L30.3879 75.4136Z" fill="#1345D0"/>
<path fill-rule="evenodd" clip-rule="evenodd" d="M130.445 194.333C130.445 194.333 131.169 194.238 131.591 193.808C132.318 193.064 132.386 191.495 133.851 191.389C135.315 191.282 136.668 195.732 136.433 196.647C136.199 197.561 134.253 198.296 131.191 198.147C128.131 197.999 130.445 194.333 130.445 194.333Z" fill="#FDD5CF"/>
<path fill-rule="evenodd" clip-rule="evenodd" d="M88.3963 166.579C88.3963 166.579 83.4186 170.27 81.6846 173.655C79.9517 177.037 79.3605 181.067 79.3605 181.067L88.3963 166.579Z" fill="#A9ADBA"/>
<path fill-rule="evenodd" clip-rule="evenodd" d="M108.083 191.585C107.7 192.121 107.39 192.502 107.192 192.676C107.057 192.794 106.894 192.93 106.705 193.084L106.702 193.086L106.523 185.906C106.523 185.906 107.422 188.674 107.555 189.082C107.69 189.495 108.083 191.585 108.083 191.585Z" fill="#A9ADBA"/>
<path fill-rule="evenodd" clip-rule="evenodd" d="M113.534 146.673C113.534 146.673 107.121 142.106 107.086 157.681L113.534 146.673Z" fill="#E8734D"/>
<path opacity="0.864095" fill-rule="evenodd" clip-rule="evenodd" d="M165.082 76.9902L164.951 81.1788H89.759L89.8889 76.9902C89.8889 72.822 93.2614 69.4448 97.4214 69.4448H157.549C161.71 69.4448 165.082 72.822 165.082 76.9902Z" fill="#9AB6FF"/>
<path fill-rule="evenodd" clip-rule="evenodd" d="M98.3464 85.6954C97.0395 85.6954 95.9772 86.7605 95.9772 88.0686V118.279C95.9772 119.588 97.0395 120.652 98.3464 120.652H113.475C114.782 120.652 115.844 119.588 115.844 118.279V88.0686C115.844 86.7605 114.782 85.6954 113.475 85.6954H98.3464ZM113.475 121.83H98.3464C96.3914 121.83 94.8011 120.237 94.8011 118.279V88.0686C94.8011 86.1102 96.3914 84.5173 98.3464 84.5173H113.475C115.43 84.5173 117.021 86.1102 117.021 88.0686V118.279C117.021 120.237 115.43 121.83 113.475 121.83Z" fill="#9AB6FF"/>
<path fill-rule="evenodd" clip-rule="evenodd" d="M158.255 88.2482H122.211C121.561 88.2482 121.034 87.7205 121.034 87.0691V86.2866C121.034 85.6353 121.561 85.1064 122.211 85.1064H158.255C158.906 85.1064 159.433 85.6353 159.433 86.2866V87.0691C159.433 87.7205 158.906 88.2482 158.255 88.2482Z" fill="#9AB6FF"/>
<path fill-rule="evenodd" clip-rule="evenodd" d="M158.255 94.6305H122.211C121.561 94.6305 121.034 94.1028 121.034 93.4514V92.6689C121.034 92.0176 121.561 91.4888 122.211 91.4888H158.255C158.906 91.4888 159.433 92.0176 159.433 92.6689V93.4514C159.433 94.1028 158.906 94.6305 158.255 94.6305Z" fill="#9AB6FF"/>
<path fill-rule="evenodd" clip-rule="evenodd" d="M245.777 174.214H221.973C220.966 174.214 220.152 173.397 220.152 172.389V168.706C220.152 167.699 220.966 166.882 221.973 166.882H245.777C246.782 166.882 247.599 167.699 247.599 168.706V172.389C247.599 173.397 246.782 174.214 245.777 174.214Z" fill="#3B66DE"/>
<path fill-rule="evenodd" clip-rule="evenodd" d="M245.777 186.165H221.973C220.966 186.165 220.152 185.348 220.152 184.34V180.657C220.152 179.65 220.966 178.833 221.973 178.833H245.777C246.782 178.833 247.599 179.65 247.599 180.657V184.34C247.599 185.348 246.782 186.165 245.777 186.165Z" fill="#0849A4"/>
<path fill-rule="evenodd" clip-rule="evenodd" d="M245.777 198.116H221.973C220.966 198.116 220.152 197.299 220.152 196.291V192.61C220.152 191.602 220.966 190.785 221.973 190.785H245.777C246.782 190.785 247.599 191.602 247.599 192.61V196.291C247.599 197.299 246.782 198.116 245.777 198.116Z" fill="#06387F"/>
<path opacity="0.836961" fill-rule="evenodd" clip-rule="evenodd" d="M101.925 75.8112C101.925 77.6191 100.461 79.0841 98.6565 79.0841C96.8528 79.0841 95.3892 77.6191 95.3892 75.8112C95.3892 74.0033 96.8528 72.5383 98.6565 72.5383C100.461 72.5383 101.925 74.0033 101.925 75.8112Z" fill="#E3F2FF"/>
<path fill-rule="evenodd" clip-rule="evenodd" d="M347.714 188.957C347.714 188.957 360.998 193.251 364.064 192.496C365.685 192.095 368.22 189.793 370.575 187.31C370.964 186.898 371.349 186.481 371.725 186.069C374.322 183.207 376.443 180.479 376.443 180.479C376.443 180.479 382.877 172.926 377.715 169.56C377.715 169.56 375.437 169.775 373.715 171.622C371.993 173.47 370.379 176.415 369.928 177.401C369.477 178.386 363.158 187.516 362.83 187.721C362.503 187.926 359.742 187.199 357.528 187.015C353.917 186.713 348.516 184.87 348.516 184.87L347.714 188.957Z" fill="#7193F0"/>
<path fill-rule="evenodd" clip-rule="evenodd" d="M365.974 270.934C365.974 270.934 364.284 273.963 363.279 274.577C362.028 275.341 359.6 277.795 358.751 277.909C357.904 278.021 354.855 278.564 355.444 280.288C355.926 281.701 363.198 281.498 364.018 280.79C364.839 280.081 367.29 277.54 368.281 277.597C369.271 277.654 368.903 281.262 368.903 281.262H369.977C369.977 281.262 370.352 277.751 370.397 277.147C370.531 275.361 369.26 274.045 369.204 273.026C369.146 272.007 369.089 271.246 369.089 271.246L365.974 270.934Z" fill="#16202E"/>
<path fill-rule="evenodd" clip-rule="evenodd" d="M358.995 277.826C358.995 277.826 361.392 278.655 363.237 277.593C365.081 276.531 368.622 274.919 369.874 274.907C369.874 274.907 369.191 272.815 369.178 272.581C369.163 272.347 369.089 271.246 369.089 271.246L365.993 270.748C365.993 270.748 363.985 273.701 363.1 274.396C362.215 275.092 359.949 276.825 358.995 277.826Z" fill="#FDD5CF"/>
<path fill-rule="evenodd" clip-rule="evenodd" d="M395.201 273.784C395.201 273.784 394.9 275.88 394.575 276.451C394.249 277.023 393.352 279.937 392.944 280.481C392.536 281.025 391.639 285.109 392.944 285.598C394.249 286.088 397.32 286.905 398.352 285.273C399.385 283.638 399.521 282.005 399.358 280.753C399.194 279.501 397.955 273.754 397.972 273.184C397.989 272.615 395.201 273.784 395.201 273.784Z" fill="#FDD5CF"/>
<path fill-rule="evenodd" clip-rule="evenodd" d="M393.464 279.35C393.464 279.35 393.325 282.522 395.716 282.522C398.108 282.522 399.168 279.635 399.168 279.635C399.168 279.635 399.983 281.053 399.168 284.073C398.352 287.097 394.955 286.47 394.194 286.36C393.433 286.253 389.827 285.296 393.464 279.35Z" fill="#16202E"/>
<path fill-rule="evenodd" clip-rule="evenodd" d="M391.254 201.506C391.254 201.506 394.347 205.453 395.437 208.064C396.528 210.673 398.346 216.397 398.104 220.83C397.862 225.262 396.407 233.581 396.831 235.464C397.256 237.346 397.678 241.231 398.134 242.567C398.589 243.903 400.407 247.79 400.589 251.796C400.771 255.804 399.295 273.383 399.415 275.022C399.538 276.661 394.12 275.659 394.12 275.659C394.12 275.659 393.982 259.812 393.375 257.08C392.769 254.346 392.042 245.056 391.496 244.388C390.952 243.72 389.42 236.677 389.322 235.527C389.226 234.414 382.741 215.157 382.378 211.878C382.014 208.6 373.894 201.506 373.894 201.506C373.894 201.506 381.859 198.455 391.254 201.506Z" fill="#06387F"/>
<path fill-rule="evenodd" clip-rule="evenodd" d="M371.113 271.803C372.266 271.621 375.351 253.86 374.987 250.703C374.622 247.546 374.26 240.814 375.291 238.078C375.967 236.281 380.191 227.144 383.035 220.73C383.435 219.824 383.808 218.973 384.141 218.204C385.044 216.117 385.639 214.637 385.655 214.333C385.717 213.119 389.668 192.2 374.055 201.506C374.055 201.506 373.896 203.16 373.715 203.766C373.531 204.374 369.35 219.858 368.926 225.808C368.501 231.759 367.41 236.806 367.228 238.078C367.046 239.349 367.41 243.6 367.773 244.693C368.137 245.785 365.408 270.461 365.227 271.07C365.046 271.677 369.962 271.984 371.113 271.803Z" fill="#06387F"/>
<path fill-rule="evenodd" clip-rule="evenodd" d="M380.179 168.455C380.179 168.455 377.224 169.852 376.199 170.057C375.173 170.263 371.192 175.441 370.492 177.332C369.795 179.222 370.491 182.058 371.927 185.388C373.363 188.718 372.007 189.828 372.664 193.157C373.32 196.485 373.893 203.535 373.769 205.384C373.646 207.234 390.366 207.587 394.181 204.218C394.181 204.218 390.348 198.463 389.856 197.641C389.363 196.819 389.775 192.339 390.227 191.188C390.679 190.036 393.878 180.529 393.878 180.529C393.878 180.529 396.144 172.734 393.924 171.006C391.996 169.506 386.74 168.97 385.797 168.642C384.852 168.312 382.107 168.168 380.179 168.455Z" fill="#D6E6FA"/>
<path fill-rule="evenodd" clip-rule="evenodd" d="M379.233 175.052L377.439 172.946L378.999 167.401C378.999 167.401 379.522 170.489 379.233 175.052Z" fill="#C2D2E5"/>
<path fill-rule="evenodd" clip-rule="evenodd" d="M378.77 165.039C378.77 165.039 379.358 170.469 379.235 172.237C379.235 172.237 382.303 175.32 385.797 168.642C385.797 168.642 384.329 165.888 385.434 162.137C386.541 158.387 378.77 165.039 378.77 165.039Z" fill="#FDD5CF"/>
<path fill-rule="evenodd" clip-rule="evenodd" d="M379.235 172.237L379.233 175.052L382.768 172.409L379.235 172.237Z" fill="#FDD5CF"/>
<path fill-rule="evenodd" clip-rule="evenodd" d="M379.233 175.052L380.701 173.233L385.642 168.301L387.242 169.844L379.233 175.052Z" fill="#C2D2E5"/>
<path fill-rule="evenodd" clip-rule="evenodd" d="M384.909 208.052C386.3 214.723 396.365 207.302 396.365 207.302C396.365 207.302 389.839 196.317 392.435 187.538L392.498 187.33C392.663 186.775 392.829 186.248 392.995 185.746L393.083 185.476C393.649 183.75 394.113 182.322 394.488 181.149V181.148C395.648 177.534 395.984 176.344 395.984 176.344C395.984 176.344 395.487 170.72 392.714 170.103C389.93 169.483 386.989 168.901 386.989 168.901C386.989 168.901 382.182 175.076 381.982 177.851C381.784 180.624 383.518 201.379 384.909 208.052Z" fill="#7193F0"/>
<path fill-rule="evenodd" clip-rule="evenodd" d="M370.08 178.609C370.08 178.609 369.769 182.434 372.392 187.458C372.392 187.458 372.336 194.183 372.253 196.526C372.171 198.869 371.614 207.727 371.614 207.727L374.496 209.419C375.076 209.76 375.795 209.288 375.713 208.618C374.899 201.877 372.251 176.301 377.987 169.427L375.431 170.311C375.431 170.311 370.08 175.933 370.08 178.609Z" fill="#7193F0"/>
<path fill-rule="evenodd" clip-rule="evenodd" d="M377.439 172.946L375.176 173.571L378.999 167.401L377.439 172.946Z" fill="#E7F0FC"/>
<path fill-rule="evenodd" clip-rule="evenodd" d="M380.701 173.233L382.766 175.947L386.989 168.901L385.642 168.301L380.701 173.233Z" fill="#E7F0FC"/>
<path fill-rule="evenodd" clip-rule="evenodd" d="M380.908 147.516C378.747 147.308 373.888 148.17 372.875 153.889C372.875 153.889 372.975 155.447 373.294 156.684C373.61 157.92 372.351 161.461 372.626 161.652C372.901 161.842 374.066 162.125 374.066 162.125C374.066 162.125 375.145 166.11 376.521 166.142C377.899 166.174 383.157 165.344 385.842 160.578C388.526 155.813 389.639 148.358 380.908 147.516Z" fill="#FDD5CF"/>
<path fill-rule="evenodd" clip-rule="evenodd" d="M372.875 153.889C372.875 153.889 376.279 156.459 379.746 157.11C383.215 157.761 385.091 163.805 385.091 163.805C385.091 163.805 390.907 155.048 386.878 149.441C382.849 143.833 372.434 147.147 372.875 153.889Z" fill="#344052"/>
<path fill-rule="evenodd" clip-rule="evenodd" d="M381.206 157.017C381.257 156.341 382.058 155.361 383.122 156.339C384.185 157.317 382.543 160.464 381.651 160.106C380.758 159.747 381.154 157.717 381.206 157.017Z" fill="#FDD5CF"/>
<path fill-rule="evenodd" clip-rule="evenodd" d="M378.762 165.825C378.84 166.246 378.921 166.739 378.986 167.263C381.896 165.6 383.422 163.484 383.422 163.484C381.739 164.869 378.762 165.825 378.762 165.825Z" fill="#CDA9A4"/>
<path opacity="0.923689" fill-rule="evenodd" clip-rule="evenodd" d="M360.04 202.727C360.034 202.727 360.026 202.727 360.019 202.727L350.279 202.679C351.822 200.493 352.729 197.824 352.729 194.943V190.461C356.273 191.458 360.793 192.585 363.131 192.585C363.502 192.585 363.816 192.557 364.064 192.496C364.155 192.473 364.249 192.444 364.347 192.41L364.317 198.464C364.306 200.822 362.392 202.727 360.04 202.727ZM362.608 187.757C361.839 187.757 359.472 187.176 357.528 187.015C356.063 186.893 354.304 186.516 352.729 186.112V165.643C353.056 165.528 353.381 165.41 353.705 165.292L360.203 165.324C362.566 165.336 364.472 167.264 364.46 169.631L364.38 185.647C363.546 186.823 362.926 187.661 362.83 187.721C362.79 187.746 362.714 187.757 362.608 187.757Z" fill="#E4F2FE"/>
<path fill-rule="evenodd" clip-rule="evenodd" d="M352.728 165.643V165.287L353.705 165.292C353.381 165.41 353.056 165.528 352.728 165.643Z" fill="#DCEAF6"/>
<path opacity="0.610421" fill-rule="evenodd" clip-rule="evenodd" d="M350.279 202.679L316.879 202.513C314.516 202.502 312.612 200.574 312.623 198.209L312.633 196.18H335.671C338.915 196.18 341.544 193.547 341.544 190.297V165.231L352.729 165.287V186.112C350.424 185.521 348.516 184.87 348.516 184.87L347.714 188.957C347.714 188.957 349.913 189.669 352.729 190.461V194.943C352.729 197.824 351.822 200.493 350.279 202.679Z" fill="white"/>
<path opacity="0.612398" fill-rule="evenodd" clip-rule="evenodd" d="M335.671 196.18H312.633L312.765 169.374C312.777 167.015 314.69 165.111 317.042 165.111C317.05 165.111 317.057 165.111 317.064 165.111L341.544 165.231V190.297C341.544 193.547 338.914 196.18 335.671 196.18Z" fill="white"/>
<path fill-rule="evenodd" clip-rule="evenodd" d="M363.131 192.585C360.793 192.585 356.273 191.459 352.729 190.461C349.913 189.669 347.714 188.957 347.714 188.957L348.516 184.87C348.516 184.87 350.424 185.521 352.729 186.112C354.304 186.517 356.063 186.893 357.528 187.015C359.472 187.176 361.84 187.757 362.608 187.757C362.714 187.757 362.79 187.746 362.83 187.721C362.927 187.661 363.546 186.823 364.38 185.647L364.347 192.41C364.25 192.444 364.155 192.473 364.064 192.496C363.816 192.557 363.502 192.585 363.131 192.585Z" fill="#C5DFF5"/>
<path opacity="0.868234" fill-rule="evenodd" clip-rule="evenodd" d="M336.087 199.619L358.073 199.728C359.622 199.735 360.883 198.482 360.892 196.933L361.012 172.437C361.02 170.887 359.771 169.623 358.222 169.614L336.234 169.506C334.687 169.498 333.424 170.749 333.416 172.302L333.296 196.795C333.288 198.347 334.538 199.611 336.087 199.619Z" fill="#99B4FE"/>
<path opacity="0.918225" fill-rule="evenodd" clip-rule="evenodd" d="M318.161 199.608L330.868 199.671C331.304 199.673 331.659 199.322 331.661 198.886L331.675 195.87C331.677 195.433 331.326 195.077 330.892 195.076L318.184 195.013C317.748 195.011 317.394 195.362 317.392 195.799L317.376 198.815C317.375 199.251 317.725 199.606 318.161 199.608Z" fill="#7599FD"/>
<path opacity="0.907506" fill-rule="evenodd" clip-rule="evenodd" d="M317.81 193.625L331.236 193.691C331.473 193.692 331.666 193.502 331.667 193.264L331.669 192.763C331.671 192.525 331.48 192.332 331.242 192.331L317.816 192.265C317.58 192.263 317.387 192.455 317.385 192.692L317.383 193.194C317.381 193.431 317.573 193.624 317.81 193.625Z" fill="#7599FD"/>
<path fill-rule="evenodd" clip-rule="evenodd" d="M366.051 190.625C366.051 190.625 365.541 190.743 365.152 190.56C364.478 190.245 364.04 189.21 363.032 189.507C362.024 189.803 362.23 193.122 362.616 193.677C363.003 194.232 364.489 194.233 366.502 193.368C368.516 192.501 366.051 190.625 366.051 190.625Z" fill="#FDD5CF"/>
<path fill-rule="evenodd" clip-rule="evenodd" d="M363.388 189.454C363.388 189.454 361.808 189.264 360.031 189.256C358.471 189.251 356.666 189.524 356.548 189.819C356.416 190.149 358.115 190.048 359.664 190.153C361.09 190.25 360.801 190.46 360.801 190.46C360.801 190.46 360.879 190.396 359.312 190.578C357.628 190.775 355.928 191.138 355.831 191.505C355.782 191.683 355.862 191.78 356.489 191.806C356.128 191.864 356.098 191.968 356.115 192.115C356.202 192.875 358.736 192.957 359.743 192.988C358.969 192.969 358.403 193.032 358.773 193.475C359.198 193.982 362.782 193.942 364.07 194.047C365.476 194.159 363.388 189.454 363.388 189.454Z" fill="#FDD5CF"/>
<path fill-rule="evenodd" clip-rule="evenodd" d="M384.453 155.804C383.39 158.228 384.033 160.856 385.889 161.672C387.744 162.489 390.111 161.187 391.175 158.763C392.238 156.339 391.594 153.712 389.739 152.894C387.883 152.079 385.516 153.381 384.453 155.804Z" fill="#344052"/>
<path fill-rule="evenodd" clip-rule="evenodd" d="M393.281 170.311C393.281 170.311 390.528 170.819 389.166 172.948C387.804 175.074 386.411 178.101 386.144 179.151C385.878 180.202 380.715 189.844 380.428 190.105C380.143 190.366 377.295 190.148 375.086 190.365C371.479 190.718 365.835 189.878 365.835 189.878L365.78 194.043C365.78 194.043 379.619 195.876 382.499 194.579C386.021 192.993 394.543 181.071 394.543 181.071C394.543 181.071 398.964 172.693 393.281 170.311Z" fill="#7193F0"/>
<path fill-rule="evenodd" clip-rule="evenodd" d="M387.688 189.803L393.083 185.476C393.649 183.75 394.113 182.322 394.488 181.149C394.488 181.149 389.02 188.323 387.688 189.803Z" fill="#4E68B0"/>
<path fill-rule="evenodd" clip-rule="evenodd" d="M370.575 187.31C370.964 186.898 371.349 186.481 371.725 186.069C371.725 186.069 370.263 182.176 370.167 180.529C370.167 180.529 369.824 184.21 370.575 187.31Z" fill="#4E68B0"/>
<path opacity="0.897461" fill-rule="evenodd" clip-rule="evenodd" d="M325.292 179.641C323.387 180.324 321.333 179.707 320.094 178.249C319.799 177.901 319.55 177.507 319.361 177.071C319.319 176.973 319.28 176.874 319.244 176.774C318.884 175.766 318.886 174.715 319.183 173.765C319.611 172.396 320.653 171.236 322.106 170.715C322.585 170.543 323.075 170.454 323.557 170.44C325.552 170.38 327.445 171.599 328.154 173.582C329.034 176.046 327.753 178.76 325.292 179.641ZM329.641 173.05C328.696 170.402 326.171 168.778 323.51 168.858C322.866 168.878 322.214 168.996 321.573 169.226C319.636 169.92 318.246 171.467 317.675 173.294C317.278 174.561 317.276 175.961 317.757 177.307C317.805 177.44 317.856 177.573 317.912 177.7C318.166 178.283 318.497 178.812 318.891 179.274C320.541 181.22 323.283 182.042 325.825 181.13C329.106 179.955 330.815 176.337 329.641 173.05Z" fill="#7599FD"/>
<path fill-rule="evenodd" clip-rule="evenodd" d="M319.183 173.766L317.675 173.294C318.246 171.468 319.636 169.92 321.573 169.227C322.214 168.997 322.866 168.878 323.51 168.858L323.557 170.44C323.075 170.454 322.585 170.543 322.106 170.715C320.653 171.237 319.611 172.396 319.183 173.766Z" fill="#7599FD"/>
<path fill-rule="evenodd" clip-rule="evenodd" d="M319.361 177.071L317.912 177.701C317.856 177.573 317.805 177.44 317.757 177.307C317.276 175.961 317.278 174.561 317.675 173.294L319.183 173.766C318.886 174.715 318.884 175.766 319.244 176.774C319.28 176.874 319.319 176.973 319.361 177.071Z" fill="#7599FD"/>
<path fill-rule="evenodd" clip-rule="evenodd" d="M318.891 179.274C318.497 178.812 318.166 178.283 317.912 177.701L319.361 177.071C319.55 177.507 319.799 177.902 320.094 178.249L318.891 179.274Z" fill="#7599FD"/>
<path opacity="0.852679" fill-rule="evenodd" clip-rule="evenodd" d="M320.748 186.852C319.965 187.132 319.122 186.88 318.614 186.281C318.492 186.138 318.391 185.976 318.312 185.796L318.264 185.674C318.116 185.26 318.117 184.829 318.24 184.439C318.415 183.877 318.843 183.4 319.439 183.186C319.637 183.117 319.837 183.078 320.036 183.074C320.855 183.048 321.633 183.549 321.924 184.364C322.285 185.376 321.759 186.49 320.748 186.852ZM322.535 184.145C322.148 183.059 321.11 182.39 320.017 182.424C319.752 182.431 319.483 182.481 319.221 182.575C318.425 182.86 317.854 183.494 317.62 184.245C317.456 184.766 317.455 185.342 317.654 185.894L317.717 186.055C317.821 186.295 317.957 186.512 318.119 186.702C318.797 187.501 319.923 187.838 320.967 187.465C322.315 186.981 323.017 185.494 322.535 184.145Z" fill="#7599FD"/>
<path fill-rule="evenodd" clip-rule="evenodd" d="M318.24 184.439L317.62 184.245C317.854 183.494 318.425 182.86 319.221 182.575C319.483 182.48 319.751 182.431 320.017 182.423L320.036 183.074C319.837 183.078 319.637 183.117 319.439 183.185C318.843 183.399 318.415 183.877 318.24 184.439Z" fill="#7599FD"/>
<path fill-rule="evenodd" clip-rule="evenodd" d="M318.311 185.796L317.717 186.055L317.654 185.894C317.455 185.342 317.456 184.766 317.62 184.245L318.24 184.439C318.117 184.829 318.116 185.26 318.264 185.674L318.311 185.796Z" fill="#7599FD"/>
<path fill-rule="evenodd" clip-rule="evenodd" d="M318.119 186.702C317.957 186.512 317.821 186.295 317.717 186.055L318.311 185.796C318.391 185.976 318.492 186.138 318.614 186.281L318.119 186.702Z" fill="#7599FD"/>
<path fill-rule="evenodd" clip-rule="evenodd" d="M121.929 121.241H126.509V104.366H121.929V121.241Z" fill="#9AB6FF"/>
<path fill-rule="evenodd" clip-rule="evenodd" d="M128.447 121.241H133.026V102.664H128.447V121.241Z" fill="#9AB6FF"/>
<path fill-rule="evenodd" clip-rule="evenodd" d="M135.051 121.241H139.631V106.199H135.051V121.241Z" fill="#9AB6FF"/>
<path fill-rule="evenodd" clip-rule="evenodd" d="M141.656 121.241H146.236V99.2275H141.656V121.241Z" fill="#9AB6FF"/>
<path fill-rule="evenodd" clip-rule="evenodd" d="M148.587 121.241H153.167V101.42H148.587V121.241Z" fill="#9AB6FF"/>
<path fill-rule="evenodd" clip-rule="evenodd" d="M113.907 145.215C113.907 145.215 121.297 146.537 121.362 152.806C121.428 159.075 115.702 168.155 111.98 167.483C108.259 166.811 104.026 163.502 104.169 159.688C104.313 155.875 105.368 150.864 107.084 148.114C108.799 145.365 111.842 145.079 113.907 145.215Z" fill="#FDD5CF"/>
<path fill-rule="evenodd" clip-rule="evenodd" d="M104.427 156.785C104.427 156.785 104.441 158.064 106.983 159.077C109.525 160.091 114.194 158.672 115.367 158.907C116.539 159.142 116.887 158.576 116.887 158.576L116.968 159.827L117.962 160.503C117.962 160.503 118.659 157.172 120.746 156.882C122.834 156.592 124.575 147.032 115.571 145.223C115.571 145.223 108.906 143.409 107.187 146.798C105.467 150.186 104.105 154.399 104.427 156.785Z" fill="#38336C"/>
<path fill-rule="evenodd" clip-rule="evenodd" d="M130.591 191.494C130.591 191.494 132.567 190.471 134.892 189.59C136.932 188.818 139.454 188.268 139.728 188.62C140.337 189.4 137.958 189.95 135.98 190.848C134.159 191.673 134.472 191.541 134.472 191.541C134.472 191.541 134.337 191.496 136.478 190.968C138.781 190.4 141.186 190.044 141.493 190.475C141.642 190.686 141.91 191.418 140.945 191.387C141.447 191.289 141.369 191.212 141.418 191.412C141.676 192.451 138.395 193.801 137.093 194.336C138.096 193.931 138.87 193.736 138.6 194.498C138.293 195.371 133.58 197.077 131.942 197.844C130.156 198.68 130.591 191.494 130.591 191.494Z" fill="#FDD5CF"/>
<path fill-rule="evenodd" clip-rule="evenodd" d="M95.5927 163.676C95.5927 163.676 90.9755 163.341 87.7167 163.676C84.458 164.009 79.9545 166.681 77.2291 167.452C74.5036 168.224 67.926 172.651 68.1041 173.257C68.2812 173.862 70.8296 181.067 75.5401 186.921C79.5715 191.929 95.5927 163.676 95.5927 163.676Z" fill="#C0D1FD"/>
<path fill-rule="evenodd" clip-rule="evenodd" d="M89.4014 277.448C89.4014 277.448 90.8242 278.962 91.6461 279.363C92.4681 279.764 102.288 281.455 102.956 282.256C103.622 283.058 103.622 286.218 101.089 286.218C98.5563 286.218 90.1128 286.173 88.69 286.218C87.2682 286.262 81.2615 287.465 80.6434 286.218C80.0254 284.972 80.0822 279.155 81.1799 277.761C82.2787 276.366 89.4014 277.448 89.4014 277.448Z" fill="#718BD1"/>
<path fill-rule="evenodd" clip-rule="evenodd" d="M89.0988 275.681L89.4014 277.448C89.4014 277.448 86.78 278.65 81.1799 277.761V275.935L89.0988 275.681Z" fill="#1E41A3"/>
<path fill-rule="evenodd" clip-rule="evenodd" d="M29.4574 272.552C29.4574 272.552 28.3575 273.833 27.8124 275.491C27.4648 276.552 25.8134 281.501 26.5237 282.702C27.2352 283.905 32.8341 284.082 35.6336 283.637C38.4331 283.192 44.5214 284.126 45.1438 282.926C45.7661 281.723 46.1213 279.97 44.2993 279.289C42.4773 278.607 38.3001 276.826 37.5447 274.956C36.7893 273.087 29.4574 272.552 29.4574 272.552Z" fill="#718BD1"/>
<path fill-rule="evenodd" clip-rule="evenodd" d="M38.3215 272.954L37.5446 274.956C37.5446 274.956 29.5238 274.354 29.4573 272.553L31.9896 268.858L38.3215 272.954Z" fill="#1E41A3"/>
<path fill-rule="evenodd" clip-rule="evenodd" d="M104.181 160.265C104.181 160.265 99.7098 164.069 98.4372 163.758C97.1646 163.447 102.823 171.804 102.823 171.804C102.823 171.804 108.209 166.493 109.423 166.332C110.635 166.171 104.181 160.265 104.181 160.265Z" fill="#FDD5CF"/>
<path fill-rule="evenodd" clip-rule="evenodd" d="M104.485 175.285C102.962 176.208 102.707 176.503 102.885 180.866C103.062 185.228 104.869 188.744 105.002 189.946C105.136 191.148 107.555 203.07 108.221 203.737C108.888 204.405 116.855 202.85 118.466 202.35C120.878 201.601 131.087 198.137 131.087 198.137L128.841 193.447C128.841 193.447 115.954 196.326 115.539 195.317C115.125 194.309 114.116 185.835 113.76 183.995C113.405 182.155 114.024 179.263 111.83 174.898C109.865 170.99 104.485 175.285 104.485 175.285Z" fill="#C0D1FD"/>
<path fill-rule="evenodd" clip-rule="evenodd" d="M89.3735 209.031C89.3735 209.031 92.1043 211.941 92.8694 212.887C98.1014 219.364 105.224 231.257 106.113 233.335C107.001 235.411 101.71 250.102 99.536 255.235C98.3954 257.927 90.8553 276.469 91.0924 276.884C91.3296 277.3 83.1156 277.574 79.4416 275.675C79.4416 275.675 84.7241 259.999 85.8357 256.926C87.5172 252.285 93.3426 239.43 93.5207 238.184C93.6977 236.937 84.1017 226.659 80.902 224.701C77.7023 222.741 69.8821 215.797 68.9926 214.907C68.1041 214.017 63.0674 211.642 63.5417 207.131C64.016 202.621 67.3627 199.06 67.3627 199.06L89.3735 209.031Z" fill="#1E41A3"/>
<path fill-rule="evenodd" clip-rule="evenodd" d="M75.0154 220.19C75.0154 220.19 74.5154 221.507 73.8136 223.355C72.3061 227.319 69.8714 233.719 69.4658 234.731C68.8745 236.215 65.9109 242.625 64.4891 243.873C63.0663 245.118 39.6638 273.251 39.6027 273.488C39.5447 273.725 30.834 269.214 30.3018 267.492C30.3018 267.492 42.9805 250.933 44.9356 248.501C46.8917 246.067 50.9799 242.447 52.3426 236.689C53.7064 230.933 63.4794 208.794 63.5095 207.962C63.5095 207.962 65.0825 201.138 67.3627 199.06C69.6439 196.983 77.9394 199.416 79.2431 203.748C80.5468 208.083 75.0154 220.19 75.0154 220.19Z" fill="#1E41A3"/>
<path fill-rule="evenodd" clip-rule="evenodd" d="M98.0327 163.718L99.9223 162.971C99.9223 162.971 104.692 164.069 107.446 167.897L107.21 169.042C107.21 169.042 99.9362 167.462 98.0327 163.718Z" fill="#8CA6EB"/>
<path fill-rule="evenodd" clip-rule="evenodd" d="M75.0155 220.19C75.0155 220.19 74.5154 221.507 73.8137 223.355C72.2213 221.518 68.5859 214.578 68.5859 214.578C68.8231 214.748 69.5838 215.462 69.7598 215.62C69.9336 215.782 75.0155 220.19 75.0155 220.19Z" fill="#142C6F"/>
<path fill-rule="evenodd" clip-rule="evenodd" d="M115.718 158.344C115.887 157.8 115.481 155.721 114.156 156.904C112.832 158.088 112.837 160.74 113.585 160.956C114.333 161.173 115.293 159.723 115.718 158.344Z" fill="#FDD5CF"/>
<path fill-rule="evenodd" clip-rule="evenodd" d="M105.315 191.585C104.932 192.121 104.622 192.502 104.425 192.676C104.289 192.793 104.126 192.93 103.938 193.084L103.934 193.086C102.125 194.536 98.0649 197.354 96.1893 198.374C94.1151 199.504 90.1825 209.005 90.1825 209.005C90.1825 209.005 71.629 207.752 67.3627 198.138C67.3627 198.138 70.3854 191.371 73.1409 187.366C75.8953 183.359 81.9385 168.935 85.1383 166.889C88.338 164.841 91.0935 163.504 97.4039 163.684C103.714 163.862 107.21 168.877 107.21 168.877C107.21 168.877 112.01 174.041 112.483 176.771C112.892 179.119 107.681 188.283 105.315 191.585Z" fill="#C0D1FD"/>
</svg>
