<svg width="49" height="40" viewBox="0 0 49 40" fill="none" xmlns="http://www.w3.org/2000/svg">
<rect x="5.08508" y="4.10254" width="39.8298" height="2.5641" fill="#D8E7FF"/>
<path fill-rule="evenodd" clip-rule="evenodd" d="M8.40066 26.5878H41.6616V7.30268H8.40066V26.5878ZM41.9935 27.2545H8.06875C7.88492 27.2545 7.73633 27.1052 7.73633 26.9211V6.96934C7.73633 6.78473 7.88492 6.6355 8.06875 6.6355H41.9935C42.1774 6.6355 42.3259 6.78473 42.3259 6.96934V26.9211C42.3259 27.1052 42.1774 27.2545 41.9935 27.2545Z" fill="#4C71DD"/>
<path fill-rule="evenodd" clip-rule="evenodd" d="M5.49514 6.63544H44.5636V4.43134H5.49514V6.63544ZM44.8955 7.30262H5.16273C4.97941 7.30262 4.83081 7.15339 4.83081 6.96929V4.09749C4.83081 3.91339 4.97941 3.76416 5.16273 3.76416H44.8955C45.0788 3.76416 45.2274 3.91339 45.2274 4.09749V6.96929C45.2274 7.15339 45.0788 7.30262 44.8955 7.30262Z" fill="#4C71DD"/>
<rect x="31.6383" y="11.7949" width="2.55319" height="11.7949" fill="#D8E7FF"/>
<rect x="27.5531" y="13.3335" width="2.55319" height="10.2564" fill="#D8E7FF"/>
<rect x="23.9786" y="14.8718" width="2.04255" height="8.71795" fill="#D8E7FF"/>
<rect x="19.8936" y="16.9231" width="2.04255" height="6.66667" fill="#D8E7FF"/>
<rect x="16.3191" y="18.9744" width="2.04255" height="4.61539" fill="#D8E7FF"/>
<path fill-rule="evenodd" clip-rule="evenodd" d="M31.9686 23.5276H33.6869V12.0451H31.9686V23.5276ZM34.0189 24.1948H31.6367C31.4534 24.1948 31.3048 24.0456 31.3048 23.861V11.7118C31.3048 11.5276 31.4534 11.3784 31.6367 11.3784H34.0189C34.2022 11.3784 34.3513 11.5276 34.3513 11.7118V23.861C34.3513 24.0456 34.2022 24.1948 34.0189 24.1948Z" fill="#4C71DD"/>
<path fill-rule="evenodd" clip-rule="evenodd" d="M28.0705 23.5277H29.7877V13.5493H28.0705V23.5277ZM30.1197 24.1949H27.738C27.5547 24.1949 27.4061 24.0457 27.4061 23.8611V13.2159C27.4061 13.0313 27.5547 12.8821 27.738 12.8821H30.1197C30.3035 12.8821 30.4521 13.0313 30.4521 13.2159V23.8611C30.4521 24.0457 30.3035 24.1949 30.1197 24.1949Z" fill="#4C71DD"/>
<path fill-rule="evenodd" clip-rule="evenodd" d="M24.1731 23.5279H25.8904V15.0156H24.1731V23.5279ZM26.2228 24.1951H23.8407C23.6574 24.1951 23.5088 24.0458 23.5088 23.8612V14.6822C23.5088 14.4981 23.6574 14.3484 23.8407 14.3484H26.2228C26.4062 14.3484 26.5547 14.4981 26.5547 14.6822V23.8612C26.5547 24.0458 26.4062 24.1951 26.2228 24.1951Z" fill="#4C71DD"/>
<path fill-rule="evenodd" clip-rule="evenodd" d="M20.2739 23.5277H21.9917V17.0554H20.2739V23.5277ZM22.3242 24.1949H19.942C19.7582 24.1949 19.6096 24.0456 19.6096 23.861V16.7215C19.6096 16.5374 19.7582 16.3882 19.942 16.3882H22.3242C22.5075 16.3882 22.6561 16.5374 22.6561 16.7215V23.861C22.6561 24.0456 22.5075 24.1949 22.3242 24.1949Z" fill="#4C71DD"/>
<path fill-rule="evenodd" clip-rule="evenodd" d="M16.3752 23.5278H18.093V19.1796H16.3752V23.5278ZM18.425 24.195H16.0433C15.86 24.195 15.7114 24.0458 15.7114 23.8611V18.8463C15.7114 18.6622 15.86 18.5129 16.0433 18.5129H18.425C18.6083 18.5129 18.7569 18.6622 18.7569 18.8463V23.8611C18.7569 24.0458 18.6083 24.195 18.425 24.195Z" fill="#4C71DD"/>
<path fill-rule="evenodd" clip-rule="evenodd" d="M35.6382 25.6755H14.4242C14.2409 25.6755 14.0923 25.5262 14.0923 25.3421C14.0923 25.158 14.2409 25.0088 14.4242 25.0088H35.6382C35.8215 25.0088 35.9701 25.158 35.9701 25.3421C35.9701 25.5262 35.8215 25.6755 35.6382 25.6755Z" fill="#4C71DD"/>
<path fill-rule="evenodd" clip-rule="evenodd" d="M16.049 17.0601C15.9126 17.0601 15.785 16.9754 15.7364 16.839C15.6741 16.6662 15.764 16.4749 15.9366 16.4129C16.0255 16.3801 24.8998 13.136 28.7919 8.58519C28.9119 8.4457 29.1208 8.4298 29.2602 8.5498C29.3991 8.6698 29.4149 8.88006 29.2954 9.02006C25.2884 13.7047 16.532 16.9062 16.1608 17.0401C16.124 17.0534 16.0862 17.0601 16.049 17.0601Z" fill="#4C71DD"/>
<path fill-rule="evenodd" clip-rule="evenodd" d="M24.0747 3.76417H25.9891V2.06776C25.9891 1.53647 25.5581 1.10417 25.0286 1.10417C24.5021 1.10417 24.0747 1.53647 24.0747 2.06776V3.76417ZM26.321 4.43135H23.7423C23.559 4.43135 23.4104 4.28212 23.4104 4.0975V2.06776C23.4104 1.16878 24.1365 0.4375 25.0286 0.4375C25.9243 0.4375 26.653 1.16878 26.653 2.06776V4.0975C26.653 4.28212 26.5044 4.43135 26.321 4.43135Z" fill="#4C71DD"/>
<path d="M24.8715 31.2363C25.6139 31.2363 26.353 31.4494 26.4442 31.2363C26.4743 31.166 26.4442 30.9986 26.4442 30.8582C26.4442 30.2918 25.2211 29.7437 24.234 29.7437C23.247 29.7437 23.1382 30.0235 22.655 30.5681C22.5001 30.7426 22.3967 31.7262 22.655 31.7949C23.1561 31.9283 24.2201 31.2363 24.8715 31.2363Z" fill="#D8E7FF"/>
<path d="M14.0972 31.2363C14.8396 31.2363 15.5787 31.4494 15.6699 31.2363C15.7 31.166 15.6699 30.9986 15.6699 30.8582C15.6699 30.2918 14.4468 29.7437 13.4597 29.7437C12.4727 29.7437 12.3639 30.0235 11.8807 30.5681C11.7258 30.7426 11.6224 31.7262 11.8807 31.7949C12.3818 31.9283 13.4458 31.2363 14.0972 31.2363Z" fill="#D8E7FF"/>
<path d="M36.5652 31.2363C37.3076 31.2363 38.0467 31.4494 38.1379 31.2363C38.168 31.166 38.1379 30.9986 38.1379 30.8582C38.1379 30.2918 36.9148 29.7437 35.9278 29.7437C34.9407 29.7437 34.832 30.0235 34.3487 30.5681C34.1938 30.7426 34.0904 31.7262 34.3487 31.7949C34.8498 31.9283 35.9138 31.2363 36.5652 31.2363Z" fill="#D8E7FF"/>
<path fill-rule="evenodd" clip-rule="evenodd" d="M11.6539 31.5607C12.4245 31.7089 13.1777 31.4007 13.6342 30.7863C13.6883 30.714 13.769 30.6663 13.8584 30.655C13.9472 30.6422 14.0381 30.6699 14.1081 30.7263C14.4768 31.0238 14.9542 31.1766 15.4061 31.175C15.0793 30.5038 14.3935 30.0412 13.601 30.0412C12.6645 30.0412 11.8756 30.6884 11.6539 31.5607ZM11.5998 32.2279C11.6861 33.2581 12.5506 34.0699 13.601 34.0699C14.7086 34.0699 15.6088 33.1674 15.6088 32.0581C15.6088 31.9812 15.6052 31.9063 15.5966 31.8315C15.0083 31.8848 14.444 31.7386 13.9569 31.4345C13.36 32.0663 12.4883 32.3751 11.5998 32.2279ZM13.6011 34.7366C12.1274 34.7366 10.9284 33.535 10.9284 32.0581C10.9284 30.5781 12.1274 29.374 13.6011 29.374C15.0748 29.374 16.2732 30.5781 16.2732 32.0581C16.2732 33.535 15.0748 34.7366 13.6011 34.7366ZM22.5822 31.5602C23.3497 31.7104 24.1161 31.3925 24.567 30.7863C24.6211 30.714 24.7018 30.6663 24.7917 30.6551C24.877 30.6422 24.9709 30.6699 25.0409 30.7263C25.4126 31.0268 25.8426 31.1751 26.3338 31.1751C26.0075 30.5038 25.3207 30.0412 24.5282 30.0412C23.5917 30.0412 22.8028 30.6879 22.5822 31.5602ZM22.527 32.2279C22.6133 33.2581 23.4783 34.0699 24.5282 34.0699C25.6357 34.0699 26.5365 33.1674 26.5365 32.0581C26.5365 31.9817 26.5324 31.9063 26.5237 31.832C25.9452 31.8833 25.3743 31.7381 24.8892 31.434C24.2907 32.0607 23.4063 32.3756 22.527 32.2279ZM24.5282 34.7366C23.0545 34.7366 21.856 33.535 21.856 32.0581C21.856 30.5781 23.0545 29.374 24.5282 29.374C25.7511 29.374 26.7847 30.2033 27.1007 31.3315C27.1084 31.3504 27.1145 31.3699 27.1181 31.3904C27.1196 31.3976 27.1212 31.4043 27.1222 31.412C27.1733 31.6186 27.2008 31.835 27.2008 32.0581C27.2008 33.535 26.0019 34.7366 24.5282 34.7366ZM34.3891 31.5607C35.1484 31.7074 35.9113 31.4022 36.3694 30.7863C36.423 30.714 36.5037 30.6663 36.593 30.655C36.6819 30.6422 36.7733 30.6699 36.8427 30.7263C37.2114 31.0238 37.6914 31.1766 38.1408 31.175C37.8145 30.5038 37.1282 30.0412 36.3357 30.0412C35.3992 30.0412 34.6102 30.6884 34.3891 31.5607ZM34.3344 32.2284C34.4207 33.2586 35.2858 34.0699 36.3356 34.0699C37.4432 34.0699 38.344 33.1674 38.344 32.0581C38.344 31.9812 38.3399 31.9063 38.3312 31.8315C37.743 31.8848 37.1792 31.7386 36.6916 31.4345C36.0941 32.0674 35.2122 32.3745 34.3344 32.2284ZM36.3356 34.7366C34.8619 34.7366 33.6634 33.535 33.6634 32.0581C33.6634 30.5781 34.8619 29.374 36.3356 29.374C37.8093 29.374 39.0083 30.5781 39.0083 32.0581C39.0083 33.535 37.8093 34.7366 36.3356 34.7366ZM17.9573 39.8781C17.774 39.8781 17.6254 39.7289 17.6254 39.5443V38.0079C17.6254 36.8104 16.6557 35.8366 15.4638 35.8366H11.8633C10.6715 35.8366 9.7023 36.8104 9.7023 38.0079V39.5443C9.7023 39.7289 9.55371 39.8781 9.37039 39.8781C9.18656 39.8781 9.03796 39.7289 9.03796 39.5443V38.0079C9.03796 36.4427 10.3059 35.1694 11.8633 35.1694H15.4638C17.0218 35.1694 18.2892 36.4427 18.2892 38.0079V39.5443C18.2892 39.7289 18.1406 39.8781 17.9573 39.8781ZM28.8845 39.8781C28.7012 39.8781 28.5526 39.7289 28.5526 39.5443V38.0079C28.5526 36.8104 27.5834 35.8366 26.3915 35.8366H22.7921C21.5997 35.8366 20.6295 36.8104 20.6295 38.0079V39.5443C20.6295 39.7289 20.4809 39.8781 20.2976 39.8781C20.1143 39.8781 19.9657 39.7289 19.9657 39.5443V38.0079C19.9657 36.4427 21.2336 35.1694 22.7921 35.1694H26.3915C27.949 35.1694 29.2169 36.4427 29.2169 38.0079V39.5443C29.2169 39.7289 29.0683 39.8781 28.8845 39.8781ZM40.692 39.8781C40.5086 39.8781 40.36 39.7289 40.36 39.5443V38.0079C40.36 36.8104 39.3908 35.8366 38.199 35.8366H34.5995C33.4072 35.8366 32.437 36.8104 32.437 38.0079V39.5443C32.437 39.7289 32.2884 39.8781 32.1051 39.8781C31.9217 39.8781 31.7731 39.7289 31.7731 39.5443V38.0079C31.7731 36.4427 33.0411 35.1694 34.5995 35.1694H38.199C39.7565 35.1694 41.0244 36.4427 41.0244 38.0079V39.5443C41.0244 39.7289 40.8758 39.8781 40.692 39.8781Z" fill="#4C71DD"/>
<path fill-rule="evenodd" clip-rule="evenodd" d="M2.45739 28.4154L4.87082 30.9252L5.66375 27.731L2.45739 28.4154ZM4.59827 29.9034L3.46475 28.7246L4.97069 28.4032L4.59827 29.9034Z" fill="#4C71DD"/>
<path fill-rule="evenodd" clip-rule="evenodd" d="M0.5324 9.84545L1.42182 13.7236L4.19984 11.0356L0.5324 9.84545ZM1.71773 12.7258L1.23286 10.6115L3.2322 11.2603L1.71773 12.7258Z" fill="#4C71DD"/>
<path fill-rule="evenodd" clip-rule="evenodd" d="M44.8656 22.3575L46.7562 25.2822L48.1439 22.2977L44.8656 22.3575ZM46.6836 24.2269L45.7957 22.8532L47.3354 22.8252L46.6836 24.2269Z" fill="#4C71DD"/>
<path fill-rule="evenodd" clip-rule="evenodd" d="M41.8175 30.6563L43.2684 33.2867L44.5106 30.8755L41.8175 30.6563ZM43.2537 32.2L42.7267 31.2447L43.7048 31.3243L43.2537 32.2Z" fill="#4C71DD"/>
</svg>
