<svg width="51" height="48" viewBox="0 0 51 48" fill="none" xmlns="http://www.w3.org/2000/svg">
<path d="M24.6924 28.0921C26.4767 28.0921 27.9232 26.6409 27.9232 24.8508C27.9232 23.0606 26.4767 21.6094 24.6924 21.6094C22.9081 21.6094 21.4617 23.0606 21.4617 24.8508C21.4617 26.6409 22.9081 28.0921 24.6924 28.0921Z" fill="#D8E7FF"/>
<path fill-rule="evenodd" clip-rule="evenodd" d="M38.6924 25.1208C38.6924 33.0273 32.4244 39.4369 24.6924 39.4369C16.9604 39.4369 10.6924 33.0273 10.6924 25.1208C10.6924 17.2142 16.9604 10.8047 24.6924 10.8047C32.4244 10.8047 38.6924 17.2142 38.6924 25.1208ZM35.4616 25.1208C35.4616 30.9388 30.7606 35.6553 24.9616 35.6553C19.1626 35.6553 14.4616 30.9388 14.4616 25.1208C14.4616 19.3027 19.1626 14.5863 24.9616 14.5863C30.7606 14.5863 35.4616 19.3027 35.4616 25.1208Z" fill="#D8E7FF"/>
<path fill-rule="evenodd" clip-rule="evenodd" d="M24.7608 43.1499C14.7772 43.1499 6.65503 35.0032 6.65503 24.99C6.65503 14.9731 14.7772 6.82373 24.7608 6.82373C29.1907 6.82373 33.4602 8.45252 36.7825 11.4097C36.9273 11.5383 36.9403 11.7609 36.8121 11.9057C36.6834 12.0505 36.4621 12.0634 36.3178 11.9354C33.1236 9.09216 29.0195 7.52657 24.7608 7.52657C15.1633 7.52657 7.35557 15.3604 7.35557 24.99C7.35557 34.6159 15.1633 42.447 24.7608 42.447C34.3551 42.447 42.1606 34.6159 42.1606 24.99C42.1606 20.7865 40.6556 16.7348 37.9186 13.5604C37.854 13.5409 37.7943 13.5037 37.7474 13.4486C37.6236 13.2995 37.6424 13.0785 37.7905 12.9537L37.833 12.9175C37.979 12.796 38.1938 12.8116 38.3209 12.9543C41.2485 16.2778 42.8612 20.5521 42.8612 24.99C42.8612 35.0032 34.7412 43.1499 24.7608 43.1499Z" fill="#4C71DD"/>
<path d="M43.2869 1.18481L44.326 5.18738L48.5821 6.53579C48.5821 6.53579 45.0363 9.74227 44.6867 10.1206C43.9585 10.9087 40.3077 9.53623 40.3077 9.53623L39.4524 5.18738L43.2869 1.18481Z" fill="#D8E7FF"/>
<path fill-rule="evenodd" clip-rule="evenodd" d="M40.4295 9.28879L43.4088 10.0132C43.5859 10.064 43.7518 10.0878 43.9165 10.0878C44.3775 10.0878 44.819 9.89925 45.1593 9.55728L48.2382 6.46879L44.4475 5.52014C44.3215 5.48827 44.2235 5.39049 44.1922 5.26408L43.2467 1.45978L40.1678 4.54827C39.695 5.02205 39.5281 5.65736 39.7085 6.29051L40.4295 9.28879ZM43.9165 10.7901C43.6872 10.7901 43.4562 10.7571 43.23 10.6923L40.0563 9.92086C39.9292 9.89006 39.8291 9.79012 39.7989 9.66209L39.0316 6.46933C38.7866 5.61036 39.0252 4.70116 39.6724 4.05126L43.1891 0.524639C43.2785 0.435501 43.4077 0.399306 43.5299 0.434961C43.6516 0.468455 43.7458 0.565156 43.776 0.687788L44.8206 4.8897L49.0077 5.9372C49.1305 5.968 49.2263 6.06254 49.2602 6.18409C49.2936 6.30618 49.2597 6.43691 49.1708 6.52659L45.6547 10.0538C45.1819 10.5281 44.5643 10.7901 43.9165 10.7901Z" fill="#4C71DD"/>
<path fill-rule="evenodd" clip-rule="evenodd" d="M24.7608 39.8533C16.588 39.8533 9.93909 33.1858 9.93909 24.99C9.93909 16.7904 16.588 10.1196 24.7608 10.1196C28.3055 10.1196 31.7328 11.394 34.4116 13.7078C34.5581 13.8337 34.5748 14.0563 34.4482 14.2027C34.3228 14.3502 34.1004 14.3675 33.955 14.2394C31.4032 12.0358 28.1375 10.8225 24.7608 10.8225C16.9741 10.8225 10.6391 17.1777 10.6391 24.99C10.6391 32.7985 16.9741 39.151 24.7608 39.151C32.5448 39.151 38.8771 32.7985 38.8771 24.99C38.8771 21.6276 37.686 18.3706 35.523 15.818C35.3981 15.6705 35.4159 15.449 35.5629 15.3231C35.7099 15.1978 35.9301 15.2151 36.0561 15.3631C38.3268 18.0421 39.5776 21.4612 39.5776 24.99C39.5776 33.1858 32.9309 39.8533 24.7608 39.8533Z" fill="#4C71DD"/>
<path fill-rule="evenodd" clip-rule="evenodd" d="M24.7607 36.2468C18.5738 36.2468 13.5403 31.1967 13.5403 24.99C13.5403 18.7828 18.5738 13.7322 24.7607 13.7322C27.3831 13.7322 29.9321 14.6587 31.939 16.3404C32.0871 16.4652 32.107 16.6867 31.9831 16.8353C31.8593 16.9838 31.638 17.0038 31.4899 16.8796C29.6091 15.3026 27.2194 14.435 24.7607 14.435C18.9599 14.435 14.2408 19.1696 14.2408 24.99C14.2408 30.8094 18.9599 35.544 24.7607 35.544C30.5616 35.544 35.2812 30.8094 35.2812 24.99C35.2812 22.5212 34.4143 20.1188 32.8387 18.2269C32.7144 18.0783 32.7348 17.8568 32.8829 17.732C33.031 17.6083 33.2517 17.6278 33.3761 17.7763C35.0561 19.7952 35.9817 22.3569 35.9817 24.99C35.9817 31.1967 30.9477 36.2468 24.7607 36.2468Z" fill="#4C71DD"/>
<path fill-rule="evenodd" clip-rule="evenodd" d="M24.7608 32.5483C20.6033 32.5483 17.2207 29.1579 17.2207 24.99C17.2207 20.8183 20.6033 17.4241 24.7608 17.4241C26.4472 17.4241 28.1014 17.9994 29.4185 19.0442C29.5703 19.1647 29.5956 19.3851 29.4761 19.5375C29.3565 19.6898 29.1352 19.7157 28.9845 19.5947C27.7907 18.6482 26.2905 18.1269 24.7608 18.1269C20.9894 18.1269 17.9212 21.2057 17.9212 24.99C17.9212 28.7705 20.9894 31.8455 24.7608 31.8455C28.5295 31.8455 31.5949 28.7705 31.5949 24.99C31.5949 23.4098 31.0753 21.9236 30.0905 20.6935C29.9699 20.5417 29.9941 20.3208 30.1443 20.1998C30.2951 20.0782 30.5159 20.1031 30.6365 20.2533C31.722 21.6103 32.2955 23.2478 32.2955 24.99C32.2955 29.1579 28.9155 32.5483 24.7608 32.5483Z" fill="#4C71DD"/>
<path fill-rule="evenodd" clip-rule="evenodd" d="M44.8206 4.88914L45.652 5.09605L47.2453 3.49697C47.5452 3.19498 47.5452 2.75685 47.2453 2.45487C46.954 2.1626 46.4995 2.1626 46.2082 2.45487L44.6144 4.05503L44.8206 4.88914ZM45.7597 5.83617C45.7317 5.83617 45.7037 5.83238 45.6757 5.82536L44.4475 5.52013C44.3215 5.4888 44.2229 5.39048 44.1922 5.26352L43.8869 4.03126C43.8579 3.91187 43.8923 3.78545 43.979 3.69848L45.7129 1.9584C46.268 1.40142 47.185 1.40088 47.7407 1.95894C48.3174 2.53806 48.3174 3.41269 47.7407 3.99344L46.0074 5.73298C45.9406 5.79943 45.8512 5.83617 45.7597 5.83617ZM39.6471 9.03217C31.2439 17.4814 27.3185 21.9491 25.8339 23.9263C27.9049 22.3602 32.6433 18.135 40.6933 10.077L40.0558 9.92084C39.9287 9.88951 39.8291 9.78957 39.7989 9.66207L39.6471 9.03217ZM24.5034 25.2277C24.4199 25.137 24.3898 25.0089 24.4253 24.8901C24.7446 23.8069 28.8967 18.8255 39.5932 8.09217C39.6826 8.00249 39.814 7.96953 39.9357 8.00249C40.0574 8.03706 40.1511 8.13538 40.1812 8.25856L40.4295 9.28931L41.4633 9.54322C41.5866 9.57402 41.6835 9.66802 41.7175 9.79011C41.7519 9.9122 41.7175 10.0435 41.6281 10.1332C32.6891 19.1021 26.0956 25.0683 24.8324 25.3341C24.8087 25.3385 24.7845 25.3412 24.7608 25.3412C24.6639 25.3412 24.5702 25.3006 24.5034 25.2277Z" fill="#4C71DD"/>
<path fill-rule="evenodd" clip-rule="evenodd" d="M24.7608 22.2036C23.2294 22.2036 21.9845 23.4531 21.9845 24.9901C21.9845 26.5227 23.2294 27.769 24.7608 27.769C26.2922 27.769 27.5371 26.5227 27.5371 24.9901C27.5371 24.5374 27.4316 24.1009 27.2286 23.7103C25.3795 25.2191 24.9853 25.3018 24.8324 25.3342C24.7123 25.358 24.5879 25.3191 24.5045 25.2289C24.421 25.1392 24.3903 25.0122 24.4242 24.8939C24.4959 24.6411 24.7462 24.1214 26.0493 22.5201C25.6546 22.3122 25.2158 22.2036 24.7608 22.2036ZM24.7608 28.4719C22.8433 28.4719 21.2839 26.9101 21.2839 24.9901C21.2839 23.0658 22.8433 21.5007 24.7608 21.5007C25.4899 21.5007 26.1872 21.7244 26.7773 22.1468C26.8565 22.2041 26.9082 22.2911 26.9211 22.3872C26.9335 22.4845 26.9049 22.5823 26.843 22.6568C26.4209 23.1684 26.0999 23.5758 25.856 23.8994C26.1769 23.6573 26.5824 23.337 27.0934 22.9129C27.1688 22.8508 27.2652 22.8221 27.3621 22.8356C27.4585 22.8481 27.5452 22.9005 27.6012 22.9799C28.0174 23.566 28.2376 24.2608 28.2376 24.9901C28.2376 26.9101 26.6782 28.4719 24.7608 28.4719Z" fill="#4C71DD"/>
<path d="M32.6872 43.1356L33.7342 46.7381L30.0769 45.8233L32.6872 43.1356Z" stroke="#4C71DD"/>
<path fill-rule="evenodd" clip-rule="evenodd" d="M13.4138 5.59816L17.7738 6.68879L16.4635 2.64404L13.4138 5.59816ZM16.2666 5.28094L15.4019 5.06464L16.0067 4.47876L16.2666 5.28094Z" fill="#4C71DD"/>
<path d="M4.63327 28.912L3.61841 32.5238L1.00008 29.8036L4.63327 28.912Z" stroke="#4C71DD"/>
<path d="M46.335 19.6965L46.968 23.3949L49.8554 20.9642L46.335 19.6965Z" stroke="#4C71DD"/>
</svg>
