<svg width="50" height="42" viewBox="0 0 50 42" fill="none" xmlns="http://www.w3.org/2000/svg">
<path fill-rule="evenodd" clip-rule="evenodd" d="M5.58508 21.2626C5.58508 32.5706 14.8728 41.7376 26.3298 41.7376C37.7867 41.7376 47.0744 32.5706 47.0744 21.2626C47.0744 9.95457 37.7867 0.787598 26.3298 0.787598C14.8728 0.787598 5.58508 9.95457 5.58508 21.2626ZM43.351 21.2626C43.351 30.541 35.7304 38.0626 26.3298 38.0626C16.9292 38.0626 9.30849 30.541 9.30849 21.2626C9.30849 11.9842 16.9292 4.4626 26.3298 4.4626C35.7304 4.4626 43.351 11.9842 43.351 21.2626Z" fill="#D8E7FF"/>
<path d="M26.0638 13.6501H27.1276C27.1276 13.6501 27.3098 16.9907 27.5821 18.6109C27.8544 20.231 28.4626 20.035 28.3563 20.9616C28.3299 21.1924 31.311 23.8667 33.3228 26.784C33.7162 27.3544 32.6313 27.549 32.6313 27.549L27.1276 22.5751H26.0638C26.0638 22.5751 24.7831 21.7347 24.7831 20.8551C24.7831 20.6479 24.9999 20.2373 25.7262 18.6109C26.0345 17.9204 26.0638 13.6501 26.0638 13.6501Z" fill="#D8E7FF"/>
<path fill-rule="evenodd" clip-rule="evenodd" d="M26.1043 1.0778C14.8782 1.0778 5.74579 10.0936 5.74579 21.1759C5.74579 32.2534 14.8782 41.265 26.1043 41.265C37.3298 41.265 46.4628 32.2534 46.4628 21.1759C46.4628 10.0936 37.3298 1.0778 26.1043 1.0778ZM26.1043 41.9475C14.4969 41.9475 5.05432 32.6292 5.05432 21.1758C5.05432 9.7172 14.4969 0.394775 26.1043 0.394775C37.7112 0.394775 47.1538 9.7172 47.1538 21.1758C47.1538 32.6292 37.7112 41.9475 26.1043 41.9475Z" fill="#4C71DD"/>
<path fill-rule="evenodd" clip-rule="evenodd" d="M25.1644 37.5024C25.1686 37.5024 25.1729 37.5024 25.1772 37.5024C25.4883 37.5182 25.7889 37.5355 26.117 37.5266C26.2282 37.5266 26.3442 37.5266 26.4601 37.5224C26.6506 37.5177 26.8405 37.5114 27.0266 37.5024C27.0702 37.5009 27.1139 37.5056 27.1543 37.5203C31.1479 37.272 34.9133 35.6051 37.7702 32.8173L37.808 32.7801C37.816 32.7711 37.8601 32.7281 37.8692 32.7202C37.8857 32.7071 37.9022 32.6919 37.9155 32.6756C40.758 29.8317 42.4442 26.1094 42.6899 22.1646C42.6793 22.1304 42.674 22.0958 42.6761 22.0606C42.691 21.7666 42.6958 21.47 42.6958 21.176C42.6958 20.8421 42.6857 20.5392 42.6708 20.2357C42.6686 20.1921 42.675 20.1491 42.6889 20.1092C42.0405 9.62336 33.658 4.84534 26.1139 4.84534C18.5601 4.84534 10.167 9.63701 9.54258 20.1533C9.55428 20.1879 9.56013 20.2242 9.558 20.2614C9.54258 20.5549 9.53832 20.8479 9.53832 21.1455C9.53832 21.4521 9.54258 21.753 9.56332 22.0543C9.56704 22.1016 9.56013 22.1478 9.5447 22.1913C10.0569 30.4491 16.699 37.0074 25.0617 37.5208C25.0947 37.5087 25.1293 37.5024 25.1644 37.5024ZM27.0436 38.2096C27.0037 38.2096 26.9649 38.2033 26.9282 38.1897C26.7798 38.1965 26.6293 38.2007 26.483 38.2044C26.0771 38.2217 25.6633 38.2075 25.2612 38.1897C25.2224 38.2038 25.1793 38.2086 25.141 38.2091C16.3325 37.7287 9.32715 30.8124 8.84736 22.1215C8.8447 22.0764 8.85162 22.0286 8.86598 21.9834C8.85055 21.7062 8.84683 21.428 8.84683 21.1455C8.84683 20.8746 8.85055 20.6069 8.86226 20.3391C8.85215 20.3092 8.84683 20.2772 8.84683 20.2441C9.45587 9.18132 18.2245 4.16284 26.1138 4.16284C33.9841 4.16284 42.7303 9.15612 43.3819 20.1155C43.3926 20.1486 43.3979 20.1827 43.3979 20.2189C43.3979 20.2677 43.3873 20.3139 43.3686 20.3565C43.3803 20.6195 43.3873 20.8825 43.3873 21.1455C43.3873 21.4422 43.3835 21.7173 43.3718 21.9882C43.3835 22.0228 43.3889 22.0601 43.3867 22.0968C43.1553 26.247 41.3936 30.1671 38.4261 33.135C38.4069 33.1591 38.3601 33.2053 38.3128 33.2442L38.2968 33.262C38.2952 33.2641 38.258 33.3009 38.2564 33.3024C35.2484 36.2377 31.2729 37.9807 27.0623 38.2091C27.0564 38.2091 27.05 38.2096 27.0436 38.2096Z" fill="#4C71DD"/>
<path fill-rule="evenodd" clip-rule="evenodd" d="M27.492 22.3231C27.5813 22.3231 27.6702 22.3577 27.7361 22.4228L32.5404 27.1646C32.6207 27.2444 32.6707 27.2659 32.776 27.2659C32.8782 27.2659 32.9335 27.2423 33.0117 27.1651C33.0808 27.0964 33.1175 27.0166 33.1175 26.9331C33.1175 26.8496 33.0808 26.7688 33.0117 26.7L28.2069 21.9582C28.1026 21.8553 28.076 21.6994 28.1399 21.5686C28.2526 21.3387 28.3095 21.0925 28.3095 20.8363C28.3095 20.1181 27.851 19.476 27.1681 19.2387C27.0298 19.1904 26.9377 19.0612 26.9377 18.9163V14.0606C26.9377 13.8364 26.8218 13.7236 26.5946 13.7236C26.3739 13.7236 26.2569 13.8396 26.2569 14.0606V18.9163C26.2569 19.0618 26.1638 19.1909 26.0255 19.2387C25.3436 19.4744 24.8851 20.1165 24.8851 20.8363C24.8851 21.7671 25.6521 22.5236 26.5946 22.5236C26.8574 22.5236 27.1085 22.468 27.3415 22.3567C27.3893 22.3341 27.4409 22.3231 27.492 22.3231ZM32.7761 27.9484C32.4851 27.9484 32.2612 27.8555 32.0511 27.6471L27.4112 23.0675C27.1511 23.1594 26.8771 23.2066 26.5947 23.2066C25.2707 23.2066 24.1936 22.1435 24.1936 20.8363C24.1936 19.9107 24.7356 19.0759 25.5654 18.6885V14.0606C25.5654 13.4605 25.9883 13.0405 26.5947 13.0405C27.2037 13.0405 27.6287 13.4605 27.6287 14.0606V18.689C28.459 19.078 29.0011 19.9128 29.0011 20.8363C29.0011 21.1129 28.9537 21.3812 28.8601 21.6374L33.5005 26.2175C33.6995 26.4144 33.809 26.6685 33.809 26.9331C33.809 27.1977 33.6995 27.4512 33.5005 27.6476C33.2931 27.8529 33.0628 27.9484 32.7761 27.9484Z" fill="#4C71DD"/>
<path fill-rule="evenodd" clip-rule="evenodd" d="M26.1107 7.51816C25.3463 7.51186 24.8192 6.98423 24.8192 6.23506V4.41278C24.8192 4.22431 24.974 4.07153 25.165 4.07153C25.3559 4.07153 25.5107 4.22431 25.5107 4.41278V6.23506C25.5107 6.60833 25.7336 6.83303 26.1075 6.83618C26.4788 6.82883 26.6979 6.60991 26.6979 6.23506V4.41278C26.6979 4.22431 26.8527 4.07153 27.0437 4.07153C27.2346 4.07153 27.3894 4.22431 27.3894 4.41278V6.23506C27.3894 6.97636 26.8634 7.50398 26.1107 7.51816Z" fill="#4C71DD"/>
<path fill-rule="evenodd" clip-rule="evenodd" d="M36.8084 11.8996C36.4904 11.8996 36.1717 11.772 35.9047 11.5164C35.3717 10.9819 35.3744 10.2427 35.9047 9.71246L37.2159 8.41886C37.351 8.28551 37.5701 8.28551 37.7047 8.41886C37.8398 8.55221 37.8398 8.76851 37.7047 8.90186L36.3951 10.1939C36.1329 10.4559 36.1308 10.7703 36.392 11.0318C36.6531 11.2822 36.9712 11.2791 37.2372 11.0187L38.5467 9.73083C38.6824 9.59696 38.901 9.59853 39.0356 9.73136C39.1707 9.86523 39.1701 10.081 39.035 10.2138L37.7255 11.5017C37.4563 11.7668 37.1324 11.8996 36.8084 11.8996Z" fill="#4C71DD"/>
<path fill-rule="evenodd" clip-rule="evenodd" d="M43.1096 22.4395H41.2628C40.5112 22.4395 39.9766 21.9203 39.9628 21.1774C39.9766 20.4251 40.5112 19.908 41.2628 19.908H43.1154C43.3064 19.908 43.4612 20.0607 43.4612 20.2492C43.4612 20.4382 43.3064 20.591 43.1154 20.591H41.2628C40.883 20.591 40.6612 20.8047 40.6543 21.1774C40.6612 21.536 40.8888 21.7565 41.2628 21.7565H43.1096C43.3005 21.7565 43.4553 21.9093 43.4553 22.0983C43.4553 22.2867 43.3005 22.4395 43.1096 22.4395Z" fill="#4C71DD"/>
<path fill-rule="evenodd" clip-rule="evenodd" d="M37.4814 34.0341C37.3925 34.0341 37.3042 34.001 37.2367 33.9344L35.9276 32.6418C35.3883 32.1163 35.3824 31.376 35.9149 30.8432C36.1782 30.587 36.5244 30.4379 36.834 30.451C37.1638 30.4536 37.4867 30.5964 37.7431 30.8537L39.0505 32.1436C39.1856 32.2764 39.1856 32.4932 39.0505 32.6266C38.9154 32.7594 38.6968 32.7594 38.5617 32.6266L37.2526 31.3346C37.1218 31.2038 36.9755 31.1345 36.8282 31.1335C36.6601 31.1219 36.534 31.1981 36.4037 31.3256C36.1446 31.585 36.1478 31.8974 36.4149 32.1572L37.7255 33.4514C37.8606 33.5847 37.8606 33.801 37.7255 33.9344C37.6579 34.001 37.5696 34.0341 37.4814 34.0341Z" fill="#4C71DD"/>
<path fill-rule="evenodd" clip-rule="evenodd" d="M27.0691 38.3024C26.8782 38.3024 26.7234 38.1497 26.7234 37.9612V36.1326C26.7234 35.7635 26.5 35.5409 26.1261 35.5367C25.7601 35.5409 25.5367 35.7635 25.5367 36.1326V37.9612C25.5367 38.1497 25.3819 38.3024 25.191 38.3024C25 38.3024 24.8452 38.1497 24.8452 37.9612V36.1326C24.8452 35.3882 25.3718 34.8626 26.1261 34.8542C26.8878 34.8621 27.4149 35.3882 27.4149 36.1326V37.9612C27.4149 38.1497 27.2601 38.3024 27.0691 38.3024Z" fill="#4C71DD"/>
<path fill-rule="evenodd" clip-rule="evenodd" d="M14.7691 34.0546C14.6803 34.0546 14.592 34.0215 14.5244 33.9548C14.3893 33.8215 14.3893 33.6052 14.5244 33.4718L15.833 32.1793C16.1005 31.9163 16.1037 31.6044 15.8425 31.344C15.5814 31.0899 15.2643 31.0925 14.9963 31.3556L13.6872 32.6423C13.5521 32.7752 13.333 32.7741 13.1984 32.6413C13.0638 32.5074 13.0643 32.2916 13.1994 32.1583L14.5085 30.8715C15.0468 30.3428 15.7968 30.3386 16.3319 30.8615C16.8649 31.3928 16.8601 32.132 16.3218 32.6623L15.0138 33.9548C14.9463 34.0215 14.8574 34.0546 14.7691 34.0546Z" fill="#4C71DD"/>
<path fill-rule="evenodd" clip-rule="evenodd" d="M10.9708 22.4648H9.11918C8.92822 22.4648 8.77344 22.3121 8.77344 22.1236C8.77344 21.9346 8.92822 21.7818 9.11918 21.7818H10.9708C11.3458 21.7818 11.5713 21.5618 11.575 21.1933C11.5713 20.8295 11.3511 20.6174 10.9708 20.6174H9.11918C8.92822 20.6174 8.77344 20.4641 8.77344 20.2756C8.77344 20.0871 8.92822 19.9343 9.11918 19.9343H10.9708C11.7261 19.9343 12.2591 20.452 12.2665 21.1933C12.2591 21.9446 11.7261 22.4648 10.9708 22.4648Z" fill="#4C71DD"/>
<path fill-rule="evenodd" clip-rule="evenodd" d="M15.4022 11.9197C15.0793 11.9197 14.757 11.7869 14.4884 11.5223L13.1777 10.2297C13.0431 10.0964 13.0431 9.8801 13.1777 9.74675C13.3123 9.61392 13.5314 9.61392 13.6665 9.74675L14.9766 11.0393C15.2415 11.3002 15.5586 11.3013 15.8245 11.0425C15.8336 11.0341 15.8431 11.0257 15.8527 11.0178C16.0846 10.7611 16.0735 10.4634 15.8192 10.215L14.508 8.9225C14.3729 8.78915 14.3729 8.57337 14.508 8.44002C14.6426 8.30562 14.8618 8.30615 14.9969 8.4395L16.307 9.731C16.841 10.2528 16.8469 10.9905 16.3208 11.5234C16.3059 11.5386 16.2899 11.5522 16.2729 11.5638C16.0128 11.8011 15.7075 11.9197 15.4022 11.9197Z" fill="#4C71DD"/>
<path fill-rule="evenodd" clip-rule="evenodd" d="M23.8586 8.61432L26.3733 11.1845L27.1983 7.91473L23.8586 8.61432ZM26.0891 10.1384L24.908 8.93128L26.4765 8.6027L26.0891 10.1384Z" fill="#4C71DD"/>
<path fill-rule="evenodd" clip-rule="evenodd" d="M5.79968 1.8811L7.77667 4.88247L9.21069 1.83077L5.79968 1.8811ZM7.69706 3.80212L6.76853 2.39247L8.37058 2.36883L7.69706 3.80212Z" fill="#4C71DD"/>
<path fill-rule="evenodd" clip-rule="evenodd" d="M0.0542792 25.8524L1.21206 30.4045L3.91194 27.3271L0.0542792 25.8524ZM1.47676 29.2991L0.817523 26.7072L3.01404 27.5468L1.47676 29.2991Z" fill="#4C71DD"/>
<path fill-rule="evenodd" clip-rule="evenodd" d="M45.7723 32.0422L46.6556 35.5149L49.0156 33.0938L45.7723 32.0422ZM46.9354 34.4688L46.5206 32.8378L48.0439 33.3317L46.9354 34.4688Z" fill="#4C71DD"/>
<path fill-rule="evenodd" clip-rule="evenodd" d="M47.3413 9.85785L46.9022 12.9125L49.4355 11.7031L47.3413 9.85785ZM47.5672 12.0118L47.7267 10.9023L48.4873 11.5726L47.5672 12.0118Z" fill="#4C71DD"/>
<path fill-rule="evenodd" clip-rule="evenodd" d="M33.4757 28.2272L34.9951 30.9273L36.277 28.4625L33.4757 28.2272ZM34.9746 29.8148L34.4228 28.8341L35.4402 28.9196L34.9746 29.8148Z" fill="#4C71DD"/>
</svg>
