<svg width="29" height="51" viewBox="0 0 29 51" fill="none" xmlns="http://www.w3.org/2000/svg">
<path fill-rule="evenodd" clip-rule="evenodd" d="M8.73554 24.387H21.9643V15.0337C21.9643 10.6139 20.2652 6.17729 17.1795 2.54073L16.1978 1.53213C16.167 1.50578 16.1168 1.46224 16.0641 1.42191C15.6283 1.05578 14.9423 1.06761 14.5341 1.41062C14.473 1.45955 14.4197 1.5031 14.3715 1.54772L13.5223 2.54234C10.3909 6.22944 8.73554 10.5827 8.73554 15.1294V24.387ZM22.3827 25.0864H8.31767C8.08624 25.0864 7.89917 24.93 7.89917 24.737V15.1294C7.89917 10.437 9.60917 5.94396 12.8421 2.13643L13.7235 1.10794C13.8173 1.01923 13.8842 0.962774 13.9504 0.910624C14.655 0.317075 15.9188 0.309011 16.6427 0.91815C16.698 0.960086 16.7642 1.01654 16.8278 1.07353L17.8442 2.11761C21.0462 5.89019 22.8006 10.4708 22.8006 15.0337V24.737C22.8006 24.93 22.6135 25.0864 22.3827 25.0864Z" fill="#4C71DD"/>
<path d="M4.9583 23.7961L8.23208 21.2017V26.6252L4.79236 26.5494L4.9583 23.7961Z" fill="#D8E7FF"/>
<path d="M25.6488 23.5623L22.375 20.9678V26.3913L25.8147 26.3155L25.6488 23.5623Z" fill="#D8E7FF"/>
<path fill-rule="evenodd" clip-rule="evenodd" d="M22.8006 26.3477H25.482V23.9009L22.8006 21.6606V26.3477ZM25.8998 27.0471H22.3827C22.1513 27.0471 21.9642 26.8907 21.9642 26.6971V20.8181C21.9642 20.6767 22.0664 20.5493 22.2227 20.495C22.3769 20.4412 22.5582 20.4708 22.6778 20.5708L26.1949 23.5089C26.2733 23.5745 26.3183 23.6632 26.3183 23.7563V26.6971C26.3183 26.8907 26.1312 27.0471 25.8998 27.0471Z" fill="#4C71DD"/>
<path fill-rule="evenodd" clip-rule="evenodd" d="M11.0948 31.2489H19.5991C19.5445 30.8053 19.3876 30.3591 19.1363 29.9419L18.6014 29.0059H12.0989L11.5673 29.936C11.305 30.3005 11.1455 30.7521 11.0948 31.2489ZM20.0511 31.9483C20.0478 31.9489 20.0433 31.9483 20.0382 31.9483H10.6596C10.4288 31.9483 10.2417 31.7919 10.2417 31.5983C10.2417 30.8274 10.4461 30.1381 10.8331 29.6037L11.458 28.5059C11.5274 28.3844 11.674 28.3064 11.8347 28.3064H18.865C19.0257 28.3064 19.1729 28.3844 19.2423 28.5059L19.8871 29.6344C20.2413 30.2241 20.4381 30.872 20.4554 31.508C20.4638 31.537 20.4689 31.5677 20.4689 31.5983C20.4689 31.7919 20.2818 31.9483 20.0511 31.9483Z" fill="#4C71DD"/>
<path fill-rule="evenodd" clip-rule="evenodd" d="M5.22297 26.3477H7.89919V21.6616L5.22297 23.9009V26.3477ZM8.31764 27.0471H4.80506C4.57428 27.0471 4.38721 26.8907 4.38721 26.6971V23.7563C4.38721 23.6632 4.43156 23.5745 4.50935 23.5089L8.02192 20.5708C8.14214 20.4708 8.32085 20.4412 8.47771 20.495C8.63328 20.5493 8.73549 20.6767 8.73549 20.8181V26.6971C8.73549 26.8907 8.54842 27.0471 8.31764 27.0471Z" fill="#4C71DD"/>
<path d="M15.3035 18.8171C17.0787 18.8171 18.5178 17.4932 18.5178 15.8601C18.5178 14.227 17.0787 12.9031 15.3035 12.9031C13.5283 12.9031 12.0892 14.227 12.0892 15.8601C12.0892 17.4932 13.5283 18.8171 15.3035 18.8171Z" stroke="#D8E7FF" stroke-width="2"/>
<path fill-rule="evenodd" clip-rule="evenodd" d="M15.3499 14.1698C14.8099 14.1698 14.2911 14.3552 13.8881 14.6913C13.485 15.0273 13.2619 15.4612 13.2613 15.9122C13.2606 16.3644 13.4837 16.8009 13.8887 17.1402C14.6929 17.8112 16.0056 17.8117 16.8099 17.1397C17.2155 16.8009 17.4373 16.3644 17.4366 15.9122C17.436 15.4612 17.2142 15.0273 16.8105 14.6918C16.4081 14.3552 15.8893 14.1698 15.3499 14.1698ZM15.3499 18.3595C14.5868 18.3595 13.8584 18.102 13.2979 17.6343C12.7347 17.1628 12.4249 16.5504 12.4255 15.9112C12.4268 15.273 12.7367 14.6638 13.2979 14.1961C13.8584 13.7289 14.5868 13.4714 15.3499 13.4714C16.1129 13.4714 16.8413 13.7289 17.4012 14.1966C17.9618 14.6638 18.2717 15.273 18.2729 15.9112C18.2736 16.5504 17.9644 17.1628 17.4012 17.6337C16.8413 18.102 16.1129 18.3595 15.3499 18.3595ZM15.3511 12.7854C14.3669 12.7854 13.4309 13.1155 12.7154 13.7144C11.2401 14.9488 11.2401 16.8848 12.7154 18.1219C13.4309 18.7181 14.3669 19.0477 15.3511 19.0477C16.3347 19.0477 17.2707 18.7181 17.9856 18.1214C19.4603 16.8848 19.4603 14.9488 17.9849 13.7138C17.2707 13.1155 16.3347 12.7854 15.3511 12.7854ZM15.3512 19.7466C14.1439 19.7466 12.9983 19.3445 12.1247 18.616C10.3182 17.1015 10.3182 14.731 12.124 13.2203C12.9977 12.4886 14.1439 12.0864 15.3512 12.0864C16.5585 12.0864 17.704 12.4891 18.5764 13.2203C20.3815 14.731 20.3815 17.1015 18.5764 18.6155C17.7034 19.3445 16.5585 19.7466 15.3512 19.7466Z" fill="#4C71DD"/>
<path fill-rule="evenodd" clip-rule="evenodd" d="M8.73554 25.0864V27.9714C8.73554 28.1692 8.90076 28.3063 9.13669 28.3063H21.5631C21.8029 28.3063 21.9643 28.1719 21.9643 27.9714V25.0864H8.73554ZM21.5631 29.0058H9.13667C8.44303 29.0058 7.89917 28.5509 7.89917 27.9714V24.737C7.89917 24.5434 8.08624 24.387 8.31767 24.387H22.3827C22.6135 24.387 22.8006 24.5434 22.8006 24.737V27.9714C22.8006 28.5612 22.2683 29.0058 21.5631 29.0058Z" fill="#4C71DD"/>
<path d="M15.3035 0.537531C17.0854 0.500819 21.0893 8.06441 21.0893 8.06441H9.51782C9.51782 8.06441 13.9466 0.565488 15.3035 0.537531Z" fill="#D8E7FF"/>
<path fill-rule="evenodd" clip-rule="evenodd" d="M10.3119 7.72197H20.3867C19.6365 5.98058 18.5822 4.27842 17.1737 2.5338L16.2036 1.43971C15.6816 1.00746 15.0105 1.01283 14.5875 1.36283C14.5534 1.39348 14.5071 1.43165 14.4596 1.47036L14.4358 1.48971L13.5216 2.54348C12.1864 4.08972 11.1341 5.78864 10.3119 7.72197ZM20.9736 8.42143H9.72617C9.59182 8.42143 9.46582 8.36713 9.38739 8.27627C9.30896 8.18541 9.28775 8.06767 9.33017 7.96176C10.2045 5.7666 11.3539 3.86068 12.844 2.1338L13.78 1.05584C13.7935 1.04079 13.8083 1.02574 13.8244 1.01283L13.8745 0.971435C13.9137 0.939177 13.9517 0.908532 13.9877 0.876274C14.7469 0.245629 15.9844 0.273048 16.7603 0.916059L16.9403 1.06821L17.8602 2.13488C19.4417 4.09402 20.5879 5.99724 21.3702 7.96176C21.4127 8.06767 21.3915 8.18541 21.313 8.27627C21.2346 8.36713 21.108 8.42143 20.9736 8.42143Z" fill="#4C71DD"/>
<path fill-rule="evenodd" clip-rule="evenodd" d="M12.3734 40.8774C12.1452 40.8774 11.9588 40.7236 11.9556 40.5322L11.8495 33.0855C11.8469 32.8924 12.0314 32.7344 12.2629 32.7317C12.2642 32.7317 12.2654 32.7317 12.2674 32.7317C12.4962 32.7317 12.6827 32.8855 12.6859 33.0769L12.7919 40.5236C12.7945 40.7166 12.61 40.8747 12.3786 40.8774C12.3767 40.8774 12.3754 40.8774 12.3734 40.8774Z" fill="#4C71DD"/>
<path fill-rule="evenodd" clip-rule="evenodd" d="M5.34701 42.9569C5.31294 42.9569 5.27758 42.9537 5.24287 42.9462C5.01915 42.8978 4.8848 42.7075 4.94201 42.5204L8.1653 32.0392C8.22315 31.8532 8.44623 31.7397 8.67444 31.7876C8.89815 31.836 9.03251 32.0263 8.9753 32.2134L5.75201 42.6946C5.70251 42.8521 5.53344 42.9569 5.34701 42.9569Z" fill="#4C71DD"/>
<path fill-rule="evenodd" clip-rule="evenodd" d="M7.65476 42.2481C7.62077 42.2501 7.58528 42.2495 7.55014 42.2455C7.32372 42.2196 7.17686 42.0741 7.22134 41.92L9.7307 33.2874C9.77589 33.1342 9.99077 33.0298 10.2217 33.055C10.4481 33.081 10.5949 33.2265 10.5505 33.3805L8.0411 42.0131C8.00233 42.1429 7.84073 42.2372 7.65476 42.2481Z" fill="#D8E7FF"/>
<path fill-rule="evenodd" clip-rule="evenodd" d="M22.6361 42.5535C22.6701 42.5555 22.7056 42.555 22.7407 42.5509C22.9672 42.525 23.114 42.3795 23.0696 42.2254L20.5602 33.5929C20.515 33.4396 20.3001 33.3352 20.0692 33.3604C19.8428 33.3864 19.696 33.5319 19.7404 33.686L22.2498 42.3185C22.2886 42.4483 22.4502 42.5426 22.6361 42.5535Z" fill="#D8E7FF"/>
<path fill-rule="evenodd" clip-rule="evenodd" d="M25.4626 42.9569C25.2762 42.9569 25.1065 42.852 25.0576 42.6945L21.8389 32.2133C21.7816 32.0262 21.916 31.8359 22.1397 31.7875C22.3666 31.7391 22.591 31.8531 22.6489 32.0391L25.8676 42.5203C25.9242 42.7074 25.7905 42.8977 25.5668 42.9461C25.5314 42.9536 25.4961 42.9569 25.4626 42.9569Z" fill="#4C71DD"/>
<path fill-rule="evenodd" clip-rule="evenodd" d="M15.2007 40.8774C14.9719 40.8774 14.7854 40.7236 14.7822 40.5322L14.6717 33.0855C14.6691 32.893 14.8536 32.7344 15.0844 32.7317C15.0863 32.7317 15.0876 32.7317 15.0895 32.7317C15.3177 32.7317 15.5048 32.8855 15.5074 33.0769L15.6186 40.5236C15.6212 40.7161 15.4367 40.8747 15.2059 40.8774C15.2039 40.8774 15.2027 40.8774 15.2007 40.8774Z" fill="#4C71DD"/>
<path fill-rule="evenodd" clip-rule="evenodd" d="M18.0228 40.8774C17.7946 40.8774 17.6081 40.7236 17.6049 40.5322L17.4982 33.0855C17.4956 32.8924 17.6801 32.7344 17.9116 32.7317C17.9135 32.7317 17.9148 32.7317 17.9161 32.7317C18.1449 32.7317 18.3313 32.8855 18.3346 33.0769L18.4413 40.5236C18.4438 40.7166 18.2593 40.8747 18.0279 40.8774C18.026 40.8774 18.0247 40.8774 18.0228 40.8774Z" fill="#4C71DD"/>
<path fill-rule="evenodd" clip-rule="evenodd" d="M0.370953 47.4158L5.10747 48.3776L3.75849 44.5319L0.370953 47.4158ZM4.25896 47.6477L1.57788 47.1033L3.49537 45.4709L4.25896 47.6477Z" fill="#4C71DD"/>
<path fill-rule="evenodd" clip-rule="evenodd" d="M7.99437 45.4074L10.9774 47.9988L11.9537 44.7046L7.99437 45.4074ZM10.6833 47.0176L9.21084 45.7385L11.1652 45.3916L10.6833 47.0176Z" fill="#4C71DD"/>
<path fill-rule="evenodd" clip-rule="evenodd" d="M1.58446 9.92347L4.56753 12.5149L5.54382 9.22076L1.58446 9.92347ZM4.27335 11.5337L2.80093 10.2546L4.75525 9.90772L4.27335 11.5337Z" fill="#4C71DD"/>
<path fill-rule="evenodd" clip-rule="evenodd" d="M22.855 47.1019L25.2125 50.1421L26.8914 47.0753L22.855 47.1019ZM25.1235 49.1363L23.9586 47.6341L25.9531 47.6209L25.1235 49.1363Z" fill="#4C71DD"/>
<path fill-rule="evenodd" clip-rule="evenodd" d="M17.8213 43.633L19.6296 46.3589L21.1213 43.8932L17.8213 43.633ZM19.5993 45.3255L18.8914 44.2584L20.1833 44.3603L19.5993 45.3255Z" fill="#4C71DD"/>
<path fill-rule="evenodd" clip-rule="evenodd" d="M24.7712 14.5834L25.9963 17.5293L27.9699 15.3259L24.7712 14.5834ZM26.1649 16.5057L25.6844 15.3503L26.939 15.6415L26.1649 16.5057Z" fill="#4C71DD"/>
</svg>
