<svg width="21" height="14" fill="none" xmlns="http://www.w3.org/2000/svg"><path d="M10.5 13.498c-4.012 0-7.65-2.195-10.336-5.76a.831.831 0 0 1 0-.992C2.85 3.176 6.488.98 10.5.98c4.012 0 7.65 2.195 10.336 5.76.219.292.219.7 0 .993-2.685 3.57-6.324 5.764-10.336 5.764zm.288-10.666a4.42 4.42 0 0 0-4.695 4.695 4.427 4.427 0 0 0 4.12 4.12 4.42 4.42 0 0 0 4.695-4.695 4.44 4.44 0 0 0-4.12-4.12zm-.133 2.036a2.374 2.374 0 0 0-2.526 2.526 2.388 2.388 0 0 0 2.22 2.221 2.374 2.374 0 0 0 2.527-2.526 2.388 2.388 0 0 0-2.221-2.22z" fill="#000" fill-opacity=".3"/></svg>