<svg width="15" height="14" fill="none" xmlns="http://www.w3.org/2000/svg"><path d="M14.841 5.06L10.555.812a.517.517 0 0 0-.376-.157.517.517 0 0 0-.377.157.508.508 0 0 0-.16.374V3.31H7.769c-3.98 0-6.42 1.114-7.325 3.343C.148 7.394 0 8.315 0 9.416c0 .918.354 2.165 1.063 3.741a19.04 19.04 0 0 0 .2.448.94.94 0 0 0 .11.182c.067.094.145.141.234.141.084 0 .15-.027.197-.082a.308.308 0 0 0 .071-.208c0-.05-.007-.123-.021-.22a1.703 1.703 0 0 1-.02-.194 13.891 13.891 0 0 1-.043-1.02 7 7 0 0 1 .147-1.502c.097-.443.233-.826.406-1.15a2.89 2.89 0 0 1 .67-.837c.273-.235.567-.427.882-.577.316-.15.687-.267 1.114-.352.427-.086.856-.146 1.289-.179.432-.033.922-.05 1.469-.05h1.875v2.124a.51.51 0 0 0 .159.374.518.518 0 0 0 .376.157.522.522 0 0 0 .377-.157l4.286-4.248A.508.508 0 0 0 15 5.434a.51.51 0 0 0-.159-.374z" fill="#000" fill-opacity=".3"/></svg>