<svg width="134" height="25" fill="none" xmlns="http://www.w3.org/2000/svg"><path fill-rule="evenodd" clip-rule="evenodd" d="M7.614 6.744h2.123V18.21H7.614V6.744z" fill="#000"/><path d="M8.951 12.477v2.048h3.06c2.125 0 3.812-1.759 3.812-3.89 0-2.132-1.687-3.89-3.812-3.89h-3.06v2.047h3.06c.914 0 1.689.808 1.689 1.842 0 1.035-.775 1.843-1.689 1.843h-3.06zm27.442-5.733h2.132v7.676c0 2.141-1.93 3.836-4.264 3.836-2.333 0-4.263-1.695-4.263-3.836V6.744h2.132v7.676c0 .96.933 1.78 2.131 1.78 1.199 0 2.132-.82 2.132-1.78V6.744z" fill="#000"/><path fill-rule="evenodd" clip-rule="evenodd" d="M73.852 16.25l5.594-7.5h-5.594V6.744h8.425V8.75l-5.594 7.5h3.59v-1.003h2.004v3.009h-8.425V16.25zm-13.654-7.5l-5.594 7.5h5.32v2.006h-8.066V16.25l5.509-7.5h-3.59v1.003h-2.004V6.744h8.425V8.75zm41.464 6.463h2.115v3.043h-7.845V6.744h2.336v9.506h3.394v-1.037zm16.349-8.469h7.7V8.75h-5.576v2.681h5.576v2.006h-5.576v2.813h5.576v2.006h-7.7V6.744z" fill="#000"/><path stroke="#000" stroke-width="2" d="M1 1.699h21.602v21.602H1zm22.08 0h21.602v21.602H23.08zm22.079 0h21.602v21.602H45.159zm22.08 0h21.602v21.602H67.239zm22.079 0h21.602v21.602H89.318zm22.08 0H133v21.602h-21.602z"/></svg>