<svg width="176" height="31" fill="none" xmlns="http://www.w3.org/2000/svg"><path fill-rule="evenodd" clip-rule="evenodd" d="M10 7.94h2.789V23H10V7.94z" fill="#fff"/><path d="M11.757 15.47v2.69h4.019c2.79 0 5.007-2.31 5.007-5.11 0-2.8-2.217-5.11-5.007-5.11h-4.019v2.69h4.019c1.2 0 2.218 1.06 2.218 2.42 0 1.359-1.018 2.42-2.218 2.42h-4.019zM47.8 7.94h2.8v10.08c0 2.813-2.535 5.039-5.6 5.039-3.065 0-5.6-2.226-5.6-5.038V7.94h2.8v10.08c0 1.262 1.226 2.339 2.8 2.339 1.574 0 2.8-1.077 2.8-2.338V7.94z" fill="#fff"/><path fill-rule="evenodd" clip-rule="evenodd" d="M97 20.425l7.347-9.85H97V7.94h11.066v2.635l-7.348 9.85h4.716v-1.318h2.632v3.953H97v-2.635zm-17.934-9.85l-7.347 9.85h6.988v2.635H68.112v-2.635l7.235-9.85h-4.715v1.318H68V7.94h11.066v2.635zm54.46 8.489h2.778v3.996H126V7.94h3.069v12.485h4.457v-1.361zM155 7.94h10.114v2.635h-7.325v3.52h7.325v2.636h-7.325v3.694h7.325v2.635H155V7.94z" fill="#fff"/><path stroke="#fff" stroke-width="2" d="M1 1h29v29H1zm29 0h29v29H30zm29 0h29v29H59zm29 0h29v29H88zm29 0h29v29h-29zm29 0h29v29h-29z"/></svg>