<svg width="1260" height="700" fill="none" xmlns="http://www.w3.org/2000/svg"><path d="M1259.95 0c-49.17 3.772-99.21 2.857-148.89 4.2h-4.08C969.368 8.43 831.254 55.636 778.412 138.76c-42.888 67.408-26.696 164.02-182.379 166.935-97.06 1.828-178.479-38.805-273.384-43.577-81.465-4.115-165.774 30.861-183.893 81.696-12.843 36.233 9.495 70.522 24.908 104.641 14.824 33.871 20.651 69.026 17.247 104.07-2.844 30.518-15.412 61.322-43.531 86.382C102.244 670.339 52.246 682.826 0 699.171c3.257.315 6.514.543 9.77.829h593.19c106.601 0 189.213-.143 256.137-58.35 24.678-21.488 48.439-45.52 85.777-59.407 42.429-15.802 90.276-11.173 137.056-15.259 59.13-5.144 131.88-31.89 164.86-62.865 4.59-4.144 8.9-8.573 13.21-13.316L1259.95 0z" fill="url(#paint0_linear)"/><path d="M662.762 246.323h-121.46s9.95 32.281 0 42.26c-8.578 8.578-28.25-8.721-36.97 0-8.721 8.721-8.578 28.249 0 36.941 8.577 8.692 28.249-8.577 36.97 0 9.95 9.979 0 42.26 0 42.26s32.28 9.95 42.259 0c8.578-8.578-8.578-28.249 0-36.97s28.249-8.578 36.942 0c8.692 8.578-8.578 28.249 0 36.97 9.978 9.95 42.259 0 42.259 0V246.323z" fill="url(#paint1_linear)"/><path opacity=".1" d="M541.302 246.323s.857 2.86 1.801 6.891h114.141v116.057a125.61 125.61 0 0 0 5.518-1.487V246.323h-121.46z" fill="#525D7A"/><path d="M671.054 603.299V481.925s-32.31 9.95-42.26 0c-8.72-8.721 8.578-28.25 0-36.97-8.577-8.721-28.249-8.721-36.97 0-8.72 8.72 8.578 28.249 0 36.97-9.95 9.95-42.231 0-42.231 0s-9.95 32.281 0 42.231c8.721 8.72 28.25-8.578 36.97 0 8.721 8.577 8.578 28.249 0 36.97-8.577 8.72-28.249-8.721-36.97 0-9.95 9.95 0 42.231 0 42.231l121.461-.058z" fill="url(#paint2_linear)"/><path opacity=".2" d="M662.762 484.04v111.053H547.478c1.086 4.89 2.116 8.264 2.116 8.264h121.46V481.925s-3.403 1.029-8.292 2.115z" fill="#525D7A"/><path d="M689.582 602.956h121.432s-9.951-32.281 0-42.259c8.72-8.578 28.277 8.72 36.97 0 8.692-8.721 8.72-28.25 0-36.942-8.721-8.692-28.25 8.578-36.97 0-9.951-9.978 0-42.259 0-42.259s-32.281-9.95-42.231 0c-8.578 8.578 8.72 28.249 0 36.97-8.721 8.72-28.25 8.578-36.97 0-8.721-8.578 8.577-28.25 0-36.97-9.95-9.95-42.231 0-42.231 0v121.46z" fill="url(#paint3_linear)"/><path opacity=".2" d="M808.926 594.722H697.988V479.38c-4.889 1.087-8.263 2.116-8.263 2.116v121.46h121.432s-1.173-3.374-2.231-8.234z" fill="#525D7A"/><path d="M396.024 602.985H274.563s9.979-32.281 0-42.26c-8.577-8.577-28.249 8.578-36.941 0-8.692-8.577-8.721-28.249 0-36.941 8.721-8.692 28.249 8.578 36.941 0 9.979-9.979 0-42.26 0-42.26s32.31-9.95 42.26 0c8.578 8.721-8.578 28.25 0 36.97 8.578 8.721 28.249 8.578 36.97 0 8.72-8.577-8.721-28.249 0-36.97 9.95-9.95 42.231 0 42.231 0v121.461z" fill="url(#paint4_linear)"/><path opacity=".2" d="M276.679 594.722H387.76V479.409c4.89 1.086 8.264 2.115 8.264 2.115v121.461H274.563s1.058-3.374 2.116-8.263z" fill="#525D7A"/><path opacity=".3" d="M397.453 481.524h-.4a109.98 109.98 0 0 0-7.634-1.944 82.885 82.885 0 0 0-21.673-2.201v90.409h29.936l-.229-86.264z" fill="#2B2046"/><path d="M377.524 561.898h121.461s-9.979-32.281 0-42.26c8.578-8.578 28.249 8.578 36.941 0 8.692-8.578 8.721-28.249 0-36.941-8.72-8.692-28.249 8.577-36.941 0-9.979-9.979 0-42.26 0-42.26s-32.31-9.95-42.26 0c-8.72 8.721 8.578 28.249 0 36.97-8.577 8.721-28.249 8.721-36.97 0-8.72-8.721 8.578-28.249 0-36.97-9.95-9.95-42.231 0-42.231 0v121.461z" fill="url(#paint5_linear)"/><path opacity=".2" d="M387.189 552.233V438.035c-5.719 1.173-9.665 2.402-9.665 2.402v121.461h121.461s-1.258-4.032-2.43-9.665H387.189z" fill="#525D7A"/><path d="M821.95 565.925l-14.186 6.45 6.663 14.654 14.185-6.45-6.662-14.654z" fill="#fff"/><path d="M759.347 485.785l14.697 36.14 34.94 55.956 17.012-7.692-35.054-65.934-26.105-83.69-5.49 65.22z" fill="#D77EDB"/><path d="M809.127 577.395l-1.201.514-5.547 13.496-3.088 4.718-9.664 2.659.028 3.945 11.38.229 35.083-14.782.743-4.746-4.832-10.951-3.059-.544-2.402 1.058-3.088 7.978-11.008 4.717-3.345-8.291z" fill="#fff"/><path d="M836.861 583.399l-4.832-10.922-3.059-.544-2.402 1.058-3.088 7.978-11.008 4.717-3.345-8.291-1.201.514-5.547 13.496-3.088 4.718-9.664 2.659v1h8.377l38.857-16.383z" fill="#56408B"/><path d="M769.44 576.48h-15.583v16.097h15.583V576.48z" fill="#fff"/><path d="M724.436 390.629l20.186 117.229 8.949 74.34h16.155s1.373-69.393-3.345-78.772l3.345-80.259a50.74 50.74 0 0 0 1.487-24.303 18.017 18.017 0 0 0-4.289-8.749l-.543-.601-41.945 1.115z" fill="#F8AA8F"/><path opacity=".2" d="M775.931 524.928c-.915-10.637-2.116-19.357-3.717-22.245l.229-57.642-7.606-24.476-5.49 65.22 14.725 36.14 1.859 3.003z" fill="#525D7A"/><path d="M724.436 390.629l20.186 117.229 8.949 74.34h16.155s1.373-69.393-3.345-78.772l3.345-80.259a50.74 50.74 0 0 0 1.487-24.303 18.017 18.017 0 0 0-4.289-8.749l-.543-.601-41.945 1.115z" fill="#D77EDB"/><path d="M751.684 582.17h-1.286l-10.522 10.093-16.755 6.376v4.317h48.921l2.602-4.031v-11.981l-2.602-1.744h-2.602l-6.061 6.062-11.98-.143.285-8.949z" fill="#fff"/><path d="M769.44 585.2l-6.061 6.062-11.981-.143.286-8.949h-1.286l-10.522 10.093-16.47 6.261h51.238v-11.58l-2.602-1.744h-2.602z" fill="#56408B"/><path d="M769.154 286.667h-16.011v15.583h16.011v-15.583z" fill="#fff"/><path opacity=".15" d="M753.229 292.043a21.216 21.216 0 0 0 12.895-8.75l-14.096 2.86 1.201 5.89z" fill="#525D7A"/><path d="M748.94 252.757l-.715 8.577s-3.317 6.777-6.348 8.578c0 0 .572 2.288 2.173 2.459v11.208a5.491 5.491 0 0 0 5.461 5.519h5.261a21.104 21.104 0 0 0 20.015-14.611l4.089-12.667-5.919-12.409-14.868-.857a9.38 9.38 0 0 0-9.149 4.203z" fill="#fff"/><path opacity=".15" d="M756.574 288.983a21.042 21.042 0 0 0 18.156-14.496l4.089-12.667-5.919-12.409-14.868-.857a9.369 9.369 0 0 0-9.092 4.174l-.344 4.203a26.398 26.398 0 0 0 5.547 3.431c.984.31 1.941.703 2.86 1.173a8.746 8.746 0 0 1 1.944 3.402c.156.476.337.944.543 1.401.858 1.916 3.746 3.345 3.689 5.719a3.43 3.43 0 0 1-1.516 2.373 8.212 8.212 0 0 0-2.144 1.944 5.964 5.964 0 0 0 0 4.804 6.378 6.378 0 0 1 .286 4.803c-.629 1.172-2.173 1.973-3.231 3.002z" fill="#525D7A"/><path d="M748.311 245.895c-3.346 4.002-.429 9.121 2.859 12.094a24.898 24.898 0 0 0 6.433 4.117c.984.311 1.941.703 2.859 1.173a8.579 8.579 0 0 1 1.945 3.402c.171.458.343.915.543 1.373.858 1.944 3.745 3.374 3.688 5.718a3.461 3.461 0 0 1-1.515 2.345 8.232 8.232 0 0 0-2.145 1.944 5.98 5.98 0 0 0 0 4.804 6.457 6.457 0 0 1 .286 4.832c-.772 1.343-2.63 2.173-3.66 3.345-1.029 1.172-2.601 2.144-3.688 3.574-1.601 2.03-1.944 4.918-3.517 6.805a33.57 33.57 0 0 1-6.776 4.575 8.921 8.921 0 0 0-4.461 7.405c4.575-1.572 10.208.772 14.096-2.116.687-.514 1.287-1.201 1.973-1.744a30.955 30.955 0 0 1 5.719-2.859 14.306 14.306 0 0 0 4.832-4.06c1.866.499 3.819.577 5.718.229a13.75 13.75 0 0 0 12.638-7.32l2.087-2.859c.629-.887 1.287-1.773 1.859-2.688a24.79 24.79 0 0 0 4.26-17.155 37.485 37.485 0 0 0-6.719-14.297 3132.728 3132.728 0 0 0-6.891-10.464 14.288 14.288 0 0 0-2.859-3.603 11.168 11.168 0 0 0-3.66-1.773 39.732 39.732 0 0 0-14.01-1.115c-4.232.372-9.064 1.029-11.894 4.318z" fill="#623FE9"/><path d="M732.299 320.807l-22.645-3.174a20.363 20.363 0 0 1-10.866-5.404l-37.97-36.141-4.489-2.859-12.981-5.204-7.12-5.518c-2.058-1.887-.829-3.403 1.144-3.203l5.547 4.547 2.602 1.086 1.515-.858-9.092-8.949c0-.686 1.487-1.744 2.173-1.716l8.006 7.577 1.801-1.658-9.035-9.864c-1.201-1.687 1.973-2.259 4.889.428l5.719 8.064 1.744-.658-5.49-11.437c.486-.772 2.259.629 3.059 1.086 3.003 1.716 7.406 10.665 7.406 10.665l3.031.887 1.715-2.859-.629-3.689 4.889 5.004-.629 7.805 35.341 32.882 31.68 7.348-1.315 15.812z" fill="#fff"/><path opacity=".15" d="M711.426 314.173a20.303 20.303 0 0 1-10.865-5.432l-38.085-36.113-4.489-2.859-12.352-4.946h-.2l-2.602-1.087-5.547-4.546c-1.973-.2-3.202 1.315-1.143 3.202l7.119 5.519 12.981 5.204 4.489 2.859 38.114 36.255a20.356 20.356 0 0 0 10.865 5.404l22.588 3.174.343-3.66-21.216-2.974zm36.198-67.02a13.123 13.123 0 0 1 7.949-4.918 12.346 12.346 0 0 0-7.262 3.66 6.467 6.467 0 0 0-1.173 2.287c.128-.358.29-.703.486-1.029zm4.861 59.901a32.787 32.787 0 0 0 6.147-5.404c1.344-2.059 1.316-4.947 2.659-7.177.887-1.544 2.259-2.545 3.231-4.003.973-1.458 2.602-2.316 3.203-3.774a6.372 6.372 0 0 0-.887-4.746 6.017 6.017 0 0 1-.657-4.747 8.112 8.112 0 0 1 1.887-2.201 3.283 3.283 0 0 0 1.201-2.545c-.2-2.259-3.26-3.317-4.346-5.147a19.229 19.229 0 0 1-.715-1.315 8.811 8.811 0 0 0-2.345-3.117 17.105 17.105 0 0 0-3.002-.8 25.874 25.874 0 0 1-5.718-2.688 27.473 27.473 0 0 0 4.603 2.859c.984.311 1.941.703 2.859 1.173a8.579 8.579 0 0 1 1.945 3.402c.171.458.343.915.543 1.373.858 1.944 3.745 3.374 3.688 5.718a3.461 3.461 0 0 1-1.515 2.345 8.232 8.232 0 0 0-2.145 1.944 5.981 5.981 0 0 0 0 4.803 6.46 6.46 0 0 1 .286 4.833c-.772 1.343-2.63 2.173-3.66 3.345-1.029 1.172-2.601 2.144-3.688 3.574-1.601 2.03-1.944 4.918-3.517 6.805a33.57 33.57 0 0 1-6.776 4.575 8.921 8.921 0 0 0-4.461 7.405 23.786 23.786 0 0 1 7.692-.572 10.635 10.635 0 0 1 3.488-5.918z" fill="#525D7A"/><path opacity=".2" d="M766.924 389.972l-.543-.601-41.945 1.258 1.858 10.837c15.841-3.889 33.31 18.042 45.748 9.321a50.204 50.204 0 0 0-.743-12.066 18.014 18.014 0 0 0-4.375-8.749z" fill="#525D7A"/><path d="M770.041 295.016s13.238 4.918 13.896 16.841l-15.926 53.668 4.489 30.623c-13.953 12.38-34.654-8.407-52.41 4.803l17.155-68.107a17.419 17.419 0 0 1-2.401-15.011l.486-1.658 17.441-14.068 17.27-7.091z" fill="#56408B"/><path opacity=".2" d="M739.189 330.328l-3.173.543c.346.683.738 1.342 1.172 1.973l-17.155 68.107a24.425 24.425 0 0 1 4.088-2.43l16.469-65.763a22.185 22.185 0 0 1-1.401-2.43zm-2.916 66.077c9.15.486 18.299 4.374 26.334 3.803-8.206-.544-17.356-4.289-26.334-3.803zm30.108-90.695l-19.157.829-12.066 9.636-.486 1.658a17.47 17.47 0 0 0 1.229 13.038l26.363-4.746 4.117-20.415z" fill="#525D7A"/><path d="M766.381 302.25l-32.424 1.373-1.601 19.442 35.655 2.631-1.63-23.446z" fill="#56408B"/><path d="M794.945 278.833a10.75 10.75 0 0 0-1.716-6.948 11.447 11.447 0 0 0-2.659-2.001 21.907 21.907 0 0 0-2.573-1.344c-4.06-1.544-8.578.257-12.352 2.459a26.432 26.432 0 0 0-6.176 4.946 16.75 16.75 0 0 0-2.288 3.145 3.724 3.724 0 0 0-.371 3.517 87.312 87.312 0 0 0 3.374 12.409 12.211 12.211 0 0 0 9.407 7.892c-2.145 7.434.228 14.296 1.429 21.015a34.657 34.657 0 0 0 3.403-5.375 670.825 670.825 0 0 0 4.918-8.578 57.228 57.228 0 0 0 5.032-11.122c1.801-6.462.629-13.353.572-20.015z" fill="#623FE9"/><path d="M794.945 278.833a24.607 24.607 0 0 0-.172-2.859 21.232 21.232 0 0 0-.229-2.86 37.472 37.472 0 0 0-6.719-14.296 3132.728 3132.728 0 0 0-6.891-10.464 14.288 14.288 0 0 0-2.859-3.603 11.159 11.159 0 0 0-3.66-1.773 39.709 39.709 0 0 0-14.01-1.115c-4.346.229-9.178.886-12.009 4.203a6.558 6.558 0 0 0-1.344 2.859 18.048 18.048 0 0 1 10.98-3.631 40.551 40.551 0 0 1 14.039.915c1.324.356 2.573.946 3.688 1.744a14.941 14.941 0 0 1 3.002 3.66l7.006 10.379a37.82 37.82 0 0 1 6.919 14.296c.152.946.238 1.902.257 2.859.121.949.187 1.904.2 2.86.172 6.662 1.43 13.553-.457 20.014a37.784 37.784 0 0 1-1.516 4.261 45.075 45.075 0 0 0 3.06-7.377c1.944-6.519.772-13.41.715-20.072z" fill="#8165ED"/><path d="M254.347 577.063l-11.346-7.36-7.702 11.874 11.346 7.36 7.702-11.874z" fill="#fff"/><path d="M280.796 443.868l-8.634 67.936-35.512 64.962 15.983 5.632 44.718-53.668 18.271-58.986-34.826-25.876z" fill="#56408B"/><path d="M272.991 602.985h-17.527l-28.822-11.123-2.058-4.374 10.207-14.125 1.544 1.344v6.605l14.296 4.832 5.118-4.832 4.604 9.235 4.317 3.803 13.839 2.659a9.782 9.782 0 0 1 2.459 5.976h-7.977z" fill="#56408B"/><path d="M272.991 602.985h7.92a8.585 8.585 0 0 0-1.258-4.232h-20.587l-29.679-11.265-1.801-4.203-2.859 4.146 2.058 4.374 28.822 11.123 17.384.057zm-13.81-14.668l-4.604-1.43-.371 1.144 5.718 1.773-.743-1.487zm2.316 3.288l-4.632-1.458-.372 1.172 7.177 2.202-2.173-1.916zm-3.889-6.462l-4.518-1.401-1 .944 6.261 1.973-.743-1.516zm120.688-235.424l-12.288-20.703-29.235 17.352 12.288 20.703 29.235-17.352zm-29.021 227.047h-14.839v14.153h14.839v-14.153z" fill="#fff"/><path opacity=".3" d="M296.093 487.729l10.408 11.437 9.121-29.393-34.826-25.733-1.83 14.296a80.497 80.497 0 0 0 17.127 29.393z" fill="#161023"/><path d="M274.964 446.67a80.397 80.397 0 0 0 26.333 33.396l37.771 27.849-6.434 72.653h19.558c1-14.296 9.893-41.945 14.067-58.528a61.595 61.595 0 0 0 1.372-14.296 25.302 25.302 0 0 0-3.316-14.154l-6.233-10.665-16.67-17.755-15.611-17.528-.286-11.894h-50.551v10.922z" fill="#56408B"/><path opacity=".3" d="M364.315 493.476l-6.233-10.665-16.67-17.756-15.611-17.527h-6.92l15.64 17.527 16.67 17.756 6.204 10.665a25.33 25.33 0 0 1 3.346 14.153 61.64 61.64 0 0 1-1.373 14.296c-4.174 16.584-13.066 44.319-14.067 58.529h6.891c1-14.296 9.893-41.945 14.067-58.529a61.584 61.584 0 0 0 1.372-14.296 25.3 25.3 0 0 0-3.316-14.153z" fill="#161023"/><path d="M356.337 579.739l17.556 12.123 8.864 2.688a4.604 4.604 0 0 1 3.259 4.403v2.716h-54.554l-2.516-3.974v-16.097l2.516.429 3.974 5.432h7.52l13.381-7.72z" fill="#56408B"/><path d="M385.359 596.695c.419.69.647 1.479.657 2.287v2.716h-54.554l-2.516-3.974v-5.004l2.516 3.975h53.897zm-27.363-9.893v-1.259h6.719l1.83 1.259h-8.549zm-3.174-3.918h6.033l1.83 1.258h-7.863v-1.258zm6.491 6.462v-1.258h7.09l1.83 1.258h-8.92zm39.915-255.101l-4.061 12.638-3.059-.429s2.659 6.405-.886 10.522l-4.947-1.744-3.116 4.861a7.677 7.677 0 0 1-5.045 3.404 7.67 7.67 0 0 1-5.935-1.346l-4.775-3.46a20.245 20.245 0 0 1-5.718-26.19l9.836-17.985s25.018 4.403 27.706 19.729z" fill="#fff"/><path opacity=".15" d="M400.627 332.015c-.171-.429-.314-.829-.486-1.23-.172-.4-.257-.514-.4-.772a21.837 21.837 0 0 0-4.832-6.033l-.629-.514-.915-.744a51.484 51.484 0 0 0-18.471-7.863l-9.55 14.64-1.887 3.002c-1.115 2.059-2.259 4.26-1.83 3.517 1.001-1.716 4.089-2.86 5.719-3.832a6.949 6.949 0 0 1 7.634-.972 6.464 6.464 0 0 1 1.915 7.291 10.17 10.17 0 0 1-3.459 4.832 10.398 10.398 0 0 1-5.175 2.259 16.841 16.841 0 0 1-2.031-.171 6.394 6.394 0 0 0-4.66 1.744 20.014 20.014 0 0 0 7.748 11.437l4.775 3.459a7.514 7.514 0 0 0 2.631 1.201 7.685 7.685 0 0 0 6.919-3.002l1.344-1.83a2.143 2.143 0 0 0-1.086-.286c-1.373 0-2.002 1.659-3.546 1.573a3.709 3.709 0 0 1-1.515-.458 14.861 14.861 0 0 1-4.461-5.261c-1.858-2.859.686-5.032 1.716-6.776a28.5 28.5 0 0 1 3.545-4.117c.629-.772 1.23-2.431 1.887-3.174a3.376 3.376 0 0 1 2.374-.915 7.208 7.208 0 0 0 3.802-.801 8.546 8.546 0 0 0 1.916-1.572 9.37 9.37 0 0 1 2.03-2.087 2.027 2.027 0 0 1 1.172-.372c.915 0 1.001 1.286 1.516 1.887a8.576 8.576 0 0 0 2.487 1.973 18.28 18.28 0 0 0 2.431 1.029h.371l1.602-4.975a18.214 18.214 0 0 0-.601-2.087z" fill="#525D7A"/><path d="M376.953 334.674a6.466 6.466 0 0 0-2.431-7.148 7.092 7.092 0 0 0-7.577 1.515 15.199 15.199 0 0 0-3.86 4.747 6.134 6.134 0 0 1-1.344 2.23c-.514.429-1.143.2-1.801.228a4.547 4.547 0 0 1-3.917-1.258 1.97 1.97 0 0 1-.4-.714c-.343-1.087.4-1.83 1.115-2.459a5.725 5.725 0 0 0 1.83-3.145c.2-1.526.286-3.065.257-4.604a6.869 6.869 0 0 1 1.372-4.289c.687-.772 1.716-1.115 2.288-1.944.537-.889.942-1.853 1.201-2.859a10.35 10.35 0 0 1 2.516-5.061 8.977 8.977 0 0 1 3.145-1.544 26.008 26.008 0 0 1 2.859-.429 11.79 11.79 0 0 0 3.117-1.43 8.375 8.375 0 0 1 3.602-1.429c1.259 0 1.916.572 2.86.886 1.2.073 2.403.073 3.602 0 1.348.236 2.676.57 3.975 1.001 1.035.305 2.004.8 2.859 1.458a15.292 15.292 0 0 1 1.916 2.345c1.286 1.687 2.859 1.658 4.031 3.374 1.172 1.715 2.202 3.516 3.403 5.146a27.924 27.924 0 0 1 3.288 4.089c.886 1.773.858 4.031 2.259 5.404.507.364.951.808 1.315 1.315a2.09 2.09 0 0 1-.286 2.03c-2.002 2.859-6.491 2.03-9.293 1.258a15.81 15.81 0 0 1-2.487-.829 9.078 9.078 0 0 1-2.631-1.773c-.543-.571-.714-1.801-1.629-1.801-.415.049-.81.207-1.144.458a10.128 10.128 0 0 0-1.887 2.23 9.36 9.36 0 0 1-1.802 1.715 7.022 7.022 0 0 1-3.717 1.058 3.606 3.606 0 0 0-2.316 1.087c-.6.8-1.086 2.487-1.658 3.316a32.049 32.049 0 0 0-3.231 4.375c-.886 1.83-3.288 4.146-1.229 6.891 1.206 2 2.86 3.694 4.832 4.946a3.744 3.744 0 0 0 1.544.315c1.544 0 2.058-1.601 3.431-1.802 1.372-.2 2.03.715 2.859 1.287a8.582 8.582 0 0 1 1.83 1.83c.146.273.224.577.229.886 0 1.745-1.344 3.317-2.373 4.604a8.733 8.733 0 0 1-2.145 2.087 11.04 11.04 0 0 1-2.859 1.201l-3.117.943c-1.606.48-3.307.549-4.946.201a6.45 6.45 0 0 1-2.002-1.058 41.453 41.453 0 0 1-8.806-6.862 14.929 14.929 0 0 1-3.002-10.694 6.632 6.632 0 0 1 6.319-5.719c.676.044 1.354.044 2.03 0a11.009 11.009 0 0 0 8.091-7.691l-.085.086z" fill="#56408B"/><path opacity=".2" d="M385.502 362.952c-1.03.343-2.087.657-3.117.943-1.603.49-3.304.568-4.946.229a6.74 6.74 0 0 1-2.002-1.058 40.684 40.684 0 0 1-8.806-6.862 15.123 15.123 0 0 1-3.374-10.951c.097-.741.33-1.458.686-2.116a6.463 6.463 0 0 0-3.431 4.861 14.92 14.92 0 0 0 3.345 10.951 41.427 41.427 0 0 0 8.807 6.862 6.445 6.445 0 0 0 2.001 1.058c1.64.349 3.341.28 4.947-.2l3.116-.944a11.047 11.047 0 0 0 2.86-1.201 8.747 8.747 0 0 0 2.144-2.087l.486-.6c-.851.492-1.765.867-2.716 1.115z" fill="#2B2046"/><path d="M359.94 334.188c.215-1.525.301-3.065.257-4.604a6.72 6.72 0 0 1 1.401-4.288c.687-.772 1.687-1.115 2.288-1.945.528-.89.923-1.854 1.172-2.859a10.47 10.47 0 0 1 2.516-5.061 8.986 8.986 0 0 1 3.145-1.544 26.268 26.268 0 0 1 2.86-.429 11.434 11.434 0 0 0 3.116-1.429 8.59 8.59 0 0 1 3.603-1.43c1.258 0 1.916.572 2.859.887 1.2.072 2.403.072 3.603 0 1.35.222 2.68.556 3.974 1a8.586 8.586 0 0 1 2.859 1.458 13.738 13.738 0 0 1 1.916 2.345c1.287 1.687 2.859 1.658 4.032 3.374 1.172 1.715 2.23 3.517 3.431 5.147a29.626 29.626 0 0 1 3.259 4.088c.601 1.201.801 2.631 1.315 3.86.215-.196.415-.406.601-.629a2.089 2.089 0 0 0 .286-2.03 5.738 5.738 0 0 0-1.315-1.315c-1.401-1.373-1.373-3.631-2.259-5.404a27.924 27.924 0 0 0-3.288-4.089c-1.201-1.63-2.231-3.517-3.403-5.146-1.172-1.63-2.859-1.687-4.031-3.374a15.292 15.292 0 0 0-1.916-2.345 8.758 8.758 0 0 0-2.859-1.458 27.894 27.894 0 0 0-3.975-1.001 29.65 29.65 0 0 1-3.602 0c-1.087-.314-1.744-1.001-2.86-.886a8.375 8.375 0 0 0-3.602 1.429 11.79 11.79 0 0 1-3.117 1.43c-.96.09-1.915.233-2.859.429a8.977 8.977 0 0 0-3.145 1.544 10.35 10.35 0 0 0-2.516 5.061 10.684 10.684 0 0 1-1.201 2.859c-.572.829-1.601 1.172-2.288 1.944a6.869 6.869 0 0 0-1.372 4.289 30.944 30.944 0 0 1-.257 4.604 5.725 5.725 0 0 1-1.83 3.145c-.715.629-1.458 1.372-1.115 2.459.082.263.218.507.4.714a3.923 3.923 0 0 0 2.859 1.259 5.18 5.18 0 0 0 1.058-2.059z" fill="#7866A2"/><path opacity=".3" d="M325.801 447.528l-.286-11.894h-50.551v11.036a78.104 78.104 0 0 0 3.917 7.949c13.581 1.973 32.138-7.52 46.92-7.091z" fill="#2B2046"/><path d="M350.104 338.477l-22.073 2.859a30.496 30.496 0 0 0-11.208 3.688 31.085 31.085 0 0 0-13.067 13.982l-37.77 80.059c13.324 21.816 47.12-4.775 67.592 2.859l20.644-50.208a82.563 82.563 0 0 0 6.118-31.166l-10.236-22.073z" fill="#623FE9"/><path opacity=".2" d="M280.339 447.871c12.266 1.058 28.192-6.204 41.716-7.148-12.695-1.115-28.592 6.09-41.716 7.148zm69.765-109.394l4.775 21.959a82.56 82.56 0 0 1-6.176 31.28l-20.014 49.236c1.719.184 3.409.577 5.032 1.172l20.501-50.408a82.563 82.563 0 0 0 6.118-31.166l-10.236-22.073z" fill="#312075"/><path d="M343.814 364.439l6.29 35.168h-25.733l-16.326-34.225 35.769-.943z" fill="#623FE9"/><path opacity=".2" d="M312.162 373.388l12.209 26.219h8.263l-6.347-13.181a25.735 25.735 0 0 0-14.296-13.038h.171z" fill="#312075"/><path d="M326.659 399.607l4.231 19.386 6.033 7.348a19.465 19.465 0 0 0 2.002 2.059l13.095 10.522 24.332 22.073 7.12 12.895 2.116 17.47a2.854 2.854 0 0 0 2.859 0l.943-11.723h2.516l5.719 15.869c.515.343 2.144.486 2.545 0l-3.689-17.727 7.977 17.727c.601.372 2.402.543 2.86 0l-5.976-19.786.686-1.601 10.751 13.095c.829 0 2.259-1.487 2.344-2.287l-13.095-22.073.458-3.46 5.718-.629a5.142 5.142 0 0 0 3.247-1.694 5.139 5.139 0 0 0 1.299-3.424l-11.894-.686-11.723-1.144-38.886-42.317-1.83-9.893h-21.758z" fill="#fff"/><path opacity=".15" d="M387.56 471.117l-6.948-12.867-24.36-22.102-13.038-10.522a17.147 17.147 0 0 1-2.002-2.058l-6.033-7.349-3.631-16.612h-4.889l4.231 19.386 6.033 7.348a19.465 19.465 0 0 0 2.002 2.059l13.095 10.522 24.332 22.073 7.12 12.895 2.116 17.47a2.854 2.854 0 0 0 2.859 0l.686-8.578-1.573-11.665z" fill="#525D7A"/><path d="M157.763 546.115l-.629.286c-6.519 3.145-9.978 2.602-16.355-.315a67.023 67.023 0 0 1-16.383-10.207 34.313 34.313 0 0 1-11.894-20.901 7.409 7.409 0 0 1 .857-5.319 5.977 5.977 0 0 1 6.891-1.429 20.57 20.57 0 0 1 6.09 4.432 7.095 7.095 0 0 0 2.688 1.715 2.49 2.49 0 0 0 2.859-.943c.858-1.487-.6-3.203-1.915-4.289-3.06-2.545-5.919-4.032-9.121-6.291a29.784 29.784 0 0 1-9.922-10.665 15.704 15.704 0 0 1-.4-14.296 8.408 8.408 0 0 1 2.859-3.317 10.351 10.351 0 0 1 7.691-.8c2.602.543 5.09 1.544 7.749 1.83 6.233.629 8.578-3.746 8.578-9.493 0-3.831-1.316-7.577-1.544-11.437a17.524 17.524 0 0 1 9.063-16.869c6.119-2.86 14.668 0 16.87 6.29 2.373 6.977-3.059 14.782.543 21.444a20.492 20.492 0 0 0 5.89 6.434c3.431 2.115 8.349-.372 12.324-.201a3.69 3.69 0 0 1 2.458.801c.428.501.697 1.118.772 1.773a14.688 14.688 0 0 1-4.46 13.438c-4.117 3.746-11.265 5.719-13.01 11.437-1.086 3.66-.629 12.752 5.176 11.809 2.173-.343 3.631-2.488 5.718-3.203a5.864 5.864 0 0 1 6.719 3.317 10.236 10.236 0 0 1-.2 7.949 34.007 34.007 0 0 1-7.634 10.322c-6.176 6.605-10.207 12.695-18.328 16.698z" fill="url(#paint6_linear)"/><path d="M150.587 461.367h-2.86v141.618h2.86V461.367z" fill="#56408B"/><path d="M149.128 504.37l-17.412-17.47 2.001-2.002 15.411 15.412 15.44-15.412 2.002 2.002-17.442 17.47zm0 32.995l-17.412-17.441 2.001-2.03 15.411 15.411 15.44-15.411 2.002 2.03-17.442 17.441z" fill="#56408B"/><path d="M224.041 503.769l-.858.429c-9.121 4.375-13.982 3.631-22.874-.457a93.956 93.956 0 0 1-22.874-14.297 47.946 47.946 0 0 1-16.698-29.107 10.408 10.408 0 0 1 1.229-7.434 8.38 8.38 0 0 1 9.636-2.001 29.598 29.598 0 0 1 8.578 6.233 9.694 9.694 0 0 0 3.745 2.402 3.546 3.546 0 0 0 3.975-1.344c1.172-2.087-.858-4.489-2.688-6.004-4.289-3.574-8.292-5.719-12.752-8.778a41.597 41.597 0 0 1-13.896-14.926 22.01 22.01 0 0 1-.572-19.814 11.925 11.925 0 0 1 4.089-4.661 14.438 14.438 0 0 1 10.779-1.115 100.331 100.331 0 0 0 10.808 2.545c8.578.915 12.123-5.232 11.952-13.238 0-5.376-1.859-10.608-2.145-15.983-.543-9.464 4.118-19.529 12.667-23.561 8.549-4.031 20.529-.171 23.588 8.778 3.317 9.75-4.26 20.673.772 29.994a28.162 28.162 0 0 0 8.178 8.863c4.775 2.86 11.666-.514 17.155-.257a5.007 5.007 0 0 1 3.46 1.115c.585.71.952 1.574 1.058 2.488a20.646 20.646 0 0 1-6.205 18.785c-5.718 5.232-15.754 7.92-18.213 16.126-1.515 5.089-.858 17.813 7.262 16.498 3.031-.458 5.061-3.488 7.978-4.461a8.122 8.122 0 0 1 9.349 4.632 14.12 14.12 0 0 1-.257 11.094 46.987 46.987 0 0 1-10.693 14.296c-8.521 9.064-14.182 17.556-25.533 23.16z" fill="url(#paint7_linear)"/><path d="M213.404 385.254h-2.859v217.731h2.859V385.254z" fill="#56408B"/><path d="M211.975 444.583l-23.961-23.989 2.002-2.03 21.959 21.988 21.987-21.988 2.002 2.03-23.989 23.989zm0 46.148l-23.961-23.989 2.002-2.03 21.959 21.959 21.987-21.959 2.002 2.03-23.989 23.989z" fill="#56408B"/><defs><linearGradient id="paint0_linear" x1="-119.262" y1="349.986" x2="1269.5" y2="349.986" gradientUnits="userSpaceOnUse"><stop stop-color="#038"/><stop offset=".05" stop-color="#0A45A6"/><stop offset=".28" stop-color="#607DED"/><stop offset=".5" stop-color="#5FA5F0"/><stop offset=".7" stop-color="#5EC2F2"/><stop offset=".87" stop-color="#5DD4F4"/><stop offset="1" stop-color="#5DDAF4"/></linearGradient><linearGradient id="paint1_linear" x1="663.849" y1="250.098" x2="536.612" y2="367.326" gradientUnits="userSpaceOnUse"><stop stop-color="#623FE9"/><stop offset=".02" stop-color="#6440E9"/><stop offset=".41" stop-color="#805AE6"/><stop offset=".75" stop-color="#9169E5"/><stop offset="1" stop-color="#976FE4"/></linearGradient><linearGradient id="paint2_linear" x1="571.867" y1="611.706" x2="656.214" y2="460.166" gradientUnits="userSpaceOnUse"><stop stop-color="#623FE9"/><stop offset=".25" stop-color="#6844E8"/><stop offset=".59" stop-color="#7954E7"/><stop offset=".97" stop-color="#946DE4"/><stop offset="1" stop-color="#976FE4"/></linearGradient><linearGradient id="paint3_linear" x1="-28604.3" y1="36926.7" x2="-21201.5" y2="40071.6" gradientUnits="userSpaceOnUse"><stop stop-color="#623FE9"/><stop offset=".25" stop-color="#6844E8"/><stop offset=".59" stop-color="#7954E7"/><stop offset=".97" stop-color="#946DE4"/><stop offset="1" stop-color="#976FE4"/></linearGradient><linearGradient id="paint4_linear" x1="404.344" y1="503.826" x2="252.804" y2="588.174" gradientUnits="userSpaceOnUse"><stop stop-color="#976FE4"/><stop offset=".03" stop-color="#946DE4"/><stop offset=".41" stop-color="#7954E7"/><stop offset=".75" stop-color="#6844E8"/><stop offset="1" stop-color="#623FE9"/></linearGradient><linearGradient id="paint5_linear" x1="15867.9" y1="22403.8" x2="25382.8" y2="22403.8" gradientUnits="userSpaceOnUse"><stop stop-color="#623FE9"/><stop offset=".25" stop-color="#6844E8"/><stop offset=".59" stop-color="#7954E7"/><stop offset=".97" stop-color="#946DE4"/><stop offset="1" stop-color="#976FE4"/></linearGradient><linearGradient id="paint6_linear" x1="144.725" y1="554.006" x2="149.014" y2="442.41" gradientUnits="userSpaceOnUse"><stop stop-color="#623FE9"/><stop offset=".03" stop-color="#6244E9"/><stop offset=".37" stop-color="#6084EE"/><stop offset=".65" stop-color="#5EB3F1"/><stop offset=".87" stop-color="#5DCFF3"/><stop offset="1" stop-color="#5DDAF4"/></linearGradient><linearGradient id="paint7_linear" x1="206.771" y1="524.642" x2="210.345" y2="368.813" gradientUnits="userSpaceOnUse"><stop stop-color="#56408B"/><stop offset=".15" stop-color="#694997"/><stop offset="1" stop-color="#D77EDB"/></linearGradient></defs></svg>