<svg width="28" height="26" fill="none" xmlns="http://www.w3.org/2000/svg"><path fill-rule="evenodd" clip-rule="evenodd" d="M17.5 5H21c1.7 0 3 1.3 3 3v4.5a1 1 0 1 1-2 0V8c0-.6-.4-1-1-1h-4c-.3 0-.6-.2-.9-.4L14.4 4H9.5L7.8 6.6c-.2.2-.5.4-.8.4H3c-.6 0-1 .4-1 1v11c0 .6.4 1 1 1h12.1a1 1 0 1 1 0 2H3c-1.7 0-3-1.3-3-3V8c0-1.7 1.3-3 3-3h3.5l1.7-2.6c.2-.2.5-.4.8-.4h6c.3 0 .6.2.8.4L17.5 5zM24 17.5V20h2.5a1 1 0 1 1 0 2H24v2.5a1 1 0 1 1-2 0V22h-2.5a1 1 0 1 1 0-2H22v-2.5a1 1 0 1 1 2 0zM7 13c0-2.8 2.2-5 5-5s5 2.2 5 5-2.2 5-5 5-5-2.2-5-5zm2 0c0 1.7 1.3 3 3 3s3-1.3 3-3-1.3-3-3-3-3 1.3-3 3z" fill="#8492A5"/></svg>