<svg width="16" height="16" fill="none" xmlns="http://www.w3.org/2000/svg"><g clip-path="url(#clip0)" fill="#000"><path d="M13.818 5.09H7.273c-1.237 0-2.182.946-2.182 2.183v6.545c0 1.237.945 2.182 2.182 2.182h6.545C15.055 16 16 15.055 16 13.818V7.273c0-1.237-.945-2.182-2.182-2.182zm.727 8.728c0 .437-.29.727-.727.727H7.273c-.437 0-.728-.29-.728-.727V7.273c0-.437.291-.728.728-.728h6.545c.437 0 .727.291.727.728v6.545z"/><path d="M2.91 9.455h-.728c-.437 0-.727-.291-.727-.728V2.182c0-.437.29-.727.727-.727h6.545c.437 0 .728.29.728.727v.727c0 .436.29.727.727.727.436 0 .727-.29.727-.727v-.727C10.91.945 9.964 0 8.727 0H2.182C.945 0 0 .945 0 2.182v6.545c0 1.237.945 2.182 2.182 2.182h.727c.436 0 .727-.29.727-.727s-.29-.727-.727-.727z"/></g><defs><clipPath id="clip0"><path fill="#fff" d="M0 0h16v16H0z"/></clipPath></defs></svg>