<svg width="16" height="16" fill="none" xmlns="http://www.w3.org/2000/svg"><path d="M14.485 2.91h-2.91v-.728C11.576.945 10.63 0 9.395 0h-2.91c-1.235 0-2.18.945-2.18 2.182v.727h-2.91c-.436 0-.727.291-.727.727 0 .437.29.728.727.728h.727v9.454c0 1.237.946 2.182 2.182 2.182h7.273c1.236 0 2.182-.945 2.182-2.182V4.364h.727c.436 0 .727-.291.727-.728 0-.436-.29-.727-.727-.727zm-8.727-.728c0-.437.29-.727.727-.727h2.909c.436 0 .727.29.727.727v.727H5.758v-.727zm6.545 11.636c0 .437-.29.728-.727.728H4.303c-.436 0-.727-.291-.727-.728V4.364h8.727v9.454z" fill="#000"/><path d="M6.485 6.545c-.437 0-.727.291-.727.728v4.363c0 .437.29.728.727.728.436 0 .727-.291.727-.728V7.273c0-.437-.29-.728-.727-.728zm2.909 0c-.436 0-.727.291-.727.728v4.363c0 .437.29.728.727.728.436 0 .727-.291.727-.728V7.273c0-.437-.29-.728-.727-.728z" fill="#000"/></svg>