<svg width="20" height="20" fill="none" xmlns="http://www.w3.org/2000/svg"><g clip-path="url(#clip0)" fill="#B0BBCB"><path d="M17.273 6.364H9.09c-1.546 0-2.727 1.182-2.727 2.727v8.182C6.364 18.818 7.545 20 9.09 20h8.182C18.818 20 20 18.818 20 17.273V9.09c0-1.545-1.182-2.727-2.727-2.727zm.909 10.909c0 .545-.364.909-.91.909h-8.18c-.546 0-.91-.364-.91-.91v-8.18c0-.545.364-.909.91-.909h8.182c.545 0 .909.364.909.909v8.182z"/><path d="M3.636 11.818h-.909c-.545 0-.909-.364-.909-.909V2.727c0-.545.364-.909.91-.909h8.181c.545 0 .91.364.91.91v.908c0 .546.363.91.908.91.546 0 .91-.364.91-.91v-.909C13.636 1.182 12.453 0 10.908 0H2.727C1.182 0 0 1.182 0 2.727v8.182c0 1.545 1.182 2.727 2.727 2.727h.91c.545 0 .908-.363.908-.909 0-.545-.363-.909-.909-.909z"/></g><defs><clipPath id="clip0"><path fill="#fff" d="M0 0h20v20H0z"/></clipPath></defs></svg>