<svg width="20" height="20" fill="none" xmlns="http://www.w3.org/2000/svg"><path d="M18.106 3.636H14.47v-.909C14.47 1.182 13.288 0 11.742 0H8.106C6.561 0 5.379 1.182 5.379 2.727v.91H1.742c-.545 0-.909.363-.909.908 0 .546.364.91.91.91h.908v11.818C2.651 18.818 3.833 20 5.38 20h9.09c1.546 0 2.728-1.182 2.728-2.727V5.455h.909c.545 0 .91-.364.91-.91 0-.545-.365-.909-.91-.909zm-10.91-.909c0-.545.365-.909.91-.909h3.636c.546 0 .91.364.91.91v.908H7.196v-.909zm8.183 14.546c0 .545-.364.909-.91.909H5.38c-.546 0-.91-.364-.91-.91V5.456h10.91v11.818z" fill="#B0BBCB"/><path d="M8.106 8.182c-.546 0-.91.364-.91.91v5.454c0 .545.364.909.91.909.545 0 .909-.364.909-.91V9.092c0-.545-.364-.909-.91-.909zm3.636 0c-.545 0-.909.364-.909.91v5.454c0 .545.364.909.91.909.545 0 .908-.364.908-.91V9.092c0-.545-.363-.909-.909-.909z" fill="#B0BBCB"/></svg>