<svg width="20" height="20" fill="none" xmlns="http://www.w3.org/2000/svg"><g clip-path="url(#clip0)" fill="#B0BBCB"><path d="M17.273 11.546c-.546 0-.91.363-.91.909v4.818c0 .545-.363.909-.909.909H2.727c-.545 0-.909-.364-.909-.91V4.547c0-.546.364-.91.91-.91h4.817c.546 0 .91-.363.91-.909 0-.545-.364-.909-.91-.909H2.727C1.182 1.818 0 3 0 4.546v12.727C0 18.818 1.182 20 2.727 20h12.727c1.546 0 2.728-1.182 2.728-2.727v-4.818c0-.546-.364-.91-.91-.91z"/><path d="M19.727 3.91L16.091.272a.879.879 0 0 0-1.273 0l-9.09 9.09a.825.825 0 0 0-.273.637v3.636c0 .546.363.91.909.91H10a.825.825 0 0 0 .636-.273l9.091-9.091a.879.879 0 0 0 0-1.273zm-10.09 8.817H7.272v-2.363l8.182-8.182 2.363 2.363-8.182 8.182z"/></g><defs><clipPath id="clip0"><path fill="#fff" d="M0 0h20v20H0z"/></clipPath></defs></svg>