<svg width="16" height="16" fill="none" xmlns="http://www.w3.org/2000/svg"><path fill-rule="evenodd" clip-rule="evenodd" d="M3.333 4.667a.667.667 0 0 0-.666.666v7.334a.667.667 0 0 0 .667.666h7.333a.667.667 0 0 0 .667-.666v-4a.667.667 0 0 1 1.333 0v4a2 2 0 0 1-2 2H3.334a2 2 0 0 1-2-2V5.333a2 2 0 0 1 2-2h4a.667.667 0 0 1 0 1.334h-4zM9.334 2c0-.368.298-.667.666-.667h4c.368 0 .667.299.667.667v4a.667.667 0 1 1-1.333 0V2.667H10A.667.667 0 0 1 9.334 2z" fill="#293554"/><path fill-rule="evenodd" clip-rule="evenodd" d="M14.472 1.529c.26.26.26.682 0 .942L7.138 9.805a.667.667 0 0 1-.943-.943l7.334-7.333c.26-.26.682-.26.943 0z" fill="#293554"/></svg>