<svg width="16" height="16" fill="none" xmlns="http://www.w3.org/2000/svg"><path fill-rule="evenodd" clip-rule="evenodd" d="M6.09.744a.833.833 0 0 1 0 1.179L2.511 5.5l3.577 3.577a.833.833 0 1 1-1.178 1.179L.744 6.089a.833.833 0 0 1 0-1.178L4.911.744a.833.833 0 0 1 1.178 0z" fill="#fff"/><path fill-rule="evenodd" clip-rule="evenodd" d="M.5 5.5c0-.46.373-.833.833-.833h10A4.167 4.167 0 0 1 15.5 8.833v5.834a.833.833 0 0 1-1.667 0V8.833a2.5 2.5 0 0 0-2.5-2.5h-10A.833.833 0 0 1 .5 5.5z" fill="#fff"/></svg>