<svg width="569" height="390" fill="none" xmlns="http://www.w3.org/2000/svg"><path d="M131.5 224.265l-1.7-8.017 7.9 1.403-6.2 6.614zm400.1-17.539l-5.4-6.013 7.5-2.806-2.1 8.819zM85.9 255.234l-6.8-4.409 6.6-4.611.2 9.02zm299.2-84.989l7.4-3.508.4 8.118-7.8-4.61zm-223.4 201.55l-1.7-7.918 7.9 1.403-6.2 6.515zm-14.4-256.874l-7.1-4.008 6.3-5.012.8 9.02zm44.6 103.131l-7.099-3.909 6.299-5.011.8 8.92zM83 72.426l-7.1-4.009 6.3-5.01.8 9.02zm338.7 71.059l-1.7-7.918 7.9 1.404-6.2 6.514zm66.8 153.142l-1.7-7.918 8 1.403-6.3 6.515zM313 8.083L311.3.065l7.9 1.403-6.2 6.615zm63.2 58.931l-1.7-7.917 8 1.403-6.3 6.514z" fill="#F7C800"/><path d="M74.6 177.862l4.8-6.515 4.2 6.916-9-.401zm246.3 136.605l4.9-6.515 4.2 6.916-9.1-.401zm140.3-205.259l4.8-6.514 4.2 6.915-9-.401zm50.4 79.278l4.9-6.515 4.1 6.916-9-.401zM399.5 310.157l4.8-6.514 4.2 6.915-9-.401zm66.2 32.874l4.8-6.515 4.2 6.916-9-.401zM522.9 87.36l4.8-6.515 4.2 6.916-9-.401zm-10.5 35.479l7.5 3.107-5.7 5.713-1.8-8.82zM116.2 294.923l4.8 6.514-7.8 2.005 3-8.519z" fill="#855893"/><path d="M206.2 177.361l7.7-2.405-.6 8.017-7.1-5.612zM448.3 67.014l3.9-7.116 5.1 6.315-9 .801zM94.5 357.563l-4.7-6.615 7.8-1.904-3.1 8.519zm311.2-103.932l-4.7-6.615 7.8-1.904-3.1 8.519zm43.2 70.858l.7-8.118 7.2 3.708-7.9 4.41zM254.1 12.192l.8-8.118 7.1 3.708-7.9 4.41zm162.8 335.85l.8-8.018 7.1 3.708-7.9 4.31zM143.7 14.898l.8-8.118 7.2 3.808-8 4.31zM53.1 311.16l-4.7-6.615 7.8-1.904-3.1 8.519zm-32.6-10.324l-4.7-6.614 7.8-1.805-3.1 8.419zM129.8 78.74l4.5-6.815 4.6 6.615-9.1.2zm351.8 35.38l.9 8.118-7.8-2.205 6.9-5.913zm-6.9 125.079l.9 8.018-7.8-2.205 6.9-5.813zm55.6 13.329l4.4-6.815 4.6 6.615-9 .2zM497.6 90.467l7.8-2.205-.9 8.018-6.9-5.813zm-116.3 54.321l6 5.412-7.2 3.508 1.2-8.92zM356 235.089l-.6 8.118-7.3-3.608 7.9-4.51z" fill="#DE3A4F"/><path d="M184 182.973l-7.5-.902 3.9-7.115 3.6 8.017zm10.3 121.672l-4.8-5.813 7.7-2.406-2.9 8.219zm24.4 59.633l-4.8-5.813 7.7-2.405-2.9 8.218zm189.1 11.125l-4.8-5.813 7.7-2.405-2.9 8.218zm86.6-153.543l-4.8-5.813 7.7-2.405-2.9 8.218zM92.8 102.894L89 96.38l7.9-1.203-4.1 7.717zM569 164.432l-7.5-.902 3.9-7.016 3.6 7.918zm-31.5 158.253l-7.5-.902 3.9-7.116 3.6 8.018zM398.7 141.781l4.8-5.813 3.8 7.116-8.6-1.303zm90.5-99.421l7.3-1.805-1.1 7.918-6.2-6.114zM217.7 18.305l7.4-1.803-1.1 7.917-6.3-6.114z" fill="#8EB447"/><path d="M450.3 174.654c9.4-2.505 19.2-3.608 28.9-3.908 9.7-.401 19.4.1 29.1 1.302 2.4.301 4.8.802 7.2 1.203l3.6.602 3.5.801c2.4.501 4.7 1.003 7.1 1.504 2.3.601 4.7 1.102 7.1 1.703l3.6.702c1.2.301 2.3.601 3.5.902 2.4.601 4.7 1.203 7.1 1.704.6.1 1.2.301 1.8.401l1.8.501 3.5 1.002c2.4.601 4.7 1.203 7.2 1.804.1 0 .3-.1.3-.2 0-.101 0-.201-.1-.301-2.2-1.203-4.4-2.305-6.6-3.408l-3.3-1.603c-1.1-.602-2.2-1.103-3.4-1.504-2.3-.902-4.6-1.804-6.9-2.605-1.2-.401-2.3-.802-3.5-1.203l-3.6-1.002c-2.4-.702-4.8-1.303-7.2-1.905-2.4-.501-4.9-.902-7.3-1.302l-3.7-.602-3.7-.401c-2.5-.2-4.9-.501-7.4-.701-9.9-.702-19.8-.702-29.6.1l-3.7.401-3.7.501c-2.4.301-4.9.802-7.3 1.203-4.8 1.002-9.6 2.104-14.3 3.808-.1 0-.2.201-.1.301-.2.1-.1.2.1.2z" fill="url(#paint0_linear)"/><path d="M446.3 171.147c7.5-2.706 15.1-5.212 22.8-7.417 7.7-2.205 15.4-4.209 23.2-5.813 3.9-.701 7.8-1.503 11.7-1.904l2.9-.401c1-.2 2-.301 2.9-.401 2-.3 3.9-.601 5.9-.902 1.9-.301 3.9-.501 5.9-.802 1-.1 2-.3 2.9-.401 1-.1 2-.2 2.9-.3l3-.301 1.5-.2 1.5-.101c2-.2 4-.3 6-.601.1 0 .2-.1.2-.301 0-.1-.1-.2-.2-.2-2-.501-4-.802-6-1.203l-1.5-.2-1.5-.1c-1-.101-2-.101-3-.201s-2-.1-3.1-.2h-3.1c-2 .1-4.1.1-6.1.2-8.1.602-16 2.706-23.8 4.711-7.8 2.104-15.5 4.61-23.1 7.316-1.9.702-3.8 1.403-5.6 2.105-1.9.701-3.7 1.503-5.6 2.205-3.7 1.503-7.4 3.107-11 4.911-.1.1-.2.2-.1.3.1.101.3.201.4.201z" fill="url(#paint1_linear)"/><path d="M431.9 174.755c-2.5-.201-5.1-.1-7.6 0-1.3.1-2.5.2-3.8.301l-3.8.4-3.8.602-3.8.701c-1.3.201-2.5.602-3.7.902-1.3.301-2.5.702-3.7 1.003-2.5.701-4.9 1.503-7.4 2.405-1.2.501-2.4 1.002-3.6 1.604-.6.3-1.2.601-1.7.902l-1.7 1.002c-1.1.701-2.2 1.403-3.2 2.205s-2 1.603-3 2.505c-.5.401-1 .802-1.4 1.303l-1.3 1.403c-.9 1.003-1.7 2.005-2.5 3.007-.1.1-.1.301.1.401.1.1.2.1.3 0 4.8-2.005 9.1-4.51 13.6-6.515 4.4-2.004 8.7-4.61 13.3-6.414 1.1-.501 2.3-.902 3.5-1.303 1.2-.401 2.3-.802 3.5-1.202l3.6-1.103 3.6-1.002c4.8-1.203 9.8-2.105 14.8-2.606.1 0 .2-.1.2-.301-.3-.1-.4-.2-.5-.2z" fill="url(#paint2_linear)"/><path d="M429.7 181.47c-1.7 1.102-3.3 2.305-4.9 3.608-1.6 1.202-3.1 2.606-4.6 3.908-.8.702-1.5 1.404-2.2 2.105-.7.702-1.5 1.403-2.2 2.105-1.4 1.503-2.7 3.007-4.1 4.51-1.3 1.603-2.6 3.107-3.9 4.811-1.3 1.603-2.2 3.507-3.1 5.412-.7 2.004-1.5 3.908-1.8 6.013-.5 2.005-.5 4.21-.4 6.314 0 .1.1.301.3.201.1 0 .1 0 .2-.101 1.3-1.703 2.1-3.507 3.2-5.111 1-1.704 2-3.307 3-5.011.5-.802 1-1.604 1.5-2.506.4-.802.9-1.704 1.4-2.505.9-1.704 1.8-3.408 2.9-5.112 1.1-1.603 2.2-3.207 3.4-4.81.6-.802 1.2-1.604 1.8-2.306.6-.801 1.2-1.603 1.9-2.305 2.5-3.107 5.2-6.013 8-8.819.1-.101.1-.301 0-.401-.2-.101-.3-.101-.4 0z" fill="url(#paint3_linear)"/><path d="M435 184.577c-1.6 3.407-3 6.815-4.5 10.222l-2.2 5.112-2.1 5.111c-.7 1.704-1.5 3.408-2.2 5.112-.7 1.703-1.4 3.407-1.8 5.211-.9 3.608-1.6 7.317-1.5 11.225 0 .101.1.301.3.301.1 0 .2 0 .2-.1 2.5-3.107 4.2-6.415 5.7-9.822.7-1.704 1.3-3.508 1.8-5.312.4-1.804.8-3.608 1.3-5.412l1.5-5.412 1.4-5.412c.9-3.608 1.8-7.216 2.6-10.824 0-.101-.1-.301-.2-.301-.2.1-.3.2-.3.301z" fill="url(#paint4_linear)"/><path d="M442 180.267c3.9 8.218 6.4 17.138 8.6 26.058l.8 3.308.8 3.307c.5 2.205 1 4.51 1.5 6.715l1.3 6.715 1.2 6.815c.8 4.51 1.4 9.12 2 13.63.6 4.511 1.3 9.121 2.1 13.631l1.2 6.815 1.3 6.815c.9 4.51 1.8 9.02 3.1 13.531 0 .1.2.2.3.2.1 0 .2-.1.2-.2.2-4.611.1-9.321-.1-13.932-.2-4.61-.7-9.22-1.1-13.83-.5-4.611-1.3-9.121-2.2-13.731l-1.5-6.815c-.5-2.305-1-4.51-1.5-6.815l-1.6-6.715-1.7-6.715c-.5-2.205-1.2-4.511-1.8-6.715l-1-3.308-1-3.307-1.1-3.308-1.2-3.307c-.7-2.205-1.6-4.31-2.4-6.515-1.7-4.309-3.5-8.519-6-12.527-.1-.101-.2-.201-.3-.101.1 0 0 .201.1.301z" fill="url(#paint5_linear)"/><path d="M442.1 175.256c3 1.704 5.6 4.209 8 6.815 1.2 1.303 2.3 2.606 3.4 4.009l1.6 2.105 1.5 2.104c2.1 2.907 3.5 6.114 5.8 8.82 1.1 1.403 2.2 2.706 3.5 4.109 1.2 1.303 2.5 2.606 4 3.809.1.1.3.1.4 0 0-.1.1-.1.1-.201-.3-1.904-.8-3.708-1.5-5.412-.7-1.704-1.5-3.407-2.3-5.011-.9-1.603-2-3.107-3.1-4.51-1.3-1.303-2.5-2.706-3.7-4.109-2.4-2.706-5.1-5.312-8-7.517-1.4-1.102-3-2.205-4.5-3.107-1.6-.902-3.2-1.804-5-2.305-.1 0-.3 0-.3.2-.1 0 0 .101.1.201z" fill="url(#paint6_linear)"/><path d="M458.3 177.16c2.4-.2 4.8 0 7.1.201 2.3.3 4.7.802 6.9 1.503 1.1.301 2.3.601 3.3 1.103 1.1.4 2.2.801 3.2 1.302 1 .502 2.1.902 3.1 1.504l3 1.804c1 .601 1.9 1.403 2.8 2.105.5.4.9.701 1.4 1.102l1.3 1.203 1.3 1.102c.4.401.9.702 1.3 1.103.8.801 1.7 1.603 2.5 2.305.4.401.9.701 1.3 1.102l1.2 1.203c.8.802 1.7 1.603 2.6 2.405 1.7 1.704 3.3 3.408 5.3 5.011.1.101.3.101.4 0 .1-.1.1-.2 0-.2-.8-2.405-1.8-4.71-3-6.915-.6-1.103-1.3-2.105-2.1-3.107l-1.1-1.504c-.4-.501-.8-.902-1.2-1.403-.9-.902-1.7-1.804-2.6-2.706-.9-.902-2-1.603-3-2.305l-1.6-1.102c-.5-.401-1.1-.602-1.6-1.003-1.1-.601-2.2-1.303-3.3-1.904-4.5-2.305-9.2-3.909-14.1-4.71-4.9-.802-9.9-.903-14.7.2-.1 0-.2.2-.2.301.2.2.3.3.5.3z" fill="url(#paint7_linear)"/><path d="M445.1 166.536c3.2-3.107 6.5-6.113 9.9-8.819.8-.702 1.7-1.404 2.6-2.005.9-.702 1.8-1.303 2.7-1.904 1.8-1.303 3.6-2.506 5.4-3.708.9-.602 1.9-1.103 2.8-1.604.9-.501 1.9-1.002 2.9-1.503 1-.502 1.9-1.003 2.9-1.504.5-.3.9-.501 1.4-.802.5-.3.9-.601 1.4-.801.9-.501 1.9-1.003 2.8-1.604.9-.601 1.9-1.002 2.9-1.503 1.9-1.103 3.9-2.005 5.9-3.207.1-.101.2-.201.1-.401 0-.101-.1-.101-.2-.101-2.3-.1-4.7-.1-6.9.401-2.3.301-4.5 1.103-6.7 1.905-1.1.4-2.1 1.002-3.1 1.503-.5.301-1 .601-1.5.802l-1.4 1.002c-.9.702-1.9 1.303-2.8 2.004l-2.7 2.105c-1.8 1.403-3.5 2.806-5.2 4.41-.8.802-1.7 1.503-2.5 2.305l-2.4 2.406c-1.5 1.603-3.1 3.307-4.5 5.011-1.5 1.703-2.8 3.508-4.1 5.312-.1.1-.1.3.1.3-.1.1.1.1.2 0z" fill="url(#paint8_linear)"/><path d="M442.4 166.436c1.8-3.307 3.6-6.615 5.5-9.822 1-1.604 1.9-3.207 3-4.71 1-1.604 2-3.107 3.1-4.611a71.53 71.53 0 0 1 3.4-4.309c1.2-1.404 2.3-2.807 3.3-4.31 2.1-3.007 4.1-5.913 6.1-9.421.1-.1 0-.301-.1-.401h-.2c-3.8 1.403-6.9 3.909-9.6 6.615a31.098 31.098 0 0 0-3.5 4.61c-1 1.704-1.8 3.408-2.8 5.011-.9 1.704-1.8 3.408-2.6 5.112-.8 1.704-1.6 3.508-2.3 5.211-1.4 3.508-2.8 7.116-3.8 10.724 0 .101 0 .301.2.301.2.2.3.1.3 0z" fill="url(#paint9_linear)"/><path d="M442.5 151.904c1.2-4.611 2.2-9.221 3.3-13.831l1.6-6.916 1.5-6.915c.5-2.305 1.1-4.61 1.6-6.916.5-2.305.9-4.61 1.2-7.015.2-2.406.4-4.711.4-7.116 0-2.405 0-4.81-.3-7.216 0-.1-.1-.2-.3-.2-.1 0-.2.1-.2.1-1.1 2.204-1.9 4.51-2.7 6.715-.7 2.305-1.4 4.61-1.9 6.915-.5 2.305-.9 4.61-1.1 7.016-.2 2.405-.4 4.71-.7 7.116l-.8 7.015-.8 7.116c-.4 4.711-1 9.421-1.3 14.132 0 .1.1.3.2.3l.3-.3z" fill="url(#paint10_linear)"/><path d="M438.8 165.634c.5-7.015.5-14.131.4-21.147-.1-3.508-.2-7.015-.4-10.624-.2-3.507-.5-7.015-.8-10.623-.3-3.508-.7-7.016-1.2-10.624-.5-3.508-1.2-7.016-2.2-10.523-1-3.408-2.3-6.816-3.8-10.123-1.5-3.207-3.4-6.414-5.7-9.12-.1-.1-.3-.1-.4 0-.1.1-.1.2-.1.3 2.2 6.816 3.8 13.43 5.1 20.145.7 3.408 1.4 6.715 2.2 10.123.8 3.407 1.5 6.815 2.1 10.223 1.1 6.915 2 13.831 2.7 20.846.7 7.016 1.2 13.931 1.6 20.947 0 .1.1.2.3.2.1.201.2.101.2 0z" fill="url(#paint11_linear)"/><path d="M436.8 169.042c-.3-1.704-.9-3.207-1.7-4.711-.8-1.503-1.8-2.806-3-4.109-.6-.601-1.2-1.202-1.9-1.804-.6-.601-1.4-1.002-2-1.603-.7-.501-1.5-.902-2.2-1.303-.4-.201-.7-.401-1.1-.602l-1.2-.501-1.2-.501c-.4-.2-.8-.401-1.2-.501l-2.4-.902c-1.6-.601-3.3-.802-5-.902-1.7 0-3.4.1-5.1.401-1.7.401-3.3.802-4.9 1.503-.1.101-.2.201-.1.401 0 .1.1.1.1.1 1.6.702 3.2 1.103 4.8 1.504 1.5.401 3.1.802 4.6 1.102 2.9.802 6.1.702 8.9 1.604l1.1.3c.4.101.7.301 1.1.401.7.301 1.4.501 2.1.902.7.401 1.4.702 2 1.103.6.401 1.3.802 1.9 1.303 2.4 1.804 4.6 4.209 5.9 7.116.1.1.2.2.3.1.1-.201.2-.301.2-.401z" fill="url(#paint12_linear)"/><path d="M431.8 170.645c-2-.902-4-1.603-6-2.305-2-.701-4.1-1.403-6.1-2.004-1-.301-2.1-.602-3.1-.902-1-.301-2.1-.501-3.1-.802-2.1-.501-4.2-.902-6.4-1.303-2.1-.301-4.3-.701-6.5-1.002-2.2-.301-4.4-.301-6.6-.1-2.2.3-4.4.601-6.5 1.202-2.1.501-4.2 1.504-6.1 2.606-.1.1-.2.201-.1.401 0 .1.1.1.2.1 2.2.301 4.3.201 6.4.401 2.1.1 4.2.201 6.2.301 2.1.2 4.1.1 6.2.1 2.1-.1 4.2-.1 6.2 0 2.1.2 4.2.301 6.3.601 1 .101 2.1.201 3.1.401 1 .101 2.1.301 3.1.401 4.2.602 8.3 1.403 12.5 2.406.1 0 .3-.101.3-.201.2-.1.1-.301 0-.301z" fill="url(#paint13_linear)"/><path d="M408 190.089c-4.7 2.305-9.1 5.111-13.5 7.918-2.2 1.503-4.3 3.006-6.4 4.51-2.1 1.603-4.2 3.207-6.2 4.911-4 3.407-8.2 6.815-11.2 11.325-1.5 2.205-2.9 4.51-4 7.016-1.1 2.505-1.9 5.111-2.1 7.817 0 .1.1.301.2.301s.2 0 .2-.101c1.6-2.204 3.1-4.209 4.7-6.213 1.6-2.005 3.2-3.909 4.9-5.713 1.6-1.904 3.3-3.809 4.9-5.713 1.6-2.004 3.3-3.909 5.1-5.713a140.5 140.5 0 0 1 5.6-5.312c1.9-1.703 3.8-3.407 5.8-5.111 3.9-3.307 8-6.515 12.3-9.521.1-.1.1-.201.1-.301-.1-.1-.3-.1-.4-.1z" fill="url(#paint14_linear)"/><path d="M438.3 214.243c-.2 3.708-.4 7.417-.8 11.125-.2 1.804-.4 3.708-.6 5.512-.2 1.804-.5 3.709-.7 5.513-.3 1.804-.7 3.608-1.1 5.412-.4 1.804-.7 3.608-.9 5.412-.3 3.608-.7 7.216-.5 11.225 0 .1.1.301.3.301.1 0 .2 0 .2-.101 1.2-1.603 2.2-3.307 3-5.011.8-1.804 1.4-3.608 1.9-5.412.5-1.904.8-3.708.8-5.612.1-1.905.1-3.809.2-5.713 0-1.905.1-3.809.1-5.713s-.1-3.808-.2-5.613c-.3-3.808-.6-7.516-1.2-11.225 0-.1-.2-.2-.3-.2-.1-.2-.2-.1-.2.1z" fill="url(#paint15_linear)"/><path d="M485.7 221.359c.6 3.207 1.2 6.414 1.7 9.622.3 1.603.5 3.207.7 4.81.3 1.604.5 3.208.7 4.811.2 1.604.3 3.207.4 4.811.1 1.603.3 3.207.6 4.71.7 3.107 1.4 6.214 2.8 9.421.1.101.2.201.4.101.1 0 .1-.101.1-.101 1.4-3.307 1.7-6.715 1.6-10.022-.1-1.704-.3-3.307-.7-4.911-.4-1.604-.9-3.207-1.3-4.811-.4-1.603-.9-3.207-1.4-4.71-.5-1.604-1-3.107-1.5-4.711-1.1-3.107-2.3-6.214-3.6-9.12-.1-.1-.2-.201-.3-.1-.1 0-.2.1-.2.2z" fill="url(#paint16_linear)"/><path d="M107.5 224.165c-1.8 3.508-3.5 7.016-5.2 10.624l-4.8 10.824c-3 7.316-5.8 14.733-8.3 22.25-2.4 7.516-5 15.133-6.1 23.051-.3 2.005-.5 4.009-.7 5.913-.1 1.003-.2 2.005-.2 3.007 0 1.002-.1 2.005-.1 3.007v4.51l.1 1.503c.2 2.005.4 4.009.7 6.014 0 .1.2.2.3.2.1 0 .2-.1.2-.2.5-2.005.8-3.909 1.1-5.813l.2-1.403.3-1.404c.2-1.002.4-1.904.6-2.906.2-1.002.4-1.904.5-2.907.2-1.002.4-1.904.6-2.806l1.2-5.713c.4-1.904.9-3.808 1.3-5.712.2-1.003.4-1.905.6-2.807l.6-2.906.6-2.907.6-2.906c.5-1.904.9-3.809 1.4-5.713l1.5-5.612c.5-1.905 1.1-3.709 1.7-5.613.5-1.904 1.1-3.708 1.7-5.612.6-1.905 1.2-3.709 1.8-5.613 2.4-7.417 5.1-14.833 8-22.149.1-.101 0-.301-.1-.301.1 0-.1 0-.1.1z" fill="url(#paint17_linear)"/><path d="M337.5 368.186c4.1-4.51 8.5-8.819 13.1-12.728 2.3-2.004 4.6-3.909 7-5.813 2.4-1.904 4.8-3.708 7.3-5.312 2.5-1.704 5.1-3.207 7.7-4.61l7.8-4.21c2.6-1.403 5.3-2.706 8-3.908 2.7-1.203 5.5-2.305 8.5-3.408.1 0 .2-.2.2-.301 0-.1-.1-.2-.2-.2-6.3-.601-12.7.802-18.5 3.207a44.432 44.432 0 0 0-8.3 4.51c-2.6 1.804-5.1 3.709-7.5 5.613-4.9 3.808-9.4 8.118-13.7 12.528-4.2 4.51-8.2 9.22-11.8 14.232-.1.1-.1.3.1.3 0 .301.2.201.3.1z" fill="url(#paint18_linear)"/><path d="M337.5 351.45c2.4-4.511 4.8-9.121 7.2-13.631 1.2-2.205 2.4-4.51 3.7-6.715 1.2-2.205 2.5-4.51 3.8-6.715 1.3-2.205 2.6-4.41 4-6.514l2-3.208c.3-.601.6-1.102.9-1.603.3-.601.6-1.103.9-1.704 2.4-4.51 4.6-8.92 7.2-13.43.1-.1 0-.301-.1-.301h-.3c-1.1.702-2.3 1.404-3.3 2.306-1 .902-2 1.804-2.9 2.806-.9 1.002-1.8 2.004-2.6 3.007-.8 1.002-1.6 2.104-2.3 3.207-1.5 2.205-2.8 4.41-3.9 6.815l-3.3 7.116c-1.1 2.305-2.2 4.71-3.2 7.116-1 2.405-2 4.81-3 7.116-1.9 4.81-3.8 9.621-5.4 14.532 0 .1 0 .301.2.301.2-.301.3-.401.4-.501z" fill="url(#paint19_linear)"/><path d="M237.5 343.131c-.3-2.506-.7-5.011-1.3-7.517-.5-2.506-1.2-4.911-1.9-7.417-1.5-4.911-3.3-9.721-5.7-14.332-1.2-2.305-2.4-4.61-3.8-6.815a29.035 29.035 0 0 0-5.1-6.013c-2-1.804-4.1-3.308-6.5-4.611-2.4-1.202-4.9-2.104-7.5-2.505-.1 0-.3.1-.3.2 0 .101 0 .201.1.201 2 1.704 3.9 3.207 5.7 4.911 1.7 1.704 3.4 3.407 5 5.211l4.7 5.513c1.6 1.804 3 3.808 4.4 5.913 1.3 2.105 2.5 4.209 3.7 6.414 1.1 2.205 2.2 4.41 3.2 6.715 2 4.61 3.7 9.321 5 14.132 0 .1.2.2.3.2-.1 0 0-.1 0-.2z" fill="url(#paint20_linear)"/><path d="M233 349.044a43.22 43.22 0 0 0-4.2-6.314c-.8-1.002-1.6-2.005-2.4-2.907-.8-1.002-1.7-1.904-2.6-2.806-1.8-1.804-3.5-3.808-5.9-4.911-1.2-.501-2.4-1.002-3.7-1.303-1.3-.3-2.7-.401-4.1-.2-.2 0-.3.2-.2.3 0 .101 0 .101.1.101 1.7 2.205 3.5 3.708 5.3 5.211.5.401.9.702 1.4 1.103l1.5.902c1.1.601 2.1 1.102 3.1 1.804 1 .701 2 1.403 2.9 2.105 1 .701 1.9 1.503 2.9 2.204 1.9 1.504 3.8 3.107 5.6 4.811.1.1.3.1.4 0 0 .1 0-.1-.1-.1z" fill="url(#paint21_linear)"/><path d="M149.4 331.204c-2.3-1.102-4.7-1.904-7.1-2.606-1.2-.3-2.4-.701-3.7-.902-1.2-.3-2.5-.501-3.7-.701-2.5-.401-5.1-1.002-7.7-.501-1.3.3-2.5.601-3.8 1.202-1.2.501-2.4 1.303-3.4 2.306-.1.1-.1.3 0 .4l.1.101c2.7.701 5 .902 7.4 1.102.6 0 1.2.1 1.8 0 .6 0 1.2-.1 1.8-.2 1.2-.201 2.4-.301 3.6-.401 1.2 0 2.4-.1 3.6 0 1.2 0 2.4 0 3.6.1 2.4.1 4.9.301 7.3.601.1 0 .3-.1.3-.2 0-.201 0-.301-.1-.301z" fill="url(#paint22_linear)"/><path d="M203.4 372.998c-.5-3.709-1.2-7.417-2-11.025-.8-3.608-1.7-7.316-2.7-10.924-1.1-3.608-2.2-7.216-3.5-10.724-1.3-3.508-2.8-7.016-4.5-10.423-1.7-3.408-3.5-6.715-5.5-10.023-2-3.207-4.5-6.214-7.3-8.92-.7-.601-1.4-1.303-2.2-1.904-.8-.601-1.5-1.203-2.3-1.804-1.6-1.102-3.3-2.105-5-2.907-3.5-1.703-7.3-2.806-11.1-2.906-.1 0-.3.1-.3.2 0 .101.1.201.2.201 6.8 3.107 12.5 7.316 17.2 12.628 4.7 5.212 9.2 10.924 12.9 17.239 1.8 3.207 3.4 6.414 4.9 9.821 1.5 3.308 2.9 6.715 4.2 10.223 2.6 6.916 4.8 14.032 6.6 21.248 0 .1.2.2.3.2 0 .1.1-.1.1-.2z" fill="url(#paint23_linear)"/><path d="M345.3 305.346c1.3-5.312 3-10.423 5-15.434 1-2.506 2.1-4.911 3.3-7.317 1.2-2.405 2.4-4.81 3.8-7.015 2.8-4.51 6.3-8.419 9.6-12.428 1.7-1.904 3.5-3.809 5.4-5.613 1.9-1.804 4-3.407 6.2-5.211.1-.1.1-.301 0-.401-.1-.1-.2-.1-.2-.1-2.8.501-5.5 1.503-8 2.806-2.5 1.403-4.8 3.107-7 5.011-2.1 2.005-3.9 4.21-5.4 6.515-1.5 2.405-2.8 4.911-4.1 7.416a88.974 88.974 0 0 0-6 15.535c-.7 2.706-1.4 5.312-1.9 8.018-.5 2.706-1 5.412-1.2 8.118 0 .1.1.301.2.301s.2-.101.3-.201z" fill="url(#paint24_linear)"/><path d="M120.2 183.274c-2-2.706-4.1-5.412-6.3-8.018l-3.3-3.909c-1.1-1.303-2.2-2.606-3.4-3.908-4.6-5.112-9.3-10.023-14.3-14.733-5-4.711-9.9-9.622-15.8-13.23-1.4-1.002-3-1.804-4.5-2.606l-2.3-1.202c-.8-.401-1.6-.702-2.4-1.103-1.6-.701-3.2-1.403-4.8-1.904-1.7-.501-3.3-1.002-5-1.403-.1 0-.3.1-.3.2s0 .201.1.301c1.4 1.102 2.8 2.004 4.2 3.007.3.2.7.401 1.1.701l1 .802c.7.501 1.4 1.002 2 1.503.7.501 1.4 1.003 2.1 1.403l2 1.504 2 1.503c.7.501 1.4 1.002 2 1.504 1.3 1.002 2.6 2.004 4 3.006 1.3 1.002 2.7 2.005 4 3.007l2.1 1.503 2 1.504c1.3 1.002 2.7 2.004 4 3.107l3.9 3.307 3.8 3.408c1.3 1.102 2.5 2.305 3.8 3.407 1.3 1.103 2.5 2.305 3.7 3.508 4.9 4.61 9.7 9.421 14.4 14.432.1.1.3.1.4 0-.2-.401-.2-.501-.2-.601z" fill="url(#paint25_linear)"/><path d="M107.9 151.202c-1.7-5.011-3.6-9.922-5.4-14.833l-2.9-7.316-3-7.316c-1-2.406-2-4.911-3-7.317-1-2.405-2.2-4.811-3.6-7.116-1.4-2.305-2.8-4.51-4.5-6.614-1.6-2.105-3.4-4.21-5.6-5.914-.1-.1-.3-.1-.4 0-.1.1-.1.2 0 .301 1.9 5.011 3.9 9.722 6 14.532 1.1 2.406 2.3 4.711 3.6 6.916 1.3 2.305 2.6 4.51 3.9 6.815l7.3 13.931 7.3 14.032c.1.1.2.2.3.1 0 .1.1-.101 0-.201z" fill="url(#paint26_linear)"/><path d="M127.5 170.846c-.3-5.713-.7-11.325-1-17.038l-.6-8.519-.7-8.519c-.2-2.806-.4-5.713-.5-8.519-.2-2.806-.5-5.613-1-8.419s-1.1-5.612-1.7-8.419c-.7-2.806-1.5-5.512-2.5-8.318-.1-.1-.2-.201-.3-.1-.1 0-.2.1-.2.2-.4 2.907-.5 5.813-.5 8.619 0 2.907.1 5.713.3 8.519.2 2.807.5 5.613 1 8.419l1.5 8.419 1.3 8.419 1.4 8.419c1 5.612 1.9 11.225 3 16.837 0 .1.2.201.3.201.1 0 .2-.101.2-.201z" fill="url(#paint27_linear)"/><path d="M113.8 192.795c-4.8-1.403-9.6-2.205-14.5-2.906-4.9-.602-9.8-1.002-14.8-1.103-9.9-.2-19.8.501-29.6 2.105s-19.6 3.809-28.8 7.817c-4.6 2.005-9.1 4.21-13.3 6.715-2.2 1.203-4.2 2.606-6.3 4.009-2 1.404-4 2.907-5.9 4.511-.1.1-.1.2 0 .4.1.101.2.101.3.101 2.3-.902 4.5-2.005 6.8-2.907 2.3-.902 4.5-2.004 6.7-2.806 1.1-.501 2.3-.902 3.4-1.403l3.4-1.303c2.2-.902 4.5-1.704 6.8-2.506 4.6-1.603 9.1-3.207 13.7-4.71 2.3-.802 4.6-1.403 6.9-2.105 2.3-.601 4.7-1.203 7.1-1.704 9.5-2.104 19.1-3.307 28.9-3.608 9.7-.301 19.5.1 29.1 2.005.1 0 .3-.101.3-.201 0-.2-.1-.401-.2-.401z" fill="url(#paint28_linear)"/><path d="M92.1 203.018c-3.4.902-6.8 2.005-10.1 3.207-3.3 1.203-6.7 2.406-9.9 3.709-3.3 1.303-6.5 2.706-9.8 4.209-1.6.702-3.2 1.503-4.8 2.305l-4.8 2.406c-6.3 3.207-12.7 6.614-18.3 11.024-1.4 1.103-2.8 2.305-4.1 3.408-1.3 1.202-2.6 2.405-3.9 3.708l-1.9 1.904c-.6.702-1.2 1.403-1.8 2.005-1.1 1.403-2.3 2.806-3.3 4.209-.1.1-.1.301.1.401.1.1.2.1.3 0 6.1-3.808 11.7-7.918 17.5-11.626.7-.501 1.4-1.002 2.2-1.403l2.2-1.403c1.4-1.002 2.8-2.005 4.3-3.007l4.3-3.007 4.4-2.806 4.5-2.706c1.5-.902 3-1.804 4.6-2.606 3.1-1.704 6.2-3.307 9.3-4.911 6.3-3.207 12.7-6.113 19.2-8.719.1-.1.2-.201.1-.301 0 0-.1-.1-.3 0z" fill="url(#paint29_linear)"/><path d="M111 201.915c-2.6 2.205-5.1 4.41-7.5 6.816-2.4 2.305-4.8 4.81-7.1 7.216-2.3 2.505-4.5 5.011-6.6 7.617l-1.6 2.004-1.5 2.005c-1 1.403-2.1 2.706-3 4.109-4 5.512-7.9 11.125-10.7 17.439-.6 1.603-1.3 3.207-1.9 4.811-.3.801-.5 1.603-.8 2.405-.3.802-.5 1.604-.7 2.506-.2.801-.5 1.603-.7 2.505-.2.802-.3 1.704-.5 2.506-.2 1.704-.5 3.407-.6 5.111 0 .1.1.301.2.301s.2 0 .2-.1c3.2-6.114 5.9-12.027 9.1-17.74.3-.702.8-1.403 1.2-2.205l1.2-2.205c.8-1.503 1.5-2.906 2.3-4.41.8-1.503 1.5-2.906 2.3-4.41l2.5-4.309c.8-1.403 1.8-2.806 2.7-4.21l1.4-2.104 1.4-2.005c1.9-2.706 3.9-5.412 5.9-8.018 4-5.311 8.4-10.423 12.9-15.234.1-.1.1-.3 0-.401.2-.1 0-.1-.1 0z" fill="url(#paint30_linear)"/><path d="M134.5 203.419c4.8 5.913 9.3 12.027 13.4 18.341l3.1 4.71 3 4.811c1 1.604 1.9 3.207 2.9 4.911l1.4 2.405 1.3 2.506c3.7 6.615 6.5 13.63 9.8 20.245 3.4 6.715 6.3 13.53 9.9 20.446.1.1.2.2.3.1.1 0 .1-.2.1-.301-.2-1.904-.5-3.808-.9-5.712l-.6-2.807c-.2-.902-.5-1.904-.7-2.806-.5-1.904-1.1-3.708-1.6-5.512l-2-5.412c-.4-.902-.7-1.804-1.1-2.706l-1.2-2.606c-.9-1.704-1.7-3.408-2.7-5.112-2-3.307-3.9-6.614-6-9.821l-1.5-2.406-1.6-2.405c-1.1-1.604-2.1-3.207-3.2-4.711l-3.4-4.61-3.5-4.61-3.6-4.41c-1.2-1.504-2.4-2.907-3.7-4.41-2.5-2.907-5.1-5.713-7.8-8.419-.1-.1-.3-.1-.4 0 .2 0 .2.201.3.301z" fill="url(#paint31_linear)"/><path d="M119.001 206.827c-1.5 6.414-2.7 12.928-3.9 19.343-.6 3.207-1.1 6.514-1.6 9.721-.5 3.308-.9 6.515-1.3 9.822-.2 1.604-.4 3.308-.6 4.911l-.6 4.911c-.3 3.308-.5 6.615-.5 9.922l.1 2.506c0 .802.1 1.704.2 2.506l.2 2.505c.1.802.2 1.704.3 2.506.2 1.704.5 3.307.9 4.911.4 1.603.8 3.307 1.4 4.81 0 .101.2.201.3.201.1 0 .2-.1.2-.201.2-1.703.3-3.307.4-4.911.1-1.603.3-3.307.4-4.91l.7-9.722c.5-6.515.3-13.029.7-19.544.4-6.514.9-13.029 1.4-19.644.5-6.514 1.2-13.129 1.9-19.643 0-.101-.1-.301-.2-.301-.3.1-.4.2-.4.301z" fill="url(#paint32_linear)"/><path d="M132.2 193.296c8.3.802 16.6 1.804 24.9 3.208 8.2 1.302 16.4 2.906 24.5 5.011 4 1.002 8 2.205 11.9 3.508l11.8 3.808c7.8 2.506 15.4 5.613 22.9 9.421.1.1.3 0 .3-.1.1-.1 0-.201 0-.301-2.9-3.107-6.4-5.713-10.1-7.917-1.8-1.203-3.7-2.105-5.6-3.107-1.9-.902-3.9-1.804-5.8-2.606-7.9-3.308-16.3-4.911-24.6-6.515-8.3-1.603-16.7-2.706-25-3.508-4.2-.4-8.4-.701-12.6-.902-4.2-.2-8.4-.4-12.6-.4-.1 0-.2.1-.2.3-.1 0 0 .1.2.1z" fill="url(#paint33_linear)"/><path d="M142.8 180.368c4.8-2.706 9.7-5.212 14.6-7.517 1.2-.602 2.5-1.203 3.7-1.704 1.2-.601 2.5-1.102 3.7-1.704 2.5-1.102 5-2.205 7.5-3.207 2.5-1.002 5.1-1.904 7.7-2.706 2.6-.902 5.1-1.704 7.6-2.706l3.8-1.403c.6-.201 1.3-.501 1.9-.702.6-.2 1.3-.401 1.9-.701.6-.201 1.3-.501 1.9-.702l1-.401 1-.3c1.3-.502 2.6-.902 3.9-1.504.1-.1.2-.2.1-.3 0-.101-.1-.101-.2-.201-2.8-.301-5.7-.401-8.5 0-1.4.1-2.8.301-4.2.601-1.4.301-2.8.502-4.1.902-2.7.802-5.4 1.604-7.9 2.807-2.6 1.102-5 2.405-7.5 3.608-2.5 1.303-4.9 2.505-7.4 3.909l-3.6 2.104-3.6 2.105c-2.3 1.503-4.7 3.007-7 4.51-2.3 1.503-4.5 3.107-6.7 4.811-.1.1-.1.2 0 .401.2 0 .3.1.4 0z" fill="url(#paint34_linear)"/><path d="M143 163.329c.5-1.303 1.2-2.505 2-3.608.4-.601.9-1.102 1.3-1.603.5-.502.9-1.003 1.4-1.504 1.9-2.004 4.1-3.608 6.4-5.111 2.3-1.504 5-2.406 7.2-4.009 1.2-.702 2.3-1.604 3.4-2.506 1.1-.902 2.3-1.804 3.3-3.107.1-.1.1-.3 0-.401 0 0-.1-.1-.2-.1-1.6-.1-3.1.1-4.6.301-1.5.301-2.9.802-4.3 1.303-1.4.601-2.7 1.303-3.8 2.305-1.2 1.002-2.3 1.904-3.4 3.007a48.164 48.164 0 0 0-3.2 3.207l-1.4 1.704c-.5.601-.9 1.202-1.3 1.804-.4.601-.8 1.303-1.2 1.904-.3.701-.7 1.303-1 2.004-.6 1.403-1 2.807-1.1 4.31 0 .1.1.301.2.301s.2 0 .3-.201z" fill="url(#paint35_linear)"/><path d="M99.7 174.755c-2.9-2.406-5.9-4.711-8.8-7.116l-4.5-3.408-4.6-3.307c-1.5-1.102-3-2.305-4.5-3.408a38.838 38.838 0 0 0-4.8-3.006c-1.7-.802-3.4-1.604-5.3-2.205-.9-.301-1.9-.602-2.8-.802-.9-.2-2-.401-3-.401-.1 0-.3.1-.3.301 0 .1 0 .1.1.2 2.8 2.706 5.7 5.112 8.7 7.317 1.5 1.102 3.1 2.104 4.8 2.906 1.7.802 3.4 1.704 5 2.606l4.9 2.806 4.9 2.706 9.9 5.412c.1.1.3 0 .3-.1.1-.301.1-.401 0-.501z" fill="url(#paint36_linear)"/><path d="M31.6 167.238c-2-.601-3.9-1.102-5.9-1.503l-3-.601c-1-.201-2-.301-3-.401-1-.101-2-.301-3.1-.501-1-.101-2.1-.201-3.1.1-1 .2-2.1.501-3.1 1.002-.5.2-1 .501-1.5.802-.5.401-.9.701-1.3 1.203-.1.1-.1.3 0 .4 0 0 .1 0 .1.101 2.2.902 4.1 1.303 6 1.503 1 .1 1.9.1 2.9-.1 1-.201 2-.401 2.9-.401l12-.902c.1 0 .2-.1.2-.301 0-.2 0-.301-.1-.401z" fill="url(#paint37_linear)"/><path d="M482.4 98.184c1.7-1.403 3.3-2.906 5-4.21.8-.7 1.7-1.402 2.6-2.004.8-.701 1.7-1.303 2.6-2.004.9-.602 1.8-1.203 2.7-1.704.9-.601 1.7-1.203 2.5-1.904 1.5-1.504 2.9-3.007 4.2-5.212.1-.1 0-.3-.1-.4h-.1c-2.6-.201-4.9.6-7 1.703-1 .601-1.9 1.303-2.7 2.105-.8.802-1.5 1.804-2.3 2.605-.7.802-1.5 1.704-2.2 2.606-.7.902-1.4 1.804-2 2.706a66.667 66.667 0 0 0-3.6 5.613c-.1.1 0 .3.1.3.1-.1.2-.1.3-.2z" fill="url(#paint38_linear)"/><path d="M342.4 44.564c1.4-2.606 3.1-5.011 5-7.216s3.9-4.31 6.1-6.114c2.2-1.804 4.8-3.006 6.9-4.81.6-.401 1.1-.902 1.7-1.303.6-.401 1.1-.902 1.7-1.403.5-.502 1.1-1.003 1.7-1.404.6-.5 1.2-1.002 1.7-1.703.1-.1.1-.301 0-.401 0 0-.1-.1-.2-.1-3.2-.2-6.4.6-9.2 2.004-1.4.702-2.7 1.704-3.9 2.706-.6.601-1.1 1.103-1.6 1.704s-1.1 1.102-1.6 1.704c-1.1 1.102-2 2.405-2.9 3.608l-1.3 1.904c-.4.702-.8 1.303-1.2 2.005-1.4 2.706-2.7 5.512-3.4 8.418 0 .1 0 .301.2.301.1.3.2.2.3.1z" fill="url(#paint39_linear)"/><path d="M346.9 55.69c1.7-1.304 3.6-2.506 5.4-3.609.9-.501 1.9-1.002 2.9-1.403.5-.2 1-.401 1.4-.601.5-.2 1-.401 1.5-.502 2-.701 4-.701 5.9-1.503 1.9-.802 3.8-1.403 6-2.706.1-.1.2-.3.1-.4l-.1-.101c-.5-.401-1.1-.601-1.7-.902l-.9-.3c-.3-.101-.6-.201-.9-.201l-1.8-.3h-1.8c-.3 0-.6 0-.9.1-.3.1-.6.1-.9.2-.6.2-1.1.4-1.7.601-1.1.601-2.1 1.203-3.1 1.804l-1.5.902c-.5.3-1 .602-1.4 1.002-.9.702-1.8 1.504-2.6 2.205-1.6 1.604-3.1 3.308-4.3 5.212-.1.1 0 .3.1.3.1.301.2.301.3.201z" fill="url(#paint40_linear)"/><path d="M430.8 316.772c1.7-1.303 3.6-2.505 5.4-3.608.9-.501 1.9-1.002 2.9-1.403.5-.201 1-.401 1.4-.601.5-.201 1-.401 1.5-.502 2-.701 4-.701 5.9-1.503 1.9-.802 3.8-1.403 6-2.706.1-.1.2-.301.1-.401l-.1-.1c-.5-.401-1.1-.601-1.7-.902l-.9-.301c-.3-.1-.6-.2-.9-.2l-1.8-.301h-1.8c-.3 0-.6 0-.9.1-.3.101-.6.101-.9.201-.6.2-1.1.401-1.7.601-1.1.601-2.1 1.203-3.1 1.804l-1.5.902c-.5.301-1 .602-1.4 1.002-.9.702-1.8 1.504-2.6 2.205-1.6 1.604-3.1 3.308-4.3 5.212-.1.1 0 .301.1.301 0 .3.2.3.3.2z" fill="url(#paint41_linear)"/><path d="M139.4 97.482c.9-1.703 1.6-3.507 2.2-5.311.6-1.804 1.2-3.609 1.7-5.513s.8-3.808 1.1-5.713c.3-1.904.4-3.908.4-5.913 0-2.004 0-4.009-.2-6.013-.2-2.005-.8-4.009-1.6-5.913-1.7-3.709-4.6-7.016-8.2-8.72-.1-.1-.3 0-.4.1v.2c.8 1.905 1.6 3.509 2.2 5.212.6 1.704 1.2 3.308 1.7 5.012.9 3.307 2.1 6.615 2.5 10.223.2 1.804.3 3.608.2 5.412a50.9 50.9 0 0 1-.3 5.512c-.3 3.708-1 7.416-1.9 11.025 0 .1 0 .3.2.3.3.2.4.2.4.1z" fill="url(#paint42_linear)"/><path d="M402.1 284.6c.1.1.1.1.2.1l.6.601c-.1-.1-.2-.2-.3-.4 6.6 5.211 7.3-8.519 12.4-10.724.9 4.209 1.7 8.218 4.3 11.626-.1 0-.2-.101-.3-.101l1.2 1.203c.1.2.3.301.4.501.5.501 1 1.103 1.6 1.504.6.501 1.2.801 2.1.701 3-.301 5-5.111 6-7.517.2-.601-3.4-2.706-3.2-3.207-1 2.606-3.3 7.617-6.6 7.316-1.7-3.708-2.1-8.519-2.9-12.127-.1-.601-2.7-3.107-3.2-3.207-7.2-1.804-6.7 13.53-12.9 12.027-1.7-5.312 5-11.024 1.5-15.935.1 0 .1 0 .2.1l-.5-.501-.1-.101c-.7-.801-1.7-2.004-2.6-2.605-3.4-2.105-9 2.004-11.9 4.009.2-.101 2.9 3.407 3.2 3.207 2.3-1.604 6.3-4.41 9.6-4.51.3 4.009-3.6 8.118-2.8 12.327.3 2.305 2.3 4.21 4 5.713zM101.6 69.22c0 .1 0 .1.1.2 0 .3.1.501.1.802v-.501c2.5 8.118 10.8-2.807 16.3-1.704-1.7 3.908-3.3 7.717-3.1 12.027-.1-.1-.1-.2-.2-.301.1.501.2 1.102.3 1.604 0 .2 0 .4.1.6.1.702.2 1.404.4 2.105.2.702.6 1.303 1.3 1.704 2.6 1.403 7.1-1.303 9.2-2.706.5-.3-1.3-4.21-.8-4.51-2.3 1.504-7.1 4.31-9.6 2.205.7-4.009 3.2-8.218 4.5-11.626.2-.5-.4-4.009-.8-4.51-4.9-5.612-13.2 7.216-17.4 2.506 1.6-5.312 10.4-6.214 10.4-12.228 0 .1.1.1.1.2l-.1-.7v-.201c-.1-1.103-.2-2.606-.7-3.608-1.6-3.709-8.6-3.508-12-3.608.3 0 .5 4.51.8 4.51 2.8 0 7.7-.1 10.4 1.804-2.1 3.508-7.6 4.61-9.4 8.519-1 2.405-.5 5.111.1 7.416z" fill="#00A14B"/><path d="M425.3 35.244c-2.3 4.209-6.4 5.512-10.9 5.612-3.5 0-6.2 0-6.8 3.608 0-.1 0-.2-.1-.4v.901c-.2 1.604-.2 3.508 0 5.112.5 4.109 3.5 5.512 6.8 6.815-1.2 1.002-2.7 1.704-4.5 2.004-3.8.602-9.1-1.503-10.4 3.508-.5 1.904.5 4.21 0 6.014 1.3-5.112 6.6-2.907 10.4-3.508 3.8-.602 6.4-3.207 7.7-6.815.2-.502.3-5.913 0-6.014-3.1-1.303-6.6-2.105-8.6-4.41 1.9-1.403 5-.6 7.6-.902 3.8-.4 6.9-2.104 8.7-5.512 1-1.503-.7-4.51.1-6.013zm-240.8-6.816c-2.3 4.21-6.4 5.512-10.9 5.613-3.5 0-6.2 0-6.8 3.608 0-.1 0-.2-.1-.401v.902c-.2 1.604-.2 3.508 0 5.111.5 4.11 3.5 5.513 6.8 6.816-1.2 1.002-2.7 1.703-4.5 2.004-3.8.601-9.1-1.503-10.4 3.508-.5 1.904.5 4.21 0 6.013 1.3-5.111 6.6-2.906 10.4-3.508 3.8-.6 6.4-3.207 7.7-6.815.2-.5.3-5.913 0-6.013-3.1-1.303-6.6-2.105-8.6-4.41 1.9-1.403 5-.601 7.6-.902 3.8-.4 6.9-2.105 8.7-5.512 1-1.504-.7-4.51.1-6.014z" fill="#3E7AE8"/><path d="M361 202.316c-.8-1.804-3.7-3.107-7.5-3.808-2.6-.501-7.5-.401-10.4-1.002 4.6-2.807 14.7-4.911 15.7-7.918 0 0 .1.1.2.1l-.1-.501v-.1c0-.702.2-1.604-.5-2.205-1.9-1.503-10.3-.401-15.6.1 1.7-1.704 4.3-3.307 7.8-4.811 3.1-1.303 5.3-2.205 5.7-3.608.1.101.1.201.1.301 0-.2-.1-.401-.1-.601v-.101c0-1.102-.1-2.305-1.4-3.006-1.6-.902-4.7-1.403-6.6-2.305a15.51 15.51 0 0 1-4.4-3.107c.7.701-.3 1.904.4 2.605 1.2 1.303 2.8 2.406 5 3.408 1.6.702 3.9 1.103 5.5 1.804-2.1 1.403-5.8 2.506-8.2 3.809-3.4 1.904-5.3 3.908-6.1 5.913-.1.3.2 2.606.4 2.606 3.9-.301 11.8-1.504 15.9-.902-3.2 1.904-9.4 3.608-12.6 5.211-2.1 1.103-2.9 1.804-3.1 2.606l-.2-.2.1.601c0 .401 0 .702.1 1.203 0 .1 0 .1.1.2l.1.601c0-.1.1-.1.1-.2.9 1.203 3.4 1.203 7 1.503 5.3.401 10.6 1.504 12.4 3.508-.3.602-.9 1.103-1.8 1.704-1 .702 1.4 1.904.4 2.606 2.8-2.105 2.4-4.31 1.6-6.014z" fill="#B272FA"/><path d="M169.099 279.389c-.2-.301 4.4-5.012 4.2-5.413-3.3-5.813-11.4-15.735-20-7.416.1-.201.1-.301.2-.501l-1.4 1.804c-.4.501-.8 1.002-1.3 1.603-.1.101-.1.201-.2.301l-1.3 1.704c.2-.1.3-.201.5-.401-1.8 3.508-.8 5.913.4 9.02 1.2 3.307 4.6 8.519 3.9 13.731-3.7 0-6.2-6.515-8-8.319-2.5-2.505-7.8-9.22-12.7-4.009l-.1.1c-1.3 1.404-3.1 3.709-4.1 5.312-3.8 6.515 1.9 9.722-.4 15.936.7-1.804 3.5-3.608 4.2-5.412 1.9-5.112-1.3-8.018-.7-12.428 5-1.002 10.5 6.615 12.3 9.02 1.9 2.606 4 7.818 8.2 3.708-.2.201-.3.502-.5.702.3-.401.7-.902 1-1.303l.2-.2c1-1.203 1.8-2.205 2.5-3.207.1-.201.3-.401.4-.502 0 0-.1 0-.1.101 1.6-2.606 2.2-5.012 1.8-8.319-.7-4.61-5.3-9.822-5.1-15.434 7.8-3.408 13 4.51 16.1 9.822z" fill="#E96638"/><path d="M308.6 286.604h.6v4.11h-.6v-4.11z" fill="url(#paint43_linear)"/><path d="M308.9 294.222c-1.05 0-1.9-.853-1.9-1.905 0-1.051.85-1.904 1.9-1.904 1.049 0 1.9.853 1.9 1.904a1.903 1.903 0 0 1-1.9 1.905z" fill="url(#paint44_linear)"/><path d="M304.2 290.813s14.2-11.425 27.6-11.124l-30.3-16.838-23.4 10.022 10.4 11.827 15.7 6.113z" fill="url(#paint45_linear)"/><path d="M277.199 314.967s10.2 34.076 8.3 56.426l-11.9-1.704s-2.2-40.49-8.1-50.613l11.7-4.109z" fill="url(#paint46_linear)"/><path d="M254 266.459c-3.5 4.711-11.2 3.207-15 .802-.7-.501-1.4-.902-2.1-1.403-2.3-1.604-4.5-3.508-6.8-5.112-2.9-1.904-5.8-3.808-8.7-5.612 1.3.701 29 15.835 29.8 5.913l3.4 2.506c-.1.902-.2 1.904-.6 2.906zm-1.4-1.002c0 .1-.1.2-.1.401 0-.201.1-.301.1-.401z" fill="url(#paint47_linear)"/><path d="M221.999 254.433l-.2-.101s-.2.301-.7.702c-1.1 1.102-3.7 3.307-7.7 5.011-1.9.802-4.1 1.002-6.4.902-5.8-.301-11.8-2.806-12.2-3.007l-.1-2.505.6-2.005.4-1.202 1.7-5.513.4-1.403.5-1.603-1.7-.301-.5-3.007-.3-1.904-.2-1.002v-.201l-.5-3.006-1.1-2.105s0-.201.2-.401c.4-.702 1.1-1.904 4.4-2.105 0 0 3.3 0 7 .902.2 0 .4.1.6.1.5.101 1.1.301 1.6.502.4.1.8.3 1.2.401.2.1.4.1.5.2l1.2-.1h.6l1.3 1.102.3.201c.2 1.002 1.6 2.405 3.2 4.009.6.601 1.2 1.102 1.7 1.804 2 2.205 3.7 4.71 3.5 7.817 0 .401-.1.702-.1 1.103-.1 1.302 0 2.605.1 3.708.3 1.102.5 2.104.7 3.007z" fill="url(#paint48_linear)"/><path d="M207.899 246.916c-.4-.201-.6-.201-.6-.201l-13.3-2.004s-2.9-3.007-.5-6.414c.2-.301.5-.702.9-1.003l13.7 2.406c.4.1.7.2 1 .401.4.3.9.701 1.2 1.303.3.501.4 1.102.3 1.804-.2 2.004-.9 3.207-2.7 3.708zm9.201-14.733l-36.2-5.412c-1.7-.201-3.3.902-4 2.405-.1.2-.2.501-.2.802-.3 2.105 1.1 4.109 3.2 4.41l35.7 6.514 1.5-8.719zm-9.2 25.356c-.9 3.007-2.8 2.406-13 .501 0 0-3.1-1.603-1.6-4.911.2-.4.4-.801.7-1.202l12.8 2.104s1 .301 1.3 1.404c0 .501 0 1.202-.2 2.104z" fill="#FAAFA9"/><path d="M206.8 254.032l-12.8-2.105s-2.8-2.405-.9-5.913c.2-.401.5-.902.9-1.303l13.3 2.004s1.8.502 2.6 1.905c.3.501.4 1.002.3 1.703-.2 2.306-1.3 3.508-3.4 3.709z" fill="#FAAFA9"/><path d="M210.3 241.203l-16.7-3.107c.2-.301.5-.702.9-1.002l13.7 2.405c.4.1.7.201 1 .401.4.301.8.802 1.1 1.303z" fill="url(#paint49_linear)"/><path d="M209.899 248.519l-16.9-2.505c.2-.401.5-.902.9-1.303l13.3 2.004c.1-.1 1.9.502 2.7 1.804z" fill="url(#paint50_linear)"/><path d="M207.999 255.435l-14.8-2.306c.2-.4.4-.801.7-1.202l12.8 2.104c.1 0 1 .201 1.3 1.404z" fill="url(#paint51_linear)"/><path d="M207.2 234.588s-1.4 7.417 4.2 11.326l7.7 1.503-1.3-10.223s-3.5-4.209-8.5-6.013c-1-.401-2-.301-3-.501 0 1.002.1 2.405.9 3.908z" fill="url(#paint52_linear)"/><path d="M224.4 243.508l-7.3-13.33c-.6-1.403-1.8-4.71-2.2-7.115-.4-2.205-.2-5.813 0-7.718.1-.701-.5-1.202-1.2-1.202-1.9.1-5.4.801-6.7 4.71-1.5 4.21.1 7.016.9 8.018-.1 1.403-.1 4.61.8 7.617-.5 2.305-1.5 11.325 9.1 15.635.2.1.3.2.5.2l.7.201c.6.2 1.3.401 2 .601l7.1 2.105-3.7-9.722z" fill="#FAAFA9"/><path d="M254.399 263.453l-3.4-2.506c-.8 9.822-28.5-5.212-29.8-5.913l-.3-3.809-.3-3.508.8-.1 3.6-.3-.4-3.208c.2 0 .4.101.6.101 3.9 1.603 7.1 2.505 11.1 3.908s10.1 2.907 13.2 6.214c2.3 2.406 4.7 5.813 4.9 9.121z" fill="#FAAFA9"/><path d="M303.6 311.459s13.2 36.081 11.3 58.331l-11.9-1.704s-5-38.987-10.9-49.11l11.5-7.517z" fill="url(#paint53_linear)"/><path d="M251.9 273.575s-3-17.739-9.4-23.252l16.5-18.641 5 52.316-12.1-10.423z" fill="url(#paint54_linear)"/><path d="M291.999 324.088s0 .1.101.1l-.101-.1z" fill="#1B5AA1"/><path d="M292 324.088c-.1-.1-.1-.201-.2-.401 0-.1-.1-.201-.1-.301l.3.702z" fill="url(#paint55_linear)"/><path d="M291.699 324.789c-3.1-12.728-9.8-20.746-9.9-20.846l13.4-11.526c.4.401 9.5 11.125 13.7 28.263l-17.2 4.109z" fill="url(#paint56_linear)"/><path d="M264.9 324.689c-.9-6.013-4.1-17.439-6.4-23.252l16.4-6.615c.7 1.804 7.3 18.341 7.7 29.466l-17.7.401z" fill="url(#paint57_linear)"/><path d="M283 326.694l-17.5 1.303-1-5.713 17.7-1.303.8 5.713z" fill="url(#paint58_linear)"/><path d="M309.899 324.89l-17.9 1.303-1.5-5.713 18-1.403 1.4 5.813z" fill="url(#paint59_linear)"/><path d="M287.9 311.46c-26.7 6.214-32.1-13.631-33.5-19.143-1.8-6.715-2.5-18.742-2.5-18.742l3.3 4.009c12.5 1.203 25.1 0 37.1-3.407l10.2-4.11c0 .101.1.602.1 1.404.2 3.207.7 10.723 1 14.532.1 1.403.2 2.305.2 2.405 3.4 18.842-15.9 23.052-15.9 23.052z" fill="url(#paint60_radial)"/><path opacity=".2" d="M303.6 283.999l.1 2.104s-30.4 13.931-34.9 19.644c-1.4-1.002-2.8-2.105-4.1-3.107-3.3-2.505-6.2-5.512-8.2-9.12-2.3-4.009-2.7-8.018-3.5-12.328 0-.1-.4-2.405-.4-2.405l50.2-7.216c.2 3.007.5 8.619.8 12.428z" fill="#224099"/><path d="M337.8 271.17v1.603c-.2-.401-.3-.801-.5-1.202-1-1.804-2.5-3.107-4.1-3.809-2.5-1.102-5.4-1.203-8-.401-.3.1-.7.201-1 .301-.9.401-1.8.701-2.7 1.102l-.6.301-3.9 1.804c-2.1 1.002-4.2 2.105-6.2 3.207-1.5.802-3 1.704-4.4 2.506l-.6.301a56.66 56.66 0 0 0-4.1 2.605l-6.3 4.21c-1.7 1.202-3.4 2.405-5.1 3.708l-.5.401-.6.501-4 3.007-5.2 3.908-3.4 2.606-.5.401-4.1 3.007-3.6 2.706c-1.5-1.103-2.8-2.005-4-3.007-1-.802-1.8-1.603-2.7-2.405-.2-.201-.5-.501-.7-.802-.7-.701-1.3-1.503-1.9-2.305-1.1-1.503-2-3.007-2.8-4.711-.9-1.703-1.6-3.608-2.1-5.412-.2-.601-.4-1.303-.5-2.004-.2-.902-.4-1.704-.6-2.606-.1-.401-.2-.902-.2-1.303-.4-2.606-.6-5.212-.7-7.817-.1-2.907 0-5.813.2-8.62.1-.902.1-1.804.2-2.706 0-.3 0-.501.1-.801 0-.301.1-.502.1-.802.9-7.517 2.5-14.934 4.9-22.15.9-2.605 1.8-5.111 2.9-7.617.2-.3.8-2.505 1.2-2.605l45.8-14.132c13.4-1.704 20.9 8.419 25.2 20.947 2.1 6.113 3.4 12.929 4.2 19.042 0 .201 0 .301.1.501 0 .201.1.401.1.602.2 1.904.4 3.708.6 5.412-.1 5.612 0 10.223 0 12.528z" fill="url(#paint61_linear)"/><path d="M310.3 209.933c.2 0 .8 1.303.9 1.503.5 1.303.6 2.707.1 4.009-1.7 4.911-7 8.018-10.8 11.025-8.2 6.515-16.3 13.23-25.6 18.141-2.1 1.102-4.4 2.204-6.7 2.806-4.8 1.303-2.4-6.515-7.2-6.415 0 0-4.8-10.924-1.2-19.443-.2-.1 50.5-11.626 50.5-11.626z" fill="url(#paint62_linear)"/><path d="M252.6 279.188h.6v4.109h-.6v-4.109z" fill="url(#paint63_linear)"/><path d="M252.8 286.805c-1.05 0-1.9-.853-1.9-1.905 0-1.051.85-1.904 1.9-1.904 1.049 0 1.9.853 1.9 1.904a1.903 1.903 0 0 1-1.9 1.905z" fill="url(#paint64_linear)"/><path d="M305.699 276.381h.6v4.11h-.6v-4.11z" fill="url(#paint65_linear)"/><path d="M305.999 284.099c-1.049 0-1.9-.853-1.9-1.905 0-1.051.851-1.904 1.9-1.904 1.05 0 1.9.853 1.9 1.904 0 1.052-.85 1.905-1.9 1.905z" fill="url(#paint66_linear)"/><path d="M289.1 287.606h.6v4.11h-.6v-4.11z" fill="url(#paint67_linear)"/><path d="M289.4 295.224c-1.05 0-1.9-.853-1.9-1.905 0-1.051.85-1.904 1.9-1.904 1.049 0 1.9.853 1.9 1.904a1.903 1.903 0 0 1-1.9 1.905z" fill="url(#paint68_linear)"/><path d="M275.699 297.629h.6v4.109h-.6v-4.109z" fill="url(#paint69_linear)"/><path d="M275.999 305.346c-1.049 0-1.9-.852-1.9-1.904s.851-1.904 1.9-1.904c1.05 0 1.9.852 1.9 1.904s-.85 1.904-1.9 1.904z" fill="url(#paint70_linear)"/><path d="M260.9 297.629h.6v4.109h-.6v-4.109z" fill="url(#paint71_linear)"/><path d="M261.2 305.346c-1.05 0-1.9-.852-1.9-1.904s.85-1.904 1.9-1.904c1.049 0 1.9.852 1.9 1.904a1.902 1.902 0 0 1-1.9 1.904z" fill="url(#paint72_linear)"/><path d="M322 279.588h.6v4.11h-.6v-4.11z" fill="url(#paint73_linear)"/><path d="M322.3 287.205c-1.05 0-1.9-.852-1.9-1.904 0-1.051.85-1.904 1.9-1.904 1.049 0 1.9.853 1.9 1.904a1.902 1.902 0 0 1-1.9 1.904z" fill="url(#paint74_linear)"/><path d="M252.5 265.758c0-.1.1-.301.1-.401 0 .2-.1.301-.1.401z" fill="#FAAFA9"/><path d="M265.999 281.693h-.1c-.3 0-7.9-1.202-13-19.744l.6-.2c4.6 16.737 11.3 18.942 12.3 19.243 34.1-29.667 52.5-34.477 61.9-33.375 5.6.702 7.6 3.508 7.7 3.608l-.5.401s-2-2.706-7.3-3.307c-9.3-1.103-27.6 3.808-61.5 33.274l-.1.1z" fill="url(#paint75_linear)"/><path d="M336.7 253.029c-1.7-1.704-3.9-3.408-5.4-4.009-.2-.1-.5-.2-.7-.2-.4-.101-.7-.201-1.1-.301-1.6-.301-3.3-.501-5.2-.401-2.5.1-5.3.601-8.2 1.403-1.8.501-3.6 1.103-5.6 1.904-.4.101-.7.301-1.1.502-1.8.801-3.7 1.603-5.6 2.605-1.7.902-3.4 1.804-5.3 2.907-1.3.802-2.7 1.603-4 2.405-.3.201-.5.301-.8.501-1.4.902-2.9 1.905-4.3 2.907-2 1.403-4.1 2.906-6.4 4.61-1.1.802-2.2 1.704-3.3 2.506-.3.2-.6.501-1 .701-1.3 1.003-2.7 2.105-4 3.207-1.8 1.504-3.8 3.107-5.7 4.811-.9.802-1.9 1.604-2.8 2.406l-.1.1h-.1s-.3 0-.7-.201c-.6-.2-1.5-.601-2.6-1.503-1.2-.902-2.4-2.205-3.5-3.708-.6-.802-1.1-1.704-1.7-2.606-.2-.401-.4-.702-.6-1.103-.8-1.503-1.5-3.207-2.2-5.011-.6-1.704-1.3-3.608-1.8-5.612l-.6-1.905c0-.3 0-.501.1-.801 0-.301.1-.501.1-.802l1 3.307c.5 2.005 1.1 3.809 1.8 5.513.7 1.904 1.4 3.507 2.2 5.111.7 1.303 1.4 2.405 2.1 3.508 1.1 1.503 2.2 2.706 3.3 3.608 1.4 1.102 2.5 1.503 2.9 1.503.9-.802 1.8-1.603 2.7-2.305 2-1.704 3.9-3.307 5.7-4.811 1.6-1.303 3.2-2.605 4.8-3.808l3.6-2.706c2.3-1.704 4.4-3.207 6.4-4.61 3.2-2.205 6.3-4.11 9.2-5.813 1.8-1.103 3.6-2.105 5.3-2.907 2.1-1.102 4.2-2.105 6.2-2.906h.1c2.1-.902 4.2-1.604 6.1-2.105 3-.902 5.8-1.303 8.4-1.403 2.2-.1 4.1.1 5.8.501.5.1 1 .301 1.4.401 1.7.601 3.4 1.704 5.1 3.508 0 .2 0 .3.1.501-.1.3 0 .501 0 .601z" fill="url(#paint76_linear)"/><path d="M337.8 271.17v1.603c-.2-.401-.3-.801-.5-1.202-.8-3.809-3.3-15.134-7.3-22.551-1.3 2.105-6.5 10.925-8.5 19.744l-.6.301c-.1-.1-5.7-12.728-10.8-17.038-.8 2.506-4.4 15.034-3.8 24.655l-.6.301-11.4-16.237-4.6 27.061-.6.501-9.7-17.038c-.9 3.307-4.5 17.439-2.9 26.559l-.5.401-10.3-15.935c-.8 2.405-3.7 10.924-4 16.035 0 0 0 .501-.1.501-.2-.2-.3-.601-.5-.902-.9-3.006-4.8-16.035-4.1-24.254-1.1 1.403-3.4 4.31-4 6.916v.1c-.1-.401-.2-.902-.2-1.303 1.1-3.007 3.6-5.913 4.3-6.715.1-.1.1-.2.2-.2.1-.101.2-.101.4-.101.1 0 .1.101.1.101 0 .1.1.1 0 .2 0 .301-.1.702-.1 1.002-.6 7.317 2.5 18.943 3.7 22.952.8-5.613 3.5-13.731 4-15.134 0-.1.1-.201.1-.201 0-.1.1-.2.3-.2.1 0 .2 0 .3.1l.3.401 9.6 14.833c-1-9.02 2.1-21.849 3.1-25.356.2-.602.2-.902.3-.902 0-.101.1-.101.1-.201.1 0 .1-.1.2-.1s.2.1.3.2l.1.201 9.5 16.737 4.5-26.659.1-.502c0-.1.1-.2.2-.3.1 0 .3 0 .3.1l.1.2 11.1 15.736c-.3-9.321 3-20.947 3.8-23.753.1-.401.2-.602.2-.602 0-.1.1-.1.1-.2h.1c.1 0 .2 0 .3.1.1.1.3.2.4.301 4.4 3.908 9.2 13.53 10.5 16.436 2.2-8.819 7.3-17.539 8.4-19.343l.2-.401c.1-.1.2-.1.3-.1h.1c.1 0 .1.1.2.1l.3.602c3.7 7.516 6.2 18.541 7 22.45z" fill="url(#paint77_linear)"/><path d="M252.4 259.243s0 .1 0 0c-.2 1.203-.3 2.406-.4 3.608-.2 2.806-.3 5.713-.2 8.619.4-.801 1.3-2.305 3.1-4.008-.6-1.604-1.2-3.508-1.8-5.613l-.7-2.606z" fill="url(#paint78_linear)"/><path d="M259.3 276.081l.1.702s-.2 4.51 1.2 9.02c0 0 1-3.308 2.1-6.114-1-.701-2.1-1.904-3.4-3.608z" fill="url(#paint79_linear)"/><path d="M272.8 284.901c0-3.207.7-6.916 1.7-10.724-1.9 1.503-3.8 3.107-5.7 4.81l4 5.914z" fill="url(#paint80_linear)"/><path d="M287 273.676l2.2-10.624c-2.1 1.403-4.2 2.906-6.4 4.61.7.802 3.1 3.708 4.2 6.014z" fill="url(#paint81_linear)"/><path d="M302.1 263.152l1.6-8.82c-1.7.902-3.4 1.804-5.3 2.907l3.7 5.913z" fill="url(#paint82_linear)"/><path d="M320 256.337s1.6-4.711 4.2-8.419c-2.3.1-5 .501-8.3 1.403.9 1.103 3.5 4.911 4.1 7.016z" fill="url(#paint83_linear)"/><path d="M336.6 252.528l-1.4-1.002s-.6-.902-.7-.902c.8 2.105 2.4 5.613 2.8 7.918-.2-2.005-.4-4.009-.7-6.014z" fill="url(#paint84_linear)"/><path d="M253.3 283.197c.2.701.3 1.303.5 2.004.6 1.905 1.3 3.709 2.1 5.412-.8-2.605-1.4-5.712-1.6-9.02.1 0-.3.602-1 1.604z" fill="url(#paint85_linear)"/><path d="M264.2 300.836a46.28 46.28 0 0 0 4 3.007l3.6-2.706-5.2-8.118s-1.3 3.608-2.4 7.817z" fill="url(#paint86_linear)"/><path d="M279.9 295.123l5.2-3.909-4.1-7.416c-.1 0-.9 5.011-1.1 11.325z" fill="url(#paint87_linear)"/><path d="M295.3 283.798c2.1-1.403 4.2-2.906 6.3-4.209l-4.5-6.515-1.8 10.724z" fill="url(#paint88_linear)"/><path d="M310.699 274.077c2.1-1.103 4.1-2.205 6.2-3.208-1.5-2.706-3-5.312-4.2-7.116 0 0-1.1 4.511-2 10.324z" fill="url(#paint89_linear)"/><path d="M329.4 259.143s-2.1 3.408-4.3 8.218c2.5-.801 5.5-.701 8 .401-1-3.107-2.3-6.113-3.7-8.619z" fill="url(#paint90_linear)"/><path d="M305.1 259.343c-1.5 15.936-19 16.638-22.6 16.136-.4-.1-5.2-1.503-5.2-1.503l-.1.1c-.3-.1-.5-.2-.8-.3-2.2-.902-3.6-1.604-3.6-1.604s-3.2-1.904-1.4-5.412c.2-.401.5-.802.8-1.303 0 0-2.8-2.906-.5-6.414.3-.401.7-.902 1.1-1.403 0 0-2.9-3.508 0-7.016.3-.301.6-.702 1-1.002l1.8.501v-.201l-17.2-4.51c-2.2-.501-3.6-2.806-3-5.011.1-.301.2-.501.3-.802a4.292 4.292 0 0 1 4.5-2.305l17.6 4.009c.6-.1 7.3 1.002 9.2 1.704.1 0 .3.1.4.2.2.101.4.201.6.201.3.1.5.2.8.3.1 0 .1.101.2.101 0-1.704.1-3.207.2-4.009-.8-1.203-2.3-4.31-.3-8.72 1.8-4.109 5.6-4.61 7.7-4.51.7 0 1.3.702 1.2 1.403-.3 2.005-.8 5.914-.6 8.319.2 2.305.8 4.51 1.5 6.715.6 2.205 1.9 3.708 3.2 5.612 1.4 2.005 2.3 4.11 2.6 6.515.2 1.203.4 2.706.6 4.209z" fill="#FAAFA9"/><path d="M335 274.577c-2.8 3.709-9.3 3.408-12.7 2.005-3.2-1.303-6.1-.501-8.8-2.706-2.4-2.005-13.1-7.918-14.7-10.624-.3-.401 6.1-3.407 6.3-4.009v.1s.6.101.7.101c4.5.401 9 1.102 13.4 1.904 4.4.802 10.4 1.603 14.4 4.41.3.501 1.3 2.004 1.5 2.205.3.701.6 1.303.7 2.104.2 1.403.2 3.208-.8 4.51z" fill="#FAAFA9"/><path d="M334.4 281.894c-1.3.701-2.9.902-4.4.802-3.9-.301-8.3-1.604-11.7-3.508a87.124 87.124 0 0 1-9.7-6.014c-2-1.403-4.1-2.906-6.1-4.309 0 0-3.7 4.911-9.8 7.015-2.1.702-4.5.802-7 .401-1.6-.2-3.2-.601-4.8-1.002-1.3-.401-2.6-.802-3.7-1.203h-.1l.1-.1s.2 0 .7.1c3.3.501 14.1 5.613 25.4-8.719 0 0 6.5 6.414 20.5 10.022 2.1.702 4.7 1.403 7 1.203 1.7-.1 3.3-.702 4.3-2.005 1-1.302 1-3.006.7-4.51-.2-.701-.4-1.403-.7-2.104-.1-.201-1.1-1.704-1.5-2.205.5.3.9.701 1.3 1.102 3.7 3.508 4.5 12.228-.5 15.034z" fill="url(#paint91_linear)"/><path d="M404.6 110.912h.6v6.515h-.6v-6.515z" fill="url(#paint92_linear)"/><path d="M404.9 123.239c-1.657 0-3-1.346-3-3.006a3.003 3.003 0 0 1 3-3.007c1.657 0 3 1.346 3 3.007a3.003 3.003 0 0 1-3 3.006z" fill="url(#paint93_linear)"/><path d="M184.599 138.173h.6v6.514h-.6v-6.514z" fill="url(#paint94_linear)"/><path d="M184.899 150.5c-1.656 0-3-1.346-3-3.006a3.004 3.004 0 0 1 3-3.007c1.657 0 3 1.346 3 3.007a3.003 3.003 0 0 1-3 3.006z" fill="url(#paint95_linear)"/><path d="M214.399 144.387h.6v6.514h-.6v-6.514z" fill="url(#paint96_linear)"/><path d="M214.699 156.614c-1.657 0-3-1.346-3-3.007a3.003 3.003 0 0 1 3-3.006c1.657 0 3 1.346 3 3.006a3.003 3.003 0 0 1-3 3.007z" fill="url(#paint97_linear)"/><path d="M380.199 123.941h.6v6.515h-.6v-6.515z" fill="url(#paint98_linear)"/><path d="M380.5 136.269c-1.657 0-3-1.346-3-3.007a3.004 3.004 0 0 1 3-3.007c1.656 0 3 1.347 3 3.007a3.004 3.004 0 0 1-3 3.007z" fill="url(#paint99_linear)"/><path d="M352.7 132.46h.6v6.515h-.6v-6.515z" fill="url(#paint100_linear)"/><path d="M353 144.688c-1.657 0-3-1.346-3-3.007a3.003 3.003 0 0 1 3-3.007c1.657 0 3 1.346 3 3.007a3.003 3.003 0 0 1-3 3.007z" fill="url(#paint101_linear)"/><path d="M314.2 54.587c-20.1-7.016-42.5-9.522-49.9-10.123 3.3-3.207 8-6.214 14.5-7.918 10.6-2.706 21.9 0 29.4 7.918 2.4 2.706 4.6 6.013 6 10.123z" fill="url(#paint102_linear)"/><path d="M314.3 70.722l-15.2 8.018-39.3-11.325-3.3-9.822s.2-.802.6-2.105l19.9 2.305 37.3 12.93z" fill="url(#paint103_linear)"/><path d="M315 70.322l-.6.3-37.3-12.928-19.9-2.306c.9-2.505 2.9-6.915 7.1-11.024 7.4.601 26.4 0 49.9 10.122 1.3 4.41 1.8 9.622.8 15.836z" fill="url(#paint104_linear)"/><path d="M413.2 104.698c-.4.401-.8.802-1.3 1.103-42.6 37.784-150.4 38.285-150.4 38.285-91.7 7.918-97.6-23.051-97.6-23.051l1.1-20.045 27-27.862 110.4-1.904 66.4 22.35 44.4 11.124z" fill="url(#paint105_linear)"/><path d="M411.899 106.001c-4.7 2.005-9.1 6.615-13.5 9.321-4.9 2.907-10 5.512-15.2 7.818-10.1 4.309-20.8 7.416-31.5 10.022-20.3 5.011-41.2 7.918-62 9.621-9.3.802-18.7 1.404-28.1 1.404-91.7 7.917-97.6-23.052-97.6-23.052.2.902 8.1 2.205 8.9 2.405 7.3 1.504 14.9 2.205 22.4 2.005 9.9-.301 19.8-2.305 29-6.314 5.2-2.305 9.7-5.512 14.7-8.118 6.2-3.107 12.1-6.615 18.6-9.02a69.83 69.83 0 0 1 38.2-2.306c12.4 2.807 21.5 12.027 33.3 16.136 13.8 4.811 28.4 1.704 42.4.201 13.8-1.604 27.6-4.51 40.4-10.123z" fill="url(#paint106_linear)"/><path d="M413.2 98.184v6.514c-2.8 0-5.5 0-8.3-.1-3.4-.1-6.7-.2-10-.501-.3 0-.5 0-.8-.1-2.5-.201-5-.401-7.5-.702-4-.401-8.1-1.002-12.1-1.603-2.9-.501-5.8-1.002-8.6-1.604-.3-.1-.5-.1-.8-.2-.4-.1-.9-.2-1.3-.3-2.2-.502-4.5-1.003-6.7-1.604-3.6-.902-7.2-1.905-10.8-2.907-2.7-.702-5.3-1.503-8-2.305-.2-.1-.5-.1-.7-.2-2.8-.802-5.6-1.604-8.5-2.406-3.6-1.002-7.2-2.004-10.8-2.906-.6-.2-1.2-.301-1.9-.502-2.6-.701-5.2-1.302-7.9-1.904-.3-.1-.5-.1-.8-.2-3.5-.802-7-1.504-10.5-2.105-3.6-.601-7.1-1.203-10.8-1.604-2-.2-4.1-.4-6.1-.6-3.6-.302-7.2-.602-10.8-.702h-.8c-3.9-.2-7.9-.2-11.8-.2-6.9.1-13.9.5-20.8 1.302-3.9.501-7.9 1.002-11.7 1.804-.3.1-.5.1-.8.2-3.7.702-7.3 1.504-10.9 2.506-4.9 1.303-9.7 2.806-14.3 4.61-1.4.502-2.8 1.103-4.2 1.704-2 .802-3.9 1.804-5.9 2.806-.2.1-.5.2-.7.401a71.516 71.516 0 0 0-6.6 3.91c-2.9 2.004-5.7 4.309-8.2 6.814-3.4 3.608-6.2 7.717-7.9 12.528-.2.702-.4 1.303-.6 2.005-.1.3-.2.701-.3 1.102v-20.546c0-7.817 2.3-15.534 6.7-21.949l.9-1.202c1.3-1.804 2.8-3.508 4.5-5.012.3-.3.6-.6 1-.902 3.4-3.106 7.6-6.213 12.8-9.02 2.7-1.503 5.6-2.906 8.8-4.109.2-.1.5-.2.7-.3 3.4-1.303 7-2.506 11-3.609 6.3-1.703 13.5-2.906 21.6-3.608.7-.1 1.5-.1 2.2-.2 4-.3 8.1-.501 12.1-.501h.7c4.2 0 8.3.1 12.5.4 7.2.402 14.4 1.203 21.6 2.406.4.1.9.1 1.3.2 2.8.502 5.6 1.003 8.3 1.604.3.1.5.1.8.2 4 .902 7.9 2.005 11.8 3.107 5.8 1.704 11.5 3.709 17.1 5.813l7.8 3.007c.1 0 .2.1.3.1.1.1.3.1.4.2 2.9 1.103 5.7 2.306 8.6 3.408 2.8 1.103 5.5 2.105 8.3 3.208.5.2 1 .4 1.5.5 2.6.903 5.2 1.805 7.7 2.506.3.1.5.2.8.2 3.1.903 6.1 1.704 9.1 2.506 3.4.802 6.8 1.504 10.2 2.105 2.7.501 5.5.902 8.3 1.303.3 0 .5.1.8.1 2.5.3 5 .602 7.6.902.3 0 .7.1 1 .1.6.1 1.2.1 1.7.2.6.101 1.2.101 1.7.201.4 0 .8.1 1.2.1.4 0 .8.1 1.2.1.6 0 1.2.101 1.7.101.7 0 1.3.1 2 .1.6 0 1.2.1 1.8.1h.2c.1 0 .2.1.4.1.9.301 3 1.303 5 3.609.1.2.3.3.4.5 1.3 1.705 2.4 4.11 3 7.417-.1.602 0 1.103.1 1.604z" fill="url(#paint107_linear)"/><path d="M409.6 88.663c.1.2.3.3.4.5l-15.1 14.934-.5.501-.3-.601-10.401-20.446-17.799 16.537-.5.401-.3-.601-10-22.45-16.8 15.434-.5.401-.2-.701-9.3-25.157-19.7 17.44-.5.4-.3-.601-16.9-29.366-21.3 24.355-.4.5-.4-.5-22.3-28.965-22.1 31.871-.4.601-.4-.4L199 58.696l-10.8 35.68c-.2.1-.5.2-.7.4L171.3 78.14l-6.5 39.889-.3 2.005-.3-.1h-.3v-.201l6.7-41.192.9-1.203 16.2 16.638 10.8-35.78c.2-.1.5-.2.7-.3l24.7 24.253 22.2-32.071h.7l22.3 29.064 21.4-24.454c.3.1.5.1.8.2l16.9 29.466 19.8-17.54c.1 0 .2.1.3.1.1.1.3.1.4.2l9.3 25.057 16.8-15.435c.3.1.5.2.8.2l10 22.45 17.7-16.536c.3 0 .5.1.8.1l10.4 20.446 15.1-14.733z" fill="url(#paint108_linear)"/><path d="M224.8 97.182l1.2 1.102-2 .2.8-1.302z" fill="url(#paint109_linear)"/><path d="M226 98.284l-2 .2.8-1.302 1.2 1.102z" fill="url(#paint110_linear)"/><path d="M413.2 98.183v6.515c-2.8 0-5.5 0-8.3-.1l8.1-7.918c0 .501.1 1.002.2 1.503z" fill="url(#paint111_linear)"/><path d="M374.5 101.692c4 .701 8 1.202 12.1 1.603l-4.4-8.72-7.7 7.117z" fill="url(#paint112_linear)"/><path d="M346.3 95.177c3.6 1.002 7.2 2.005 10.8 2.907l-4-9.02-6.8 6.113z" fill="url(#paint113_linear)"/><path d="M318.3 87.36c3.6.902 7.2 1.904 10.8 2.906l-3.5-9.42-7.3 6.514z" fill="url(#paint114_linear)"/><path d="M280.4 80.444c2.1.2 4.1.401 6.1.602 3.6.4 7.2 1.002 10.8 1.603l-7.5-13.029-9.4 10.824z" fill="url(#paint115_linear)"/><path d="M236.2 80.845c6.9-.802 13.9-1.203 20.8-1.303l-10.5-13.63-10.3 14.933z" fill="url(#paint116_linear)"/><path d="M198.3 89.865c4.7-1.804 9.5-3.307 14.3-4.61l-10-9.822-4.3 14.432z" fill="url(#paint117_linear)"/><path d="M172.8 105.5c2.4-2.506 5.2-4.811 8.2-6.815l-6-6.214-2.2 13.029z" fill="url(#paint118_linear)"/><path d="M320.299 63.908l-9.1 8.118-8-13.931c5.7 1.703 11.4 3.708 17.1 5.813z" fill="url(#paint119_linear)"/><path d="M280.899 52.883l-10.5 12.027-11-14.432c7.2.4 14.4 1.302 21.5 2.405z" fill="url(#paint120_linear)"/><path d="M234 50.578l-11.2 16.136-12.6-12.428c6.3-1.704 13.5-2.907 21.6-3.608.8 0 1.5 0 2.2-.1z" fill="url(#paint121_linear)"/><path d="M189.699 62.404l-5.1 16.938-7.7-7.918c3.4-3.107 7.6-6.213 12.8-9.02z" fill="url(#paint122_linear)"/><path d="M347.2 74.23l-6.3 5.713-3.5-9.42c2.8 1.102 5.5 2.104 8.3 3.207.5.2 1 .3 1.5.5z" fill="url(#paint123_linear)"/><path d="M375 81.647l-6.5 6.114-3.701-8.218c3.3.801 6.701 1.503 10.201 2.104z" fill="url(#paint124_linear)"/><path d="M404.6 85.055l-8.2 8.118-4.7-9.22c.3 0 .7.1 1 .1.6.1 1.2.1 1.7.2.6.1 1.2.1 1.7.2.4 0 .8.1 1.2.1.4 0 .8.1 1.2.1.6 0 1.2.1 1.7.1.7 0 1.3.101 2 .101.6 0 1.2.1 1.8.1h.2s.2 0 .4.1z" fill="url(#paint125_linear)"/><path d="M223.7 82.75h.6v6.514h-.6V82.75z" fill="url(#paint126_linear)"/><path d="M224 94.977c-1.657 0-3-1.346-3-3.007a3.003 3.003 0 0 1 3-3.007c1.657 0 3 1.347 3 3.007a3.003 3.003 0 0 1-3 3.007z" fill="url(#paint127_linear)"/><path d="M187.6 94.075h.6v6.514h-.6v-6.514z" fill="#C3242D"/><path d="M187.899 106.402c-1.656 0-3-1.346-3-3.007a3.004 3.004 0 0 1 3-3.006c1.657 0 3 1.346 3 3.006a3.003 3.003 0 0 1-3 3.007z" fill="url(#paint128_linear)"/><path d="M164 119.832h.6v6.515h-.6v-6.515z" fill="url(#paint129_linear)"/><path d="M164.3 132.059c-1.657 0-3-1.346-3-3.006a3.003 3.003 0 0 1 3-3.007c1.657 0 3 1.346 3 3.007a3.003 3.003 0 0 1-3 3.006z" fill="url(#paint130_linear)"/><path d="M268.9 79.843h.6v6.514h-.6v-6.514z" fill="#C42D26"/><path d="M269.2 92.17c-1.657 0-3-1.346-3-3.006a3.003 3.003 0 0 1 3-3.007c1.657 0 3 1.346 3 3.007a3.003 3.003 0 0 1-3 3.007z" fill="url(#paint131_linear)"/><path d="M307.7 84.553h.6v6.515h-.6v-6.515z" fill="#CE2E1D"/><path d="M308 96.781c-1.657 0-3-1.346-3-3.007a3.003 3.003 0 0 1 3-3.006c1.657 0 3 1.346 3 3.006a3.003 3.003 0 0 1-3 3.007z" fill="url(#paint132_linear)"/><path d="M337.7 92.471h.6v6.515h-.6V92.47z" fill="#E14929"/><path d="M338 104.799c-1.657 0-3-1.347-3-3.007a3.003 3.003 0 0 1 3-3.007c1.656 0 3 1.346 3 3.007a3.005 3.005 0 0 1-3 3.007z" fill="url(#paint133_linear)"/><path d="M365.2 99.888h.6v6.514h-.6v-6.514z" fill="#E74F29"/><path d="M365.5 112.215c-1.657 0-3-1.346-3-3.007a3.003 3.003 0 0 1 3-3.006c1.656 0 3 1.346 3 3.006a3.004 3.004 0 0 1-3 3.007z" fill="url(#paint134_linear)"/><path d="M394.2 103.896h.6v6.515h-.6v-6.515z" fill="#ED5628"/><path d="M394.5 116.124c-1.657 0-3-1.346-3-3.007a3.003 3.003 0 0 1 3-3.007c1.657 0 3 1.346 3 3.007a3.003 3.003 0 0 1-3 3.007z" fill="url(#paint135_linear)"/><path d="M304 111.814s8.6 12.829 7 24.555c-.9 6.114.7 12.328 4.6 17.139l.1.1s.4-8.82 8.8-15.334l-20.5-26.46z" fill="#993111"/><path d="M290.2 356.761v30.869l-1.5 1.102h-9.1v-4.41l-.2.201.2-.201c-.5.501-4.3 4.51-10.8 5.112h-2.6c-5.3 0-9.8-.702-13.5-1.604-.1 0-.2-.1-.4-.1-4.4-1.203-7.8-2.907-10.2-4.711-.2-.1-.3-.2-.5-.4-.2-.201-.4-.301-.6-.502-.2-.1-.3-.2-.4-.4-.2-.201-.5-.401-.7-.602l-.1-.1c-.3-.2-.5-.501-.8-.802-2.2-2.305-3.2-4.209-3.4-4.911 0-.1.1-.3.1-.401l2.3-2.104.1-.101.1-.1.1-.1s.3-.2.3-.301c.4-.3 1.2-.501 2.7.201.1 0 .2.1.2.1l.6.301s.1 0 .1.1c9.9 5.111 15.8 0 17.8-2.305.5-.602.8-1.003.8-1.003v-14.331c.2-4.511 2.7-8.62 6.8-10.624 9.3-4.61 21.6-.1 22.6 10.624v1.503z" fill="url(#paint136_linear)"/><path d="M279.6 384.222l-.2.201.2-.201c-.1 0 0 0 0 0z" fill="#993111"/><path d="M273.5 375.202v-1.703l-1.4-.401c.2.801.7 1.603 1.4 2.104z" fill="#993714"/><path d="M275.6 368.587c-.6 0-1.3.201-1.8.502-1.1.601-1.8 1.804-1.8 3.106 0 .301 0 .602.1.802l1.5.401c-.2-.401-.4-.802-.4-1.303 0-1.202.9-2.205 2-2.405h.8c.1 0 .2.1.3.1h.1c.1 0 .2.1.3.1 0 0 .1 0 .1.101.1.1.2.1.3.2 0 0 .1 0 .1.1.1.1.2.1.2.201l.1.1c.1.1.1.2.2.301.2.4.3.801.3 1.202 0 .501-.1.902-.4 1.303v1.704c.9-.702 1.5-1.704 1.5-3.007.1-1.904-1.5-3.508-3.5-3.508z" fill="#993714"/><path d="M277.7 373.498v1.704c-.6.401-1.3.601-2.1.601s-1.5-.3-2.1-.701v-1.704h.1c.4.702 1.2 1.102 2 1.102.9.101 1.6-.3 2.1-1.002z" fill="#993714"/><path d="M273.8 369.089l-13.1-7.216v7.817l11.3 3.408c-.1-.301-.1-.502-.1-.802.1-1.403.9-2.606 1.9-3.207z" fill="url(#paint137_linear)"/><path d="M277.4 369.089c1.1.601 1.8 1.804 1.8 3.107 0 .3 0 .601-.1.801l11.1-3.307v-7.717l-12.8 7.116z" fill="url(#paint138_linear)"/><path d="M273.5 375.202v10.423h4.2v-10.423c-.6.401-1.3.601-2.1.601s-1.5-.2-2.1-.601z" fill="url(#paint139_linear)"/><path d="M290.2 378.91v9.722h-10.7v-4.41l-.1.1c-.5.502-4.3 4.51-10.7 5.112-.3 0-.6 0-.9.1h-1.7c-4.5-.1-9.1-.501-13.5-1.604-.1 0-.2-.1-.4-.1-3.7-1.002-7.2-2.405-10.2-4.71-.2-.101-.3-.201-.5-.401-.2-.201-.4-.301-.6-.501a.786.786 0 0 1-.4-.401c-.2-.201-.5-.401-.7-.602l-.1-.1c-.3-.2-.5-.501-.8-.802-1.4-1.403-2.8-3.106-3.4-4.91 0-.101-.1-.201-.1-.201l1.6-1.503c.3.501.7 1.102.7 1.202 1 1.604 2.2 3.007 3.6 4.31 5.5 5.111 13.2 7.617 20.6 8.018 3.5.2 7.2.1 10.5-1.303 1.7-.702 3.9-2.004 5.4-3.007 1.8-1.202 2.9-2.205 5-2.906 2.4-.802 4.9-1.203 7.4-1.103z" fill="#993111"/><path d="M290.2 355.358c-1.2 0-2.3-.802-2.7-2.004-2.2-7.517-11.6-10.324-18.9-6.816-2.8 1.403-4.8 3.909-5.5 6.916-.3 1.102-1.2 1.804-2.3 1.804h-.1c.2-4.51 2.7-8.619 6.8-10.624 9.4-4.41 21.7 0 22.7 10.724z" fill="url(#paint140_linear)"/><path d="M276 355.358c-1.6 0-2.9-1.303-2.9-2.907v-11.826h5.7v11.826c.1 1.604-1.2 2.907-2.8 2.907z" fill="#993111"/><path d="M323.6 372.195l-20 .602-4.1-1.103-2.9-.802v-25.356c1.8 2.305 9.5 10.323 22.8-.401l3.1 20.145 1 6.514.1.401z" fill="url(#paint141_linear)"/><path d="M324.5 383.521c-1.6 4.811-6.5 4.51-6.5 4.51h-23.1c-1.7-.802-2.5-1.804-2.8-2.806-.8-2.807 2.2-5.813 2.2-5.813 2.8-5.412 2.2-8.519 2.2-8.519l10.7-10.925 14.2 7.317 2.1 4.911c1.8 5.412 1.8 9.02 1 11.325z" fill="url(#paint142_linear)"/><path d="M324.5 383.521c-1.6 4.811-6.5 4.51-6.5 4.51h-23.1c-1.7-.802-2.5-1.804-2.8-2.806 0 0 5.6-.501 7.3-4.41h9c.1 0 10.3 10.022 16.1 2.706z" fill="#993111"/><path d="M323.5 371.895l-8.5-1.403c-4.3-.702-8.6-.501-12.8.601l-2.7.702-2.9.801v-6.414l5.1-1.403c4.3-1.203 8.8-1.403 13.1-.702l7.7 1.303 1 6.515z" fill="url(#paint143_linear)"/><path d="M296.6 353.654c-.7 0-1.2-.501-1.2-1.203v-11.826h1.2v13.029zm24 .401c.7-.1 1.1-.702 1-1.403l-2-11.626-1.2.2 2.2 12.829z" fill="#993111"/><path d="M319.3 345.937c-13.3 10.724-20.9 2.606-22.7.301v-3.408s7.4 12.227 22.2.1l.5 3.007z" fill="url(#paint144_linear)"/><path d="M324.9 169.944s.3 12.127-5.3 15.434l-6-11.525 3.9-10.624 7.4 6.715z" fill="#993111"/><path d="M236.6 134.064c.2-1.704.4-3.307.7-5.011 0-.1 0-.301.1-.401.2-1.203.3-2.405.5-3.608.2-1.503.2-3.107.8-4.51.7-1.403 2.1-2.405 3.2-3.408 2-1.904 4.2-3.608 6.6-5.011.8-.501 1.6-1.002 2.5-1.403 1.6-.902 3.3-1.704 5-2.305 1.2-.501 2.5-.902 3.8-1.303 7.4-2.305 16.9-3.408 28.7-1.604 1 .201 2 .502 2.9.702 1.2.301 2.5.702 3.6 1.002 2.1.702 4.1 1.403 5.9 2.105 7.8 3.007 12.8 6.013 12.8 6.013l1.6 9.622 3.3 19.644v.3l.6 22.651c1.7.902 3.2 1.904 3.2 1.904s1.4 14.132-4 28.464c-5.8 15.735-29.4 31.069-45.4 30.768-7.3-.2-15.2-2.906-17.9-12.327-3-10.524-7.4-17.138-7.5-17.439-2.6-5.913-7.6-18.04-8.3-23.452-.3-2.706-.4-5.813.3-8.519.6-2.506 2.4-4.611 2.8-7.217.2-1.102.2-2.205.2-3.307-.1-2.305-.6-4.51-1.4-6.615l-3.3-7.817c-.3-.802-.6-1.604-.8-2.406-.6-2.004-.7-3.808-.5-5.512z" fill="#FAAFA9"/><path d="M294.599 152.605c-.9 5.813-7.8 8.92-13.1 8.72-6-.201-10.3-4.21-10.3-10.323 0 0 0-15.134 10.8-15.335 6.8-.2 11.6 6.715 12.5 12.829.3 1.503.3 2.906.1 4.109z" fill="#fff"/><path d="M290.699 152.104c0-.2.1-.401.1-.501v-1.804c0-.2-.1-.3-.1-.501v-.2c0-.201-.1-.301-.1-.502 0-.1 0-.1-.1-.2-.1-.2-.1-.301-.2-.501 0 0 0-.1-.1-.1-.1-.201-.2-.301-.3-.501 0 0 0-.101-.1-.101-.1-.2-.2-.3-.4-.501a6.485 6.485 0 0 0-5.2-2.606c-3.2 0-5.8 2.205-6.5 5.212-.1.501-.2.902-.2 1.403v.702c.1.501.2.902.3 1.403v.1c.1.201.1.401.2.601v.101c.1.2.2.401.3.501v.1c.1.2.2.301.3.501l.1.1c.1.201.3.301.4.501l.5.502a6.776 6.776 0 0 0 4.4 1.603c3.4-.1 5.9-2.305 6.7-5.312-.1.101-.1.101 0 0 0 .101 0 0 0 0z" fill="url(#paint145_linear)"/><path d="M284.2 154.009a3.404 3.404 0 0 1-3.4-3.408 3.404 3.404 0 0 1 3.4-3.408c1.877 0 3.4 1.526 3.4 3.408a3.405 3.405 0 0 1-3.4 3.408z" fill="#000"/><path d="M286.099 148.897c-.939 0-1.7-.763-1.7-1.704s.761-1.704 1.7-1.704 1.7.763 1.7 1.704-.761 1.704-1.7 1.704zm-24.7 10.524c-.1.1-.1.2-.2.3-1.6 2.606-6.4 2.506-8.3 2.406-.5 0-.8-.1-.8-.1-8.3-2.506-4.9-12.829-4.9-12.829 3.9-10.022 11.5-4.209 11.5-4.209l.7 7.917 1.9 6.314.1.201z" fill="#fff"/><path d="M253.5 139.877c-8.5-2.806-16.2.902-16.2.902-.6-1.503-.8-3.007-.9-3.809 5-4.61 10.9-3.708 13.5-3.207 1.1 2.205 3.6 6.114 3.6 6.114z" fill="#993111"/><path d="M250.199 134.164c-2.6-.501-8.7-1.503-13.7 3.107v-1.102c4.6-7.317 11.8-5.012 11.8-5.012.7.802 1.4 2.105 1.9 3.007z" fill="#B24D20"/><path d="M287.999 118.73c-13.5-1.905-20.2-12.027-20.2-12.027-1.6 3.407.7 8.318.8 8.519-8.1-3.909-8.8-7.517-8.9-8.319 7.4-2.305 16.9-3.407 28.7-1.603 1 .2 2 .501 2.9.701-5.5 3.909-3.3 12.729-3.3 12.729zm38.601 23.251l-8.1 2.606-.2.1v-.2c-1.1-8.92-3.7-16.136-6.7-21.648 0 0 0-.101-.1-.101-.4-.701-.7-1.302-1.1-1.904-4.1-6.815-8.4-10.623-9.7-11.726l-.1-.1c7 2.606 13.7 6.013 20 10.022.8.501 1.4 1.103 2.1 1.704.3.301.8.702 1.2 1.102.3.301.5.702.7 1.103 1.1 3.207 1.7 6.414 2 9.22.6 5.613 0 9.822 0 9.822z" fill="#993111"/><path d="M317.599 146.091c-.1-1.103 1.8-3.207 2.4-4.009 2-2.506 4.7-4.41 7.8-5.011 3.2-.602 7 0 9.5 2.104 2.9 2.406 3.7 6.916 3.9 10.524.4 6.815-1.9 13.931-7.5 18.14-1.8 1.303-3.9 2.205-6.1 2.706-1.3.201-2.6.301-3.9.301-.5 0-4.5-.301-4.5-.601l-1.6-24.154z" fill="url(#paint146_linear)"/><path d="M332.099 159.22c-1.099 2.405-3 4.309-5.3 5.612-.8.502-1.699.802-2.699.802-.9-.1-1.9-.701-2-1.603-.1-.802.4-1.604 1-2.205.6-.602 1.3-1.103 1.7-1.804.499-.902.5-2.005.3-3.107-.2-1.103-.5-2.105-1.3-2.907-.7-.601-1.6-.902-2.3-1.503-1.5-1.303 0-3.107.6-4.41 0 0 1.7-1.704 4-1.002 2.6.3 4.9 2.104 5.999 4.51 1.2 2.405 1.1 5.312 0 7.617z" fill="#E56161"/><path d="M288.599 129.855c-15.3-3.107-21.6 6.915-21.6 6.915l-3.1-7.116s3.4-10.323 19.9-8.819c4.6 2.305 9.4 7.015 9.4 7.015-3.3-1.703-8.7-1.603-8.7-1.603 5 .401 4.1 3.608 4.1 3.608z" fill="#993111"/><path d="M298.1 135.968s-16.3-14.532-29 3.608l-2-2.806s4.8-10.824 20-7.717c0 0-1.6-2.506-6.7-2.907 0 0 7.7-.701 11 1.002 0 0-3-3.808-7.6-6.213.7.1 1.3.1 2.1.2 2.9.401 5.5 2.004 7.3 4.41 1.7 2.505 3.9 6.114 4.9 10.423z" fill="#872308"/><path opacity=".42" d="M326.699 132.059c-.3-.801-2.3-1.703-2.9-2.104-1.6-1.003-3.2-2.105-4.7-3.107-2.2-1.403-4.6-2.706-7-3.909-.1-.1-.3-.1-.4-.2-.8-.401-1.5-.702-2.3-1.103-2-.902-4-1.804-6-2.606-7.7-3.207-15.5-6.214-23.9-7.015-9.2-.902-18.8.2-27.2 3.908-4.5 2.005-8.6 4.811-11.8 8.519-.7.902-2.7 2.807-3 4.21.2-1.203.3-2.406.5-3.608.2-1.504.2-3.107.8-4.51.7-1.403 2.1-2.406 3.2-3.408 2-1.904 4.2-3.608 6.6-5.011 10.3-6.414 23.1-8.519 35.1-7.417 1.6.201 3.3.301 4.9.702 4.2.902 8.3 2.205 12.4 3.708 7 2.606 13.7 6.014 20 10.023.8.501 1.4 1.102 2.1 1.703.3.301.8.702 1.2 1.103.3.3.6.701.7 1.102.8 3.007 1.4 6.214 1.7 9.02z" fill="#EA7585"/><path d="M256.399 205.924s12.3 11.225 33.3-4.71c0 0 8.9-6.014 10.2-15.134l-46.7-1.403 1.1 9.321c-.1 0 2.6 6.815 2.1 11.926z" fill="url(#paint147_linear)"/><path d="M298.399 187.884c-3.1 8.72-16.2 14.633-16.2 14.633-16.9 8.619-23.8 1.603-23.8 1.603.1-1.603.1-3.207 0-4.71-.1-.601-.1-1.103-.2-1.704-.6-3.508-1.6-5.913-1.6-5.913l-2.1-.602 6.4-4.51 22.2-.601 15.3 1.804z" fill="#fff"/><path d="M266.199 176.859s-22.2-2.104-27.2 6.014c0 0-3.3 4.911-1.3 11.325 0 0 .1 8.72-5.7 10.524 0 0 7.9 2.205 13.5-6.014 0 0 2.7-4.309 7.3-3.808 0 0 7.5-.101 9.5-5.212 0 0 3.4 5.713 13.3 3.708 0 0 10.9-2.706 14.6-4.109 0 0 8.2-1.904 12 4.51 0 0 5.4 11.225 19.6 6.916 0 0-7.3-1.504-8.3-8.018-.2-.902.2-2.205.2-3.207 0-2.506-.3-5.112-1.1-7.517-2.4-7.316-9.7-11.125-17-11.927-4.2-.401-8.4 0-12.5 1.002a33.87 33.87 0 0 0-6.1 2.105c-1.4.602-3.7 2.806-5.1 3.007l-5.7.701z" fill="url(#paint148_linear)"/><path d="M287.5 193.096l-8.101 3.908c-2.8 1.203-5.7 2.105-8.7 2.506-3 .501-6 .501-9.1.301-1.1-.101-2.2-.201-3.3-.401-.1-.602-.1-1.103-.2-1.704 1.2.301 2.4.501 3.7.601 2.9.401 5.9.401 8.8.101 2.9-.301 5.8-.902 8.6-2.005l8.301-3.307z" fill="url(#paint149_linear)"/><path d="M272.099 144.687s7.6-9.02 20.6-1.603c0 0-3.4-8.92-12.8-7.417 0-.1-6.6 1.103-7.8 9.02z" fill="#FFD3D2"/><path d="M261.6 155.913c0-.101.1-.301.1-.401v-1.203c0-.1 0-.2-.1-.401v-.1c0-.1-.1-.201-.1-.401v-.1c0-.1-.1-.201-.1-.401v-.1c-.1-.101-.1-.201-.2-.401v-.1c-.1-.101-.2-.301-.3-.401-.9-1.103-2.2-1.804-3.8-1.804-2.3 0-4.2 1.603-4.7 3.708-.1.301-.1.701-.1 1.002v.501c0 .301.1.702.2 1.002.1.101.1.301.2.401v.101c.1.1.1.3.2.401v.1c.1.1.2.2.2.401l.3.3.3.301c.9.702 2 1.203 3.2 1.203 2.3.2 4.2-1.403 4.7-3.608 0 .1 0 .1 0 0 0 .1 0 .1 0 0z" fill="url(#paint150_linear)"/><path d="M256.899 157.416c-1.38 0-2.5-1.122-2.5-2.506a2.503 2.503 0 0 1 2.5-2.505c1.381 0 2.5 1.122 2.5 2.505a2.503 2.503 0 0 1-2.5 2.506z" fill="#000"/><path d="M258.299 153.608a1.202 1.202 0 0 1 0-2.406 1.202 1.202 0 0 1 0 2.406z" fill="#fff"/><path d="M246.7 151.302s4.8-5.713 12.4-3.407l-1.1-3.809s-7.6-3.508-10.8 4.009c-.4.902-.5 2.005-.5 3.207z" fill="#FFD3D2"/><path d="M285 176.458c2.8-.2 5.4-.2 7.9.101 2.5.3 4.8 1.002 6.8 2.204 2 1.203 3.7 2.807 5.3 4.811 1.5 2.005 2.9 4.31 4.3 6.715.2-2.806-.401-5.713-1.6-8.318-1.2-2.706-3.2-5.112-5.9-6.715-2.7-1.604-5.8-2.105-8.8-1.905-3 .401-5.8 1.404-8 3.107z" fill="url(#paint151_linear)"/><path d="M268.499 171.447c-.8 2.807-3.3 4.911-6.2 5.312-5.4.802-9.2-1.503-11.2-3.307.7-2.105 2.2-3.708 2.2-3.708 10.4-9.421 4-24.455 4-24.455l-1.6-3.207c-2.7-6.916 2.3-4.31 2.3-4.31 3.5 2.706 6.2 5.813 8.4 9.02 3.7 13.13 3.2 20.546 2.1 24.655z" fill="url(#paint152_linear)"/><path d="M274.999 171.548c.2 3.207-.7 5.512-2.2 7.116-1.4 1.603-3.4 2.505-5.4 3.006-1.9.501-3.7.702-5.1.802h-2.3c-.8-.2-1.5-.401-2.2-.501-7.1-2.105-7.6-5.713-6.8-8.419 2.1 1.804 5.9 4.109 11.2 3.307 2.9-.4 5.4-2.505 6.2-5.311 1.2-4.009 1.6-11.426-2.1-24.655 8.2 11.626 8.7 24.655 8.7 24.655z" fill="url(#paint153_linear)"/><defs><linearGradient id="paint0_linear" x1="447.706" y1="176.236" x2="567.706" y2="176.236" gradientUnits="userSpaceOnUse"><stop stop-color="#A984FF"/><stop offset="1" stop-color="#6329C5"/></linearGradient><linearGradient id="paint1_linear" x1="443.706" y1="160.081" x2="542.039" y2="160.081" gradientUnits="userSpaceOnUse"><stop stop-color="#A984FF"/><stop offset="1" stop-color="#6329C5"/></linearGradient><linearGradient id="paint2_linear" x1="373.334" y1="185.027" x2="434.372" y2="185.027" gradientUnits="userSpaceOnUse"><stop stop-color="#A984FF"/><stop offset="1" stop-color="#6329C5"/></linearGradient><linearGradient id="paint3_linear" x1="400.376" y1="200.921" x2="432.373" y2="200.921" gradientUnits="userSpaceOnUse"><stop stop-color="#A984FF"/><stop offset="1" stop-color="#6329C5"/></linearGradient><linearGradient id="paint4_linear" x1="418.373" y1="205.704" x2="437.706" y2="205.704" gradientUnits="userSpaceOnUse"><stop stop-color="#A984FF"/><stop offset="1" stop-color="#6329C5"/></linearGradient><linearGradient id="paint5_linear" x1="439.706" y1="233.843" x2="468.706" y2="233.843" gradientUnits="userSpaceOnUse"><stop stop-color="#A984FF"/><stop offset="1" stop-color="#6329C5"/></linearGradient><linearGradient id="paint6_linear" x1="439.706" y1="190.914" x2="472.706" y2="190.914" gradientUnits="userSpaceOnUse"><stop stop-color="#A984FF"/><stop offset="1" stop-color="#6329C5"/></linearGradient><linearGradient id="paint7_linear" x1="455.706" y1="189.625" x2="508.706" y2="189.625" gradientUnits="userSpaceOnUse"><stop stop-color="#A984FF"/><stop offset="1" stop-color="#6329C5"/></linearGradient><linearGradient id="paint8_linear" x1="442.372" y1="151.789" x2="491.039" y2="151.789" gradientUnits="userSpaceOnUse"><stop stop-color="#A984FF"/><stop offset="1" stop-color="#6329C5"/></linearGradient><linearGradient id="paint9_linear" x1="439.706" y1="147.74" x2="469.206" y2="147.74" gradientUnits="userSpaceOnUse"><stop stop-color="#A984FF"/><stop offset="1" stop-color="#6329C5"/></linearGradient><linearGradient id="paint10_linear" x1="439.706" y1="123.822" x2="454.039" y2="123.822" gradientUnits="userSpaceOnUse"><stop stop-color="#A984FF"/><stop offset="1" stop-color="#6329C5"/></linearGradient><linearGradient id="paint11_linear" x1="422.373" y1="124.374" x2="441.054" y2="124.374" gradientUnits="userSpaceOnUse"><stop stop-color="#A984FF"/><stop offset="1" stop-color="#6329C5"/></linearGradient><linearGradient id="paint12_linear" x1="401.514" y1="160.417" x2="439.039" y2="160.417" gradientUnits="userSpaceOnUse"><stop stop-color="#A984FF"/><stop offset="1" stop-color="#6329C5"/></linearGradient><linearGradient id="paint13_linear" x1="379.049" y1="166.653" x2="434.213" y2="166.653" gradientUnits="userSpaceOnUse"><stop stop-color="#A984FF"/><stop offset="1" stop-color="#6329C5"/></linearGradient><linearGradient id="paint14_linear" x1="362.363" y1="212.036" x2="410.652" y2="212.036" gradientUnits="userSpaceOnUse"><stop stop-color="#EE4036"/><stop offset="1" stop-color="#F6921E"/></linearGradient><linearGradient id="paint15_linear" x1="431.456" y1="236.316" x2="441.251" y2="236.316" gradientUnits="userSpaceOnUse"><stop stop-color="#EE4036"/><stop offset="1" stop-color="#F6921E"/></linearGradient><linearGradient id="paint16_linear" x1="483.456" y1="240.448" x2="495.376" y2="240.448" gradientUnits="userSpaceOnUse"><stop stop-color="#EE4036"/><stop offset="1" stop-color="#F6921E"/></linearGradient><linearGradient id="paint17_linear" x1="80.706" y1="269.602" x2="110.206" y2="269.602" gradientUnits="userSpaceOnUse"><stop stop-color="#0084FF"/><stop offset="1" stop-color="#005AC5"/></linearGradient><linearGradient id="paint18_linear" x1="334.762" y1="347.956" x2="399.385" y2="347.956" gradientUnits="userSpaceOnUse"><stop stop-color="#EE4036"/><stop offset="1" stop-color="#F6921E"/></linearGradient><linearGradient id="paint19_linear" x1="334.762" y1="324.522" x2="369.573" y2="324.522" gradientUnits="userSpaceOnUse"><stop stop-color="#EE4036"/><stop offset="1" stop-color="#F6921E"/></linearGradient><linearGradient id="paint20_linear" x1="203.071" y1="318.675" x2="239.726" y2="318.675" gradientUnits="userSpaceOnUse"><stop stop-color="#0084FF"/><stop offset="1" stop-color="#005AC5"/></linearGradient><linearGradient id="paint21_linear" x1="207.54" y1="339.939" x2="235.334" y2="339.939" gradientUnits="userSpaceOnUse"><stop stop-color="#0084FF"/><stop offset="1" stop-color="#005AC5"/></linearGradient><linearGradient id="paint22_linear" x1="123.499" y1="339.063" x2="145.891" y2="322.56" gradientUnits="userSpaceOnUse"><stop stop-color="#0084FF"/><stop offset="1" stop-color="#005AC5"/></linearGradient><linearGradient id="paint23_linear" x1="154.659" y1="337.396" x2="205.65" y2="337.396" gradientUnits="userSpaceOnUse"><stop stop-color="#A984FF"/><stop offset="1" stop-color="#6329C5"/></linearGradient><linearGradient id="paint24_linear" x1="342.515" y1="278.692" x2="381.014" y2="278.692" gradientUnits="userSpaceOnUse"><stop stop-color="#0084FF"/><stop offset="1" stop-color="#005AC5"/></linearGradient><linearGradient id="paint25_linear" x1="55.457" y1="157.368" x2="122.457" y2="157.368" gradientUnits="userSpaceOnUse"><stop stop-color="#EE4036"/><stop offset="1" stop-color="#F6921E"/></linearGradient><linearGradient id="paint26_linear" x1="77.206" y1="123.167" x2="110.206" y2="123.167" gradientUnits="userSpaceOnUse"><stop stop-color="#EE4036"/><stop offset="1" stop-color="#F6921E"/></linearGradient><linearGradient id="paint27_linear" x1="116.706" y1="137.042" x2="129.706" y2="137.042" gradientUnits="userSpaceOnUse"><stop stop-color="#EE4036"/><stop offset="1" stop-color="#F6921E"/></linearGradient><linearGradient id="paint28_linear" x1="-1.794" y1="201.591" x2="116.206" y2="201.591" gradientUnits="userSpaceOnUse"><stop stop-color="#EE4036"/><stop offset="1" stop-color="#F6921E"/></linearGradient><linearGradient id="paint29_linear" x1="17.206" y1="224.276" x2="94.706" y2="224.276" gradientUnits="userSpaceOnUse"><stop stop-color="#EE4036"/><stop offset="1" stop-color="#F6921E"/></linearGradient><linearGradient id="paint30_linear" x1="65.706" y1="235.506" x2="113.706" y2="235.506" gradientUnits="userSpaceOnUse"><stop stop-color="#EE4036"/><stop offset="1" stop-color="#F6921E"/></linearGradient><linearGradient id="paint31_linear" x1="132.206" y1="242.442" x2="182.112" y2="242.442" gradientUnits="userSpaceOnUse"><stop stop-color="#EE4036"/><stop offset="1" stop-color="#F6921E"/></linearGradient><linearGradient id="paint32_linear" x1="110.398" y1="246.095" x2="121.707" y2="246.095" gradientUnits="userSpaceOnUse"><stop stop-color="#EE4036"/><stop offset="1" stop-color="#F6921E"/></linearGradient><linearGradient id="paint33_linear" x1="129.663" y1="205.562" x2="230.825" y2="205.562" gradientUnits="userSpaceOnUse"><stop stop-color="#A984FF"/><stop offset="1" stop-color="#6329C5"/></linearGradient><linearGradient id="paint34_linear" x1="140.206" y1="167.388" x2="205.527" y2="167.388" gradientUnits="userSpaceOnUse"><stop stop-color="#A984FF"/><stop offset="1" stop-color="#6329C5"/></linearGradient><linearGradient id="paint35_linear" x1="140.206" y1="152.389" x2="170.402" y2="152.389" gradientUnits="userSpaceOnUse"><stop stop-color="#A984FF"/><stop offset="1" stop-color="#6329C5"/></linearGradient><linearGradient id="paint36_linear" x1="58.706" y1="163.159" x2="102.04" y2="163.159" gradientUnits="userSpaceOnUse"><stop stop-color="#EE4036"/><stop offset="1" stop-color="#F6921E"/></linearGradient><linearGradient id="paint37_linear" x1="5.04" y1="166.694" x2="34.039" y2="166.694" gradientUnits="userSpaceOnUse"><stop stop-color="#A984FF"/><stop offset="1" stop-color="#6329C5"/></linearGradient><linearGradient id="paint38_linear" x1="479.706" y1="89.406" x2="504.373" y2="89.406" gradientUnits="userSpaceOnUse"><stop stop-color="#0084FF"/><stop offset="1" stop-color="#005AC5"/></linearGradient><linearGradient id="paint39_linear" x1="339.652" y1="32.465" x2="369.573" y2="32.465" gradientUnits="userSpaceOnUse"><stop stop-color="#EE4036"/><stop offset="1" stop-color="#F6921E"/></linearGradient><linearGradient id="paint40_linear" x1="344.183" y1="49.422" x2="372.462" y2="49.422" gradientUnits="userSpaceOnUse"><stop stop-color="#EE4036"/><stop offset="1" stop-color="#F6921E"/></linearGradient><linearGradient id="paint41_linear" x1="428.067" y1="310.566" x2="456.345" y2="310.566" gradientUnits="userSpaceOnUse"><stop stop-color="#EE4036"/><stop offset="1" stop-color="#F6921E"/></linearGradient><linearGradient id="paint42_linear" x1="132.206" y1="76.015" x2="145.492" y2="76.015" gradientUnits="userSpaceOnUse"><stop stop-color="#A984FF"/><stop offset="1" stop-color="#6329C5"/></linearGradient><linearGradient id="paint43_linear" x1="308.881" y1="290.662" x2="308.881" y2="286.589" gradientUnits="userSpaceOnUse"><stop stop-color="#F05A28"/><stop offset="1" stop-color="#BE1E2D"/></linearGradient><linearGradient id="paint44_linear" x1="307.024" y1="292.27" x2="310.739" y2="292.437" gradientUnits="userSpaceOnUse"><stop stop-color="#EE4036"/><stop offset="1" stop-color="#F6921E"/></linearGradient><linearGradient id="paint45_linear" x1="278.073" y1="276.792" x2="331.764" y2="276.792" gradientUnits="userSpaceOnUse"><stop stop-color="#EE4036"/><stop offset="1" stop-color="#BE1E2D"/></linearGradient><linearGradient id="paint46_linear" x1="265.481" y1="343.129" x2="285.729" y2="343.129" gradientUnits="userSpaceOnUse"><stop stop-color="#EA7585"/><stop offset="1" stop-color="#FCACAD"/></linearGradient><linearGradient id="paint47_linear" x1="221.23" y1="262.302" x2="254.437" y2="262.302" gradientUnits="userSpaceOnUse"><stop stop-color="#FCACAD"/><stop offset="1" stop-color="#EA7585"/></linearGradient><linearGradient id="paint48_linear" x1="220.485" y1="249.336" x2="196.595" y2="243.55" gradientUnits="userSpaceOnUse"><stop stop-color="#FCACAD"/><stop offset="1" stop-color="#EA7585"/></linearGradient><linearGradient id="paint49_linear" x1="193.711" y1="239.829" x2="210.113" y2="238.542" gradientUnits="userSpaceOnUse"><stop stop-color="#EA7585"/><stop offset="1" stop-color="#FCACAD"/></linearGradient><linearGradient id="paint50_linear" x1="193.141" y1="247.308" x2="209.694" y2="246.009" gradientUnits="userSpaceOnUse"><stop stop-color="#EA7585"/><stop offset="1" stop-color="#FCACAD"/></linearGradient><linearGradient id="paint51_linear" x1="193.36" y1="254.261" x2="207.845" y2="253.125" gradientUnits="userSpaceOnUse"><stop stop-color="#EA7585"/><stop offset="1" stop-color="#FCACAD"/></linearGradient><linearGradient id="paint52_linear" x1="209.507" y1="230.807" x2="214.495" y2="243.24" gradientUnits="userSpaceOnUse"><stop stop-color="#EA7585"/><stop offset="1" stop-color="#FCACAD"/></linearGradient><linearGradient id="paint53_linear" x1="292.032" y1="340.603" x2="315.063" y2="340.603" gradientUnits="userSpaceOnUse"><stop stop-color="#EA7585"/><stop offset="1" stop-color="#FCACAD"/></linearGradient><linearGradient id="paint54_linear" x1="242.508" y1="257.867" x2="264.056" y2="257.867" gradientUnits="userSpaceOnUse"><stop stop-color="#EE4036"/><stop offset="1" stop-color="#BE1E2D"/></linearGradient><linearGradient id="paint55_linear" x1="291.723" y1="323.81" x2="291.975" y2="323.81" gradientUnits="userSpaceOnUse"><stop stop-color="#2B388F"/><stop offset="1" stop-color="#2A3B90"/></linearGradient><linearGradient id="paint56_linear" x1="292.448" y1="303.918" x2="300.214" y2="323.367" gradientUnits="userSpaceOnUse"><stop stop-color="#0047C5"/><stop offset="1" stop-color="#0084FF"/></linearGradient><linearGradient id="paint57_linear" x1="270.569" y1="304.496" x2="270.569" y2="327.103" gradientUnits="userSpaceOnUse"><stop stop-color="#0047C5"/><stop offset="1" stop-color="#0084FF"/></linearGradient><linearGradient id="paint58_linear" x1="264.512" y1="324.465" x2="283.003" y2="324.465" gradientUnits="userSpaceOnUse"><stop stop-color="#0047C5"/><stop offset="1" stop-color="#0084FF"/></linearGradient><linearGradient id="paint59_linear" x1="290.476" y1="322.638" x2="309.889" y2="322.638" gradientUnits="userSpaceOnUse"><stop stop-color="#0047C5"/><stop offset="1" stop-color="#0084FF"/></linearGradient><radialGradient id="paint60_radial" cx="0" cy="0" r="1" gradientUnits="userSpaceOnUse" gradientTransform="matrix(30.07 0 0 30.1372 286.505 299.958)"><stop stop-color="#0084FF"/><stop offset="1" stop-color="#005AC5"/></radialGradient><linearGradient id="paint61_linear" x1="251.777" y1="257.869" x2="337.798" y2="257.869" gradientUnits="userSpaceOnUse"><stop stop-color="#EE4036"/><stop offset="1" stop-color="#F6921E"/></linearGradient><linearGradient id="paint62_linear" x1="258.31" y1="228.732" x2="311.6" y2="228.732" gradientUnits="userSpaceOnUse"><stop stop-color="#EC1C24"/><stop offset="1" stop-color="#BE1E2D"/></linearGradient><linearGradient id="paint63_linear" x1="252.84" y1="283.257" x2="252.84" y2="279.185" gradientUnits="userSpaceOnUse"><stop stop-color="#F05A28"/><stop offset="1" stop-color="#BE1E2D"/></linearGradient><linearGradient id="paint64_linear" x1="250.982" y1="284.866" x2="254.697" y2="285.032" gradientUnits="userSpaceOnUse"><stop stop-color="#EE4036"/><stop offset="1" stop-color="#F6921E"/></linearGradient><linearGradient id="paint65_linear" x1="305.962" y1="280.479" x2="305.962" y2="276.407" gradientUnits="userSpaceOnUse"><stop stop-color="#F05A28"/><stop offset="1" stop-color="#BE1E2D"/></linearGradient><linearGradient id="paint66_linear" x1="304.105" y1="282.087" x2="307.82" y2="282.254" gradientUnits="userSpaceOnUse"><stop stop-color="#EE4036"/><stop offset="1" stop-color="#F6921E"/></linearGradient><linearGradient id="paint67_linear" x1="289.37" y1="291.636" x2="289.37" y2="287.564" gradientUnits="userSpaceOnUse"><stop stop-color="#F05A28"/><stop offset="1" stop-color="#BE1E2D"/></linearGradient><linearGradient id="paint68_linear" x1="287.513" y1="293.245" x2="291.228" y2="293.411" gradientUnits="userSpaceOnUse"><stop stop-color="#EE4036"/><stop offset="1" stop-color="#F6921E"/></linearGradient><linearGradient id="paint69_linear" x1="276.03" y1="301.743" x2="276.03" y2="297.67" gradientUnits="userSpaceOnUse"><stop stop-color="#F05A28"/><stop offset="1" stop-color="#BE1E2D"/></linearGradient><linearGradient id="paint70_linear" x1="274.173" y1="303.351" x2="277.888" y2="303.518" gradientUnits="userSpaceOnUse"><stop stop-color="#EE4036"/><stop offset="1" stop-color="#F6921E"/></linearGradient><linearGradient id="paint71_linear" x1="261.185" y1="301.743" x2="261.185" y2="297.67" gradientUnits="userSpaceOnUse"><stop stop-color="#F05A28"/><stop offset="1" stop-color="#BE1E2D"/></linearGradient><linearGradient id="paint72_linear" x1="259.328" y1="303.351" x2="263.043" y2="303.518" gradientUnits="userSpaceOnUse"><stop stop-color="#EE4036"/><stop offset="1" stop-color="#F6921E"/></linearGradient><linearGradient id="paint73_linear" x1="322.296" y1="283.644" x2="322.296" y2="279.571" gradientUnits="userSpaceOnUse"><stop stop-color="#F05A28"/><stop offset="1" stop-color="#BE1E2D"/></linearGradient><linearGradient id="paint74_linear" x1="320.439" y1="285.252" x2="324.154" y2="285.419" gradientUnits="userSpaceOnUse"><stop stop-color="#EE4036"/><stop offset="1" stop-color="#F6921E"/></linearGradient><linearGradient id="paint75_linear" x1="252.86" y1="264.621" x2="335.439" y2="264.621" gradientUnits="userSpaceOnUse"><stop stop-color="#BE1E2D"/><stop offset="1" stop-color="#F05A28"/></linearGradient><linearGradient id="paint76_linear" x1="252.273" y1="264.62" x2="336.693" y2="264.62" gradientUnits="userSpaceOnUse"><stop stop-color="#BE1E2D"/><stop offset="1" stop-color="#F05A28"/></linearGradient><linearGradient id="paint77_linear" x1="252.519" y1="273.363" x2="337.798" y2="273.363" gradientUnits="userSpaceOnUse"><stop stop-color="#BE1E2D"/><stop offset="1" stop-color="#F05A28"/></linearGradient><linearGradient id="paint78_linear" x1="249.837" y1="265.956" x2="341.427" y2="241.901" gradientUnits="userSpaceOnUse"><stop stop-color="#BE1E2D"/><stop offset="1" stop-color="#F05A28"/></linearGradient><linearGradient id="paint79_linear" x1="254.179" y1="282.493" x2="345.77" y2="258.438" gradientUnits="userSpaceOnUse"><stop stop-color="#BE1E2D"/><stop offset="1" stop-color="#F05A28"/></linearGradient><linearGradient id="paint80_linear" x1="254.714" y1="284.527" x2="346.303" y2="260.473" gradientUnits="userSpaceOnUse"><stop stop-color="#BE1E2D"/><stop offset="1" stop-color="#F05A28"/></linearGradient><linearGradient id="paint81_linear" x1="252.912" y1="277.664" x2="344.5" y2="253.61" gradientUnits="userSpaceOnUse"><stop stop-color="#BE1E2D"/><stop offset="1" stop-color="#F05A28"/></linearGradient><linearGradient id="paint82_linear" x1="251.505" y1="272.306" x2="343.092" y2="248.252" gradientUnits="userSpaceOnUse"><stop stop-color="#BE1E2D"/><stop offset="1" stop-color="#F05A28"/></linearGradient><linearGradient id="paint83_linear" x1="251.019" y1="270.457" x2="342.607" y2="246.403" gradientUnits="userSpaceOnUse"><stop stop-color="#BE1E2D"/><stop offset="1" stop-color="#F05A28"/></linearGradient><linearGradient id="paint84_linear" x1="225.803" y1="283.538" x2="346.444" y2="251.853" gradientUnits="userSpaceOnUse"><stop stop-color="#BE1E2D"/><stop offset="1" stop-color="#F05A28"/></linearGradient><linearGradient id="paint85_linear" x1="250.583" y1="287.336" x2="344.86" y2="262.282" gradientUnits="userSpaceOnUse"><stop stop-color="#BE1E2D"/><stop offset="1" stop-color="#F05A28"/></linearGradient><linearGradient id="paint86_linear" x1="254.453" y1="301.898" x2="348.726" y2="276.846" gradientUnits="userSpaceOnUse"><stop stop-color="#BE1E2D"/><stop offset="1" stop-color="#F05A28"/></linearGradient><linearGradient id="paint87_linear" x1="253.08" y1="296.733" x2="347.354" y2="271.681" gradientUnits="userSpaceOnUse"><stop stop-color="#BE1E2D"/><stop offset="1" stop-color="#F05A28"/></linearGradient><linearGradient id="paint88_linear" x1="251.379" y1="290.334" x2="345.653" y2="265.282" gradientUnits="userSpaceOnUse"><stop stop-color="#BE1E2D"/><stop offset="1" stop-color="#F05A28"/></linearGradient><linearGradient id="paint89_linear" x1="250.065" y1="285.388" x2="344.338" y2="260.336" gradientUnits="userSpaceOnUse"><stop stop-color="#BE1E2D"/><stop offset="1" stop-color="#F05A28"/></linearGradient><linearGradient id="paint90_linear" x1="249.991" y1="285.113" x2="344.265" y2="260.061" gradientUnits="userSpaceOnUse"><stop stop-color="#BE1E2D"/><stop offset="1" stop-color="#F05A28"/></linearGradient><linearGradient id="paint91_linear" x1="277.155" y1="274.041" x2="358.443" y2="274.041" gradientUnits="userSpaceOnUse"><stop stop-color="#FCACAD"/><stop offset="1" stop-color="#EA7585"/></linearGradient><linearGradient id="paint92_linear" x1="404.88" y1="117.463" x2="404.88" y2="110.901" gradientUnits="userSpaceOnUse"><stop stop-color="#F05A28"/><stop offset="1" stop-color="#BE1E2D"/></linearGradient><linearGradient id="paint93_linear" x1="401.888" y1="120.054" x2="407.873" y2="120.322" gradientUnits="userSpaceOnUse"><stop stop-color="#EE4036"/><stop offset="1" stop-color="#F6921E"/></linearGradient><linearGradient id="paint94_linear" x1="184.927" y1="144.772" x2="184.927" y2="138.21" gradientUnits="userSpaceOnUse"><stop stop-color="#F05A28"/><stop offset="1" stop-color="#BE1E2D"/></linearGradient><linearGradient id="paint95_linear" x1="181.934" y1="147.363" x2="187.92" y2="147.631" gradientUnits="userSpaceOnUse"><stop stop-color="#EE4036"/><stop offset="1" stop-color="#F6921E"/></linearGradient><linearGradient id="paint96_linear" x1="214.723" y1="150.917" x2="214.723" y2="144.355" gradientUnits="userSpaceOnUse"><stop stop-color="#F05A28"/><stop offset="1" stop-color="#BE1E2D"/></linearGradient><linearGradient id="paint97_linear" x1="211.731" y1="153.508" x2="217.716" y2="153.776" gradientUnits="userSpaceOnUse"><stop stop-color="#EE4036"/><stop offset="1" stop-color="#F6921E"/></linearGradient><linearGradient id="paint98_linear" x1="380.518" y1="130.544" x2="380.518" y2="123.982" gradientUnits="userSpaceOnUse"><stop stop-color="#F05A28"/><stop offset="1" stop-color="#BE1E2D"/></linearGradient><linearGradient id="paint99_linear" x1="377.525" y1="133.135" x2="383.511" y2="133.403" gradientUnits="userSpaceOnUse"><stop stop-color="#EE4036"/><stop offset="1" stop-color="#F6921E"/></linearGradient><linearGradient id="paint100_linear" x1="353.01" y1="138.974" x2="353.01" y2="132.412" gradientUnits="userSpaceOnUse"><stop stop-color="#F05A28"/><stop offset="1" stop-color="#BE1E2D"/></linearGradient><linearGradient id="paint101_linear" x1="350.018" y1="141.565" x2="356.003" y2="141.833" gradientUnits="userSpaceOnUse"><stop stop-color="#EE4036"/><stop offset="1" stop-color="#F6921E"/></linearGradient><linearGradient id="paint102_linear" x1="267.214" y1="36.861" x2="318.17" y2="51.987" gradientUnits="userSpaceOnUse"><stop stop-color="#0084FF"/><stop offset="1" stop-color="#005AC5"/></linearGradient><linearGradient id="paint103_linear" x1="281.971" y1="70.089" x2="288.74" y2="57.707" gradientUnits="userSpaceOnUse"><stop stop-color="#2B388F"/><stop offset="1" stop-color="#1B5AA1"/></linearGradient><linearGradient id="paint104_linear" x1="257.207" y1="57.595" x2="315.536" y2="57.595" gradientUnits="userSpaceOnUse"><stop stop-color="#F05A28"/><stop offset="1" stop-color="#F6921E"/></linearGradient><linearGradient id="paint105_linear" x1="163.984" y1="108.338" x2="413.152" y2="108.338" gradientUnits="userSpaceOnUse"><stop stop-color="#005AC5"/><stop offset="1" stop-color="#2B388F"/></linearGradient><linearGradient id="paint106_linear" x1="163.984" y1="121.742" x2="411.86" y2="121.742" gradientUnits="userSpaceOnUse"><stop stop-color="#0033BF"/><stop offset="1" stop-color="#003BBD" stop-opacity="0"/></linearGradient><linearGradient id="paint107_linear" x1="163.982" y1="85.595" x2="413.15" y2="85.595" gradientUnits="userSpaceOnUse"><stop stop-color="#EE4036"/><stop offset="1" stop-color="#F6921E"/></linearGradient><linearGradient id="paint108_linear" x1="163.95" y1="85.092" x2="409.942" y2="85.092" gradientUnits="userSpaceOnUse"><stop stop-color="#BE1E2D"/><stop offset="1" stop-color="#F05A28"/></linearGradient><linearGradient id="paint109_linear" x1="223.973" y1="97.824" x2="225.994" y2="97.824" gradientUnits="userSpaceOnUse"><stop stop-color="#1B5AA1"/><stop offset="1" stop-color="#2B388F"/></linearGradient><linearGradient id="paint110_linear" x1="223.973" y1="97.824" x2="225.994" y2="97.824" gradientUnits="userSpaceOnUse"><stop stop-color="#1B5AA1"/><stop offset="1" stop-color="#2B388F"/></linearGradient><linearGradient id="paint111_linear" x1="157.396" y1="101.237" x2="426.264" y2="100.607" gradientUnits="userSpaceOnUse"><stop stop-color="#BE1E2D"/><stop offset="1" stop-color="#F05A28"/></linearGradient><linearGradient id="paint112_linear" x1="157.271" y1="99.507" x2="426.273" y2="98.876" gradientUnits="userSpaceOnUse"><stop stop-color="#BE1E2D"/><stop offset="1" stop-color="#F05A28"/></linearGradient><linearGradient id="paint113_linear" x1="157.257" y1="93.938" x2="426.259" y2="93.308" gradientUnits="userSpaceOnUse"><stop stop-color="#BE1E2D"/><stop offset="1" stop-color="#F05A28"/></linearGradient><linearGradient id="paint114_linear" x1="157.239" y1="85.921" x2="426.241" y2="85.291" gradientUnits="userSpaceOnUse"><stop stop-color="#BE1E2D"/><stop offset="1" stop-color="#F05A28"/></linearGradient><linearGradient id="paint115_linear" x1="157.218" y1="76.481" x2="426.218" y2="75.851" gradientUnits="userSpaceOnUse"><stop stop-color="#BE1E2D"/><stop offset="1" stop-color="#F05A28"/></linearGradient><linearGradient id="paint116_linear" x1="157.21" y1="73.561" x2="426.211" y2="72.931" gradientUnits="userSpaceOnUse"><stop stop-color="#BE1E2D"/><stop offset="1" stop-color="#F05A28"/></linearGradient><linearGradient id="paint117_linear" x1="157.232" y1="82.768" x2="426.234" y2="82.138" gradientUnits="userSpaceOnUse"><stop stop-color="#BE1E2D"/><stop offset="1" stop-color="#F05A28"/></linearGradient><linearGradient id="paint118_linear" x1="157.27" y1="99.043" x2="426.271" y2="98.413" gradientUnits="userSpaceOnUse"><stop stop-color="#BE1E2D"/><stop offset="1" stop-color="#F05A28"/></linearGradient><linearGradient id="paint119_linear" x1="173.864" y1="59.015" x2="419.82" y2="70.041" gradientUnits="userSpaceOnUse"><stop stop-color="#BE1E2D"/><stop offset="1" stop-color="#F05A28"/></linearGradient><linearGradient id="paint120_linear" x1="174.107" y1="53.602" x2="420.062" y2="64.628" gradientUnits="userSpaceOnUse"><stop stop-color="#BE1E2D"/><stop offset="1" stop-color="#F05A28"/></linearGradient><linearGradient id="paint121_linear" x1="173.989" y1="56.239" x2="419.945" y2="67.265" gradientUnits="userSpaceOnUse"><stop stop-color="#BE1E2D"/><stop offset="1" stop-color="#F05A28"/></linearGradient><linearGradient id="paint122_linear" x1="173.361" y1="70.223" x2="419.317" y2="81.249" gradientUnits="userSpaceOnUse"><stop stop-color="#BE1E2D"/><stop offset="1" stop-color="#F05A28"/></linearGradient><linearGradient id="paint123_linear" x1="173.468" y1="67.819" x2="419.427" y2="78.845" gradientUnits="userSpaceOnUse"><stop stop-color="#BE1E2D"/><stop offset="1" stop-color="#F05A28"/></linearGradient><linearGradient id="paint124_linear" x1="173.151" y1="74.909" x2="419.108" y2="85.935" gradientUnits="userSpaceOnUse"><stop stop-color="#BE1E2D"/><stop offset="1" stop-color="#F05A28"/></linearGradient><linearGradient id="paint125_linear" x1="174.694" y1="78.717" x2="418.722" y2="89.657" gradientUnits="userSpaceOnUse"><stop stop-color="#BE1E2D"/><stop offset="1" stop-color="#F05A28"/></linearGradient><linearGradient id="paint126_linear" x1="223.973" y1="89.269" x2="223.973" y2="82.707" gradientUnits="userSpaceOnUse"><stop stop-color="#C3242C"/><stop offset=".8" stop-color="#BE1E2D"/></linearGradient><linearGradient id="paint127_linear" x1="220.98" y1="91.86" x2="226.965" y2="92.128" gradientUnits="userSpaceOnUse"><stop stop-color="#EE4036"/><stop offset="1" stop-color="#F6921E"/></linearGradient><linearGradient id="paint128_linear" x1="184.93" y1="103.24" x2="190.915" y2="103.508" gradientUnits="userSpaceOnUse"><stop stop-color="#EE4036"/><stop offset="1" stop-color="#F6921E"/></linearGradient><linearGradient id="paint129_linear" x1="164.262" y1="126.346" x2="164.262" y2="119.784" gradientUnits="userSpaceOnUse"><stop stop-color="#F05A28"/><stop offset="1" stop-color="#BE1E2D"/></linearGradient><linearGradient id="paint130_linear" x1="161.27" y1="128.937" x2="167.255" y2="129.205" gradientUnits="userSpaceOnUse"><stop stop-color="#EE4036"/><stop offset="1" stop-color="#F6921E"/></linearGradient><linearGradient id="paint131_linear" x1="266.19" y1="88.996" x2="272.175" y2="89.264" gradientUnits="userSpaceOnUse"><stop stop-color="#EE4036"/><stop offset="1" stop-color="#F6921E"/></linearGradient><linearGradient id="paint132_linear" x1="305.025" y1="93.683" x2="311.01" y2="93.951" gradientUnits="userSpaceOnUse"><stop stop-color="#EE4036"/><stop offset="1" stop-color="#F6921E"/></linearGradient><linearGradient id="paint133_linear" x1="334.981" y1="101.647" x2="340.966" y2="101.915" gradientUnits="userSpaceOnUse"><stop stop-color="#EE4036"/><stop offset="1" stop-color="#F6921E"/></linearGradient><linearGradient id="paint134_linear" x1="362.489" y1="109.043" x2="368.474" y2="109.312" gradientUnits="userSpaceOnUse"><stop stop-color="#EE4036"/><stop offset="1" stop-color="#F6921E"/></linearGradient><linearGradient id="paint135_linear" x1="391.458" y1="113.018" x2="397.443" y2="113.286" gradientUnits="userSpaceOnUse"><stop stop-color="#EE4036"/><stop offset="1" stop-color="#F6921E"/></linearGradient><linearGradient id="paint136_linear" x1="235.533" y1="366.166" x2="290.249" y2="366.166" gradientUnits="userSpaceOnUse"><stop stop-color="#EE4036"/><stop offset="1" stop-color="#F6921E"/></linearGradient><linearGradient id="paint137_linear" x1="289.991" y1="366.631" x2="241.368" y2="368.312" gradientUnits="userSpaceOnUse"><stop stop-color="#F05A28"/><stop offset="1" stop-color="#BE1E2D"/></linearGradient><linearGradient id="paint138_linear" x1="290.015" y1="367.32" x2="241.393" y2="369" gradientUnits="userSpaceOnUse"><stop stop-color="#F05A28"/><stop offset="1" stop-color="#BE1E2D"/></linearGradient><linearGradient id="paint139_linear" x1="290.449" y1="379.866" x2="241.825" y2="381.546" gradientUnits="userSpaceOnUse"><stop stop-color="#F05A28"/><stop offset="1" stop-color="#BE1E2D"/></linearGradient><linearGradient id="paint140_linear" x1="260.772" y1="349.149" x2="290.186" y2="349.149" gradientUnits="userSpaceOnUse"><stop stop-color="#BE1E2D"/><stop offset="1" stop-color="#F05A28"/></linearGradient><linearGradient id="paint141_linear" x1="296.576" y1="359.025" x2="323.577" y2="359.025" gradientUnits="userSpaceOnUse"><stop stop-color="#EE4036"/><stop offset="1" stop-color="#F6921E"/></linearGradient><linearGradient id="paint142_linear" x1="292.032" y1="374.052" x2="325.029" y2="374.052" gradientUnits="userSpaceOnUse"><stop stop-color="#EE4036"/><stop offset="1" stop-color="#F6921E"/></linearGradient><linearGradient id="paint143_linear" x1="296.576" y1="368.072" x2="323.527" y2="368.072" gradientUnits="userSpaceOnUse"><stop stop-color="#BE1E2D"/><stop offset="1" stop-color="#F05A28"/></linearGradient><linearGradient id="paint144_linear" x1="296.576" y1="347.15" x2="319.26" y2="347.15" gradientUnits="userSpaceOnUse"><stop stop-color="#BE1E2D"/><stop offset="1" stop-color="#F05A28"/></linearGradient><linearGradient id="paint145_linear" x1="277.549" y1="150.651" x2="290.826" y2="150.651" gradientUnits="userSpaceOnUse"><stop stop-color="#0084FF"/><stop offset="1" stop-color="#005AC5"/></linearGradient><linearGradient id="paint146_linear" x1="317.577" y1="153.883" x2="355.722" y2="153.883" gradientUnits="userSpaceOnUse"><stop stop-color="#FCACAD"/><stop offset="1" stop-color="#EA7585"/></linearGradient><linearGradient id="paint147_linear" x1="253.155" y1="197.19" x2="299.872" y2="197.19" gradientUnits="userSpaceOnUse"><stop stop-color="#EA7585"/><stop offset="1" stop-color="#FCACAD"/></linearGradient><linearGradient id="paint148_linear" x1="232.087" y1="187.473" x2="321.981" y2="187.473" gradientUnits="userSpaceOnUse"><stop stop-color="#993111"/><stop offset="1" stop-color="#872308"/></linearGradient><linearGradient id="paint149_linear" x1="258.175" y1="196.486" x2="288.108" y2="196.486" gradientUnits="userSpaceOnUse"><stop stop-color="#D0D2D3"/><stop offset="1" stop-color="#E6E7E8"/></linearGradient><linearGradient id="paint150_linear" x1="252.116" y1="154.893" x2="261.706" y2="154.893" gradientUnits="userSpaceOnUse"><stop stop-color="#0084FF"/><stop offset="1" stop-color="#005AC5"/></linearGradient><linearGradient id="paint151_linear" x1="284.165" y1="181.862" x2="311.141" y2="181.862" gradientUnits="userSpaceOnUse"><stop stop-color="#993111"/><stop offset="1" stop-color="#974010"/></linearGradient><linearGradient id="paint152_linear" x1="258.92" y1="199.416" x2="261.139" y2="146.893" gradientUnits="userSpaceOnUse"><stop stop-color="#FF8385"/><stop offset="1" stop-color="#FCACAD"/></linearGradient><linearGradient id="paint153_linear" x1="264.625" y1="151.627" x2="260.9" y2="199.948" gradientUnits="userSpaceOnUse"><stop stop-color="#FFA195"/><stop offset="1" stop-color="#FC6577"/></linearGradient></defs></svg>