<svg width="24" height="24" fill="none" xmlns="http://www.w3.org/2000/svg"><g clip-path="url(#clip0)" fill-rule="evenodd" clip-rule="evenodd" fill="#fff"><path d="M23 3a1 1 0 0 1 1 1v6a1 1 0 0 1-1 1h-6a1 1 0 1 1 0-2h5V4a1 1 0 0 1 1-1zM0 14a1 1 0 0 1 1-1h6a1 1 0 1 1 0 2H2v5a1 1 0 1 1-2 0v-6z"/><path d="M14.217 4.315a8 8 0 0 0-9.764 5.016 1 1 0 1 1-1.886-.667 10 10 0 0 1 16.489-3.745l4.629 4.35a1 1 0 0 1-1.37 1.457l-4.64-4.36a8 8 0 0 0-3.458-2.051zM.271 13.313a1 1 0 0 1 1.414-.044l4.64 4.36a8 8 0 0 0 13.223-2.965 1 1 0 0 1 1.885.667 10 10 0 0 1-16.489 3.745l-4.629-4.35a1 1 0 0 1-.044-1.413z"/></g><defs><clipPath id="clip0"><path fill="#fff" d="M0 0h24v24H0z"/></clipPath></defs></svg>