<svg width="24" height="24" fill="none" xmlns="http://www.w3.org/2000/svg"><path fill-rule="evenodd" clip-rule="evenodd" d="M2 6a1 1 0 0 1 1-1h18a1 1 0 1 1 0 2H3a1 1 0 0 1-1-1z" fill="#fff"/><path fill-rule="evenodd" clip-rule="evenodd" d="M10 3a1 1 0 0 0-1 1v1h6V4a1 1 0 0 0-1-1h-4zm7 2V4a3 3 0 0 0-3-3h-4a3 3 0 0 0-3 3v1H5a1 1 0 0 0-1 1v14a3 3 0 0 0 3 3h10a3 3 0 0 0 3-3V6a1 1 0 0 0-1-1h-2zM6 7v13a1 1 0 0 0 1 1h10a1 1 0 0 0 1-1V7H6z" fill="#fff"/><path fill-rule="evenodd" clip-rule="evenodd" d="M10 10a1 1 0 0 1 1 1v6a1 1 0 1 1-2 0v-6a1 1 0 0 1 1-1zm4 0a1 1 0 0 1 1 1v6a1 1 0 1 1-2 0v-6a1 1 0 0 1 1-1z" fill="#fff"/></svg>