<svg width="71" height="40" fill="none" xmlns="http://www.w3.org/2000/svg"><path d="M43.214 29.835c-3.9-3.823-6.894-1.672-7.9-.12-1.006-1.552-3.993-3.703-7.894.12-4.875 4.778-7.545 3.464-10.563 0-.813 4.659 2.902 12.543 11.724 8.242 0 .383-.155.797-.232.956.658.04 2.182-.191 3.018-1.434-.093.956-.341 1.203-.58 1.434.587-.112 2.67-1.099 3.598-3.106.123.605-.155 1.155-.232 1.195.387-.12 1.16-.67 1.16-1.911 0 1.242.782 1.791 1.169 1.91-.078-.04-.349-.47-.233-1.194.697 1.8 2.786 2.907 3.599 3.106l-.006-.007c-.23-.23-.482-.48-.575-1.427.836 1.243 2.36 1.474 3.019 1.434-.078-.16-.233-.573-.233-.956 8.823 4.3 12.537-3.583 11.725-8.242-3.018 3.464-5.688 4.778-10.564 0z" fill="#F38E0C"/><path opacity=".45" d="M28.186 31.363c-2.243 3.56-5.48 3.305-8.16 3.305 3.662 1.09 5.335 1.671 9.134-2.771.937-1.096 1.103-1.744 3.549-1.158-.783-.72-2.784-1.604-4.523.624z" fill="#fff"/><path d="M42.674 21.963c-29.566 4.23-36.482 5.22-40.115-.073-.506-1.446-1.31-4.619-.474-5.74 1.043-1.403 7.17-3.247 10.729-2.219 2.846.822 20.86 4.889 29.51 6.819l.4 1.206-.05.007zm6.467-3.403l-.153-1.194 15.916-3.03c1.889-.258 6.632-1.298 4.665 3.205-1.967 4.504-14.438 2.556-20.428 1.02z" fill="#273443"/><path d="M62.523 14.877c3.618-.94 7.269-1.143 7.48.509.007-2.796-6.335-2.173-10.116-1.445-6.347 1.221-9.492 2.52-11.214 3.09l3.712 1.27c1.64-.512 2.5-1.44 10.138-3.424z" fill="#293554"/><path d="M34.261 1.939c-6.183.64-9.401 5.567-10.237 7.95l-.337 1.048 25.885 7.313-.126-.985C47.823 4.629 41.99 1.138 34.26 1.939z" fill="#293554"/><path fill-rule="evenodd" clip-rule="evenodd" d="M49.578 18.294l-.127-.985a37.786 37.786 0 0 0-.665-3.76L25.73 6.889c-.858 1.13-1.418 2.234-1.702 3.044l-.337 1.048 25.886 7.313z" fill="#F38E0C"/><path opacity=".23" d="M33.51 3.992c-3.906-.527-7.154 4.748-8.29 7.452l3.179.428c.369-2.904 3.292-6.688 5.11-7.88z" fill="#fff"/><path d="M6.74 8.714C-1.213 10.807.639 18.37 2.56 21.89c-1.163-4.48 2.918-5.86 5.104-5.99 6.316-.374 21.282 1.814 29.466 4.557 11.765 3.943 22.925 3.179 25.33 2.85 2.406-.327 8.492-.658 7.538-8.09-.623 7.345-13.632 4.467-20.038 2.231C38.867 13.664 14.695 6.622 6.74 8.714z" fill="#293554"/><path fill-rule="evenodd" clip-rule="evenodd" d="M13.215 8.713a.09.09 0 0 1 .082.053l3.2 6.807 3.125-5.835a.09.09 0 0 1 .086-.048.091.091 0 0 1 .08.06l2.41 6.5 3.05-5.316a.09.09 0 0 1 .088-.045.092.092 0 0 1 .077.063l2.093 6.36 3.044-5.092a.09.09 0 0 1 .09-.043.092.092 0 0 1 .075.067l1.74 6.345 3.682-5a.09.09 0 0 1 .161.038l1.32 6.535 3.959-4.916a.09.09 0 0 1 .157.032l1.893 6.398 4.043-4.56a.09.09 0 0 1 .088-.03.092.092 0 0 1 .067.065l1.59 5.4 3.286-3.626a.09.09 0 0 1 .154.037l1.137 3.905 3.004-3.186a.09.09 0 0 1 .146.023l1.593 3.25 1.996-2.81a.09.09 0 0 1 .155.014l1.287 2.68 1.35-2.682a.09.09 0 0 1 .083-.05c.035 0 .066.022.08.054l1.03 2.325.885-2.569a.09.09 0 1 1 .154-.031l1.437 1.666.358-2.122a.093.093 0 0 1 .052-.07.088.088 0 0 1 .084.005l1.132.681.196-1.834a.094.094 0 0 1 .038-.066.088.088 0 0 1 .073-.015l.65.15-.04.183-.55-.127-.201 1.874a.094.094 0 0 1-.05.073.089.089 0 0 1-.087-.003l-1.14-.686-.368 2.18a.093.093 0 0 1-.065.075.09.09 0 0 1-.093-.028l-1.46-1.692-.909 2.637a.091.091 0 0 1-.081.062.09.09 0 0 1-.087-.055l-1.046-2.36-1.346 2.677a.09.09 0 0 1-.081.05.091.091 0 0 1-.081-.052l-1.3-2.709-1.995 2.81a.09.09 0 0 1-.155-.014l-1.603-3.269-3.022 3.206a.09.09 0 0 1-.087.026.092.092 0 0 1-.066-.065l-1.136-3.9-3.285 3.625a.09.09 0 0 1-.088.028.092.092 0 0 1-.066-.064l-1.59-5.399-4.044 4.56a.09.09 0 0 1-.154-.035l-1.89-6.389-3.972 4.932a.09.09 0 0 1-.092.031.093.093 0 0 1-.067-.071l-1.317-6.524-3.672 4.985a.09.09 0 0 1-.16-.031l-1.733-6.32-3.037 5.078a.09.09 0 0 1-.164-.019l-2.091-6.354-3.045 5.306a.09.09 0 0 1-.164-.014l-2.408-6.493-3.116 5.817a.09.09 0 0 1-.082.048.09.09 0 0 1-.08-.052l-3.192-6.794-2.958 6.485a.09.09 0 1 1-.158.012L6.19 9.453 4.513 16.3a.093.093 0 0 1-.063.067.09.09 0 0 1-.088-.022l-3.067-2.953.124-.137L4.374 16.1l1.69-6.897a.09.09 0 1 1 .164-.029l3.935 6.105 2.97-6.511a.09.09 0 0 1 .082-.054z" fill="#FD9F28" stroke="#FD9F28" stroke-width=".5" stroke-linejoin="round"/><path fill-rule="evenodd" clip-rule="evenodd" d="M13.215 8.62a.18.18 0 0 1 .165.105l3.122 6.644 3.04-5.676.08.045-.08-.045a.18.18 0 0 1 .173-.097c.07.005.132.052.157.12l2.344 6.319 2.954-5.148.078.047-.078-.047a.18.18 0 0 1 .175-.091.182.182 0 0 1 .154.126l2.03 6.17 2.944-4.92a.18.18 0 0 1 .18-.088c.072.01.13.063.15.135l1.69 6.163 3.571-4.85a.18.18 0 0 1 .185-.07c.07.017.124.074.139.146l1.28 6.344 3.839-4.766a.18.18 0 0 1 .314.065l-.087.027.087-.027 1.846 6.24 3.936-4.44a.179.179 0 0 1 .175-.055.184.184 0 0 1 .134.128l1.545 5.244 3.178-3.507.067.064-.067-.064a.179.179 0 0 1 .175-.055.185.185 0 0 1 .132.129l1.093 3.752 2.896-3.071.065.065-.065-.065a.179.179 0 0 1 .293.046l1.526 3.113 1.908-2.686a.18.18 0 0 1 .31.027l-.082.042.082-.042 1.207 2.515 1.267-2.518a.181.181 0 0 1 .166-.101c.07.002.133.044.162.11l.936 2.113.81-2.35a.184.184 0 0 1 .136-.121.179.179 0 0 1 .171.06l1.312 1.52.326-1.931a.187.187 0 0 1 .103-.138.178.178 0 0 1 .168.008l1.011.609.181-1.691a.189.189 0 0 1 .075-.133.178.178 0 0 1 .146-.03l.651.151c.023.006.044.02.057.041a.096.096 0 0 1 .012.071l-.04.183a.09.09 0 0 1-.109.07l-.452-.104-.19 1.77a.187.187 0 0 1-.099.147.177.177 0 0 1-.173-.006l.045-.08-.045.08-1.027-.618-.346 2.048a.186.186 0 0 1-.13.148.179.179 0 0 1-.186-.056l.069-.062-.069.062-1.357-1.573-.858 2.487a.183.183 0 0 1-.163.125.182.182 0 0 1-.174-.11l-.968-2.184-1.26 2.505a.181.181 0 0 1-.163.1.181.181 0 0 1-.162-.104l-1.234-2.57-1.906 2.685a.18.18 0 0 1-.31-.026l-1.544-3.152-2.934 3.111-.065-.065.065.065a.179.179 0 0 1-.173.052.185.185 0 0 1-.132-.129l-1.09-3.745-3.178 3.507-.066-.064.066.064a.179.179 0 0 1-.174.055.184.184 0 0 1-.133-.128l-1.544-5.24-3.935 4.438a.179.179 0 0 1-.175.056.184.184 0 0 1-.134-.128l-1.84-6.222-3.865 4.798a.18.18 0 0 1-.184.063.185.185 0 0 1-.134-.144l-1.277-6.323-3.55 4.822-.073-.057.073.057a.18.18 0 0 1-.32-.063l-1.677-6.114-2.928 4.897a.18.18 0 0 1-.176.088.183.183 0 0 1-.152-.127l-2.027-6.16-2.945 5.13a.18.18 0 0 1-.172.092.183.183 0 0 1-.155-.12l-2.338-6.304-3.021 5.64-.08-.046.08.045a.181.181 0 0 1-.165.097.182.182 0 0 1-.159-.106l-3.109-6.616-2.877 6.307a.182.182 0 0 1-.15.107.18.18 0 0 1-.166-.083L6.229 9.682l-1.628 6.64a.185.185 0 0 1-.125.133.178.178 0 0 1-.176-.042l-3.067-2.954a.095.095 0 0 1-.004-.132l.124-.137a.09.09 0 0 1 .129-.005l2.842 2.737 1.653-6.743a.18.18 0 1 1 .328-.058l3.844 5.967 2.902-6.361m.248.257l-.083-.177-.081.177a.09.09 0 0 1 .082-.053.09.09 0 0 1 .082.053zm3.116 6.63l.076.163.085-.159a.09.09 0 0 1-.082.048.091.091 0 0 1-.08-.052zm-6.238-.145l.069-.15a.091.091 0 0 1-.076.053.09.09 0 0 1-.083-.042l.09.139zm-3.91-6.067l-.114-.177-.05.205a.09.09 0 1 1 .164-.029zm-1.842 6.874l.038-.154a.093.093 0 0 1-.063.067.089.089 0 0 1-.088-.022l.113.108zm15.277-6.493l-.095.177a.09.09 0 0 1 .087-.048.091.091 0 0 1 .078.06l-.07-.189zm2.411 6.5l.067.182.096-.167a.09.09 0 0 1-.085.045.092.092 0 0 1-.078-.06zm3.214-5.301l-.101.176a.09.09 0 0 1 .088-.046.092.092 0 0 1 .076.063l-.063-.193zm2.093 6.36l.062.188.101-.17a.09.09 0 0 1-.087.044.092.092 0 0 1-.076-.062zm3.208-5.072l-.109.181a.09.09 0 0 1 .09-.043.092.092 0 0 1 .075.067l-.056-.205zm1.739 6.345l.05.18.11-.15a.09.09 0 0 1-.16-.03zm3.842-4.97l-.12.165a.09.09 0 0 1 .092-.035.093.093 0 0 1 .069.072l-.04-.201zm1.32 6.536l.038.19.12-.149a.09.09 0 0 1-.091.03.092.092 0 0 1-.067-.071zm4.118-4.875l-.107.133a.09.09 0 0 1 .087-.031c.033.006.06.031.07.064l-.05-.166zm1.893 6.397l.047.157.107-.121a.09.09 0 0 1-.154-.036zm4.198-4.525l-.108.122a.09.09 0 0 1 .087-.028.092.092 0 0 1 .067.064l-.046-.158zm1.59 5.401l.046.155.108-.119a.09.09 0 0 1-.087.028.092.092 0 0 1-.067-.064zm19.876-4.335l-.099-.023-.011.104a.094.094 0 0 1 .038-.066.089.089 0 0 1 .072-.015zm-16.436.745l-.108.12a.09.09 0 0 1 .087-.028.092.092 0 0 1 .066.064l-.045-.156zm16.125 1.21l.016-.143a.094.094 0 0 1-.05.073.089.089 0 0 1-.087-.003l.121.073zm-14.988 2.694l.045.153.107-.114a.09.09 0 0 1-.086.026.092.092 0 0 1-.066-.064zm13.848-3.38l-.113-.068-.022.133a.094.094 0 0 1 .051-.07.089.089 0 0 1 .084.005zm-.503 2.245l.032-.191a.092.092 0 0 1-.065.074.09.09 0 0 1-.093-.028l.126.145zm-10.19-2.011l-.089.094a.09.09 0 0 1 .146.023l-.057-.117zm8.729.32l-.103-.12-.051.15a.092.092 0 0 1 .068-.06.09.09 0 0 1 .086.03zm-7.136 2.93l.067.136.088-.123a.09.09 0 0 1-.08.038.091.091 0 0 1-.075-.051zm2.15-2.798l-.088.124a.09.09 0 0 1 .155.015l-.067-.139zm3.923 2.535l.075-.218a.092.092 0 0 1-.082.062.09.09 0 0 1-.087-.055l.094.211zM63.604 20.2l-.086.171a.09.09 0 0 1 .083-.05c.035 0 .066.022.08.054l-.077-.175zm-1.512 2.682l.08.165.082-.164a.09.09 0 0 1-.081.05.09.09 0 0 1-.081-.051z" fill="#FD9F28" stroke="#FD9F28" stroke-width=".5" stroke-linejoin="round"/><path opacity=".23" d="M2.015 17.167c.149-4.558 3.433-7.83 7.34-7.303-1.766 1.501-1.907 1.902-2.276 4.806-1.39.165-2.344.426-3.22.95-.628.404-1.198.925-1.844 1.547z" fill="#fff"/><path d="M57.98 23.548a.124.124 0 0 1 .105-.14.122.122 0 0 1 .136.107l.35 2.726a.124.124 0 0 1-.104.14.122.122 0 0 1-.136-.107l-.35-2.726z" fill="#B06300"/><path d="M59.49 26.73c.07.548-.303 1.05-.835 1.122a.976.976 0 0 1-1.09-.86c-.07-.547.304-1.05.836-1.122a.976.976 0 0 1 1.09.86z" fill="#F38E0C"/><path d="M61.753 23.305a.124.124 0 0 1 .105-.14.12.12 0 0 1 .136.107l.316 2.46a.124.124 0 0 1-.105.14.122.122 0 0 1-.136-.107l-.316-2.46z" fill="#B06300"/><path d="M63.23 26.22c.07.548-.304 1.05-.835 1.123a.976.976 0 0 1-1.09-.86c-.07-.548.303-1.05.835-1.122a.976.976 0 0 1 1.09.86z" fill="#F38E0C"/><path d="M65.479 22.691a.124.124 0 0 1 .104-.14c.067-.01.127.04.136.108l.235 1.828a.124.124 0 0 1-.104.14.122.122 0 0 1-.136-.107l-.235-1.829z" fill="#B06300"/><path d="M66.874 24.976c.07.547-.304 1.05-.835 1.122a.976.976 0 0 1-1.09-.86c-.07-.547.304-1.05.835-1.122a.976.976 0 0 1 1.09.86zm3.15-1.926c.07.547-.303 1.05-.835 1.122a.976.976 0 0 1-1.09-.86c-.07-.547.304-1.05.836-1.122a.976.976 0 0 1 1.09.86z" fill="#F38E0C"/><path d="M54.575 23.496a.124.124 0 0 1 .105-.14.121.121 0 0 1 .136.107l.323 2.512a.124.124 0 0 1-.105.14.122.122 0 0 1-.136-.107l-.323-2.512z" fill="#B06300"/><path d="M56.057 26.464c.07.547-.303 1.05-.834 1.122a.976.976 0 0 1-1.09-.86c-.07-.547.304-1.05.835-1.122a.976.976 0 0 1 1.09.86z" fill="#F38E0C"/><path d="M50.745 23.297a.124.124 0 0 1 .105-.14.122.122 0 0 1 .136.107l.286 2.23a.124.124 0 0 1-.104.14.122.122 0 0 1-.136-.108l-.287-2.229z" fill="#B06300"/><path d="M52.191 25.982c.07.547-.303 1.05-.835 1.122a.976.976 0 0 1-1.09-.86c-.07-.547.304-1.05.836-1.122a.976.976 0 0 1 1.09.86z" fill="#F38E0C"/><path d="M46.985 22.795a.124.124 0 0 1 .104-.14c.066-.01.127.04.136.107l.26 2.022a.124.124 0 0 1-.105.14.122.122 0 0 1-.136-.107l-.26-2.022z" fill="#B06300"/><path d="M48.404 25.273c.07.547-.303 1.05-.835 1.122a.976.976 0 0 1-1.09-.86c-.07-.547.304-1.05.836-1.122a.976.976 0 0 1 1.09.86z" fill="#F38E0C"/><path d="M43.204 22.148a.124.124 0 0 1 .105-.14.122.122 0 0 1 .136.108l.273 2.123a.124.124 0 0 1-.105.14.122.122 0 0 1-.136-.107l-.273-2.124z" fill="#B06300"/><path d="M44.636 24.728c.07.547-.303 1.05-.834 1.122a.976.976 0 0 1-1.09-.86c-.07-.547.304-1.05.835-1.122a.976.976 0 0 1 1.09.86z" fill="#F38E0C"/><path d="M39.319 21.183a.125.125 0 0 1 .104-.14.122.122 0 0 1 .136.107l.273 2.122a.124.124 0 0 1-.105.14.122.122 0 0 1-.136-.107l-.272-2.122z" fill="#B06300"/><path d="M40.75 23.761c.071.547-.303 1.05-.834 1.122a.976.976 0 0 1-1.09-.86c-.07-.547.304-1.05.835-1.122a.976.976 0 0 1 1.09.86z" fill="#F38E0C"/><path d="M35.46 19.922a.124.124 0 0 1 .105-.14.122.122 0 0 1 .136.107l.309 2.407a.124.124 0 0 1-.104.14.122.122 0 0 1-.137-.107l-.309-2.407z" fill="#B06300"/><path d="M36.928 22.786c.07.547-.303 1.05-.834 1.122a.976.976 0 0 1-1.09-.86c-.07-.547.304-1.05.835-1.122a.976.976 0 0 1 1.09.86z" fill="#F38E0C"/><path d="M31.659 18.908a.124.124 0 0 1 .104-.14.122.122 0 0 1 .136.107l.338 2.633a.124.124 0 0 1-.104.14.122.122 0 0 1-.136-.107l-.338-2.633z" fill="#B06300"/><path d="M33.157 21.997c.07.547-.303 1.05-.835 1.122a.976.976 0 0 1-1.09-.86c-.07-.547.304-1.05.836-1.122a.976.976 0 0 1 1.089.86z" fill="#F38E0C"/><path d="M27.556 18.015a.125.125 0 0 1 .104-.14.122.122 0 0 1 .137.108l.332 2.589a.124.124 0 0 1-.104.14.122.122 0 0 1-.137-.108l-.332-2.588z" fill="#B06300"/><path d="M29.049 21.06c.07.548-.304 1.05-.835 1.123a.976.976 0 0 1-1.09-.86c-.07-.548.304-1.05.835-1.123a.976.976 0 0 1 1.09.86z" fill="#F38E0C"/><path d="M23.396 17.24a.124.124 0 0 1 .104-.14.122.122 0 0 1 .136.107l.34 2.652a.124.124 0 0 1-.104.14.122.122 0 0 1-.136-.108l-.34-2.65z" fill="#B06300"/><path d="M24.895 20.347c.07.547-.303 1.05-.834 1.122a.976.976 0 0 1-1.09-.86c-.07-.547.303-1.05.835-1.122a.976.976 0 0 1 1.09.86z" fill="#F38E0C"/><path d="M19.716 16.708a.124.124 0 0 1 .104-.14.123.123 0 0 1 .137.108l.321 2.503a.125.125 0 0 1-.104.14.122.122 0 0 1-.136-.107l-.322-2.504z" fill="#B06300"/><path d="M21.198 19.668c.07.547-.303 1.05-.835 1.122a.976.976 0 0 1-1.09-.86c-.07-.547.304-1.05.836-1.122a.976.976 0 0 1 1.09.86z" fill="#F38E0C"/><path d="M15.59 16.2a.124.124 0 0 1 .104-.14.12.12 0 0 1 .136.107l.32 2.496a.124.124 0 0 1-.104.14.122.122 0 0 1-.136-.108l-.32-2.495z" fill="#B06300"/><path d="M17.07 19.151c.07.548-.303 1.05-.835 1.122a.976.976 0 0 1-1.09-.86c-.07-.547.304-1.05.836-1.122a.976.976 0 0 1 1.09.86z" fill="#F38E0C"/><path d="M11.486 15.871a.124.124 0 0 1 .104-.14.121.121 0 0 1 .136.107l.293 2.28a.124.124 0 0 1-.104.14.122.122 0 0 1-.137-.107l-.292-2.28z" fill="#B06300"/><path d="M12.94 18.607c.07.547-.304 1.05-.836 1.122a.976.976 0 0 1-1.089-.86c-.07-.547.303-1.05.835-1.122a.976.976 0 0 1 1.09.86z" fill="#F38E0C"/><path d="M7.425 15.869a.124.124 0 0 1 .104-.14.122.122 0 0 1 .137.107l.313 2.444a.124.124 0 0 1-.104.14.122.122 0 0 1-.136-.107l-.314-2.444z" fill="#B06300"/><path d="M8.898 18.768c.07.548-.303 1.05-.835 1.123a.976.976 0 0 1-1.089-.86c-.07-.548.303-1.05.835-1.123a.976.976 0 0 1 1.09.86z" fill="#F38E0C"/><path d="M3.558 17.386a.124.124 0 0 1 .104-.14.122.122 0 0 1 .136.107l.302 2.346a.124.124 0 0 1-.105.14.122.122 0 0 1-.136-.107l-.301-2.346z" fill="#B06300"/><path d="M5.02 20.188c.07.548-.304 1.05-.836 1.123a.976.976 0 0 1-1.089-.86c-.07-.548.304-1.05.835-1.123a.976.976 0 0 1 1.09.86z" fill="#F38E0C"/><path d="M1.886 20.39a.124.124 0 0 1 .104-.14.122.122 0 0 1 .137.108l.415 3.232a.124.124 0 0 1-.105.14.122.122 0 0 1-.136-.107l-.415-3.233z" fill="#B06300"/><path d="M3.462 24.079c.07.547-.304 1.05-.835 1.122a.976.976 0 0 1-1.09-.86c-.07-.547.304-1.05.835-1.122a.976.976 0 0 1 1.09.86z" fill="#F38E0C"/><path d="M67.927 20.565l.829.29-.2.224-.235.223-.257.215-.137-.952z" fill="#FD9F28"/><path d="M68.63 20.767a.124.124 0 0 1 .104-.14.121.121 0 0 1 .136.107l.234 1.827a.124.124 0 0 1-.104.14.122.122 0 0 1-.136-.107l-.235-1.827z" fill="#B06300"/><path d="M13.33 13.17l1.546 2.7-3.04.03 1.495-2.73zm6.113.526l1.254 2.856-3.026-.307 1.772-2.55zm5.564 1.309l.923 2.488-2.551-.419 1.628-2.069zm5.176 1.105l.922 2.487-2.55-.419 1.628-2.069zm5.355 1.345l.614 2.586-2.48-.743 1.866-1.843zm5.542 1.665l.633 2.582-2.486-.724 1.853-1.858zm6.07 1.342l.911 2.492-2.548-.43 1.636-2.062zm5 1.148l.87 1.832-1.974-.138 1.103-1.694zm4.598.212l.99 1.767h-1.98l.99-1.767zm3.834.623l.62.988-1.14.06.52-1.048zm2.872-.31l.718.916-1.127.183.41-1.099zm2.468-.423l.75.65-.919.344.17-.994zM6.865 13.33l1.817 2.515-3.02.365 1.203-2.88zm2.926-2.122L8.26 8.438l.95-.101h2.11l-1.53 2.871zm6.602.512l-1.156-3.072.988.122 1.032.134 1.04.194-1.904 2.623zm6.037 1.03l-1.02-3.125.982.168 1.026.183 1.03.242-2.018 2.531zm5.426.847l-.755-2.752.844.188.881.204.883.254-1.853 2.106zm5.089 1.303l-.72-2.76.841.199.878.214.88.267-1.879 2.08zm5.589 1.553l-.627-2.786.835.23.87.246.87.298-1.948 2.012zm5.936 1.792l-.627-2.786.834.23.87.246.87.298-1.948 2.012zm5.571 1.53l-.472-2.427.716.22.747.237.746.281-1.737 1.689zm4.649.922l-.534-1.993.61.14.635.151.637.188-1.349 1.514zm4.235.497l-.583-1.575.505.066.527.071.532.102-.98 1.336zm3.295-.171l-.592-1.128.387-.003h.405l.41.022-.61 1.109zm2.533-.263l-.576-.915.329-.03.343-.027.35-.01-.446.983zm2.115-.597l-.688-.64.27-.102.285-.104.294-.09-.16.936zm1.604-1.043l-.61-.359.184-.12.194-.124.204-.115.028.719zM3.817 12.709l-2.049-.64.76-1.066 1.015-.892.95-.522-.676 3.12zM.86 15.724l2.376 2.1-1.622 2.015-.372-1.2-.235-1.196-.147-1.719z" fill="#FD9F28"/></svg>