<svg width="86" height="59" fill="none" xmlns="http://www.w3.org/2000/svg"><path d="M52.315 47.866c-4.722-4.487-8.347-1.963-9.564-.14-1.218-1.823-4.834-4.347-9.556.14-5.902 5.61-9.134 4.067-12.788 0-.983 5.47 3.513 14.725 14.193 9.676 0 .45-.187.935-.28 1.122.795.047 2.64-.224 3.653-1.683-.113 1.122-.413 1.411-.703 1.683.711-.131 3.232-1.29 4.356-3.646.15.71-.187 1.356-.28 1.402.468-.14 1.405-.785 1.405-2.243 0 1.458.945 2.103 1.413 2.243-.093-.046-.421-.552-.28-1.402.842 2.112 3.372 3.413 4.355 3.646l-.007-.007c-.28-.27-.584-.564-.695-1.676 1.012 1.459 2.857 1.73 3.654 1.683-.094-.187-.282-.673-.282-1.122 10.68 5.049 15.177-4.207 14.193-9.676-3.653 4.067-6.885 5.61-12.787 0z" fill="#F38E0C"/><path opacity=".45" d="M34.122 49.66c-2.716 4.18-6.636 3.88-9.88 3.88 4.434 1.28 6.459 1.961 11.059-3.254 1.134-1.287 1.335-2.048 4.295-1.36-.948-.845-3.37-1.882-5.474.733z" fill="#fff"/><path d="M51.66 25.784c-35.793 4.966-44.165 6.128-48.563-.087-.612-1.697-1.585-5.421-.574-6.739 1.263-1.646 8.68-3.81 12.988-2.604 3.446.965 25.253 5.74 35.725 8.006l.484 1.416-.06.008zm7.828-3.994l-.186-1.402 19.268-3.56c2.286-.301 8.029-1.522 5.647 3.765-2.38 5.287-17.478 3-24.73 1.196z" fill="#273443"/><path d="M75.688 17.465c4.38-1.104 8.8-1.341 9.057.598.007-3.283-7.67-2.55-12.248-1.697-7.683 1.434-11.49 2.96-13.574 3.63l4.492 1.49c1.986-.602 3.028-1.69 12.273-4.02z" fill="#293554"/><path d="M41.475 2.276c-7.485.752-11.38 6.535-12.393 9.332l-.408 1.23 31.336 8.586-.153-1.156C57.893 5.434 50.832 1.335 41.475 2.276z" fill="#293554"/><path fill-rule="evenodd" clip-rule="evenodd" d="M60.017 21.476l-.153-1.156a43.19 43.19 0 0 0-.805-4.414l-27.91-7.819c-1.038 1.326-1.716 2.623-2.06 3.574l-.408 1.23 31.336 8.585z" fill="#F38E0C"/><path opacity=".23" d="M40.565 4.686c-4.728-.618-8.66 5.575-10.034 8.748l3.847.504c.448-3.41 3.986-7.852 6.187-9.252z" fill="#fff"/><path d="M8.16 10.23C-1.47 12.687.772 21.565 3.097 25.698c-1.407-5.26 3.534-6.88 6.18-7.032 7.645-.44 25.762 2.128 35.67 5.349 14.242 4.629 27.752 3.732 30.664 3.347 2.912-.385 10.28-.773 9.125-9.5-.754 8.624-16.503 5.246-24.258 2.62C47.051 16.043 17.79 7.775 8.16 10.23z" fill="#293554"/><path fill-rule="evenodd" clip-rule="evenodd" d="M15.999 10.229a.11.11 0 0 1 .1.062l3.872 7.99 3.784-6.849a.11.11 0 0 1 .2.014l2.918 7.63 3.692-6.24a.11.11 0 0 1 .2.021l2.533 7.466 3.686-5.977a.11.11 0 0 1 .2.028l2.105 7.449 4.458-5.87a.11.11 0 0 1 .195.044l1.597 7.672 4.794-5.771a.11.11 0 0 1 .19.038l2.291 7.51 4.895-5.353a.11.11 0 0 1 .187.042l1.925 6.34 3.979-4.258a.11.11 0 0 1 .186.044l1.376 4.584 3.636-3.74a.11.11 0 0 1 .177.027l1.93 3.816 2.415-3.3a.11.11 0 0 1 .188.017l1.558 3.147 1.634-3.15a.11.11 0 0 1 .198.006l1.246 2.728 1.072-3.015a.11.11 0 0 1 .186-.036l1.74 1.955.433-2.491a.11.11 0 0 1 .164-.076l1.371.8.238-2.154a.11.11 0 0 1 .133-.096l.788.178-.048.214-.668-.15-.243 2.2a.11.11 0 0 1-.165.083l-1.38-.805-.445 2.56a.11.11 0 0 1-.191.054L79.56 23.63l-1.1 3.096a.11.11 0 0 1-.204.009l-1.266-2.77-1.63 3.141a.11.11 0 0 1-.196-.001l-1.575-3.18-2.414 3.298a.11.11 0 0 1-.188-.016l-1.94-3.838-3.658 3.764a.11.11 0 0 1-.185-.046l-1.375-4.58-3.978 4.257a.11.11 0 0 1-.186-.043l-1.925-6.337-4.895 5.354a.11.11 0 0 1-.186-.043l-2.288-7.5-4.81 5.79a.11.11 0 0 1-.192-.047l-1.594-7.66-4.445 5.854a.11.11 0 0 1-.194-.037l-2.097-7.42-3.677 5.963a.11.11 0 0 1-.198-.023l-2.532-7.46-3.687 6.23a.11.11 0 0 1-.197-.017l-2.916-7.622-3.772 6.828a.11.11 0 0 1-.196-.005L16 10.594l-3.581 7.613a.11.11 0 0 1-.192.014l-4.733-7.123-2.031 8.036a.11.11 0 0 1-.182.053L1.568 15.72l.15-.16 3.578 3.34 2.047-8.097a.11.11 0 0 1 .198-.034l4.763 7.167 3.595-7.644a.11.11 0 0 1 .1-.063z" fill="#FD9F28" stroke="#FD9F28" stroke-width=".5" stroke-linejoin="round"/><path fill-rule="evenodd" clip-rule="evenodd" d="M15.998 10.118a.22.22 0 0 1 .2.124l3.78 7.8 3.68-6.663.097.053-.097-.053a.22.22 0 0 1 .4.027l2.836 7.418 3.577-6.044.094.056-.095-.056a.22.22 0 0 1 .399.042l2.458 7.244 3.563-5.778a.22.22 0 0 1 .4.056l2.045 7.236 4.324-5.694a.22.22 0 0 1 .391.088l1.55 7.449 4.648-5.596a.22.22 0 0 1 .38.077l-.105.032.105-.032 2.235 7.325 4.765-5.21a.22.22 0 0 1 .373.084l1.87 6.156 3.848-4.117.08.075-.08-.075a.22.22 0 0 1 .372.087l1.323 4.404 3.505-3.605.079.077-.08-.077a.22.22 0 0 1 .356.054l1.847 3.655 2.31-3.154a.22.22 0 0 1 .375.032l-.099.05.1-.05 1.461 2.953 1.534-2.956a.22.22 0 0 1 .396.01l1.133 2.48.98-2.758a.22.22 0 0 1 .373-.072l1.588 1.784.395-2.266a.22.22 0 0 1 .328-.153l1.224.715.219-1.986a.22.22 0 0 1 .267-.19l.788.177a.11.11 0 0 1 .084.132l-.049.214a.11.11 0 0 1-.131.084l-.548-.123-.23 2.077a.22.22 0 0 1-.33.166l.056-.095-.055.095-1.244-.726-.418 2.404a.22.22 0 0 1-.382.109l.083-.073-.083.073-1.644-1.848-1.037 2.92a.22.22 0 0 1-.409.018l-1.171-2.564-1.526 2.94a.22.22 0 0 1-.393-.003l-1.494-3.017-2.307 3.151a.22.22 0 0 1-.375-.03l-1.87-3.7-3.551 3.652-.08-.077.08.077a.22.22 0 0 1-.37-.09l-1.32-4.397-3.847 4.117-.08-.075.08.075a.22.22 0 0 1-.372-.086l-1.868-6.152-4.764 5.21a.22.22 0 0 1-.374-.084l-2.228-7.304-4.678 5.633a.22.22 0 0 1-.386-.096l-1.545-7.422-4.298 5.66-.088-.066.088.066a.22.22 0 0 1-.388-.073l-2.029-7.179-3.545 5.75a.22.22 0 0 1-.397-.046l-2.454-7.233-3.565 6.024a.22.22 0 0 1-.395-.034l-2.831-7.4-3.658 6.62-.096-.053.096.053a.22.22 0 0 1-.391-.01l-3.764-7.767-3.482 7.403a.22.22 0 0 1-.384.028l-4.595-6.915-1.97 7.794a.22.22 0 0 1-.365.107L1.493 15.8a.11.11 0 0 1-.005-.155l.15-.161a.11.11 0 0 1 .156-.005l3.44 3.212 2.002-7.915a.22.22 0 0 1 .397-.068l4.654 7.004 3.513-7.467m.3.301l-.101-.208-.098.209a.11.11 0 0 1 .199-.001zm3.772 7.784l.092.191.103-.186a.11.11 0 0 1-.195-.005zm-7.552-.17l.083-.177a.11.11 0 0 1-.191.014l.108.163zm-4.733-7.123l-.138-.208-.06.242a.11.11 0 0 1 .198-.034zm-2.23 8.07l.046-.181a.11.11 0 0 1-.183.053l.137.128zm18.494-7.622l-.114.208a.11.11 0 0 1 .199.013l-.085-.221zm2.919 7.63l.081.214.117-.197a.11.11 0 0 1-.198-.016zm3.89-6.223l-.122.207a.11.11 0 0 1 .2.02l-.078-.227zm2.534 7.466l.075.222.123-.2a.11.11 0 0 1-.198-.022zm3.884-5.954l-.132.213a.11.11 0 0 1 .2.028l-.068-.241zm2.105 7.449l.06.212.134-.176a.11.11 0 0 1-.194-.036zm4.651-5.834l-.146.193a.11.11 0 0 1 .196.044l-.05-.237zm1.597 7.673l.047.223.146-.175a.11.11 0 0 1-.193-.048zm4.986-5.724l-.13.157a.11.11 0 0 1 .19.038l-.06-.195zm2.292 7.51l.056.185.13-.143a.11.11 0 0 1-.186-.041zm5.081-5.312l-.13.143a.11.11 0 0 1 .187.043l-.056-.186zm1.926 6.34l.055.183.13-.14a.11.11 0 0 1-.185-.042zm24.06-5.088l-.119-.027-.013.122a.11.11 0 0 1 .133-.095zm-19.896.874l-.131.14a.11.11 0 0 1 .186.043l-.055-.183zm19.52 1.421l.02-.168a.11.11 0 0 1-.166.082l.147.086zm-18.143 3.163l.053.18.13-.135a.11.11 0 0 1-.183-.045zm16.764-3.969l-.137-.08-.027.156a.11.11 0 0 1 .164-.076zm-.61 2.636l.039-.224a.11.11 0 0 1-.19.054l.15.17zm-12.334-2.361l-.108.11a.11.11 0 0 1 .177.027l-.069-.137zm10.566.375l-.124-.14-.062.176a.11.11 0 0 1 .186-.036zm-8.637 3.44l.08.16.107-.145a.11.11 0 0 1-.187-.015zm2.603-3.284l-.107.146a.11.11 0 0 1 .187.017l-.08-.163zm4.748 2.976l.09-.256a.11.11 0 0 1-.203.009l.113.247zm-1.36-2.976l-.104.2a.11.11 0 0 1 .198.006l-.093-.206zm-1.83 3.148l.097.194.1-.192a.11.11 0 0 1-.197-.002z" fill="#FD9F28" stroke="#FD9F28" stroke-width=".5" stroke-linejoin="round"/><path opacity=".23" d="M2.438 20.154c.18-5.352 4.157-9.192 8.885-8.574-2.137 1.763-2.308 2.233-2.755 5.642-1.681.194-2.836.5-3.896 1.116-.761.474-1.452 1.086-2.234 1.816z" fill="#fff"/><path d="M70.19 27.645a.147.147 0 1 1 .29-.038l.424 3.2a.147.147 0 0 1-.291.038l-.424-3.2z" fill="#B06300"/><path d="M72.017 31.38a1.174 1.174 0 1 1-2.328.308 1.174 1.174 0 0 1 2.328-.307z" fill="#F38E0C"/><path d="M74.757 27.358a.147.147 0 1 1 .29-.038l.383 2.888a.147.147 0 0 1-.29.039l-.383-2.889z" fill="#B06300"/><path d="M76.543 30.782a1.174 1.174 0 1 1-2.327.308 1.174 1.174 0 0 1 2.327-.308z" fill="#F38E0C"/><path d="M79.266 26.639a.147.147 0 0 1 .291-.039l.285 2.147a.147.147 0 1 1-.291.038l-.285-2.146z" fill="#B06300"/><path d="M80.955 29.321a1.174 1.174 0 1 1-2.327.307 1.174 1.174 0 0 1 2.327-.307zm3.815-2.261a1.174 1.174 0 1 1-2.328.307 1.174 1.174 0 0 1 2.328-.307z" fill="#F38E0C"/><path d="M66.067 27.583a.147.147 0 1 1 .291-.038l.39 2.948a.147.147 0 1 1-.29.039l-.39-2.95z" fill="#B06300"/><path d="M67.862 31.068a1.174 1.174 0 1 1-2.327.307 1.174 1.174 0 0 1 2.328-.307z" fill="#F38E0C"/><path d="M61.431 27.35a.147.147 0 0 1 .292-.039l.346 2.617a.147.147 0 0 1-.291.038l-.347-2.616z" fill="#B06300"/><path d="M63.182 30.502a1.174 1.174 0 1 1-2.328.307 1.174 1.174 0 0 1 2.328-.307z" fill="#F38E0C"/><path d="M56.878 26.76a.147.147 0 1 1 .29-.038l.315 2.374a.147.147 0 0 1-.291.038l-.314-2.373z" fill="#B06300"/><path d="M58.596 29.67a1.174 1.174 0 1 1-2.328.307 1.174 1.174 0 0 1 2.328-.307z" fill="#F38E0C"/><path d="M52.301 26.001a.147.147 0 1 1 .292-.038l.33 2.493a.147.147 0 1 1-.291.039L52.302 26z" fill="#B06300"/><path d="M54.035 29.03a1.174 1.174 0 1 1-2.327.307 1.174 1.174 0 0 1 2.327-.307z" fill="#F38E0C"/><path d="M47.598 24.868a.147.147 0 1 1 .292-.038l.33 2.491a.147.147 0 0 1-.292.039l-.33-2.492z" fill="#B06300"/><path d="M49.332 27.895a1.174 1.174 0 1 1-2.327.307 1.174 1.174 0 0 1 2.327-.307z" fill="#F38E0C"/><path d="M42.926 23.389a.147.147 0 0 1 .292-.039l.374 2.826a.147.147 0 1 1-.291.038l-.375-2.825z" fill="#B06300"/><path d="M44.704 26.75a1.174 1.174 0 1 1-2.327.307 1.174 1.174 0 0 1 2.327-.307z" fill="#F38E0C"/><path d="M38.325 22.197a.147.147 0 0 1 .291-.039l.41 3.092a.147.147 0 1 1-.292.038l-.41-3.091z" fill="#B06300"/><path d="M40.139 25.823a1.174 1.174 0 1 1-2.328.307 1.174 1.174 0 0 1 2.328-.307z" fill="#F38E0C"/><path d="M33.358 21.15a.147.147 0 0 1 .291-.04l.403 3.04a.147.147 0 1 1-.291.039l-.403-3.04z" fill="#B06300"/><path d="M35.165 24.724a1.174 1.174 0 1 1-2.327.307 1.174 1.174 0 0 1 2.327-.307z" fill="#F38E0C"/><path d="M28.321 20.24a.147.147 0 0 1 .291-.04l.412 3.113a.147.147 0 0 1-.29.039l-.413-3.113z" fill="#B06300"/><path d="M30.138 23.887a1.174 1.174 0 1 1-2.328.307 1.174 1.174 0 0 1 2.328-.307z" fill="#F38E0C"/><path d="M23.868 19.615a.147.147 0 1 1 .291-.038l.39 2.939a.147.147 0 0 1-.292.038l-.39-2.939z" fill="#B06300"/><path d="M25.661 23.09a1.174 1.174 0 1 1-2.327.307 1.174 1.174 0 0 1 2.327-.307z" fill="#F38E0C"/><path d="M18.873 19.017a.147.147 0 0 1 .291-.038l.388 2.93a.147.147 0 1 1-.291.039l-.388-2.93z" fill="#B06300"/><path d="M20.664 22.483a1.174 1.174 0 1 1-2.327.307 1.174 1.174 0 0 1 2.327-.307z" fill="#F38E0C"/><path d="M13.905 18.632a.147.147 0 1 1 .291-.038l.355 2.676a.147.147 0 0 1-.292.039l-.354-2.677z" fill="#B06300"/><path d="M15.663 21.844a1.174 1.174 0 1 1-2.327.307 1.174 1.174 0 0 1 2.327-.307z" fill="#F38E0C"/><path d="M8.988 18.63a.147.147 0 0 1 .291-.04l.38 2.87a.147.147 0 0 1-.291.038l-.38-2.869z" fill="#B06300"/><path d="M10.772 22.033a1.174 1.174 0 1 1-2.328.308 1.174 1.174 0 0 1 2.328-.308z" fill="#F38E0C"/><path d="M4.307 20.41a.147.147 0 0 1 .292-.038l.364 2.755a.147.147 0 0 1-.29.038l-.366-2.755z" fill="#B06300"/><path d="M6.076 23.7a1.174 1.174 0 1 1-2.327.308 1.174 1.174 0 0 1 2.327-.308z" fill="#F38E0C"/><path d="M2.284 23.938a.147.147 0 0 1 .291-.039l.503 3.795a.147.147 0 0 1-.292.039l-.502-3.795z" fill="#B06300"/><path d="M4.19 28.268a1.174 1.174 0 1 1-2.327.307 1.174 1.174 0 0 1 2.328-.307z" fill="#F38E0C"/><path d="M15.792 41.784c0 .292-.35.57-1.049.836-.674.254-1.475.423-2.401.505-.555.048-1.376.072-2.464.072-.386 0-.648-.013-.785-.04-.345-.066-.517-.214-.517-.445 0-.14.047-.261.14-.36a.472.472 0 0 1 .346-.145h.475c.169-.836.253-2.6.253-5.294 0-.114-.007-.741-.02-1.883a12.463 12.463 0 0 0-.538.01c-.361 0-.542-.158-.542-.475a.44.44 0 0 1 .284-.438c.176-.073.477-.109.904-.109 1.787 0 3.214.162 4.282.485.713.217 1.07.47 1.07.759 0 .12-.047.23-.14.33a.397.397 0 0 1-.295.144c-.062 0-.194-.04-.397-.123a4.185 4.185 0 0 0-.651-.222c-.469-.117-1.448-.224-2.94-.32 0 .622-.006 1.61-.02 2.962.434.027.85.04 1.25.04.279 0 .568-.01.868-.03.3-.02.461-.031.485-.031.372 0 .558.158.558.475 0 .247-.157.404-.47.47-.213.044-.694.066-1.441.066-.413 0-.837-.01-1.27-.03-.035 1.578-.099 2.65-.192 3.214h.212c1.38 0 2.42-.103 3.12-.31.19-.055.458-.17.806-.346.279-.14.483-.211.614-.211.124 0 .233.045.326.134a.42.42 0 0 1 .14.31zm5.424-5.991c0 .282-.074.723-.222 1.321a25.983 25.983 0 0 1-.367 1.373c-.241.76-.56 1.54-.956 2.342-.437.891-.81 1.337-1.12 1.337-.197 0-.348-.193-.455-.578l-.424-1.6c-.485-1.544-1.003-2.817-1.555-3.818-.072-.12-.142-.24-.211-.361a.636.636 0 0 1-.109-.315c0-.31.155-.464.465-.464.348 0 .732.452 1.152 1.357.4.863.866 2.218 1.4 4.066.575-1.129 1.016-2.574 1.322-4.335.083-.464.136-.729.16-.794.07-.183.203-.274.403-.274.345 0 .517.248.517.743zm6.054 2.069c0 .358-.125.623-.372.795-.11.076-.46.174-1.05.294-.78.162-1.447.242-1.998.242-.251 0-.554-.017-.91-.051 0 1.297.495 1.945 1.483 1.945.272 0 .519-.077.739-.232.11-.076.308-.26.594-.552.103-.107.212-.16.325-.16.145 0 .269.055.372.165a.54.54 0 0 1 .01.758c-.592.647-1.286.97-2.081.97-1.646 0-2.469-.95-2.469-2.853 0-.98.262-1.826.785-2.538.596-.809 1.333-1.213 2.21-1.213.686 0 1.25.229 1.695.686.444.458.666 1.04.666 1.744zm-1.029.062c-.02-.478-.146-.856-.377-1.135a1.061 1.061 0 0 0-.857-.418c-.448 0-.842.16-1.183.48-.351.323-.613.78-.785 1.372.244.028.505.042.78.042.668 0 1.476-.114 2.422-.34zm6.959.836a7.68 7.68 0 0 1-.404 2.44c-.165.503-.37.754-.614.754a.5.5 0 0 1-.336-.119.381.381 0 0 1-.14-.294c0-.03.083-.344.248-.939a6.664 6.664 0 0 0 .248-1.78c0-1.338-.418-2.007-1.255-2.007-.479 0-.87.177-1.172.531-.314.365-.47.847-.47 1.445 0 .334.046.8.139 1.398.096.595.145 1.02.145 1.275 0 .591-.17.887-.507.887-.172 0-.29-.038-.356-.113-.052-.059-.095-.18-.13-.361-.003-.214-.046-.83-.128-1.848-.141-1.424-.212-2.435-.212-3.034 0-1.042.201-1.563.604-1.563.131 0 .243.041.336.124.093.079.14.172.14.279 0 .075-.021.218-.063.428-.04.21-.061.387-.061.531v.119c.51-.691 1.129-1.037 1.86-1.037.67 0 1.192.25 1.564.748.375.495.563 1.207.563 2.136zm5.526-1.3c0 .12-.038.223-.114.31a.353.353 0 0 1-.268.123c-.052 0-.25-.067-.594-.201a2.724 2.724 0 0 0-1.002-.201c-.104 0-.212.007-.326.02a7.006 7.006 0 0 0-.19 1.543c0 .602.1 1.065.304 1.388.203.324.486.485.847.485.11 0 .255-.034.434-.103.182-.072.313-.108.392-.108.276 0 .414.161.414.485 0 .21-.114.38-.341.51-.227.131-.537.197-.93.197-1.46 0-2.19-.972-2.19-2.916 0-.41.05-.86.15-1.352-.097.014-.305.054-.625.12a2.7 2.7 0 0 1-.465.061c-.369 0-.553-.141-.553-.423 0-.385.636-.637 1.906-.753.262-.83.582-1.244.961-1.244a.4.4 0 0 1 .3.13.414.414 0 0 1 .123.303c0 .09-.025.203-.077.341-.052.134-.103.27-.155.408 1.333.044 2 .337 2 .877z" fill="#273443"/><path d="M48.065 42.914c0 .337-.162.505-.486.505-.227 0-.477-.211-.749-.634-.2-.313-.525-.936-.976-1.868-1.315-.02-2.803-.327-4.463-.919-1.322 1.38-2.222 2.07-2.701 2.07a.455.455 0 0 1-.325-.135.451.451 0 0 1-.14-.33c0-.141.115-.3.346-.48.227-.182.455-.363.682-.542.389-.31.76-.645 1.11-1.006-.592-.234-.888-.474-.888-.722a.51.51 0 0 1 .14-.361.436.436 0 0 1 .335-.155c.107 0 .264.048.47.144.365.166.582.262.651.29 1.388-1.82 2.168-3.148 2.34-3.984.048-.285.098-.573.15-.862.069-.213.23-.32.485-.32.21 0 .352.088.424.264.041.103.076.26.103.47.031.257.06.438.088.54.327 1.332.96 3.006 1.9 5.021.16-.003.313-.012.46-.025l.207-.016c.382 0 .573.172.573.516 0 .354-.198.532-.593.532h-.15c.134.275.366.696.697 1.264.207.357.31.605.31.743zm-2.696-3.024a29.444 29.444 0 0 1-1.441-3.813 14.84 14.84 0 0 1-1.85 3.086 12.53 12.53 0 0 0 3.29.727zm10.847-1.212c0 2.634-.314 3.952-.94 3.952-.241 0-.362-.152-.362-.454l.176-1.177a15.85 15.85 0 0 0 .175-2.342c0-1.297-.306-1.945-.92-1.945-.536 0-.89.326-1.058.98-.127.502-.191 1.49-.191 2.962 0 .227.017.478.052.753.034.272.051.432.051.48 0 .34-.162.51-.485.51-.39 0-.584-.62-.584-1.862 0-.523.019-1.068.057-1.636.041-.57.062-.877.062-.918 0-.51-.269-.764-.806-.764-.503 0-.868.226-1.095.676-.22.437-.33 1.129-.33 2.074a26.126 26.126 0 0 0 .103 2.364.42.42 0 0 1-.145.325.511.511 0 0 1-.361.129c-.307 0-.496-.293-.569-.877-.024-.17-.036-.606-.036-1.311 0-1.476.12-2.884.362-4.226.079-.44.158-.733.237-.877a.472.472 0 0 1 .45-.263c.323 0 .485.172.485.516l-.232 1.166c.296-.416.72-.624 1.27-.624.441 0 .787.182 1.039.547.437-.72 1.053-1.079 1.849-1.079 1.164 0 1.746.974 1.746 2.92zm2.892-4.231c0 .488-.239.732-.718.732a.668.668 0 0 1-.49-.201.67.67 0 0 1-.197-.485c0-.206.073-.382.217-.526a.724.724 0 0 1 .532-.217.63.63 0 0 1 .476.19c.12.128.18.297.18.507zm-.222 1.965c0 2.075-.074 3.607-.222 4.598-.058.399-.124.667-.196.805a.47.47 0 0 1-.45.273.498.498 0 0 1-.35-.134.443.443 0 0 1-.145-.33c0 .017.027-.102.082-.356.066-.29.119-.618.16-.986a16.86 16.86 0 0 0 .083-1.754c0-.282-.003-.58-.01-.893a65.98 65.98 0 0 1-.01-.51c0-.465.039-.788.118-.97.083-.2.238-.3.465-.3.317 0 .475.186.475.557zm6.617-1.001c0 .269-.151.403-.455.403-.04 0-.129-.007-.263-.02-.172-.018-.315-.03-.429-.037a2.34 2.34 0 0 1 .625 1.63c0 .613-.217 1.117-.65 1.512-.431.392-.992.589-1.684.589-.155 0-.403-.018-.744-.052-.293.22-.525.482-.697.784.67-.079 1.115-.118 1.332-.118 1.412 0 2.118.486 2.118 1.46 0 .588-.267 1.049-.8 1.383-.531.337-1.273.505-2.227.505-.6 0-1.078-.115-1.436-.345-.334-.217-.501-.489-.501-.816a.39.39 0 0 1 .15-.304.522.522 0 0 1 .351-.13c.09 0 .18.04.269.12.086.093.172.184.258.273.169.169.489.253.96.253.607 0 1.078-.08 1.416-.237.327-.152.49-.362.49-.63 0-.389-.45-.583-1.353-.583-.213 0-.495.02-.847.062-.348.038-.59.057-.728.057-.334 0-.501-.117-.501-.351 0-.327.322-.883.966-1.667-.53-.375-.796-.915-.796-1.62 0-.653.235-1.212.703-1.677.468-.464 1.041-.696 1.72-.696.145 0 .31.017.496.051.113-.168.48-.253 1.1-.253.771 0 1.157.152 1.157.454zM64 37.29c0-.381-.115-.687-.346-.918-.228-.23-.529-.346-.904-.346-.413 0-.75.14-1.013.418-.261.276-.392.635-.392 1.079 0 .719.43 1.078 1.291 1.078.434 0 .77-.113 1.008-.34.237-.23.356-.554.356-.97zm7.619 1.227c0 1.012-.296 1.819-.889 2.42-.592.599-1.382.898-2.37.898-.82 0-1.462-.278-1.927-.836-.465-.56-.698-1.338-.698-2.332 0-1.046.281-1.857.842-2.435.551-.568 1.316-.852 2.294-.852.82 0 1.482.288 1.988.862.507.575.76 1.333.76 2.276zm-1.028.01c0-.69-.169-1.23-.506-1.62-.334-.391-.792-.587-1.374-.587-1.299 0-1.948.779-1.948 2.337 0 .719.141 1.273.424 1.661.282.386.687.578 1.214.578.681 0 1.217-.208 1.606-.624.39-.416.584-.998.584-1.744zm5.919-1.847c0 .345-.174.517-.521.517a.344.344 0 0 1-.285-.13l-.15-.242a1.025 1.025 0 0 0-.852-.413c-.61 0-.914.346-.914 1.038 0 .24.055.447.165.619.093.148.26.314.501.5.545.416.884.704 1.018.862.282.323.424.695.424 1.114 0 .55-.18 1-.538 1.347-.358.344-.824.516-1.4.516-.547 0-.996-.143-1.348-.428-.34-.275-.51-.623-.51-1.042 0-.424.182-.635.547-.635.306 0 .465.235.475.707.248.296.527.443.837.443a.874.874 0 0 0 .63-.232.782.782 0 0 0 .248-.588c0-.213-.1-.415-.3-.604a36.032 36.032 0 0 0-.76-.603c-.695-.55-1.043-1.196-1.043-1.935 0-.602.185-1.089.553-1.46.372-.372.857-.558 1.457-.558.492 0 .914.13 1.265.387.334.245.501.518.501.82z" fill="#273443"/><path d="M82.23 24.143l1.004.34-.243.264-.284.261-.311.252-.165-1.117z" fill="#FD9F28"/><path d="M83.08 24.38a.147.147 0 0 1 .292-.039l.284 2.145a.147.147 0 0 1-.291.039l-.284-2.145z" fill="#B06300"/><path d="M16.138 15.46l1.87 3.171-3.68.035 1.81-3.205zm7.399.619l1.518 3.352-3.663-.36 2.145-2.992zm6.735 1.537l1.118 2.92-3.088-.491 1.97-2.43zm6.266 1.296l1.117 2.92-3.087-.492 1.97-2.428zm6.484 1.579l.743 3.037-3.002-.872 2.259-2.165zm6.708 1.956l.766 3.03-3.008-.85 2.242-2.18zm7.348 1.575l1.104 2.925-3.086-.505 1.982-2.42zm6.052 1.347l1.054 2.15-2.39-.162 1.336-1.988zm5.568.249l1.197 2.075H67.5l1.198-2.075zm4.64.732l.752 1.16-1.38.07.628-1.23zm3.478-.364l.87 1.075-1.366.215.496-1.29zm2.987-.496l.908.761-1.113.405.206-1.166zM8.312 15.65l2.2 2.952-3.656.428 1.456-3.38zm3.541-2.492L9.999 9.906l1.15-.12h2.556l-1.852 3.372zm7.992.602l-1.4-3.607 1.196.142 1.25.158 1.259.228-2.305 3.08zm7.307 1.208L25.918 11.3l1.19.197 1.24.215 1.248.284-2.444 2.972zm6.57.994l-.914-3.23 1.022.22 1.066.24 1.07.298-2.244 2.472zm6.16 1.53l-.872-3.242 1.019.235 1.063.252 1.065.313-2.275 2.442zm6.765 1.823l-.758-3.27 1.01.27 1.053.288 1.054.35-2.359 2.362zm7.187 2.105l-.759-3.27 1.01.269 1.054.289 1.053.35-2.358 2.362zm6.744 1.795l-.57-2.85.866.26.904.277.903.33-2.102 1.983zm5.627 1.082l-.646-2.34.738.165.77.177.77.221-1.632 1.777zm5.128.584l-.706-1.848.612.076.638.084.644.12-1.188 1.568zm3.989-.201l-.718-1.324.469-.004h.49l.497.026-.738 1.302zm3.068-.308l-.698-1.074.397-.035.416-.033.423-.011-.539 1.153zm2.56-.702l-.834-.752.329-.118.344-.122.355-.105-.195 1.097zm1.94-1.223l-.74-.422.225-.14.235-.147.246-.135.034.844zM4.62 14.92l-2.48-.75.921-1.252 1.227-1.048 1.151-.613-.819 3.663zm-3.58 3.54l2.878 2.465-1.964 2.365-.45-1.41-.285-1.402-.179-2.018z" fill="#FD9F28"/></svg>