<svg width="16" height="16" fill="none" xmlns="http://www.w3.org/2000/svg"><g clip-path="url(#clip0)" fill="#000"><path d="M13.818 9.236c-.436 0-.727.291-.727.728v3.854c0 .437-.291.728-.727.728H2.182c-.437 0-.727-.291-.727-.728V3.636c0-.436.29-.727.727-.727h3.854c.437 0 .728-.29.728-.727 0-.436-.291-.727-.728-.727H2.182C.945 1.455 0 2.4 0 3.636v10.182C0 15.055.945 16 2.182 16h10.182c1.236 0 2.181-.945 2.181-2.182V9.964c0-.437-.29-.728-.727-.728z"/><path d="M15.782 3.127L12.872.218a.703.703 0 0 0-1.018 0L4.582 7.491A.66.66 0 0 0 4.364 8v2.91c0 .435.29.726.727.726H8a.66.66 0 0 0 .509-.218l7.273-7.273a.703.703 0 0 0 0-1.018zm-8.073 7.055h-1.89V8.29l6.545-6.546 1.89 1.891-6.545 6.546z"/></g><defs><clipPath id="clip0"><path fill="#fff" d="M0 0h16v16H0z"/></clipPath></defs></svg>