<svg width="16" height="16" fill="none" xmlns="http://www.w3.org/2000/svg"><path fill-rule="evenodd" clip-rule="evenodd" d="M11.667 1.333a1.533 1.533 0 1 0 0 3.067 1.533 1.533 0 0 0 0-3.067zM9.594 4.847a2.867 2.867 0 1 0-.672-1.151L4.939 6.02a2.867 2.867 0 1 0 0 3.96l3.984 2.321a2.867 2.867 0 1 0 .674-1.15L5.611 8.827a2.867 2.867 0 0 0 0-1.657l3.982-2.324zm-5.421 2.35a.676.676 0 0 0 .037.063 1.526 1.526 0 0 1-.04 1.547A1.532 1.532 0 0 1 1.334 8a1.533 1.533 0 0 1 2.84-.804zm5.96 5.936c0-.251.06-.488.168-.698a.667.667 0 0 0 .088-.15 1.532 1.532 0 0 1 2.811.848 1.533 1.533 0 0 1-3.067 0z" fill="#000"/></svg>