<svg width="365" height="142" viewBox="0 0 365 142" fill="none" xmlns="http://www.w3.org/2000/svg">
<path d="M19.9408 117.3C8.92778 117.3 0 108.372 0 97.3592C0 93.272 1.25597 89.2835 3.59786 85.9337L54.0692 13.7405C57.811 8.38828 63.9302 5.19999 70.4607 5.19999H76.33C87.3757 5.19999 96.33 14.1543 96.33 25.2V89.18C104.935 89.18 111.91 96.1554 111.91 104.76V117.3H96.33V142H63.84V117.3H19.9408ZM66.12 40.92L34.2 89.18H66.12V40.92Z" fill="#08B87D"/>
<path d="M127.824 70.75C127.824 48.9633 132.004 31.8 140.364 19.26C148.851 6.71998 162.467 0.449982 181.214 0.449982C199.961 0.449982 213.514 6.71998 221.874 19.26C230.361 31.8 234.604 48.9633 234.604 70.75C234.604 92.79 230.361 110.08 221.874 122.62C213.514 135.16 199.961 141.43 181.214 141.43C162.467 141.43 148.851 135.16 140.364 122.62C132.004 110.08 127.824 92.79 127.824 70.75ZM202.684 70.75C202.684 57.9567 201.291 48.14 198.504 41.3C195.717 34.3333 189.954 30.85 181.214 30.85C172.474 30.85 166.711 34.3333 163.924 41.3C161.137 48.14 159.744 57.9567 159.744 70.75C159.744 79.3633 160.251 86.52 161.264 92.22C162.277 97.7933 164.304 102.353 167.344 105.9C170.511 109.32 175.134 111.03 181.214 111.03C187.294 111.03 191.854 109.32 194.894 105.9C198.061 102.353 200.151 97.7933 201.164 92.22C202.177 86.52 202.684 79.3633 202.684 70.75Z" fill="#08B87D"/>
<path d="M272.47 117.3C261.457 117.3 252.529 108.372 252.529 97.3593C252.529 93.272 253.785 89.2835 256.127 85.9337L306.599 13.7405C310.34 8.38828 316.46 5.19999 322.99 5.19999H328.859C339.905 5.19999 348.859 14.1543 348.859 25.2V89.18C357.464 89.18 364.439 96.1554 364.439 104.76V117.3H348.859V142H316.369V117.3H272.47ZM318.649 40.92L286.729 89.18H318.649V40.92Z" fill="#08B87D"/>
</svg>
