<svg width="101" height="82" viewBox="0 0 101 82" fill="none" xmlns="http://www.w3.org/2000/svg">
<path d="M96.0424 25.9477L78.5918 22.5551L75.2794 6.44721C75.171 5.92008 74.7566 5.5099 74.2281 5.40715L51.978 1.08148C51.2552 0.940958 50.5552 1.41306 50.4147 2.13585L49.3969 7.37117C49.2564 8.09397 49.7285 8.79393 50.4513 8.93445L67.868 12.3205L69.2862 20.746L59.3952 18.823C58.6724 18.6825 57.9724 19.1546 57.8319 19.8774L56.3052 27.7304C56.1647 28.4532 56.6368 29.1531 57.3596 29.2937L58.7432 29.5626L52.8741 73.3257C52.7805 74.0258 53.2493 74.678 53.9436 74.8116L80.1201 79.9007C80.8139 80.0369 81.4929 79.6078 81.6684 78.9236L92.6232 36.1493L94.0068 36.4183C94.7296 36.5588 95.4295 36.0867 95.5701 35.3639L97.0968 27.511C97.2373 26.7882 96.7652 26.0882 96.0424 25.9477ZM70.345 10.9669C70.2527 10.4183 69.8297 9.98458 69.2838 9.87911L52.269 6.57124L52.7779 3.95359L72.8462 7.85509L75.7556 22.0037L72.0815 21.2894L70.345 10.9669ZM82.7089 64.1044L76.9879 62.9922C79.6403 61.4531 81.4974 58.8429 82.0826 55.8328C82.6678 52.8228 81.9239 49.7069 80.0413 47.2862L86.6865 48.5781L82.7089 64.1044ZM79.4649 55.3239C78.6218 59.6607 74.422 62.4933 70.0853 61.6502C65.7485 60.8071 62.9159 56.6073 63.759 52.2705C64.6021 47.9338 68.8019 45.1011 73.1387 45.9443C77.4733 46.7916 80.3033 50.9876 79.4649 55.3239ZM61.1413 51.7616C60.5582 54.7714 61.3022 57.8867 63.1826 60.3083L57.4616 59.196L59.5909 43.3104L66.236 44.6023C63.5853 46.143 61.7283 48.7526 61.1413 51.7616ZM55.6865 72.4339L57.1073 61.8437L82.0454 66.692L79.395 77.0431L55.6865 72.4339ZM87.35 45.9905L59.9451 40.6627L61.366 30.0725L90.0004 35.6394L87.35 45.9905ZM93.2069 33.5462L59.1773 26.9305L60.1951 21.6951L94.2247 28.3109L93.2069 33.5462Z" fill="#CDA97B"/>
<path d="M76.4114 71.0299L72.4849 70.2665C71.7622 70.126 71.0622 70.5981 70.9217 71.3209C70.7811 72.0437 71.2532 72.7437 71.976 72.8842L75.9025 73.6475C76.6253 73.7881 77.3253 73.316 77.4658 72.5932C77.6063 71.8704 77.1342 71.1704 76.4114 71.0299Z" fill="#CDA97B"/>
<path d="M67.2497 69.2487L65.9408 68.9943C65.2181 68.8537 64.5181 69.3258 64.3776 70.0486C64.237 70.7714 64.7091 71.4714 65.4319 71.6119L66.7408 71.8664C67.4636 72.0069 68.1635 71.5348 68.3041 70.812C68.4446 70.0892 67.9725 69.3892 67.2497 69.2487Z" fill="#CDA97B"/>
<path d="M15.9992 73.6028L48.4312 61.3576C50.4978 60.5773 51.5407 58.2691 50.7604 56.2025L48.8766 51.213C48.3903 49.9324 47.2817 48.9905 45.9394 48.7179C46.178 47.3334 45.6476 45.9289 44.5536 45.0476C45.3808 43.9559 45.5902 42.5163 45.1088 41.2339C42.5622 34.489 35.2626 29.2742 27.4543 32.2224L13.7331 37.4031C4.72428 40.8045 2.61831 49.487 5.19254 56.305C5.67883 57.5855 6.78743 58.5274 8.12975 58.8C7.89116 60.1845 8.42146 61.589 9.51553 62.4703C8.68833 63.562 8.47889 65.0016 8.96031 66.284L10.8442 71.2736C11.6245 73.3401 13.9327 74.3831 15.9992 73.6028ZM48.2657 57.1444C48.5258 57.8333 48.1781 58.6027 47.4893 58.8628L15.0573 71.108C14.3684 71.3681 13.599 71.0205 13.339 70.3316L11.4551 65.3421C11.195 64.6532 11.5426 63.8838 12.2315 63.6237L22.0473 59.9176L42.4675 57.8597C43.0974 57.7973 43.5964 57.2999 43.6611 56.6693L44.1872 51.5583L44.6634 51.3785C45.3523 51.1184 46.1217 51.4661 46.3818 52.1549L48.2657 57.1444ZM10.8186 59.8816C10.5585 59.1927 10.9061 58.4233 11.595 58.1632L41.5322 46.8599C42.221 46.5998 42.9904 46.9475 43.2505 47.6364C43.5106 48.3252 43.163 49.0946 42.4741 49.3547L12.5369 60.658C11.8481 60.9181 11.0787 60.5704 10.8186 59.8816ZM41.3976 52.6116L41.1196 55.3164L31.7292 56.2621L41.3976 52.6116ZM14.675 39.8978L28.3962 34.7172C35.2794 32.1183 40.8541 37.5146 42.614 42.1758C42.8741 42.8647 42.5265 43.6341 41.8376 43.8942L9.40566 56.1394C8.7168 56.3995 7.9474 56.0519 7.68731 55.363C5.98326 50.8498 6.44218 43.0063 14.675 39.8978Z" fill="#CDA97B"/>
<path d="M16.5589 44.8873L17.8063 44.4164C18.4952 44.1563 18.8428 43.3869 18.5827 42.698C18.3226 42.0091 17.5532 41.6615 16.8644 41.9216L15.617 42.3926C14.9281 42.6526 14.5805 43.422 14.8406 44.1109C15.1007 44.7998 15.8701 45.1474 16.5589 44.8873Z" fill="#CDA97B"/>
<path d="M13.4532 51.7608L14.7006 51.2898C15.3895 51.0297 15.7371 50.2603 15.477 49.5715C15.2169 48.8826 14.4475 48.535 13.7587 48.7951L12.5113 49.266C11.8224 49.5261 11.4748 50.2955 11.7349 50.9844C11.995 51.6732 12.7644 52.0209 13.4532 51.7608Z" fill="#CDA97B"/>
<path d="M19.2192 48.1586C19.4793 48.8474 20.2487 49.1951 20.9376 48.935L22.1849 48.464C22.8738 48.2039 23.2214 47.4345 22.9613 46.7457C22.7013 46.0568 21.9319 45.7092 21.243 45.9693L19.9956 46.4402C19.3068 46.7003 18.9591 47.4697 19.2192 48.1586Z" fill="#CDA97B"/>
<path d="M28.4218 46.1092L29.6692 45.6382C30.3581 45.3781 30.7057 44.6087 30.4456 43.9198C30.1855 43.231 29.4161 42.8833 28.7273 43.1434L27.4799 43.6144C26.791 43.8745 26.4434 44.6439 26.7035 45.3327C26.9636 46.0216 27.733 46.3692 28.4218 46.1092Z" fill="#CDA97B"/>
<path d="M35.9062 43.2833L37.1535 42.8123C37.8424 42.5523 38.19 41.7829 37.9299 41.094C37.6699 40.4051 36.9005 40.0575 36.2116 40.3176L34.9642 40.7886C34.2753 41.0486 33.9277 41.818 34.1878 42.5069C34.4479 43.1958 35.2173 43.5434 35.9062 43.2833Z" fill="#CDA97B"/>
<path d="M22.7958 42.5325L24.0432 42.0615C24.732 41.8014 25.0797 41.032 24.8196 40.3431C24.5595 39.6543 23.7901 39.3066 23.1012 39.5667L21.8539 40.0377C21.165 40.2978 20.8174 41.0672 21.0774 41.7561C21.3375 42.4449 22.1069 42.7926 22.7958 42.5325Z" fill="#CDA97B"/>
<path d="M29.0327 40.1777L30.2801 39.7067C30.9689 39.4466 31.3166 38.6772 31.0565 37.9883C30.7964 37.2995 30.027 36.9518 29.3381 37.2119L28.0907 37.6829C27.4019 37.943 27.0542 38.7124 27.3143 39.4013C27.5744 40.0901 28.3438 40.4378 29.0327 40.1777Z" fill="#CDA97B"/>
</svg>
