<svg width="90" height="80" viewBox="0 0 90 80" fill="none" xmlns="http://www.w3.org/2000/svg">
<path d="M43.6011 72.2809C59.967 73.0762 73.573 59.9768 73.573 43.747C73.573 43.747 73.573 43.747 73.573 43.7463C73.573 30.1587 63.9612 18.5089 50.835 15.7764C50.8197 14.2834 50.0189 12.9755 48.8263 12.2479V10.7886C48.8263 9.27734 47.6569 8.0365 46.1749 7.91748V1.17188C46.1749 0.524902 45.6506 0 45.0031 0C44.3561 0 43.8312 0.524902 43.8312 1.17188V7.91748C42.3505 8.0365 41.1804 9.27734 41.1804 10.7886V12.2479C39.9878 12.9755 39.187 14.2834 39.1724 15.7764C29.624 17.7643 21.8097 24.5325 18.3521 33.4558C18.3344 33.4912 18.3179 33.5278 18.3038 33.5651C17.0575 36.8311 16.4337 40.2789 16.4337 43.7463V43.747C16.4337 59.0338 28.504 71.5479 43.6011 72.2809ZM19.1406 48.0975C20.9863 49.2719 23.4021 50.1361 25.6122 50.7477C26.0394 53.1934 26.6907 55.5396 27.5513 57.7338C24.743 56.4148 22.3077 54.776 20.4175 52.8748C19.8474 51.3446 19.4171 49.7467 19.1406 48.0975ZM36.1621 34.9048C33.2849 35.1831 30.5664 35.5963 28.1158 36.1316C28.6835 33.3563 29.5526 30.7745 30.6671 28.4711C32.782 27.7197 35.0488 27.1313 37.4164 26.7303C36.8677 29.2139 36.4447 31.9782 36.1621 34.9048ZM37.4146 60.7538C35.0488 60.3503 32.7795 59.762 30.661 59.0094C29.5496 56.709 28.6823 54.1315 28.1158 51.3611C30.5664 51.897 33.2855 52.3102 36.1621 52.5879C36.4447 55.5115 36.8665 58.2727 37.4146 60.7538ZM35.9662 37.2748C35.6805 41.4044 35.6598 45.7788 35.9662 50.2185C32.8625 49.9017 30.0806 49.4305 27.6941 48.8586C27.2437 45.4865 27.2437 42.0075 27.6941 38.634C30.08 38.0621 32.8625 37.5916 35.9662 37.2748ZM22.9144 57.8699C24.7504 59.0595 26.7999 60.0867 29.0149 60.9338C30.2911 63.3545 31.8951 65.6055 33.822 67.4652C29.3494 65.3485 25.567 62.005 22.9144 57.8699ZM32.3749 62.0453C34.1852 62.5568 36.0779 62.9584 38.031 63.241C38.5773 65.1959 39.3213 67.3016 40.3015 69.0259C37.2491 67.7704 34.5264 65.3235 32.3749 62.0453ZM53.0853 42.1838C53.7323 42.1649 54.2413 41.626 54.223 40.979C54.1882 39.7553 54.1266 38.515 54.0393 37.2748C57.1436 37.5916 59.9261 38.0621 62.3132 38.634C62.7631 42.0062 62.7637 45.4858 62.3132 48.8586C59.9261 49.4312 57.1436 49.9017 54.0393 50.2185C54.1266 48.9777 54.1882 47.738 54.223 46.5143C54.2413 45.8673 53.7323 45.3278 53.0853 45.3095C53.0737 45.3095 53.0621 45.3088 53.0511 45.3088C52.4194 45.3088 51.8982 45.8118 51.8805 46.4478C51.8408 47.8223 51.7731 49.1486 51.6797 50.4242C47.4011 50.7367 42.7502 50.7471 38.3258 50.4242C38.0151 46.1639 38.0017 41.5125 38.3258 37.0691C42.5952 36.7578 47.2455 36.7456 51.6797 37.0691C51.7731 38.3447 51.8408 39.671 51.8805 41.0455C51.8988 41.6925 52.4359 42.2028 53.0853 42.1838ZM52.5763 26.7279C54.9487 27.1295 57.2211 27.7179 59.3396 28.4711C60.4541 30.7745 61.3232 33.3563 61.8915 36.1316C59.4391 35.5957 56.7175 35.1825 53.8391 34.9042C53.5596 32.0691 53.1396 29.2816 52.5763 26.7279ZM61.8909 51.3611C61.3245 54.1315 60.4572 56.709 59.3457 59.0094C57.2229 59.7638 54.9481 60.3528 52.5781 60.7562C53.1403 58.205 53.5596 55.4211 53.8385 52.5885C56.7175 52.3108 59.4391 51.897 61.8909 51.3611ZM51.474 52.7838C51.1517 55.9357 50.6732 58.728 50.097 61.1066C46.8188 61.4758 43.4277 61.5033 39.903 61.1054C39.3256 58.7079 38.8507 55.9088 38.5315 52.7838C42.6794 53.0707 47.0526 53.089 51.474 52.7838ZM46.0162 69.928C45.3467 69.9847 44.7089 69.989 43.9893 69.928C42.7814 69.0454 41.571 66.817 40.564 63.5364C43.4271 63.7952 46.3672 63.8135 49.4324 63.537C48.4064 66.8616 47.1851 69.0668 46.0162 69.928ZM49.7015 69.0271C50.5859 67.4695 51.3391 65.4895 51.9629 63.2434C53.9209 62.9602 55.8173 62.5574 57.6318 62.0453C55.4791 65.3253 52.7557 67.7722 49.7015 69.0271ZM56.1853 67.4652C58.1116 65.6055 59.7162 63.3539 60.9918 60.9338C63.2068 60.0867 65.2563 59.0595 67.0923 57.8705C64.4397 62.005 60.6573 65.3485 56.1853 67.4652ZM69.5892 52.8748C67.6996 54.7766 65.2637 56.4148 62.4554 57.7338C63.316 55.5402 63.9673 53.194 64.3945 50.7477C66.6046 50.1361 69.0204 49.2712 70.8661 48.0975C70.5896 49.7467 70.1593 51.3446 69.5892 52.8748ZM71.2091 44.7284C70.3394 45.9515 68.0853 47.179 64.754 48.1976C65.0739 45.2466 65.0745 42.2522 64.754 39.295C68.0853 40.3137 70.3394 41.5411 71.2091 42.7649C71.2378 43.5584 71.2341 44.0393 71.2091 44.7284ZM70.8661 39.3958C69.0204 38.2214 66.6046 37.3566 64.3945 36.7456C63.9667 34.295 63.3136 31.9452 62.4506 29.7485C65.2631 31.0712 67.6978 32.7148 69.5892 34.6185C70.1593 36.1487 70.5896 37.746 70.8661 39.3958ZM67.1143 29.6576C65.2838 28.4784 63.2312 27.4518 61.0138 26.6003C59.7546 24.2023 58.1494 21.9238 56.1853 20.0275C60.6696 22.1503 64.4604 25.5066 67.1143 29.6576ZM57.6532 25.4803C55.8301 24.9603 53.9258 24.5508 51.9659 24.2621C51.3416 22.0111 50.5878 20.0269 49.7015 18.4662C52.7655 19.7253 55.4974 22.1838 57.6532 25.4803ZM43.5242 10.7886C43.5242 10.4968 43.7708 10.2496 44.0631 10.2496H45.9436C46.2354 10.2496 46.4825 10.4968 46.4825 10.7886V11.6388H43.5242V10.7886ZM43.3508 13.9825H46.6559C47.4939 13.9825 48.2391 14.5599 48.4399 15.3833C46.2048 15.116 43.8879 15.1056 41.5668 15.3833C41.7712 14.5453 42.5305 13.9825 43.3508 13.9825ZM43.4387 24.9402C43.4021 24.2944 42.8479 23.8013 42.2021 23.8367C41.6528 23.8684 41.1066 23.9105 40.5627 23.96C41.5704 20.6775 42.7808 18.4479 43.9893 17.5653C44.6521 17.5092 45.3564 17.5098 46.0162 17.5653C47.1857 18.4259 48.407 20.6329 49.433 23.9594C48.8928 23.9099 48.3502 23.8684 47.804 23.8373C47.1588 23.8001 46.6046 24.2944 46.5674 24.9408C46.5308 25.5865 47.0251 26.1401 47.6709 26.1774C48.4869 26.2238 49.2957 26.2921 50.0958 26.3812C50.6726 28.761 51.1517 31.5552 51.474 34.7095C47.326 34.4226 42.9529 34.4037 38.5315 34.7095C38.8507 31.5814 39.3262 28.7805 39.9042 26.3818C40.7068 26.2921 41.5173 26.2238 42.3352 26.1768C42.9816 26.1401 43.476 25.5865 43.4387 24.9402ZM40.3015 18.4674C39.3195 20.1953 38.5742 22.3059 38.028 24.2639C36.0724 24.5526 34.173 24.9609 32.3535 25.4803C34.5087 22.1857 37.2394 19.7272 40.3015 18.4674ZM33.8214 20.0275C31.8573 21.9238 30.2521 24.2035 28.9929 26.6003C26.7755 27.4518 24.7229 28.4784 22.8925 29.6576C25.5463 25.5066 29.3372 22.1503 33.8214 20.0275ZM20.4175 34.6179C22.309 32.7148 24.7437 31.0712 27.5562 29.7479C26.6931 31.9452 26.04 34.295 25.6116 36.7456C23.4021 37.3566 20.9863 38.2214 19.1406 39.3958C19.4171 37.746 19.8474 36.1487 20.4175 34.6179ZM18.7982 42.7649C19.6674 41.5411 21.9214 40.3137 25.2527 39.295C24.9329 42.2467 24.9323 45.2411 25.2527 48.1976C21.9214 47.179 19.6674 45.9515 18.7982 44.7284C18.7689 43.9459 18.7726 43.4625 18.7982 42.7649Z" fill="#CDA97B"/>
<path d="M46.1755 78.8281V75.3546C46.1755 74.7076 45.6506 74.1827 45.0037 74.1827C44.3561 74.1827 43.8318 74.7076 43.8318 75.3546V78.8281C43.8318 79.4751 44.3561 80 45.0037 80C45.6506 80 46.1755 79.4751 46.1755 78.8281Z" fill="#CDA97B"/>
<path d="M76.6113 44.9182H80.0848C80.7324 44.9182 81.2567 44.3939 81.2567 43.7463C81.2567 43.0994 80.7324 42.5745 80.0848 42.5745H76.6113C75.9644 42.5745 75.4395 43.0994 75.4395 43.7463C75.4395 44.3939 75.9644 44.9182 76.6113 44.9182Z" fill="#CDA97B"/>
<path d="M9.92188 44.9182H13.3954C14.0424 44.9182 14.5673 44.3939 14.5673 43.7463C14.5673 43.0994 14.0424 42.5745 13.3954 42.5745H9.92188C9.27429 42.5745 8.75 43.0994 8.75 43.7463C8.75 44.3939 9.27429 44.9182 9.92188 44.9182Z" fill="#CDA97B"/>
<path d="M66.5247 65.268C66.0675 65.7257 66.0675 66.4679 66.5253 66.9257L68.9813 69.3817C69.4385 69.8389 70.1807 69.8395 70.6384 69.3817C71.0962 68.924 71.0962 68.1818 70.6384 67.724L68.1824 65.268C67.7246 64.8108 66.983 64.8108 66.5247 65.268Z" fill="#CDA97B"/>
<path d="M21.8243 22.2247C22.2821 22.6825 23.0243 22.6825 23.4814 22.2247C23.9392 21.767 23.9392 21.0248 23.4814 20.5676L21.0254 18.1116C20.5676 17.6538 19.8254 17.6538 19.3683 18.1116C18.9105 18.5687 18.9105 19.3109 19.3683 19.7687L21.8243 22.2247Z" fill="#CDA97B"/>
<path d="M68.1824 22.2247L70.6384 19.7687C71.0962 19.3109 71.0962 18.5687 70.6384 18.1116C70.1807 17.6538 69.4391 17.6538 68.9813 18.1116L66.5253 20.5676C66.0675 21.0254 66.0675 21.767 66.5253 22.2247C66.983 22.6825 67.7246 22.6825 68.1824 22.2247Z" fill="#CDA97B"/>
<path d="M21.8243 65.268L19.3683 67.724C18.9105 68.1818 18.9105 68.924 19.3683 69.3817C19.8254 69.8389 20.5676 69.8389 21.0254 69.3817L23.4814 66.9257C23.9392 66.4679 23.9392 65.7257 23.4814 65.268C23.0243 64.8108 22.2821 64.8108 21.8243 65.268Z" fill="#CDA97B"/>
<path d="M14.2951 25.89C14.2784 25.8547 14.2605 25.8205 14.2423 25.7864C14.234 25.765 14.2259 25.7435 14.2159 25.7224L10.8258 18.559C10.7092 18.3125 10.4947 18.1259 10.2344 18.0445C9.974 17.9632 9.69147 17.9942 9.45514 18.1303L2.01832 22.4126C1.57713 22.6667 1.40499 23.2169 1.62275 23.677L3.70805 28.0834C3.22368 28.119 2.73247 28.2484 2.26763 28.4683C1.49203 28.8354 0.838553 29.4226 0.42755 30.1217C-0.0539878 30.9408 -0.13273 31.8277 0.211449 32.555C0.555628 33.2822 1.29147 33.7836 2.23022 33.9306C2.42697 33.9615 2.62764 33.9767 2.83016 33.9767C3.45218 33.9767 4.09033 33.8329 4.67542 33.556C5.45561 33.1868 6.08721 32.5994 6.45386 31.9021C6.863 31.124 6.90286 30.2664 6.56337 29.549C6.54706 29.5144 6.52908 29.4807 6.51111 29.4471C6.50261 29.4251 6.49421 29.403 6.48405 29.3814L3.77448 23.6559L9.51259 20.3519L11.4376 24.4194C10.9655 24.4561 10.4767 24.5833 9.9995 24.8092C9.2238 25.1763 8.57032 25.7635 8.15942 26.4626C7.67788 27.2818 7.59913 28.1687 7.94331 28.8959C8.37434 29.8065 9.41206 30.3157 10.5763 30.3157C11.175 30.3157 11.8072 30.181 12.4074 29.897C14.141 29.0766 14.9701 27.3166 14.2951 25.89ZM3.98159 30.0266C4.08525 30.0266 4.18568 30.0362 4.28073 30.0557C4.42991 30.0863 4.69535 30.1698 4.79705 30.385C4.89895 30.5999 4.79529 30.8581 4.72437 30.9929C4.55604 31.3131 4.23355 31.6036 3.83954 31.79C3.42688 31.9853 2.93831 32.064 2.53248 32.0004C2.25571 31.9571 2.03785 31.8468 1.97748 31.7193C1.9172 31.5919 1.96996 31.3535 2.11191 31.1119C2.32 30.7578 2.69065 30.4298 3.10332 30.2345C3.39161 30.098 3.69877 30.0266 3.98159 30.0266ZM11.5714 28.131C10.7468 28.5214 9.85462 28.3675 9.70934 28.0603C9.64907 27.9329 9.70182 27.6944 9.84377 27.4529C10.0519 27.0988 10.4225 26.7709 10.8352 26.5756C11.1409 26.431 11.4468 26.3677 11.7147 26.3677C12.1118 26.3677 12.4252 26.5068 12.5288 26.726C12.7027 27.093 12.3302 27.7719 11.5714 28.131Z" fill="#CDA97B"/>
<path d="M89.1274 52.12C87.3952 52.0474 85.1413 51.0841 85.1191 51.0745C84.8569 50.9612 84.557 50.9778 84.309 51.1195C84.0609 51.2612 83.8933 51.5113 83.8563 51.7953L83.1668 57.0885C82.7607 56.8626 82.2896 56.7044 81.7743 56.6368C80.9618 56.5301 80.1338 56.6643 79.4428 57.0142C78.6359 57.423 78.1163 58.0933 78.0173 58.8534C77.9182 59.6134 78.2487 60.3953 78.9239 60.9985C79.5021 61.5149 80.268 61.858 81.0803 61.9646C81.2622 61.9884 81.4414 62 81.6171 62C83.1943 62 84.4848 61.0688 84.6599 59.7249V59.7248C84.6618 59.7101 84.6627 59.6955 84.6643 59.6809C84.6657 59.6716 84.668 59.6626 84.6692 59.6531L85.5128 53.1768C86.4472 53.4987 87.8211 53.8942 89.0516 53.9458C89.5552 53.9656 89.9783 53.5751 89.9992 53.0711C90.0201 52.5667 89.6298 52.141 89.1274 52.12ZM82.8542 59.4879C82.8018 59.8901 82.1329 60.2598 81.3162 60.1527C80.8754 60.0949 80.4337 59.9008 80.1345 59.6336C79.9232 59.4448 79.8036 59.2365 79.8228 59.0902C79.8418 58.9438 80.0106 58.7735 80.2632 58.6455C80.5405 58.5051 80.8893 58.4293 81.2376 58.4293C81.3384 58.4293 81.4392 58.4356 81.5383 58.4486C82.355 58.5558 82.9066 59.0856 82.8542 59.4879Z" fill="#CDA97B"/>
</svg>
