<svg width="80" height="80" viewBox="0 0 80 80" fill="none" xmlns="http://www.w3.org/2000/svg">
<path d="M56.6507 26.9627L55.7947 24.1453C54.7074 20.945 51.2316 19.2322 48.0312 20.3195C46.2309 20.9312 44.8171 22.345 44.2054 24.1453L43.3494 26.9627C42.6291 29.3387 42.4779 31.8508 42.9081 34.296C43.3004 36.3547 44.6074 38.1233 46.4601 39.1027L45.5014 60.5333C45.3731 61.7295 45.7611 62.9237 46.5681 63.816C48.3036 65.7143 51.2496 65.8463 53.1479 64.1108C53.2506 64.017 53.3489 63.9187 53.4427 63.816C54.2317 62.949 54.6191 61.7898 54.5094 60.6227L53.5454 39.1C55.3956 38.1202 56.7004 36.3527 57.0921 34.296C57.5222 31.8508 57.3711 29.3387 56.6507 26.9627ZM54.4654 33.832C54.1767 35.311 53.1227 36.5245 51.6987 37.0173C51.1582 37.2205 50.8101 37.7485 50.8361 38.3253L51.8494 60.8333C51.8961 61.2748 51.7504 61.715 51.4494 62.0413C50.6466 62.8362 49.3536 62.8362 48.5507 62.0413C48.2347 61.6887 48.0912 61.214 48.1587 60.7453L49.1641 38.3253C49.1901 37.7485 48.8419 37.2205 48.3014 37.0173C46.8774 36.5245 45.8234 35.311 45.5347 33.832C45.1781 31.802 45.3037 29.7165 45.9014 27.744L46.7574 24.9253C47.4197 23.1345 49.4084 22.2197 51.1994 22.882C52.1462 23.2322 52.8926 23.9787 53.2427 24.9253L54.0987 27.744C54.6957 29.7167 54.8214 31.802 54.4654 33.832Z" fill="#CDA97B"/>
<path d="M36 20C35.2636 20 34.6666 20.597 34.6666 21.3333V32.7813L31.0573 36.3907C30.7903 36.6567 30.6483 37.0235 30.6666 37.4L31.8333 60.7333C31.8611 61.2365 31.6785 61.7287 31.3293 62.092C30.5995 62.8283 29.4108 62.8337 28.6743 62.1037C28.6703 62.0998 28.6665 62.0958 28.6626 62.092C28.3133 61.7287 28.1308 61.2365 28.1586 60.7333L29.3333 37.4C29.352 37.0237 29.2105 36.657 28.944 36.3907L25.3333 32.7813V21.3333C25.3333 20.597 24.7363 20 24 20C23.2636 20 22.6666 20.597 22.6666 21.3333V33.3333C22.6666 33.687 22.8073 34.026 23.0573 34.276L26.6386 37.8587L25.5013 60.604C25.3803 63.0885 27.2963 65.2008 29.7808 65.3218C32.2653 65.4428 34.3776 63.5268 34.4986 61.0423C34.5058 60.8963 34.5058 60.7502 34.4986 60.6042L33.3613 37.8588L36.9426 34.2762C37.1926 34.0262 37.3333 33.6872 37.3333 33.3335V21.3335C37.3333 20.597 36.7363 20 36 20Z" fill="#CDA97B"/>
<path d="M28 20C27.2636 20 26.6666 20.597 26.6666 21.3333V32C26.6666 32.7363 27.2636 33.3333 28 33.3333C28.7363 33.3333 29.3333 32.7363 29.3333 32V21.3333C29.3333 20.597 28.7363 20 28 20Z" fill="#CDA97B"/>
<path d="M32 20C31.2636 20 30.6666 20.597 30.6666 21.3333V32C30.6666 32.7363 31.2636 33.3333 32 33.3333C32.7363 33.3333 33.3333 32.7363 33.3333 32V21.3333C33.3333 20.597 32.7363 20 32 20Z" fill="#CDA97B"/>
<path d="M40 0C17.9087 0 0 17.9087 0 40C0 62.0913 17.9087 80 40 80C62.0913 80 80 62.0913 80 40C79.975 17.919 62.081 0.025 40 0ZM40 77.3333C19.3813 77.3333 2.66667 60.6187 2.66667 40C2.66667 19.3813 19.3813 2.66667 40 2.66667C60.6187 2.66667 77.3333 19.3813 77.3333 40C77.3098 60.6088 60.6088 77.3098 40 77.3333Z" fill="#CDA97B"/>
<path d="M44.3281 65.0287C44.2566 64.2958 43.6045 63.7597 42.8715 63.8312C42.8543 63.8328 42.8371 63.8348 42.82 63.8372L42.8253 63.8358C40.9481 64.0538 39.0518 64.0538 37.1746 63.8358C36.443 63.75 35.7805 64.2735 35.6946 65.0052C35.6088 65.7368 36.1323 66.3993 36.864 66.4852C38.9458 66.7283 41.0488 66.7283 43.1306 66.4852C43.8635 66.4138 44.3996 65.7617 44.3281 65.0287Z" fill="#CDA97B"/>
<path d="M60.4 22.8186C59.9268 22.2545 59.0858 22.1806 58.5216 22.654C58.5198 22.6555 58.518 22.6571 58.516 22.6586C57.9531 23.1333 57.8815 23.9743 58.356 24.5373C66.3951 34.0806 65.7801 48.1921 56.9413 57C56.4196 57.5198 56.4181 58.3643 56.938 58.886C57.4578 59.4076 58.3023 59.4091 58.824 58.8893C68.6468 49.1038 69.3318 33.4235 60.4 22.8186Z" fill="#CDA97B"/>
<path d="M31.0654 17.6239C31.0645 17.6239 31.0637 17.6238 31.0629 17.6238C31.0615 17.6238 31.0602 17.6239 31.0587 17.6239H31.0654Z" fill="#CDA97B"/>
<path d="M46.2894 14.0786C41.0785 12.8298 35.6135 13.1655 30.5947 15.0426C29.9054 15.3018 29.5569 16.0708 29.816 16.76C30.0114 17.2795 30.508 17.6233 31.0629 17.6238C31.2224 17.623 31.3804 17.5938 31.5294 17.5373C36.049 15.8471 40.9704 15.5453 45.6627 16.6706C46.3785 16.8436 47.099 16.4038 47.272 15.688C47.445 14.9721 47.0052 14.2516 46.2894 14.0786Z" fill="#CDA97B"/>
<path d="M22.9986 56.9333C18.5038 52.4462 15.9846 46.3513 16 40C15.9868 34.9257 17.5941 29.9797 20.588 25.8827C21.0305 25.294 20.912 24.4582 20.3233 24.0157C19.7346 23.5732 18.8988 23.6917 18.4563 24.2803C18.4485 24.2908 18.4408 24.3013 18.4333 24.312C10.7245 34.91 11.8588 49.5385 21.1093 58.8213C21.6306 59.343 22.4763 59.3433 22.998 58.822C23.5196 58.3007 23.52 57.455 22.9986 56.9333Z" fill="#CDA97B"/>
</svg>
