<svg width="70" height="70" viewBox="0 0 70 70" fill="none" xmlns="http://www.w3.org/2000/svg">
<g clip-path="url(#clip0)">
<path d="M68.6328 28.2324H57.4219V25.3385C57.4219 24.5834 56.8096 23.9713 56.0547 23.9713H26.5234C25.7685 23.9713 25.1562 24.5834 25.1562 25.3385C25.1562 26.0936 25.7685 26.7057 26.5234 26.7057H54.6875V37.1874C54.6875 46.3951 49.7715 54.9529 41.8335 59.6092H15.5884C7.65037 54.953 2.73438 46.3951 2.73438 37.1875V26.7058H11.8945C12.6495 26.7058 13.2617 26.0937 13.2617 25.3386C13.2617 24.5835 12.6495 23.9715 11.8945 23.9715H1.36719C0.612227 23.9715 0 24.5835 0 25.3386V37.1875C0 42.3555 1.38906 47.4228 4.01707 51.8414C5.78936 54.8215 8.08896 57.453 10.7819 59.6094H1.36719C0.612227 59.6094 0 60.2215 0 60.9766C0 65.9522 4.04783 70 9.02344 70H51.6797C56.6553 70 60.7031 65.9522 60.7031 60.9766C60.7031 60.2215 60.0909 59.6094 59.3359 59.6094H46.64C49.1185 57.6248 51.2627 55.2367 52.9703 52.5455H56.8295C64.0917 52.5455 70 46.6372 70 39.375V29.5996C70 28.8445 69.3879 28.2324 68.6328 28.2324ZM57.819 62.3438C57.1931 65.1563 54.6781 67.2656 51.6797 67.2656H9.02344C6.02506 67.2656 3.51012 65.1563 2.88408 62.3438H15.2221H42.1997H57.819ZM57.4219 37.1875V36.4356H61.7969V39.375C61.7969 42.114 59.5685 44.3424 56.8295 44.3424H56.519C57.1158 42.0174 57.4219 39.6136 57.4219 37.1875ZM67.2656 39.375C67.2656 45.1295 62.584 49.8112 56.8295 49.8112H54.5025C54.9391 48.9196 55.329 48.0069 55.6697 47.0768H56.8295C61.0764 47.0768 64.5312 43.6218 64.5312 39.375V35.0684C64.5312 34.3133 63.919 33.7012 63.1641 33.7012H57.4219V30.9668H67.2656V39.375Z" fill="#CDA97B"/>
<path d="M30.0165 7.56647L29.3051 6.67329C28.2609 5.36243 28.2594 3.52999 29.3014 2.21721C29.7709 1.62577 29.672 0.765808 29.0805 0.296452C28.4889 -0.173177 27.6291 -0.0740555 27.1596 0.51739C25.3218 2.83286 25.3246 6.06475 27.1663 8.37694L27.8777 9.27013C29.2422 10.9832 29.2443 13.3778 27.8826 15.0935L27.1536 16.012C26.6841 16.6034 26.7831 17.4634 27.3745 17.9328C27.626 18.1322 27.9258 18.2292 28.2236 18.2292C28.6263 18.2292 29.0254 18.052 29.2954 17.7118L30.0244 16.7933C32.1818 14.0751 32.1787 10.2809 30.0165 7.56647Z" fill="#CDA97B"/>
<path d="M37.5947 10.6404L36.8833 9.7474C35.8391 8.4364 35.8376 6.60396 36.8796 5.29119C37.3491 4.69974 37.2501 3.83978 36.6587 3.37043C36.0671 2.9008 35.2073 2.99992 34.7378 3.59136C32.9 5.90683 32.9028 9.13873 34.7445 11.4511L35.4558 12.3442C36.8203 14.0575 36.8223 16.4522 35.4606 18.1678L34.7318 19.0861C34.2623 19.6776 34.3613 20.5375 34.9527 21.0069C35.2041 21.2063 35.504 21.3031 35.8017 21.3031C36.2045 21.3031 36.6037 21.1258 36.8736 20.7858L37.6023 19.8675C39.7599 17.1494 39.7567 13.3551 37.5947 10.6404Z" fill="#CDA97B"/>
<path d="M22.4383 10.6406L21.7269 9.74751C20.6827 8.43666 20.6811 6.60408 21.7231 5.2913C22.1926 4.69986 22.0936 3.8399 21.5021 3.37041C20.9106 2.90091 20.0507 3.00017 19.5812 3.59134C17.7436 5.90681 17.7463 9.13884 19.5881 11.451L20.2994 12.3442C21.6639 14.0574 21.6659 16.4522 20.3043 18.1676L19.5754 19.086C19.1059 19.6774 19.2047 20.5374 19.7962 21.0068C20.0476 21.2063 20.3473 21.3033 20.6452 21.3033C21.048 21.3033 21.447 21.1261 21.7169 20.786L22.446 19.8676C24.6035 17.1495 24.6003 13.3552 22.4383 10.6406Z" fill="#CDA97B"/>
<path d="M20.5461 24.3715C20.2918 24.1172 19.939 23.9709 19.5795 23.9709C19.2199 23.9709 18.8672 24.1172 18.6129 24.3715C18.3587 24.6271 18.2123 24.9785 18.2123 25.3381C18.2123 25.6976 18.3586 26.0504 18.6129 26.306C18.8672 26.5603 19.2199 26.7053 19.5795 26.7053C19.939 26.7053 20.2918 26.5603 20.5461 26.306C20.8016 26.0504 20.9467 25.699 20.9467 25.3381C20.9467 24.9785 20.8016 24.6258 20.5461 24.3715Z" fill="#CDA97B"/>
<path d="M49.4922 35.8203C48.7372 35.8203 48.125 36.4324 48.125 37.1875C48.125 42.2624 46.0666 47.2497 42.4774 50.8707C41.9459 51.4069 41.9498 52.2726 42.486 52.8042C42.7526 53.0685 43.1006 53.2004 43.4485 53.2004C43.8005 53.2003 44.1524 53.0652 44.4197 52.7955C48.5122 48.6665 50.8594 42.9777 50.8594 37.1875C50.8594 36.4324 50.2471 35.8203 49.4922 35.8203Z" fill="#CDA97B"/>
<path d="M40.1796 54.5815C39.8085 53.9238 38.9747 53.6915 38.3171 54.0624L38.2859 54.0801C37.6281 54.4511 37.3958 55.285 37.7668 55.9426C38.0181 56.388 38.4814 56.6383 38.9588 56.6383C39.1863 56.6383 39.4171 56.5813 39.6293 56.4617L39.6605 56.4441C40.3182 56.073 40.5505 55.2392 40.1796 54.5815Z" fill="#CDA97B"/>
</g>
<defs>
<clipPath id="clip0">
<rect width="70" height="70" fill="white"/>
</clipPath>
</defs>
</svg>
