<svg width="80" height="69" viewBox="0 0 80 69" fill="none" xmlns="http://www.w3.org/2000/svg">
<path d="M23.75 24H28.75C29.4412 24 30 23.4412 30 22.75V17.75C30 17.0588 29.4412 16.5 28.75 16.5H23.75C23.0588 16.5 22.5 17.0588 22.5 17.75V22.75C22.5 23.4412 23.0588 24 23.75 24ZM25 19H27.5V21.5H25V19Z" fill="#CDA97B"/>
<path d="M37.5 24H42.5C43.1912 24 43.75 23.4412 43.75 22.75V17.75C43.75 17.0588 43.1912 16.5 42.5 16.5H37.5C36.8088 16.5 36.25 17.0588 36.25 17.75V22.75C36.25 23.4412 36.8088 24 37.5 24ZM38.75 19H41.25V21.5H38.75V19Z" fill="#CDA97B"/>
<path d="M51.25 24H56.25C56.9412 24 57.5 23.4412 57.5 22.75V17.75C57.5 17.0588 56.9412 16.5 56.25 16.5H51.25C50.5588 16.5 50 17.0588 50 17.75V22.75C50 23.4412 50.5588 24 51.25 24ZM52.5 19H55V21.5H52.5V19Z" fill="#CDA97B"/>
<path d="M23.75 34H28.75C29.4412 34 30 33.4412 30 32.75V27.75C30 27.0588 29.4412 26.5 28.75 26.5H23.75C23.0588 26.5 22.5 27.0588 22.5 27.75V32.75C22.5 33.4412 23.0588 34 23.75 34ZM25 29H27.5V31.5H25V29Z" fill="#CDA97B"/>
<path d="M37.5 34H42.5C43.1912 34 43.75 33.4412 43.75 32.75V27.75C43.75 27.0588 43.1912 26.5 42.5 26.5H37.5C36.8088 26.5 36.25 27.0588 36.25 27.75V32.75C36.25 33.4412 36.8088 34 37.5 34ZM38.75 29H41.25V31.5H38.75V29Z" fill="#CDA97B"/>
<path d="M51.25 34H56.25C56.9412 34 57.5 33.4412 57.5 32.75V27.75C57.5 27.0588 56.9412 26.5 56.25 26.5H51.25C50.5588 26.5 50 27.0588 50 27.75V32.75C50 33.4412 50.5588 34 51.25 34ZM52.5 29H55V31.5H52.5V29Z" fill="#CDA97B"/>
<path d="M23.75 44H28.75C29.4412 44 30 43.4412 30 42.75V37.75C30 37.0588 29.4412 36.5 28.75 36.5H23.75C23.0588 36.5 22.5 37.0588 22.5 37.75V42.75C22.5 43.4412 23.0588 44 23.75 44ZM25 39H27.5V41.5H25V39Z" fill="#CDA97B"/>
<path d="M37.5 44H42.5C43.1912 44 43.75 43.4412 43.75 42.75V37.75C43.75 37.0588 43.1912 36.5 42.5 36.5H37.5C36.8088 36.5 36.25 37.0588 36.25 37.75V42.75C36.25 43.4412 36.8088 44 37.5 44ZM38.75 39H41.25V41.5H38.75V39Z" fill="#CDA97B"/>
<path d="M51.25 44H56.25C56.9412 44 57.5 43.4412 57.5 42.75V37.75C57.5 37.0588 56.9412 36.5 56.25 36.5H51.25C50.5588 36.5 50 37.0588 50 37.75V42.75C50 43.4412 50.5588 44 51.25 44ZM52.5 39H55V41.5H52.5V39Z" fill="#CDA97B"/>
<path d="M72.5 58.8875C76.0413 58.29 78.75 55.21 78.75 51.5C78.75 47.3638 75.3863 44 71.25 44C67.1137 44 63.75 47.3638 63.75 51.5C63.75 55.2088 66.4587 58.2887 70 58.8875V65.25H62.5V14H63.75C64.4404 14 65 13.4404 65 12.75C65 12.0596 64.4404 11.5 63.75 11.5H52.5V7.75C52.5 7.05875 51.9412 6.5 51.25 6.5H28.75C28.0588 6.5 27.5 7.05875 27.5 7.75V11.5H16.25C15.5596 11.5 15 12.0596 15 12.75C15 13.4404 15.5596 14 16.25 14H17.5V65.25H10V58.8875C13.5413 58.29 16.25 55.21 16.25 51.5C16.25 47.3638 12.8862 44 8.75 44C4.61375 44 1.25 47.3638 1.25 51.5C1.25 55.2088 3.95875 58.2887 7.5 58.8875V65.25H2.5C1.80964 65.25 1.25 65.8096 1.25 66.5C1.25 67.1904 1.80964 67.75 2.5 67.75H77.5C78.1904 67.75 78.75 67.1904 78.75 66.5C78.75 65.8096 78.1904 65.25 77.5 65.25H72.5V58.8875ZM66.25 51.5C66.25 48.7425 68.4925 46.5 71.25 46.5C74.0075 46.5 76.25 48.7425 76.25 51.5C76.25 53.8237 74.6513 55.7638 72.5 56.3225V53.2675L73.75 52.0175C74.2381 51.5294 74.2381 50.7381 73.75 50.25C73.2619 49.7619 72.4706 49.7619 71.9825 50.25L71.25 50.9825L70.5175 50.25C70.0294 49.7619 69.2381 49.7619 68.75 50.25C68.2619 50.7381 68.2619 51.5294 68.75 52.0175L70 53.2675V56.3225C67.8487 55.7638 66.25 53.8237 66.25 51.5ZM3.75 51.5C3.75 48.7425 5.9925 46.5 8.75 46.5C11.5075 46.5 13.75 48.7425 13.75 51.5C13.75 53.8237 12.1512 55.7638 10 56.3225V53.2675L11.25 52.0175C11.7381 51.5294 11.7381 50.7381 11.25 50.25C10.7619 49.7619 9.97058 49.7619 9.4825 50.25L8.75 50.9825L8.0175 50.25C7.52942 49.7619 6.73808 49.7619 6.25 50.25C5.76192 50.7381 5.76192 51.5294 6.25 52.0175L7.5 53.2675V56.3225C5.34875 55.7638 3.75 53.8237 3.75 51.5ZM30 9H50V11.5H30V9ZM20 14H60V65.25H55V52.75H56.25C56.9404 52.75 57.5 52.1904 57.5 51.5C57.5 50.8096 56.9404 50.25 56.25 50.25H23.75C23.0596 50.25 22.5 50.8096 22.5 51.5C22.5 52.1904 23.0596 52.75 23.75 52.75H25V65.25H20V14ZM47.5 65.25H43.75V57.75H47.5V65.25ZM48.75 55.25H42.5C41.8088 55.25 41.25 55.8088 41.25 56.5V65.25H38.75V56.5C38.75 55.8088 38.1912 55.25 37.5 55.25H31.25C30.5588 55.25 30 55.8088 30 56.5V65.25H27.5V52.75H52.5V65.25H50V56.5C50 55.8088 49.4412 55.25 48.75 55.25ZM36.25 65.25H32.5V57.75H36.25V65.25Z" fill="#CDA97B"/>
</svg>
