<svg width="104" height="98" viewBox="0 0 104 98" fill="none" xmlns="http://www.w3.org/2000/svg">
<path d="M48.6011 85.2809C64.967 86.0762 78.573 72.9768 78.573 56.747C78.573 56.747 78.573 56.747 78.573 56.7463C78.573 43.1587 68.9612 31.5089 55.835 28.7764C55.8197 27.2834 55.0189 25.9755 53.8263 25.2479V23.7886C53.8263 22.2773 52.6569 21.0365 51.1749 20.9175V14.1719C51.1749 13.5249 50.6506 13 50.0031 13C49.3561 13 48.8312 13.5249 48.8312 14.1719V20.9175C47.3505 21.0365 46.1804 22.2773 46.1804 23.7886V25.2479C44.9878 25.9755 44.187 27.2834 44.1724 28.7764C34.624 30.7643 26.8097 37.5325 23.3521 46.4558C23.3344 46.4912 23.3179 46.5278 23.3038 46.5651C22.0575 49.8311 21.4337 53.2789 21.4337 56.7463V56.747C21.4337 72.0338 33.504 84.5479 48.6011 85.2809ZM24.1406 61.0975C25.9863 62.2719 28.4021 63.1361 30.6122 63.7477C31.0394 66.1934 31.6907 68.5396 32.5513 70.7338C29.743 69.4148 27.3077 67.776 25.4175 65.8748C24.8474 64.3446 24.4171 62.7467 24.1406 61.0975ZM41.1621 47.9048C38.2849 48.1831 35.5664 48.5963 33.1158 49.1316C33.6835 46.3563 34.5526 43.7745 35.6671 41.4711C37.782 40.7197 40.0488 40.1313 42.4164 39.7303C41.8677 42.2139 41.4447 44.9782 41.1621 47.9048ZM42.4146 73.7538C40.0488 73.3503 37.7795 72.762 35.661 72.0094C34.5496 69.709 33.6823 67.1315 33.1158 64.3611C35.5664 64.897 38.2855 65.3102 41.1621 65.5879C41.4447 68.5115 41.8665 71.2727 42.4146 73.7538ZM40.9662 50.2748C40.6805 54.4044 40.6598 58.7788 40.9662 63.2185C37.8625 62.9017 35.0806 62.4305 32.6941 61.8586C32.2437 58.4865 32.2437 55.0075 32.6941 51.634C35.08 51.0621 37.8625 50.5916 40.9662 50.2748ZM27.9144 70.8699C29.7504 72.0595 31.7999 73.0867 34.0149 73.9338C35.2911 76.3545 36.8951 78.6055 38.822 80.4652C34.3494 78.3485 30.567 75.005 27.9144 70.8699ZM37.3749 75.0453C39.1852 75.5568 41.0779 75.9584 43.031 76.241C43.5773 78.1959 44.3213 80.3016 45.3015 82.0259C42.2491 80.7704 39.5264 78.3235 37.3749 75.0453ZM58.0853 55.1838C58.7323 55.1649 59.2413 54.626 59.223 53.979C59.1882 52.7553 59.1266 51.515 59.0393 50.2748C62.1436 50.5916 64.9261 51.0621 67.3132 51.634C67.7631 55.0062 67.7637 58.4858 67.3132 61.8586C64.9261 62.4312 62.1436 62.9017 59.0393 63.2185C59.1266 61.9777 59.1882 60.738 59.223 59.5143C59.2413 58.8673 58.7323 58.3278 58.0853 58.3095C58.0737 58.3095 58.0621 58.3088 58.0511 58.3088C57.4194 58.3088 56.8982 58.8118 56.8805 59.4478C56.8408 60.8223 56.7731 62.1486 56.6797 63.4242C52.4011 63.7367 47.7502 63.7471 43.3258 63.4242C43.0151 59.1639 43.0017 54.5125 43.3258 50.0691C47.5952 49.7578 52.2455 49.7456 56.6797 50.0691C56.7731 51.3447 56.8408 52.671 56.8805 54.0455C56.8988 54.6925 57.4359 55.2028 58.0853 55.1838ZM57.5763 39.7279C59.9487 40.1295 62.2211 40.7179 64.3396 41.4711C65.4541 43.7745 66.3232 46.3563 66.8915 49.1316C64.4391 48.5957 61.7175 48.1825 58.8391 47.9042C58.5596 45.0691 58.1396 42.2816 57.5763 39.7279ZM66.8909 64.3611C66.3245 67.1315 65.4572 69.709 64.3457 72.0094C62.2229 72.7638 59.9481 73.3528 57.5781 73.7562C58.1403 71.205 58.5596 68.4211 58.8385 65.5885C61.7175 65.3108 64.4391 64.897 66.8909 64.3611ZM56.474 65.7838C56.1517 68.9357 55.6732 71.728 55.097 74.1066C51.8188 74.4758 48.4277 74.5033 44.903 74.1054C44.3256 71.7079 43.8507 68.9088 43.5315 65.7838C47.6794 66.0707 52.0526 66.089 56.474 65.7838ZM51.0162 82.928C50.3467 82.9847 49.7089 82.989 48.9893 82.928C47.7814 82.0454 46.571 79.817 45.564 76.5364C48.4271 76.7952 51.3672 76.8135 54.4324 76.537C53.4064 79.8616 52.1851 82.0668 51.0162 82.928ZM54.7015 82.0271C55.5859 80.4695 56.3391 78.4895 56.9629 76.2434C58.9209 75.9602 60.8173 75.5574 62.6318 75.0453C60.4791 78.3253 57.7557 80.7722 54.7015 82.0271ZM61.1853 80.4652C63.1116 78.6055 64.7162 76.3539 65.9918 73.9338C68.2068 73.0867 70.2563 72.0595 72.0923 70.8705C69.4397 75.005 65.6573 78.3485 61.1853 80.4652ZM74.5892 65.8748C72.6996 67.7766 70.2637 69.4148 67.4554 70.7338C68.316 68.5402 68.9673 66.194 69.3945 63.7477C71.6046 63.1361 74.0204 62.2712 75.8661 61.0975C75.5896 62.7467 75.1593 64.3446 74.5892 65.8748ZM76.2091 57.7284C75.3394 58.9515 73.0853 60.179 69.754 61.1976C70.0739 58.2466 70.0745 55.2522 69.754 52.295C73.0853 53.3137 75.3394 54.5411 76.2091 55.7649C76.2378 56.5584 76.2341 57.0393 76.2091 57.7284ZM75.8661 52.3958C74.0204 51.2214 71.6046 50.3566 69.3945 49.7456C68.9667 47.295 68.3136 44.9452 67.4506 42.7485C70.2631 44.0712 72.6978 45.7148 74.5892 47.6185C75.1593 49.1487 75.5896 50.746 75.8661 52.3958ZM72.1143 42.6576C70.2838 41.4784 68.2312 40.4518 66.0138 39.6003C64.7546 37.2023 63.1494 34.9238 61.1853 33.0275C65.6696 35.1503 69.4604 38.5066 72.1143 42.6576ZM62.6532 38.4803C60.8301 37.9603 58.9258 37.5508 56.9659 37.2621C56.3416 35.0111 55.5878 33.0269 54.7015 31.4662C57.7655 32.7253 60.4974 35.1838 62.6532 38.4803ZM48.5242 23.7886C48.5242 23.4968 48.7708 23.2496 49.0631 23.2496H50.9436C51.2354 23.2496 51.4825 23.4968 51.4825 23.7886V24.6388H48.5242V23.7886ZM48.3508 26.9825H51.6559C52.4939 26.9825 53.2391 27.5599 53.4399 28.3833C51.2048 28.116 48.8879 28.1056 46.5668 28.3833C46.7712 27.5453 47.5305 26.9825 48.3508 26.9825ZM48.4387 37.9402C48.4021 37.2944 47.8479 36.8013 47.2021 36.8367C46.6528 36.8684 46.1066 36.9105 45.5627 36.96C46.5704 33.6775 47.7808 31.4479 48.9893 30.5653C49.6521 30.5092 50.3564 30.5098 51.0162 30.5653C52.1857 31.4259 53.407 33.6329 54.433 36.9594C53.8928 36.9099 53.3502 36.8684 52.804 36.8373C52.1588 36.8001 51.6046 37.2944 51.5674 37.9408C51.5308 38.5865 52.0251 39.1401 52.6709 39.1774C53.4869 39.2238 54.2957 39.2921 55.0958 39.3812C55.6726 41.761 56.1517 44.5552 56.474 47.7095C52.326 47.4226 47.9529 47.4037 43.5315 47.7095C43.8507 44.5814 44.3262 41.7805 44.9042 39.3818C45.7068 39.2921 46.5173 39.2238 47.3352 39.1768C47.9816 39.1401 48.476 38.5865 48.4387 37.9402ZM45.3015 31.4674C44.3195 33.1953 43.5742 35.3059 43.028 37.2639C41.0724 37.5526 39.173 37.9609 37.3535 38.4803C39.5087 35.1857 42.2394 32.7272 45.3015 31.4674ZM38.8214 33.0275C36.8573 34.9238 35.2521 37.2035 33.9929 39.6003C31.7755 40.4518 29.7229 41.4784 27.8925 42.6576C30.5463 38.5066 34.3372 35.1503 38.8214 33.0275ZM25.4175 47.6179C27.309 45.7148 29.7437 44.0712 32.5562 42.7479C31.6931 44.9452 31.04 47.295 30.6116 49.7456C28.4021 50.3566 25.9863 51.2214 24.1406 52.3958C24.4171 50.746 24.8474 49.1487 25.4175 47.6179ZM23.7982 55.7649C24.6674 54.5411 26.9214 53.3137 30.2527 52.295C29.9329 55.2467 29.9323 58.2411 30.2527 61.1976C26.9214 60.179 24.6674 58.9515 23.7982 57.7284C23.7689 56.9459 23.7726 56.4625 23.7982 55.7649Z" fill="#CDA97B"/>
<path d="M51.1755 92.6454V89.1719C51.1755 88.5249 50.6506 88 50.0037 88C49.3561 88 48.8318 88.5249 48.8318 89.1719V92.6454C48.8318 93.2924 49.3561 93.8173 50.0037 93.8173C50.6506 93.8173 51.1755 93.2924 51.1755 92.6454Z" fill="#CDA97B"/>
<path d="M82.1719 57.9182H85.6454C86.293 57.9182 86.8173 57.3939 86.8173 56.7463C86.8173 56.0994 86.293 55.5745 85.6454 55.5745H82.1719C81.5249 55.5745 81 56.0994 81 56.7463C81 57.3939 81.5249 57.9182 82.1719 57.9182Z" fill="#CDA97B"/>
<path d="M14.1719 57.9182H17.6454C18.2924 57.9182 18.8173 57.3939 18.8173 56.7463C18.8173 56.0994 18.2924 55.5745 17.6454 55.5745H14.1719C13.5243 55.5745 13 56.0994 13 56.7463C13 57.3939 13.5243 57.9182 14.1719 57.9182Z" fill="#CDA97B"/>
<path d="M72.3428 78.3429C71.8856 78.8006 71.8856 79.5428 72.3434 80.0006L74.7995 82.4566C75.2566 82.9138 75.9988 82.9144 76.4566 82.4566C76.9143 81.9989 76.9143 81.2567 76.4566 80.7989L74.0005 78.3429C73.5427 77.8857 72.8012 77.8857 72.3428 78.3429Z" fill="#CDA97B"/>
<path d="M25.7994 33.4565C26.2571 33.9142 26.9993 33.9142 27.4565 33.4565C27.9142 32.9987 27.9142 32.2565 27.4565 31.7994L25.0004 29.3433C24.5427 28.8856 23.8005 28.8856 23.3433 29.3433C22.8856 29.8005 22.8856 30.5427 23.3433 31.0004L25.7994 33.4565Z" fill="#CDA97B"/>
<path d="M74.0004 34.4565L76.4565 32.0004C76.9142 31.5427 76.9142 30.8005 76.4565 30.3433C75.9987 29.8856 75.2571 29.8856 74.7994 30.3433L72.3433 32.7994C71.8856 33.2571 71.8856 33.9987 72.3433 34.4565C72.8011 34.9142 73.5427 34.9142 74.0004 34.4565Z" fill="#CDA97B"/>
<path d="M25.7994 78.3429L23.3433 80.7989C22.8856 81.2567 22.8856 81.9989 23.3433 82.4566C23.8005 82.9138 24.5427 82.9138 25.0004 82.4566L27.4565 80.0006C27.9142 79.5428 27.9142 78.8006 27.4565 78.3429C26.9993 77.8857 26.2571 77.8857 25.7994 78.3429Z" fill="#CDA97B"/>
<path d="M18.3041 35.388C18.272 35.3658 18.2393 35.3451 18.2065 35.3247C18.1886 35.3103 18.1708 35.2957 18.1517 35.2825L11.634 30.7738C11.4098 30.6187 11.1308 30.5643 10.8646 30.624C10.5984 30.6837 10.3693 30.8519 10.2327 31.0879L5.93332 38.5149C5.67829 38.9555 5.80432 39.5181 6.22298 39.8077L10.2321 42.5811C9.83042 42.8541 9.4697 43.2118 9.17709 43.6346C8.68897 44.3404 8.41662 45.1756 8.41023 45.9865C8.40279 46.9367 8.77804 47.7442 9.43972 48.2019C10.1014 48.6596 10.9894 48.7259 11.8758 48.3838C12.0617 48.3122 12.2431 48.2251 12.4185 48.1238C12.9572 47.8128 13.4379 47.3692 13.8062 46.8368C14.2972 46.127 14.5505 45.3025 14.5194 44.5152C14.4847 43.6369 14.0904 42.8742 13.4377 42.4227C13.4062 42.4009 13.3738 42.3807 13.3415 42.3606C13.3231 42.3458 13.3048 42.3308 13.2852 42.3172L8.07588 38.7136L11.3932 32.9831L15.0941 35.5432C14.7036 35.8111 14.3439 36.1656 14.0436 36.5998C13.5553 37.3056 13.283 38.1409 13.2767 38.9518C13.2693 39.902 13.6445 40.7094 14.3062 41.1671C15.1348 41.7402 16.2881 41.6623 17.2963 41.0802C17.8148 40.7809 18.295 40.348 18.6727 39.802C19.7639 38.2248 19.6019 36.286 18.3041 35.388ZM11.4406 44.1272C11.5304 44.0754 11.6221 44.0334 11.7142 44.0028C11.8587 43.9547 12.1303 43.8943 12.326 44.0298C12.5217 44.165 12.561 44.4404 12.567 44.5926C12.5813 44.9541 12.4473 45.3669 12.1993 45.7254C11.9395 46.1008 11.5558 46.4133 11.1725 46.5611C10.9112 46.662 10.6673 46.6754 10.5513 46.5951C10.4354 46.5149 10.3619 46.2821 10.364 46.0019C10.3672 45.5912 10.5242 45.1218 10.7839 44.7464C10.9654 44.484 11.1957 44.2686 11.4406 44.1272ZM17.0658 38.6907C16.5468 39.4411 15.6972 39.7538 15.4178 39.5604C15.3019 39.4803 15.2284 39.2474 15.2306 38.9672C15.2337 38.5565 15.3908 38.0872 15.6505 37.7118C15.8429 37.4336 16.0763 37.2259 16.3082 37.092C16.6521 36.8934 16.993 36.8571 17.1924 36.9952C17.5265 37.2261 17.5434 38.0003 17.0658 38.6907Z" fill="#CDA97B"/>
<path d="M95.6305 68.2705C94.1666 67.3416 92.6963 65.3803 92.6819 65.361C92.5114 65.1317 92.2434 64.9962 91.9579 64.9949C91.6721 64.9935 91.402 65.1263 91.2279 65.3537L87.9842 69.5931C87.7454 69.1944 87.4165 68.8218 87.0041 68.5056C86.3538 68.007 85.5696 67.7092 84.7963 67.6668C83.8931 67.6173 83.1079 67.938 82.6421 68.5467C82.1763 69.1554 82.0716 69.9978 82.3547 70.8578C82.5973 71.5941 83.0889 72.2742 83.7392 72.7726C83.8848 72.8842 84.0342 72.9839 84.1864 73.0717C85.5522 73.8603 87.1354 73.6991 87.9591 72.6228L87.9591 72.6227C87.9681 72.6109 87.9761 72.5988 87.9848 72.5869C87.9907 72.5796 87.9972 72.5729 88.003 72.5653L91.9717 67.3784C92.62 68.1244 93.612 69.1539 94.6519 69.8138C95.0781 70.0827 95.6397 69.9561 95.9099 69.5301C96.1802 69.1038 96.0551 68.5399 95.6305 68.2705ZM86.5138 71.5147C86.2673 71.8368 85.5031 71.8226 84.8494 71.3215C84.4966 71.051 84.211 70.6621 84.0856 70.281C83.997 70.0118 83.9976 69.7717 84.0873 69.6545C84.177 69.5373 84.4083 69.4742 84.6911 69.4897C85.0015 69.5067 85.3414 69.6155 85.643 69.7897C85.7303 69.8401 85.8145 69.896 85.8938 69.9567C86.5474 70.4579 86.7603 71.1925 86.5138 71.5147Z" fill="#CDA97B"/>
</svg>
