<svg width="77" height="77" viewBox="0 0 77 77" fill="none" xmlns="http://www.w3.org/2000/svg">
<g clip-path="url(#clip0)">
<path d="M69.3064 9.45099C68.6254 8.5885 67.6481 8.0562 66.5544 7.95086C56.7422 7.00965 46.6581 8.28505 37.3928 11.6405C28.1292 14.9951 19.5721 20.4687 12.6471 27.4696C11.8738 28.251 11.4643 29.2873 11.4943 30.3867C11.5248 31.4867 11.9901 32.4994 12.8052 33.238L17.6006 37.5834L17.601 37.584L20.4481 40.1638L20.0668 42.9083C19.9658 43.6349 20.4729 44.3056 21.1995 44.4066C21.9261 44.5076 22.5968 44.0005 22.6978 43.2739L23.1757 39.8341C23.2362 39.3988 23.0774 38.9619 22.7523 38.6669L20.3825 36.5196C21.7672 35.0657 23.231 33.6915 24.764 32.3949C26.3399 31.0619 27.9946 29.8137 29.7165 28.6738C31.3738 27.5768 33.0822 26.5603 34.8459 25.6431C36.6785 24.6904 38.5638 23.8482 40.4893 23.1011C42.4183 22.352 44.3986 21.7231 46.4023 21.2053C46.6533 21.1407 46.9051 21.0772 47.1573 21.0153C47.0068 22.0043 47.0624 23.0214 47.3351 24.0141C47.8461 25.8738 49.0508 27.4235 50.7275 28.3767C51.5367 28.8374 52.4092 29.132 53.3044 29.2564C54.2637 29.3897 55.2493 29.3271 56.211 29.0632C58.0708 28.5516 59.6199 27.3469 60.5735 25.6707C61.5272 23.9941 61.7705 22.0469 61.2595 20.1872C61.1914 19.9384 61.1085 19.6943 61.0146 19.4545C62.8236 19.4816 64.6311 19.5992 66.4284 19.8049L61.8332 52.8773C59.5952 53.3132 57.6757 54.8049 56.6941 56.8631C55.6075 59.142 55.8145 61.8929 57.2217 63.9871C57.9079 65.0085 58.8567 65.8438 59.9544 66.3986L59.2165 71.7094L53.6191 66.6371C53.2538 66.3067 52.7364 66.2044 52.2736 66.3726C51.8113 66.541 51.4793 66.9511 51.4115 67.4387L50.9878 70.4885C50.8952 71.155 50.2778 71.6213 49.6118 71.5287C48.9458 71.4362 48.479 70.8188 48.5716 70.1528L49.4732 63.6637C49.4956 63.5023 49.4877 63.341 49.453 63.1869C51.5885 61.4078 52.5624 58.4884 51.8012 55.7192C50.7464 51.8805 46.7645 49.6155 42.9252 50.6707C41.3378 51.1069 39.9572 52.0821 39.0021 53.3919L37.3902 51.9313C37.0254 51.6009 36.5079 51.4991 36.0452 51.6669C35.5823 51.8351 35.2504 52.2452 35.1827 52.7324L34.4797 57.7919C34.3871 58.4578 33.7703 58.9242 33.1043 58.8317C32.4383 58.7391 31.9715 58.1217 32.064 57.4562L33.2448 48.9579C33.3053 48.5227 33.1465 48.0858 32.8214 47.7908L27.3211 42.8074C26.9569 42.4771 26.4389 42.3748 25.9761 42.543C25.5133 42.7108 25.1818 43.1214 25.1141 43.6086L22.671 61.1915C22.5784 61.858 21.961 62.3243 21.2951 62.2317C20.6291 62.1392 20.1628 61.5218 20.2553 60.8558L21.2359 53.7984C21.3369 53.0718 20.8293 52.401 20.1027 52.3001C19.3761 52.1991 18.7054 52.7062 18.6044 53.4328L17.6238 60.4902C17.3297 62.6073 18.8129 64.5686 20.9295 64.8627C23.0461 65.1568 25.0078 63.6742 25.302 61.557L27.3993 46.4628L30.5172 49.2876L29.433 57.0906C29.1389 59.2073 30.6216 61.1685 32.7387 61.4626C34.8553 61.7567 36.8171 60.2741 37.1112 58.1575L37.4684 55.5866L38.4546 56.4805C38.4551 56.4806 38.455 56.4811 38.4556 56.4812L46.6126 63.8728L46.7456 63.9934L45.9406 69.7872C45.6465 71.9038 47.1291 73.8656 49.2462 74.1597C51.3629 74.4538 53.3247 72.9707 53.6188 70.8541L53.6969 70.2919L59.2947 75.3647C60.0716 76.0688 61.3586 75.597 61.5023 74.5631L70.1289 12.477C70.2797 11.388 69.988 10.3136 69.3064 9.45099ZM40.9835 55.1872C41.5843 54.2331 42.5137 53.5383 43.629 53.2318C46.0561 52.565 48.5726 53.9962 49.24 56.423C49.7332 58.2189 49.0738 60.1151 47.6509 61.2289L43.2444 57.2362L40.9835 55.1872ZM14.15 30.3147C14.1399 29.9461 14.2771 29.5995 14.5356 29.3374C21.1852 22.6151 29.4019 17.3593 38.2971 14.1379C47.1951 10.9157 56.8777 9.69089 66.3002 10.5952C66.3198 10.5969 66.3394 10.5991 66.3584 10.6017C66.7007 10.6493 67.0059 10.8237 67.2219 11.0973C67.4499 11.3866 67.5476 11.7464 67.497 12.1108L66.7938 17.1713C64.684 16.9269 62.5596 16.8014 60.436 16.7913C59.8304 16.7888 59.2232 16.7898 58.6181 16.8053C55.3641 16.89 52.0984 17.2555 48.9118 17.8917C46.6572 18.3416 44.4283 18.9501 42.2416 19.6577C40.0227 20.375 37.8449 21.2451 35.7358 22.2395C33.6613 23.2178 31.647 24.3134 29.6991 25.5235C27.7338 26.7448 25.8521 28.096 24.0464 29.5417C22.2736 30.9615 20.5932 32.5 19.004 34.1213C18.8051 34.3242 18.6075 34.5282 18.4119 34.7336L14.5888 31.2692C14.3162 31.0223 14.1601 30.6832 14.15 30.3147ZM58.2645 24.3568C57.6615 25.4165 56.6825 26.1782 55.5068 26.5014C54.3311 26.8241 53.1006 26.6704 52.0409 26.0675C50.9812 25.4651 50.2196 24.4856 49.8963 23.3098C49.6275 22.3307 49.6898 21.3128 50.0666 20.3877C52.1324 20.0001 54.224 19.7235 56.3214 19.5833C56.8945 19.5451 57.4674 19.5121 58.0409 19.4896C58.3382 19.9133 58.5585 20.3823 58.6978 20.8909C59.0211 22.0667 58.8669 23.2971 58.2645 24.3568ZM58.8156 61.1706C58.4923 59.9954 58.6466 58.7644 59.249 57.7047C59.7508 56.8227 60.5134 56.1477 61.4327 55.7595L60.3548 63.5173C59.6178 62.9252 59.0741 62.1111 58.8156 61.1706Z" fill="#CDA97B"/>
<path d="M31.8658 42.7674C32.675 43.2276 33.5475 43.5222 34.4427 43.6466C35.4021 43.7799 36.3876 43.7178 37.3493 43.4534C41.1881 42.3981 43.4531 38.4162 42.3978 34.5774C41.8868 32.7177 40.6821 31.1681 39.0054 30.2149C37.3293 29.2613 35.3817 29.0174 33.5219 29.5289C31.6622 30.0399 30.113 31.2447 29.1593 32.9213C28.2057 34.5975 27.9623 36.5451 28.4734 38.4048C28.9844 40.2646 30.1891 41.8137 31.8658 42.7674ZM31.4685 34.2347C32.0709 33.175 33.0504 32.4134 34.2262 32.0901C34.8339 31.9232 35.457 31.8835 36.0633 31.9677C36.6291 32.0464 37.1804 32.2329 37.692 32.524C38.7517 33.1264 39.5134 34.1059 39.8367 35.2812C40.5036 37.7078 39.0718 40.2247 36.6451 40.8916C35.4699 41.2149 34.2389 41.0607 33.1792 40.4583C32.1196 39.8553 31.3579 38.8758 31.0351 37.7006C30.7119 36.5249 30.8656 35.2939 31.4685 34.2347Z" fill="#CDA97B"/>
<path d="M50.978 48.1707C51.7871 48.6314 52.6597 48.9261 53.5548 49.0504C54.5142 49.1837 55.4998 49.1211 56.4615 48.8567C58.3213 48.3456 59.8704 47.1409 60.824 45.4648C61.7777 43.7881 62.0215 41.841 61.5101 39.9807C60.999 38.1215 59.7943 36.5719 58.1182 35.6182C56.4415 34.6645 54.4939 34.4212 52.6346 34.9323C50.7749 35.4433 49.2252 36.648 48.2716 38.3246C47.3184 40.0013 47.0745 41.9484 47.5856 43.8081C48.0966 45.6679 49.3013 47.2175 50.978 48.1707ZM50.5807 39.638C51.1831 38.5783 52.1626 37.8172 53.3383 37.4939C53.9461 37.327 54.5691 37.2873 55.1755 37.3715C55.7412 37.4502 56.2926 37.6362 56.8042 37.9273C57.8639 38.5302 58.6255 39.5097 58.9488 40.685C59.2716 41.8607 59.1178 43.0917 58.5149 44.1513C57.912 45.2105 56.933 45.9722 55.7573 46.2955C54.5821 46.6182 53.3511 46.4645 52.2914 45.8616C51.2317 45.2591 50.47 44.2796 50.1467 43.1044C49.824 41.9287 49.9783 40.6978 50.5807 39.638Z" fill="#CDA97B"/>
<path d="M20.4693 49.6697C21.0258 49.7471 21.5832 49.4521 21.8365 48.9525C22.0904 48.452 21.9949 47.8196 21.5979 47.4203C21.2169 47.0374 20.6304 46.9229 20.1326 47.1318C19.6176 47.3478 19.2899 47.8853 19.3273 48.442C19.3694 49.0623 19.8526 49.5841 20.4693 49.6697Z" fill="#CDA97B"/>
</g>
<defs>
<clipPath id="clip0">
<rect width="68" height="68" fill="white" transform="translate(9.3584) rotate(7.91039)"/>
</clipPath>
</defs>
</svg>
