<svg width="80" height="80" viewBox="0 0 80 80" fill="none" xmlns="http://www.w3.org/2000/svg">
<path d="M76.3231 70.1411H74.99V35.375C78.0003 33.438 80 30.0603 80 26.2222C80 26.0183 79.9467 25.8178 79.8456 25.6408L70.5467 9.36764C69.8936 8.22498 68.6703 7.51498 67.3542 7.51498H12.6458C11.3297 7.51498 10.1064 8.22483 9.45328 9.36764L0.154375 25.6408C0.0532812 25.8178 0 26.0184 0 26.2222C0 30.0603 1.99969 33.438 5.01 35.375V70.1411H3.67687C3.02969 70.1411 2.505 70.6658 2.505 71.313C2.505 71.9601 3.02969 72.4848 3.67687 72.4848H76.3231C76.9705 72.4848 77.495 71.9601 77.495 71.313C77.495 70.6658 76.9703 70.1411 76.3231 70.1411ZM2.42453 27.394H6.18141C6.82859 27.394 7.35328 26.8694 7.35328 26.2222C7.35328 25.575 6.82859 25.0503 6.18141 25.0503H3.19125L11.4883 10.5305C11.7252 10.1161 12.1686 9.85873 12.6458 9.85873H67.3542C67.8314 9.85873 68.275 10.1161 68.5117 10.5305L76.8086 25.0503H73.8178C73.1705 25.0503 72.6459 25.575 72.6459 26.2222C72.6459 26.8694 73.1705 27.394 73.8178 27.394H77.5753C77.0023 31.5478 73.4297 34.7573 69.1209 34.7573C64.8123 34.7573 61.2414 31.5475 60.6683 27.394H68.8083C69.4556 27.394 69.9802 26.8694 69.9802 26.2222C69.9802 25.575 69.4556 25.0503 68.8083 25.0503H11.1923C10.5452 25.0503 10.0205 25.575 10.0205 26.2222C10.0205 26.8694 10.5452 27.394 11.1923 27.394H19.3316C18.7584 31.5475 15.1873 34.7573 10.8789 34.7573C6.57016 34.7573 2.9975 31.5478 2.42453 27.394ZM58.1597 27.394C57.5866 31.5475 54.0155 34.7573 49.707 34.7573C45.3984 34.7573 41.8275 31.5475 41.2544 27.394H58.1597ZM38.7456 27.394C38.1725 31.5475 34.6014 34.7573 30.293 34.7573C25.9845 34.7573 22.4134 31.5475 21.8403 27.394H38.7456ZM66.3834 70.1412H53.697V66.2223H66.3834V70.1412ZM66.3834 63.8786H53.697V42.4244H66.3834V63.8786ZM72.6462 70.1412H68.7273V41.2525C68.7273 40.6053 68.2028 40.0806 67.5555 40.0806H52.5253C51.878 40.0806 51.3534 40.6053 51.3534 41.2525V70.1411H7.35375V36.5115C8.46016 36.8917 9.64516 37.1011 10.8789 37.1011C15.1125 37.1011 18.7889 34.6705 20.5859 31.1312C22.383 34.6703 26.0594 37.1011 30.293 37.1011C34.5266 37.1011 38.203 34.6705 40 31.1312C41.797 34.6703 45.4734 37.1011 49.707 37.1011C53.9406 37.1011 57.617 34.6705 59.4141 31.1312C61.2111 34.6703 64.8875 37.1011 69.1211 37.1011C70.3548 37.1011 71.5398 36.8917 72.6462 36.5117V70.1412Z" fill="#CDA97B"/>
<path d="M46.2626 40.0806H12.4445C11.7973 40.0806 11.2726 40.6053 11.2726 41.2525V65.0505C11.2726 65.6977 11.7973 66.2223 12.4445 66.2223H46.2626C46.91 66.2223 47.4345 65.6977 47.4345 65.0505V41.2525C47.4345 40.6052 46.91 40.0806 46.2626 40.0806ZM45.0908 63.8786H13.6164V42.4244H45.0908V63.8786Z" fill="#CDA97B"/>
</svg>
