<svg width="87" height="62" viewBox="0 0 87 62" fill="none" xmlns="http://www.w3.org/2000/svg">
<path d="M86.6093 33.724L70.0573 17.172C69.6868 16.7991 69.2459 16.5035 68.7602 16.3023C68.2745 16.1011 67.7537 15.9983 67.228 16H44.3333V18.6667H51V38.6667H53.6667V18.6667H67.228C67.4033 18.6665 67.5769 18.701 67.7389 18.768C67.9009 18.8351 68.0481 18.9334 68.172 19.0574L70.448 21.3334H64.3333C63.6261 21.3334 62.9478 21.6143 62.4477 22.1144C61.9476 22.6145 61.6667 23.2928 61.6667 24V36C61.6667 36.7073 61.9476 37.3855 62.4477 37.8856C62.9478 38.3857 63.6261 38.6667 64.3333 38.6667H84.3333V49.3334C84.3333 49.687 84.1929 50.0261 83.9428 50.2762C83.6928 50.5262 83.3536 50.6667 83 50.6667H80.2267C79.9079 48.4469 78.7995 46.4164 77.1047 44.9477C75.41 43.479 73.2426 42.6705 71 42.6705C68.7574 42.6705 66.59 43.479 64.8953 44.9477C63.2005 46.4164 62.0921 48.4469 61.7733 50.6667H42.8933C42.5745 48.4469 41.4661 46.4164 39.7714 44.9477C38.0767 43.479 35.9093 42.6705 33.6667 42.6705C31.4241 42.6705 29.2567 43.479 27.5619 44.9477C25.8672 46.4164 24.7588 48.4469 24.44 50.6667H21.6667C21.313 50.6667 20.9739 50.5262 20.7239 50.2762C20.4738 50.0261 20.3333 49.687 20.3333 49.3334V37.3334H17.6667V49.3334C17.6667 50.3942 18.0881 51.4116 18.8382 52.1618C19.5884 52.9119 20.6058 53.3334 21.6667 53.3334H24.44C24.731 55.3607 25.6829 57.2354 27.148 58.6667H8.33333C7.59695 58.6667 7 59.2636 7 60C7 60.7364 7.59695 61.3334 8.33333 61.3334H71C73.242 61.3291 75.4077 60.5186 77.1016 59.0498C78.7956 57.5811 79.9047 55.5521 80.2267 53.3334H83C84.0609 53.3334 85.0783 52.9119 85.8284 52.1618C86.5786 51.4116 87 50.3942 87 49.3334V34.6667C86.9999 34.3131 86.8594 33.974 86.6093 33.724ZM27 52C27 50.6815 27.391 49.3925 28.1235 48.2962C28.8561 47.1999 29.8973 46.3454 31.1154 45.8408C32.3336 45.3362 33.6741 45.2042 34.9673 45.4615C36.2605 45.7187 37.4484 46.3536 38.3807 47.286C39.3131 48.2183 39.948 49.4062 40.2052 50.6994C40.4625 51.9926 40.3305 53.3331 39.8259 54.5512C39.3213 55.7694 38.4668 56.8106 37.3705 57.5432C36.2741 58.2757 34.9852 58.6667 33.6667 58.6667C31.8992 58.6646 30.2047 57.9615 28.955 56.7117C27.7052 55.4619 27.0021 53.7675 27 52ZM40.1853 58.6667C41.6504 57.2354 42.6023 55.3607 42.8933 53.3334H61.7733C62.0644 55.3607 63.0162 57.2354 64.4813 58.6667H40.1853ZM71 58.6667C69.6815 58.6667 68.3925 58.2757 67.2962 57.5432C66.1999 56.8106 65.3454 55.7694 64.8408 54.5512C64.3362 53.3331 64.2042 51.9926 64.4614 50.6994C64.7187 49.4062 65.3536 48.2183 66.286 47.286C67.2183 46.3536 68.4062 45.7187 69.6994 45.4615C70.9926 45.2042 72.333 45.3362 73.5512 45.8408C74.7694 46.3454 75.8106 47.1999 76.5431 48.2962C77.2757 49.3925 77.6667 50.6815 77.6667 52C77.6646 53.7675 76.9615 55.4619 75.7117 56.7117C74.4619 57.9615 72.7675 58.6646 71 58.6667ZM64.3333 36V24H73.1147L84.3333 35.2187V36H64.3333Z" fill="#CDA97B"/>
<path d="M32.3333 52C32.3333 52.7363 32.9303 53.3333 33.6667 53.3333C34.403 53.3333 35 52.7363 35 52C35 51.2636 34.403 50.6666 33.6667 50.6666C32.9303 50.6666 32.3333 51.2636 32.3333 52Z" fill="#CDA97B"/>
<path d="M69.6667 52C69.6667 52.7363 70.2636 53.3333 71 53.3333C71.7364 53.3333 72.3333 52.7363 72.3333 52C72.3333 51.2636 71.7364 50.6666 71 50.6666C70.2636 50.6666 69.6667 51.2636 69.6667 52Z" fill="#CDA97B"/>
<path d="M12.3333 46.6667H1.83333C1.09695 46.6667 0.5 47.2636 0.5 48C0.5 48.7364 1.09695 49.3334 1.83333 49.3334H12.3333C13.0697 49.3334 13.6667 48.7364 13.6667 48C13.6667 47.2636 13.0697 46.6667 12.3333 46.6667Z" fill="#CDA97B"/>
<path d="M12.3333 41.3333H5.83334C5.09696 41.3333 4.50001 41.9303 4.50001 42.6666C4.50001 43.403 5.09696 44 5.83334 44H12.3333C13.0697 44 13.6667 43.403 13.6667 42.6666C13.6667 41.9303 13.0697 41.3333 12.3333 41.3333Z" fill="#CDA97B"/>
<path d="M12.3333 36H9.83334C9.09696 36 8.5 36.597 8.5 37.3334C8.5 38.0697 9.09696 38.6667 9.83334 38.6667H12.3333C13.0697 38.6667 13.6667 38.0697 13.6667 37.3334C13.6667 36.597 13.0697 36 12.3333 36Z" fill="#CDA97B"/>
<path d="M24.3333 34.6667C27.7615 34.6667 31.1128 33.6501 33.9632 31.7455C36.8137 29.8409 39.0353 27.1338 40.3472 23.9665C41.6592 20.7993 42.0024 17.3141 41.3336 13.9518C40.6648 10.5894 39.014 7.50093 36.5898 5.07682C34.1657 2.65271 31.0772 1.00187 27.7149 0.333063C24.3526 -0.335748 20.8674 0.00751026 17.7002 1.31943C14.5329 2.63135 11.8258 4.853 9.92119 7.70346C8.01658 10.5539 7 13.9051 7 17.3333C7.00529 21.9288 8.83318 26.3345 12.0827 29.584C15.3321 32.8335 19.7379 34.6614 24.3333 34.6667ZM24.3333 2.66667C27.2341 2.66667 30.0698 3.52686 32.4817 5.13845C34.8936 6.75005 36.7735 9.04067 37.8836 11.7206C38.9936 14.4006 39.2841 17.3496 38.7182 20.1947C38.1523 23.0397 36.7554 25.6531 34.7042 27.7042C32.6531 29.7554 30.0397 31.1523 27.1947 31.7182C24.3496 32.2841 21.4006 31.9937 18.7206 30.8836C16.0407 29.7735 13.75 27.8936 12.1384 25.4817C10.5269 23.0698 9.66667 20.2341 9.66667 17.3333C9.67125 13.4449 11.218 9.71705 13.9675 6.96751C16.717 4.21797 20.4449 2.67126 24.3333 2.66667Z" fill="#CDA97B"/>
<path d="M18.75 8.40673C18.4876 8.55833 18.2973 8.81014 18.2212 9.10677C17.9594 10.1254 15.736 19.1863 18.2385 23.5207C19.3214 25.3965 21.09 26.774 23.155 27.3502C25.2201 27.9264 27.4125 27.6541 29.25 26.5933C31.0875 25.5324 32.4195 23.7698 32.953 21.6933C33.4865 19.6168 33.1778 17.3965 32.0949 15.5207C29.5924 11.1863 20.6337 8.58144 19.6207 8.29877C19.3257 8.21641 19.0125 8.25525 18.75 8.40673ZM28.0833 24.5725C26.7704 25.3284 25.205 25.5219 23.7305 25.1104C22.256 24.699 20.9928 23.7163 20.218 22.3779C18.7211 19.7853 19.5229 13.9809 20.1786 10.8811C23.1909 11.8632 28.6186 14.071 30.1154 16.6636C30.8871 18.0038 31.1065 19.5891 30.7256 21.0718C30.3446 22.5545 29.3944 23.8134 28.0833 24.5725Z" fill="#CDA97B"/>
<path d="M61.6666 41.3333H59C58.2636 41.3333 57.6666 41.9303 57.6666 42.6666C57.6666 43.403 58.2636 44 59 44H61.6666C62.403 44 63 43.403 63 42.6666C63 41.9303 62.403 41.3333 61.6666 41.3333Z" fill="#CDA97B"/>
</svg>
