<svg width="80" height="62" viewBox="0 0 80 62" fill="none" xmlns="http://www.w3.org/2000/svg">
<path d="M79.6093 33.724L63.0573 17.172C62.6868 16.7991 62.2459 16.5035 61.7602 16.3023C61.2745 16.1011 60.7537 15.9983 60.228 16H37.3333V18.6667H44V38.6667H46.6667V18.6667H60.228C60.4033 18.6665 60.5769 18.701 60.7389 18.768C60.9009 18.8351 61.0481 18.9334 61.172 19.0574L63.448 21.3334H57.3333C56.6261 21.3334 55.9478 21.6143 55.4477 22.1144C54.9476 22.6145 54.6667 23.2928 54.6667 24V36C54.6667 36.7073 54.9476 37.3855 55.4477 37.8856C55.9478 38.3857 56.6261 38.6667 57.3333 38.6667H77.3333V49.3334C77.3333 49.687 77.1929 50.0261 76.9428 50.2762C76.6928 50.5262 76.3536 50.6667 76 50.6667H73.2267C72.9079 48.4469 71.7995 46.4164 70.1047 44.9477C68.41 43.479 66.2426 42.6705 64 42.6705C61.7574 42.6705 59.59 43.479 57.8953 44.9477C56.2005 46.4164 55.0921 48.4469 54.7733 50.6667H35.8933C35.5745 48.4469 34.4661 46.4164 32.7714 44.9477C31.0767 43.479 28.9093 42.6705 26.6667 42.6705C24.4241 42.6705 22.2567 43.479 20.5619 44.9477C18.8672 46.4164 17.7588 48.4469 17.44 50.6667H14.6667C14.313 50.6667 13.9739 50.5262 13.7239 50.2762C13.4738 50.0261 13.3333 49.687 13.3333 49.3334V37.3334H10.6667V49.3334C10.6667 50.3942 11.0881 51.4116 11.8382 52.1618C12.5884 52.9119 13.6058 53.3334 14.6667 53.3334H17.44C17.731 55.3607 18.6829 57.2354 20.148 58.6667H0V61.3334H64C66.242 61.3291 68.4077 60.5186 70.1016 59.0498C71.7955 57.5811 72.9047 55.5521 73.2267 53.3334H76C77.0609 53.3334 78.0783 52.9119 78.8284 52.1618C79.5786 51.4116 80 50.3942 80 49.3334V34.6667C79.9999 34.3131 79.8594 33.974 79.6093 33.724ZM20 52C20 50.6815 20.391 49.3925 21.1235 48.2962C21.8561 47.1999 22.8973 46.3454 24.1154 45.8408C25.3336 45.3362 26.6741 45.2042 27.9673 45.4615C29.2605 45.7187 30.4484 46.3536 31.3807 47.286C32.3131 48.2183 32.948 49.4062 33.2052 50.6994C33.4625 51.9926 33.3304 53.3331 32.8259 54.5512C32.3213 55.7694 31.4668 56.8106 30.3705 57.5432C29.2741 58.2757 27.9852 58.6667 26.6667 58.6667C24.8992 58.6646 23.2047 57.9615 21.955 56.7117C20.7052 55.4619 20.0021 53.7675 20 52ZM33.1853 58.6667C34.6504 57.2354 35.6023 55.3607 35.8933 53.3334H54.7733C55.0644 55.3607 56.0162 57.2354 57.4813 58.6667H33.1853ZM64 58.6667C62.6815 58.6667 61.3925 58.2757 60.2962 57.5432C59.1999 56.8106 58.3454 55.7694 57.8408 54.5512C57.3362 53.3331 57.2042 51.9926 57.4614 50.6994C57.7187 49.4062 58.3536 48.2183 59.286 47.286C60.2183 46.3536 61.4062 45.7187 62.6994 45.4615C63.9926 45.2042 65.3331 45.3362 66.5512 45.8408C67.7694 46.3454 68.8106 47.1999 69.5431 48.2962C70.2757 49.3925 70.6667 50.6815 70.6667 52C70.6646 53.7675 69.9615 55.4619 68.7117 56.7117C67.4619 57.9615 65.7675 58.6646 64 58.6667ZM57.3333 36V24H66.1147L77.3333 35.2187V36H57.3333Z" fill="#CDA97B"/>
<path d="M27.9999 50.6666H25.3333V53.3333H27.9999V50.6666Z" fill="#CDA97B"/>
<path d="M65.3334 50.6666H62.6667V53.3333H65.3334V50.6666Z" fill="#CDA97B"/>
<path d="M6.66667 46.6667H0V49.3334H6.66667V46.6667Z" fill="#CDA97B"/>
<path d="M6.66675 41.3333H2.66675V44H6.66675V41.3333Z" fill="#CDA97B"/>
<path d="M6.66667 36H4V38.6667H6.66667V36Z" fill="#CDA97B"/>
<path d="M17.3333 34.6667C20.7615 34.6667 24.1128 33.6501 26.9632 31.7455C29.8137 29.8409 32.0353 27.1338 33.3472 23.9665C34.6592 20.7993 35.0024 17.3141 34.3336 13.9518C33.6648 10.5894 32.014 7.50093 29.5898 5.07682C27.1657 2.65271 24.0772 1.00187 20.7149 0.333063C17.3526 -0.335748 13.8674 0.00751026 10.7002 1.31943C7.5329 2.63135 4.8258 4.853 2.92119 7.70346C1.01658 10.5539 0 13.9051 0 17.3333C0.0052933 21.9288 1.83318 26.3345 5.08266 29.584C8.33214 32.8335 12.7379 34.6614 17.3333 34.6667ZM17.3333 2.66667C20.2341 2.66667 23.0698 3.52686 25.4817 5.13845C27.8936 6.75005 29.7735 9.04067 30.8836 11.7206C31.9936 14.4006 32.2841 17.3496 31.7182 20.1947C31.1523 23.0397 29.7554 25.6531 27.7042 27.7042C25.6531 29.7554 23.0397 31.1523 20.1947 31.7182C17.3496 32.2841 14.4006 31.9937 11.7206 30.8836C9.04066 29.7735 6.75004 27.8936 5.13845 25.4817C3.52685 23.0698 2.66667 20.2341 2.66667 17.3333C2.67125 13.4449 4.21796 9.71705 6.9675 6.96751C9.71704 4.21797 13.4449 2.67126 17.3333 2.66667Z" fill="#CDA97B"/>
<path d="M17 7C16.6969 7.00007 16.4063 7.12303 16.192 7.34183C15.456 8.09317 9 14.8283 9 19.8333C9 21.9993 9.84285 24.0765 11.3431 25.608C12.8434 27.1396 14.8783 28 17 28C19.1217 28 21.1566 27.1396 22.6569 25.608C24.1571 24.0765 25 21.9993 25 19.8333C25 14.8283 18.544 8.09317 17.808 7.34183C17.5937 7.12303 17.3031 7.00007 17 7ZM17 25.6667C15.485 25.6648 14.0326 25.0496 12.9614 23.9561C11.8901 22.8625 11.2875 21.3799 11.2857 19.8333C11.2857 16.8397 14.8823 12.2138 17 9.85717C19.1177 12.2138 22.7143 16.8397 22.7143 19.8333C22.7125 21.3799 22.1098 22.8625 21.0386 23.9561C19.9674 25.0496 18.515 25.6648 17 25.6667Z" fill="#CDA97B"/>
<path d="M56.0001 41.3333H50.6667V44H56.0001V41.3333Z" fill="#CDA97B"/>
</svg>
