<svg width="70" height="88" viewBox="0 0 70 88" fill="none" xmlns="http://www.w3.org/2000/svg">
<path d="M68.6328 46.2324H57.4219V43.3385C57.4219 42.5834 56.8096 41.9713 56.0547 41.9713H26.5234C25.7685 41.9713 25.1562 42.5834 25.1562 43.3385C25.1562 44.0936 25.7685 44.7057 26.5234 44.7057H54.6875V55.1874C54.6875 64.3951 49.7715 72.9529 41.8335 77.6092H15.5884C7.65037 72.953 2.73438 64.3951 2.73438 55.1875V44.7058H11.8945C12.6495 44.7058 13.2617 44.0937 13.2617 43.3386C13.2617 42.5835 12.6495 41.9715 11.8945 41.9715H1.36719C0.612227 41.9715 0 42.5835 0 43.3386V55.1875C0 60.3555 1.38906 65.4228 4.01707 69.8414C5.78936 72.8215 8.08896 75.453 10.7819 77.6094H1.36719C0.612227 77.6094 0 78.2215 0 78.9766C0 83.9522 4.04783 88 9.02344 88H51.6797C56.6553 88 60.7031 83.9522 60.7031 78.9766C60.7031 78.2215 60.0909 77.6094 59.3359 77.6094H46.64C49.1185 75.6248 51.2627 73.2367 52.9703 70.5455H56.8295C64.0917 70.5455 70 64.6372 70 57.375V47.5996C70 46.8445 69.3879 46.2324 68.6328 46.2324ZM57.819 80.3438C57.1931 83.1563 54.6781 85.2656 51.6797 85.2656H9.02344C6.02506 85.2656 3.51012 83.1563 2.88408 80.3438H15.2221H42.1997H57.819ZM57.4219 55.1875V54.4356H61.7969V57.375C61.7969 60.114 59.5685 62.3424 56.8295 62.3424H56.519C57.1158 60.0174 57.4219 57.6136 57.4219 55.1875ZM67.2656 57.375C67.2656 63.1295 62.584 67.8112 56.8295 67.8112H54.5025C54.9391 66.9196 55.329 66.0069 55.6697 65.0768H56.8295C61.0764 65.0768 64.5312 61.6218 64.5312 57.375V53.0684C64.5312 52.3133 63.919 51.7012 63.1641 51.7012H57.4219V48.9668H67.2656V57.375Z" fill="#CDA97B"/>
<path d="M20.5461 42.3715C20.2918 42.1172 19.939 41.9709 19.5795 41.9709C19.2199 41.9709 18.8672 42.1172 18.6129 42.3715C18.3587 42.6271 18.2123 42.9785 18.2123 43.3381C18.2123 43.6976 18.3586 44.0504 18.6129 44.306C18.8672 44.5603 19.2199 44.7053 19.5795 44.7053C19.939 44.7053 20.2918 44.5603 20.5461 44.306C20.8016 44.0504 20.9467 43.699 20.9467 43.3381C20.9467 42.9785 20.8016 42.6258 20.5461 42.3715Z" fill="#CDA97B"/>
<path d="M49.4922 53.8203C48.7372 53.8203 48.125 54.4324 48.125 55.1875C48.125 60.2624 46.0666 65.2497 42.4774 68.8707C41.9459 69.4069 41.9498 70.2726 42.486 70.8042C42.7526 71.0685 43.1006 71.2004 43.4485 71.2004C43.8005 71.2003 44.1524 71.0652 44.4197 70.7955C48.5122 66.6665 50.8594 60.9777 50.8594 55.1875C50.8594 54.4324 50.2471 53.8203 49.4922 53.8203Z" fill="#CDA97B"/>
<path d="M40.1796 72.5815C39.8085 71.9238 38.9747 71.6915 38.3171 72.0624L38.2859 72.0801C37.6281 72.4511 37.3958 73.285 37.7668 73.9426C38.0181 74.388 38.4814 74.6383 38.9588 74.6383C39.1863 74.6383 39.4171 74.5813 39.6293 74.4617L39.6605 74.4441C40.3182 74.073 40.5505 73.2392 40.1796 72.5815Z" fill="#CDA97B"/>
<path d="M30.0164 19.5665L29.3051 18.6733C28.2608 17.3624 28.2593 15.53 29.3014 14.2172C29.7709 13.6258 29.6719 12.7658 29.0805 12.2965C28.4889 11.8268 27.629 11.9259 27.1596 12.5174C25.3218 14.8329 25.3245 18.0648 27.1662 20.3769L27.8776 21.2701C29.2422 22.9832 29.2442 25.3778 27.8825 27.0935L27.1535 28.012C26.684 28.6034 26.783 29.4634 27.3745 29.9328C27.6259 30.1322 27.9257 30.2292 28.2235 30.2292C28.6263 30.2292 29.0254 30.052 29.2954 29.7118L30.0244 28.7933C32.1818 26.0751 32.1786 22.2809 30.0164 19.5665Z" fill="#CDA97B"/>
<path d="M37.9509 27.0309L37.4949 25.9842C36.8255 24.4476 37.2984 22.6772 38.6447 21.6789C39.2513 21.2291 39.3782 20.3728 38.9284 19.7664C38.4785 19.1596 37.6224 19.0328 37.0158 19.4826C34.6413 21.2435 33.8075 24.366 34.988 27.0762L35.444 28.1231C36.3185 30.1311 35.7007 32.4448 33.9413 33.7494L32.9996 34.4478C32.3931 34.8976 32.2661 35.7539 32.7159 36.3603C32.9072 36.6181 33.1717 36.7892 33.4593 36.8662C33.8484 36.9705 34.2799 36.9025 34.6286 36.6439L35.5701 35.9455C38.3577 33.8784 39.3367 30.2127 37.9509 27.0309Z" fill="#CDA97B"/>
<path d="M21.9931 26.3556L21.0749 25.6771C19.7269 24.6812 19.2512 22.9114 19.9178 21.3737C20.2183 20.6809 19.9001 19.8759 19.2073 19.5755C18.5143 19.2751 17.7095 19.5935 17.409 20.286C16.2333 22.9982 17.0724 26.1194 19.4498 27.8761L20.3681 28.5548C22.1295 29.8565 22.7513 32.1691 21.8801 34.1785L21.4136 35.2542C21.1132 35.947 21.4313 36.7521 22.1241 37.0525C22.4186 37.1801 22.7331 37.1962 23.0209 37.1191C23.4099 37.0148 23.7495 36.7404 23.9222 36.3421L24.3888 35.2662C25.7692 32.0823 24.7841 28.4182 21.9931 26.3556Z" fill="#CDA97B"/>
</svg>
