<svg width="80" height="80" viewBox="0 0 80 80" fill="none" xmlns="http://www.w3.org/2000/svg">
<path d="M59.9852 27.8199L59.4055 24.9388C58.6264 21.6522 55.1725 19.5449 51.6912 20.232C49.7327 20.6185 48.0892 21.8425 47.2437 23.5442L46.0268 26.2192C45.0022 28.4755 44.5595 30.9345 44.7345 33.3974C44.9134 35.4746 46.0849 37.3759 47.9184 38.5645L44.489 59.5814C44.2191 60.7455 44.4912 61.9697 45.2371 62.9468C46.8437 65.0275 49.9203 65.5122 52.1087 64.0293C52.227 63.9491 52.3413 63.864 52.4514 63.7741C53.3774 63.0141 53.915 61.9177 53.9319 60.7536L55.354 39.4146C57.4064 38.671 58.9755 37.0852 59.6191 35.1043C60.347 32.7449 60.4725 30.2495 59.9852 27.8199ZM56.9152 34.3306C56.445 35.7543 55.2017 36.8241 53.6516 37.1387C53.0615 37.274 52.6364 37.7527 52.5985 38.3246L51.1167 60.6412C51.1157 61.0822 50.9131 61.4987 50.5603 61.7842C49.6279 62.4714 48.271 62.3158 47.5184 61.4354C47.2267 61.0496 47.1298 60.5643 47.2536 60.1103L50.8439 38.1234C50.9364 37.5578 50.6307 36.9952 50.0865 36.7298C48.6479 36.0725 47.679 34.7491 47.5433 33.2559C47.3986 31.2113 47.7663 29.1699 48.6165 27.2968L49.8336 24.6204C50.7311 22.9342 52.9215 22.2714 54.7261 23.1401C55.6801 23.5993 56.3789 24.4252 56.6393 25.4009L57.2188 28.2833C57.6222 30.3003 57.5183 32.3717 56.9152 34.3306Z" fill="#CDA97B"/>
<path d="M31.0771 19.244C30.3574 19.3995 29.9 20.1092 30.0555 20.8289L32.4738 32.0186L29.7084 36.3089C29.5036 36.6253 29.4423 37.0138 29.5398 37.378L35.6091 59.9383C35.7426 60.4242 35.668 60.9439 35.4035 61.3728C34.8456 62.2467 33.6849 62.503 32.8108 61.945C32.8061 61.9421 32.8015 61.939 32.797 61.9361C32.3788 61.6548 32.0964 61.2122 32.0173 60.7146L28.2365 37.6596C28.1753 37.2878 27.9595 36.9593 27.6427 36.7553L23.3511 33.9901L20.9328 22.8005C20.7773 22.0808 20.0676 21.6233 19.3479 21.7789C18.6282 21.9344 18.1708 22.6441 18.3263 23.3638L20.8612 35.093C20.9359 35.4387 21.145 35.7403 21.4422 35.9319L25.6995 38.6772L29.3926 61.1495C29.7992 63.6035 32.1182 65.2634 34.5722 64.8568C37.0262 64.4503 38.6861 62.1313 38.2795 59.6773C38.2557 59.5331 38.2248 59.3902 38.187 59.249L32.2705 37.2572L35.0142 32.9989C35.2058 32.7017 35.2717 32.3406 35.197 31.995L32.6621 20.2657C32.5065 19.5459 31.7968 19.0884 31.0771 19.244Z" fill="#CDA97B"/>
<path d="M23.2577 20.9339C22.5379 21.0895 22.0805 21.7991 22.2361 22.5188L24.4893 32.9448C24.6449 33.6645 25.3545 34.1219 26.0742 33.9664C26.7939 33.8108 27.2513 33.1012 27.0958 32.3815L24.8426 21.9555C24.687 21.2358 23.9774 20.7784 23.2577 20.9339Z" fill="#CDA97B"/>
<path d="M27.1674 20.0889C26.4477 20.2445 25.9902 20.9541 26.1458 21.6739L28.399 32.0998C28.5546 32.8195 29.2642 33.2769 29.9839 33.1214C30.7037 32.9659 31.1611 32.2562 31.0055 31.5365L28.7523 21.1105C28.5967 20.3908 27.8871 19.9334 27.1674 20.0889Z" fill="#CDA97B"/>
<path d="M40 0C17.9087 0 0 17.9087 0 40C0 62.0913 17.9087 80 40 80C62.0913 80 80 62.0913 80 40C79.975 17.919 62.081 0.025 40 0ZM40 77.3333C19.3813 77.3333 2.66667 60.6187 2.66667 40C2.66667 19.3813 19.3813 2.66667 40 2.66667C60.6187 2.66667 77.3333 19.3813 77.3333 40C77.3098 60.6088 60.6088 77.3098 40 77.3333Z" fill="#CDA97B"/>
<path d="M45.9919 69.2705C45.9009 68.4971 45.0715 67.9313 44.1393 68.0067C44.1174 68.0085 44.0956 68.0106 44.0738 68.0131L44.0806 68.0117C41.6932 68.2417 39.2814 68.2417 36.894 68.0117C35.9635 67.9211 35.1209 68.4735 35.0117 69.2457C34.9026 70.0178 35.5683 70.717 36.4989 70.8075C39.1466 71.0642 41.8212 71.0642 44.4689 70.8075C45.4009 70.7323 46.0828 70.044 45.9919 69.2705Z" fill="#CDA97B"/>
<path d="M65.2896 19.9543C64.7078 19.3025 63.6737 19.2172 62.98 19.7641C62.9777 19.7658 62.9755 19.7677 62.973 19.7695C62.281 20.3179 62.1928 21.2896 62.7763 21.9401C72.6614 32.9667 71.9052 49.2714 61.0368 59.4481C60.3954 60.0488 60.3935 61.0245 61.0327 61.6273C61.6719 62.23 62.7103 62.2317 63.3518 61.6311C75.4301 50.3247 76.2724 32.2074 65.2896 19.9543Z" fill="#CDA97B"/>
<path d="M31.0654 17.6239C31.0645 17.6239 31.0637 17.6238 31.0629 17.6238C31.0615 17.6238 31.0602 17.6239 31.0587 17.6239H31.0654Z" fill="#CDA97B"/>
<path d="M48.7231 9.86427C42.2019 8.40741 35.3626 8.79899 29.0817 10.9889C28.219 11.2912 27.7829 12.1883 28.1072 12.9923C28.3517 13.5983 28.9733 13.9994 29.6676 14C29.8672 13.999 30.065 13.965 30.2514 13.8991C35.9077 11.9274 42.0666 11.5753 47.9389 12.8881C48.8347 13.0899 49.7364 12.5768 49.9529 11.7417C50.1694 10.9066 49.619 10.0661 48.7231 9.86427Z" fill="#CDA97B"/>
<path d="M18.5338 59.3005C13.1711 53.9865 10.1655 46.7685 10.1838 39.2468C10.1681 33.2374 12.0858 27.38 15.6576 22.528C16.1856 21.8308 16.0442 20.841 15.3419 20.3169C14.6395 19.7929 13.6423 19.9332 13.1144 20.6304C13.105 20.6428 13.0959 20.6553 13.0869 20.6679C3.8897 33.2188 5.24305 50.543 16.2796 61.5364C16.9016 62.1542 17.9106 62.1546 18.533 61.5372C19.1553 60.9198 19.1557 59.9183 18.5338 59.3005Z" fill="#CDA97B"/>
</svg>
