<svg width="80" height="86" viewBox="0 0 80 86" fill="none" xmlns="http://www.w3.org/2000/svg">
<g clip-path="url(#clip0)">
<path d="M71.3053 58.2494C71.228 58.12 71.1466 57.9961 71.0653 57.8867C70.2574 56.7573 69.056 56.0108 67.6853 55.7853C66.3213 55.56 64.9386 55.8812 63.8133 56.6894L48.9066 67.3334H33.3333C32.5986 67.3334 32 66.7361 32 66.0002C32 65.2642 32.5986 64.6669 33.3333 64.6669H42C44.5733 64.6669 46.6667 62.5736 46.6667 60.0002C46.6667 59.9855 46.6653 59.8628 46.6641 59.8495C46.5814 57.2775 44.412 55.2722 41.8934 55.3336H24.5481C23.0108 55.3469 21.5134 55.8977 20.3334 56.8816L13.8134 62.3083C13.5094 62.563 13.3334 62.9377 13.3334 63.3336V79.3336C13.3334 80.0709 13.9308 80.6669 14.6667 80.6669H47.7481C49.9135 80.6642 52.0228 79.9016 53.6895 78.5216L69.8536 65.1656C72.0494 63.6012 72.6867 60.5641 71.3053 58.2494ZM68.2321 63.052L51.9906 76.4667C50.7986 77.4534 49.2906 77.9973 47.7466 78H16V63.9586L22.0413 58.9292C22.7506 58.3386 23.648 58.0078 24.56 57.9998L41.9359 57.9986C43.0413 57.9972 43.9639 58.8333 44 60C44 61.1027 43.1027 62 42 62H33.3333C31.128 62 29.3333 63.7947 29.3333 66C29.3333 68.2053 31.128 70 33.3333 70H49.3333C49.6106 70 49.8813 69.9133 50.1106 69.752L65.3666 58.8573C65.916 58.4627 66.5839 58.3094 67.2533 58.4159C67.9213 58.5266 68.5053 58.8892 68.9066 59.4492C68.9466 59.5039 68.9825 59.5598 69.0172 59.6172C69.692 60.7467 69.3786 62.2306 68.2321 63.052Z" fill="#CDA97B"/>
<path d="M14.6267 60.6667H0V63.3335H13.2933V83.3335H0V86H14.6267C15.3627 86 15.96 85.4041 15.96 84.6667V62C15.96 61.2627 15.3627 60.6667 14.6267 60.6667Z" fill="#CDA97B"/>
<path d="M6.66669 72.6667C4.46137 72.6667 2.66669 74.4614 2.66669 76.6667C2.66669 78.8721 4.46137 80.6667 6.66669 80.6667C8.872 80.6667 10.6667 78.8721 10.6667 76.6667C10.6667 74.4614 8.872 72.6667 6.66669 72.6667ZM6.66669 78C5.932 78 5.33341 77.4027 5.33341 76.6667C5.33341 75.9308 5.932 75.3335 6.66669 75.3335C7.40137 75.3335 7.99997 75.9308 7.99997 76.6667C7.99997 77.4027 7.40137 78 6.66669 78Z" fill="#CDA97B"/>
<path d="M78.6667 47.3333H1.33328C0.597344 47.3333 0 47.9292 0 48.6665C0 53.8119 4.18672 57.9998 9.33328 57.9998H70.6666C75.8119 57.9998 79.9998 53.8119 79.9998 48.6665C80 47.9293 79.4041 47.3333 78.6667 47.3333ZM70.6667 55.3333H9.33328C6.11328 55.3333 3.42 53.0386 2.80125 50H77.1986C76.58 53.0386 73.8867 55.3333 70.6667 55.3333Z" fill="#CDA97B"/>
<path d="M40 6.66675C20.8853 6.66675 5.33325 22.2188 5.33325 41.3335V42.6667C5.33325 43.4041 5.9306 44 6.66653 44H73.3332C74.0706 44 74.6665 43.4041 74.6665 42.6667V41.3335C74.6667 22.2186 59.1159 6.66675 40 6.66675ZM7.99997 41.3333C7.99997 23.6892 22.3559 9.33331 40 9.33331C57.644 9.33331 71.9999 23.6892 71.9999 41.3333H7.99997Z" fill="#CDA97B"/>
<path d="M18.0694 21.876C17.1373 22.9239 16.2734 24.0454 15.5014 25.2107L17.7241 26.6839C18.4281 25.6225 19.2147 24.5999 20.0626 23.6466L18.0694 21.876Z" fill="#CDA97B"/>
<path d="M40 12C32.512 12.0041 25.3826 14.8333 19.9267 19.9627L21.7534 21.9053C26.7134 17.2412 33.1947 14.6706 40.0014 14.6667L40 12Z" fill="#CDA97B"/>
<path d="M44 0H36V2.66672H44V0Z" fill="#CDA97B"/>
<path d="M41.3335 1.33331H38.6667V8.00003H41.3335V1.33331Z" fill="#CDA97B"/>
</g>
<defs>
<clipPath id="clip0">
<rect width="80" height="86" fill="white"/>
</clipPath>
</defs>
</svg>
