<svg width="80" height="72" viewBox="0 0 80 72" fill="none" xmlns="http://www.w3.org/2000/svg">
<path d="M78.6668 16H60.8895L54.564 0.820312C54.3569 0.323568 53.8719 0 53.3335 0H30.6668C29.9305 0 29.3335 0.597005 29.3335 1.33333V6.66667C29.3335 7.403 29.9305 8 30.6668 8H48.4097L51.4097 16H41.3335C40.5972 16 40.0002 16.597 40.0002 17.3333V25.3333C40.0002 26.0697 40.5972 26.6667 41.3335 26.6667H42.743L45.3335 70.7454C45.3752 71.4505 45.9598 72.0013 46.6668 72H73.3335C74.0405 72.0013 74.6252 71.4505 74.6668 70.7454L77.2573 26.6667H78.6668C79.4032 26.6667 80.0002 26.0697 80.0002 25.3333V17.3333C80.0002 16.597 79.4032 16 78.6668 16ZM50.5828 6.19857C50.3875 5.67773 49.8895 5.33268 49.3335 5.33333H32.0002V2.66667H52.4442L58.0002 16H54.2573L50.5828 6.19857ZM72.8602 56H67.0321C69.342 53.9831 70.6668 51.0664 70.6668 48C70.6668 44.9336 69.342 42.0169 67.0321 40H73.8016L72.8602 56ZM68.0002 48C68.0002 52.418 64.4181 56 60.0002 56C55.5822 56 52.0002 52.418 52.0002 48C52.0002 43.582 55.5822 40 60.0002 40C64.4168 40.0046 67.9956 43.5833 68.0002 48ZM49.3335 48C49.3354 51.0658 50.6603 53.9818 52.9683 56H47.1401L46.1987 40H52.9683C50.6603 42.0182 49.3354 44.9342 49.3335 48ZM47.924 69.3333L47.2977 58.6667H72.7026L72.0763 69.3333H47.924ZM73.9591 37.3333H46.0412L45.4149 26.6667H74.5854L73.9591 37.3333ZM77.3335 24H42.6668V18.6667H77.3335V24Z" fill="#CDA97B"/>
<path d="M67.9998 64H63.9998C63.2635 64 62.6665 64.597 62.6665 65.3333C62.6665 66.0697 63.2635 66.6667 63.9998 66.6667H67.9998C68.7362 66.6667 69.3332 66.0697 69.3332 65.3333C69.3332 64.597 68.7362 64 67.9998 64Z" fill="#CDA97B"/>
<path d="M58.6667 64H57.3333C56.597 64 56 64.597 56 65.3333C56 66.0697 56.597 66.6667 57.3333 66.6667H58.6667C59.403 66.6667 60 66.0697 60 65.3333C60 64.597 59.403 64 58.6667 64Z" fill="#CDA97B"/>
<path d="M4 72H38.6667C40.8757 72 42.6667 70.209 42.6667 68V62.6667C42.6641 61.2969 41.9596 60.0241 40.8001 59.295C41.5124 58.084 41.5124 56.5827 40.8001 55.3718C41.9596 54.6426 42.6641 53.3698 42.6667 52C42.6667 44.7904 37.6797 37.3334 29.3333 37.3334H14.6667C5.03711 37.3334 0 44.7123 0 52C0.00260417 53.3698 0.707031 54.6426 1.86654 55.3718C1.1543 56.5827 1.1543 58.084 1.86654 59.295C0.707031 60.0241 0.00260417 61.2969 0 62.6667V68C0 70.209 1.79102 72 4 72ZM40 68C40 68.7364 39.403 69.3334 38.6667 69.3334H4C3.26367 69.3334 2.66667 68.7364 2.66667 68V62.6667C2.66667 61.9304 3.26367 61.3334 4 61.3334H14.4922L34.3229 66.6211C34.9342 66.7852 35.5768 66.4961 35.86 65.9291L38.1576 61.3334H38.6667C39.403 61.3334 40 61.9304 40 62.6667V68ZM4 57.3334C4 56.597 4.59701 56 5.33333 56H37.3333C38.0697 56 38.6667 56.597 38.6667 57.3334C38.6667 58.0697 38.0697 58.6667 37.3333 58.6667H5.33333C4.59701 58.6667 4 58.0697 4 57.3334ZM35.1758 61.3334L33.9603 63.7657L24.8411 61.3334H35.1758ZM14.6667 40H29.3333C36.6908 40 40 47.0176 40 52C40 52.7364 39.403 53.3334 38.6667 53.3334H4C3.26367 53.3334 2.66667 52.7364 2.66667 52C2.66667 47.1758 5.86654 40 14.6667 40Z" fill="#CDA97B"/>
<path d="M14.6668 45.3333H16.0002C16.7365 45.3333 17.3335 44.7363 17.3335 44C17.3335 43.2636 16.7365 42.6666 16.0002 42.6666H14.6668C13.9305 42.6666 13.3335 43.2636 13.3335 44C13.3335 44.7363 13.9305 45.3333 14.6668 45.3333Z" fill="#CDA97B"/>
<path d="M9.33333 50.6667H10.6667C11.403 50.6667 12 50.0697 12 49.3333C12 48.597 11.403 48 10.6667 48H9.33333C8.59701 48 8 48.597 8 49.3333C8 50.0697 8.59701 50.6667 9.33333 50.6667Z" fill="#CDA97B"/>
<path d="M16 49.3333C16 50.0697 16.597 50.6667 17.3333 50.6667H18.6667C19.403 50.6667 20 50.0697 20 49.3333C20 48.597 19.403 48 18.6667 48H17.3333C16.597 48 16 48.597 16 49.3333Z" fill="#CDA97B"/>
<path d="M25.3333 50.6667H26.6667C27.403 50.6667 28 50.0697 28 49.3333C28 48.597 27.403 48 26.6667 48H25.3333C24.597 48 24 48.597 24 49.3333C24 50.0697 24.597 50.6667 25.3333 50.6667Z" fill="#CDA97B"/>
<path d="M33.3333 50.6667H34.6667C35.403 50.6667 36 50.0697 36 49.3333C36 48.597 35.403 48 34.6667 48H33.3333C32.597 48 32 48.597 32 49.3333C32 50.0697 32.597 50.6667 33.3333 50.6667Z" fill="#CDA97B"/>
<path d="M21.3333 45.3333H22.6667C23.403 45.3333 24 44.7363 24 44C24 43.2636 23.403 42.6666 22.6667 42.6666H21.3333C20.597 42.6666 20 43.2636 20 44C20 44.7363 20.597 45.3333 21.3333 45.3333Z" fill="#CDA97B"/>
<path d="M27.9998 45.3333H29.3332C30.0695 45.3333 30.6665 44.7363 30.6665 44C30.6665 43.2636 30.0695 42.6666 29.3332 42.6666H27.9998C27.2635 42.6666 26.6665 43.2636 26.6665 44C26.6665 44.7363 27.2635 45.3333 27.9998 45.3333Z" fill="#CDA97B"/>
</svg>
