<svg width="80" height="80" viewBox="0 0 80 80" fill="none" xmlns="http://www.w3.org/2000/svg">
<path d="M53.3092 0.173157C51.0676 0.173157 49.2509 1.99058 49.2509 4.23215C49.2509 6.47371 51.0676 8.29047 53.3092 8.29047C55.5508 8.29047 57.3682 6.47371 57.3682 4.23215C57.3682 1.99058 55.5508 0.173157 53.3092 0.173157ZM53.3092 5.58514C52.562 5.58514 51.9562 4.97933 51.9562 4.23215C51.9562 3.48496 52.562 2.87915 53.3092 2.87915C54.0564 2.87915 54.6622 3.48496 54.6622 4.23215C54.6622 4.97933 54.0564 5.58514 53.3092 5.58514Z" fill="#CDA97B"/>
<path d="M41.133 6.93817C37.397 6.93817 34.3687 9.96656 34.3687 13.7025C34.3687 17.4384 37.397 20.4675 41.133 20.4675C44.8689 20.4675 47.8979 17.4384 47.8979 13.7025C47.8933 9.96854 44.8669 6.94214 41.133 6.93817ZM41.133 17.7615C38.8914 17.7615 37.074 15.944 37.074 13.7025C37.074 11.4609 38.8914 9.6435 41.133 9.6435C43.3745 9.6435 45.192 11.4609 45.192 13.7025C45.192 15.944 43.3745 17.7615 41.133 17.7615Z" fill="#CDA97B"/>
<path d="M22.1923 9.64349C19.2035 9.64349 16.7803 12.0667 16.7803 15.0555C16.7803 18.0442 19.2035 20.4675 22.1923 20.4675C25.181 20.4675 27.6036 18.0442 27.6036 15.0555C27.6036 12.0667 25.181 9.64349 22.1923 9.64349ZM22.1923 17.7615C20.6972 17.7615 19.4863 16.5499 19.4863 15.0555C19.4863 13.5611 20.6972 12.3495 22.1923 12.3495C23.6866 12.3495 24.8976 13.5611 24.8976 15.0555C24.8976 16.5499 23.686 17.7615 22.1923 17.7615Z" fill="#CDA97B"/>
<path d="M14.0743 0.173157C11.8328 0.173157 10.016 1.99058 10.016 4.23215C10.016 6.47371 11.8328 8.29047 14.0743 8.29047C16.3159 8.29047 18.1333 6.47371 18.1333 4.23215C18.1333 1.99058 16.3159 0.173157 14.0743 0.173157ZM14.0743 5.58514C13.3271 5.58514 12.7213 4.97933 12.7213 4.23215C12.7213 3.48496 13.3271 2.87915 14.0743 2.87915C14.8215 2.87915 15.4273 3.48496 15.4273 4.23215C15.4273 4.97933 14.8215 5.58514 14.0743 5.58514Z" fill="#CDA97B"/>
<path d="M46.9182 43.6375L49.4782 42.7668L58.2291 68.4856L55.6684 69.3563L46.9182 43.6375Z" fill="#CDA97B"/>
<path d="M39.9966 45.9848L42.5566 45.1134L51.3074 70.8322L48.7468 71.7036L39.9966 45.9848Z" fill="#CDA97B"/>
<path d="M53.8391 41.2777L56.3998 40.407L65.1473 66.1258L62.5873 66.9965L53.8391 41.2777Z" fill="#CDA97B"/>
<path d="M79.5903 50.1745L73.1972 31.3786C71.8422 27.3936 67.5137 25.2617 63.5287 26.6167C63.528 26.6173 63.5274 26.6173 63.5267 26.6173L59.8602 27.8646L59.6236 27.167C57.9 22.0893 52.387 19.3701 47.3099 21.0937C45.4826 21.7134 43.8819 22.8635 42.7119 24.3976C40.3448 24.2205 38.0332 25.1738 36.4787 26.9681C36.1867 26.8723 35.8887 26.7977 35.5862 26.7435C34.586 26.5697 33.5613 26.5975 32.5717 26.8248C28.6976 23.1159 22.5517 23.25 18.8428 27.124C17.5116 28.5147 16.6231 30.2707 16.2921 32.1674L16.1646 32.8941L12.3494 32.2268C8.20319 31.5014 4.25453 34.2742 3.52848 38.4204V38.4217L0.113618 57.9767C-0.605822 62.1229 2.16623 66.0689 6.30979 66.7983L10.1237 67.4648L10.0021 68.1605C8.151 68.5926 7.00082 70.4437 7.43288 72.2948C7.74734 73.6399 8.83542 74.6672 10.197 74.9037L39.0142 79.9431C39.2105 79.9781 39.4086 79.9959 39.6068 79.9959C40.9519 79.99 42.1701 79.2018 42.7271 77.9776C43.3289 78.1151 43.9578 78.0801 44.5412 77.8772L72.2399 68.4538C74.0402 67.8414 75.0027 65.8852 74.3903 64.085C73.9464 62.7796 72.7665 61.8652 71.3917 61.7609L71.1644 61.0943L74.829 59.847C78.8114 58.4867 80.9406 54.1602 79.5903 50.1745ZM57.5036 29.3193L57.978 30.7153L48.6689 33.8824L48.1899 32.4865L57.5036 29.3193ZM34.9896 30.3513C35.5597 30.1577 36.1609 30.0718 36.7628 30.0989C37.2576 30.1233 37.7247 29.8736 37.979 29.4495L37.9836 29.4508C39.0453 27.6935 41.09 26.7851 43.1056 27.1749C43.6539 27.2799 44.2109 27.0381 44.5075 26.5645C45.3544 25.2022 46.6486 24.1769 48.1681 23.6629C51.3365 22.5894 54.8221 23.9034 56.4929 26.8016L46.0322 30.3612C45.3267 30.6036 44.9508 31.372 45.1919 32.0782L47.2102 38.0134C47.4942 38.9555 46.9598 39.9491 46.0177 40.2332C45.1225 40.5027 44.1712 40.0343 43.8389 39.1603L43.1624 37.1823C42.9451 36.4675 42.1886 36.0645 41.4738 36.2825C40.759 36.5005 40.356 37.2563 40.574 37.9711C40.5826 37.9995 40.5919 38.0273 40.6024 38.055C40.9024 38.9925 40.3851 39.9953 39.4476 40.2946C38.534 40.5866 37.5529 40.1023 37.2285 39.1993L35.8755 35.242C35.6344 34.5358 34.8667 34.1579 34.1598 34.3977L31.6857 35.2394C31.5747 33.0559 32.9218 31.0628 34.9896 30.3513ZM34.2318 38.7996L32.8353 39.2739L32.3622 37.878L33.7568 37.4043L34.2318 38.7996ZM27.0705 26.9371L27.0744 26.9384C28.6587 27.2092 30.0982 28.0225 31.1486 29.2381C31.2193 29.3147 31.2999 29.3828 31.3865 29.4409C30.3321 30.4292 29.5783 31.6957 29.2123 33.0943L19.3357 31.3257C20.538 28.2062 23.7759 26.3689 27.0705 26.9371ZM18.7285 33.9789L29.0068 35.8161C29.0603 36.3274 29.1667 36.8315 29.3233 37.3204L18.4755 35.4263L18.7285 33.9789ZM6.76893 64.1326C4.09861 63.6582 2.31554 61.1141 2.77865 58.4424L6.20012 38.8861C6.66587 36.2131 9.21001 34.4235 11.883 34.8892C11.8856 34.8899 11.8883 34.8899 11.8909 34.8905L15.7035 35.5565L15.4504 37.0092L12.6658 36.5223C10.2248 36.0949 7.89929 37.728 7.47186 40.1691C7.4712 40.1711 7.4712 40.173 7.47053 40.175L4.41044 57.6728C3.98498 60.1152 5.62074 62.4407 8.06313 62.8668L10.8477 63.3537L10.5947 64.8064L6.76893 64.1326ZM14.9834 39.6749L11.3102 60.6827L8.5236 60.1958C7.5551 60.026 6.90701 59.1031 7.07679 58.1346C7.07679 58.1346 7.07745 58.1346 7.07745 58.1339L10.1375 40.6355C10.31 39.6676 11.2309 39.0215 12.1994 39.1874L14.9834 39.6749ZM40.3355 76.6782C40.2648 77.0792 39.8823 77.3474 39.4813 77.2767V77.2794L10.6634 72.238C10.2604 72.1818 9.97899 71.8092 10.0351 71.4062C10.092 71.0026 10.4646 70.7212 10.8676 70.778C10.8847 70.7799 10.9013 70.7833 10.9178 70.7866C11.6544 70.9147 12.3547 70.4225 12.4835 69.6866L18.0117 38.0808L30.3096 40.2318L39.7383 67.955L38.6357 74.2582C38.5736 74.6117 38.6549 74.975 38.8616 75.269C39.0684 75.5623 39.3829 75.7619 39.737 75.8233C40.138 75.894 40.4062 76.2765 40.3355 76.6782ZM71.8297 64.957C71.9612 65.3415 71.7563 65.7597 71.3719 65.8912C71.3712 65.8912 71.3712 65.8919 71.3712 65.8919L43.6724 75.3159C43.2866 75.4481 42.8678 75.2426 42.7356 74.8568C42.6035 74.471 42.809 74.0521 43.1948 73.92C43.9023 73.6795 44.2809 72.9112 44.0404 72.2036V72.203L33.708 41.8286L35.3206 41.2803C36.7793 43.2734 39.5771 43.7068 41.5696 42.2481C41.8121 42.0711 42.036 41.8696 42.2382 41.6469C42.6114 42.0453 43.0527 42.3723 43.5423 42.6135C45.766 43.7075 48.4561 42.7918 49.5508 40.5681C50.076 39.5005 50.156 38.2684 49.7728 37.142L49.535 36.445L58.8454 33.2766L69.1792 63.651C69.4197 64.3585 70.1873 64.7377 70.8955 64.4979C70.8962 64.4972 70.8969 64.4972 70.8975 64.4966C71.2813 64.3678 71.6982 64.5732 71.8297 64.957ZM62.0806 34.3805L64.7562 33.4702C65.687 33.153 66.6991 33.6505 67.0162 34.5814C67.0162 34.582 67.0169 34.5833 67.0169 34.5847L72.7387 51.4007C73.0545 52.3322 72.5564 53.3436 71.6255 53.6614L68.9493 54.5717L62.0806 34.3805ZM73.9603 57.2804L70.2957 58.5277L69.8154 57.1317L72.4923 56.2207C74.8369 55.4193 76.0902 52.8726 75.2948 50.5266L69.5716 33.7093C68.7696 31.3667 66.2241 30.1134 63.8782 30.9062L61.2026 31.8166L60.7289 30.422L64.4034 29.1799C66.9746 28.3053 69.7678 29.6801 70.6432 32.2513L77.0316 51.0433C77.9023 53.6132 76.5282 56.403 73.9603 57.2804Z" fill="#CDA97B"/>
<path d="M24.0369 72.7778L28.7175 46.0184L31.3832 46.4848L26.7019 73.2442L24.0369 72.7778Z" fill="#CDA97B"/>
<path d="M31.2531 74.0449L33.8771 58.13L36.5461 58.57L33.9214 74.4849L31.2531 74.0449Z" fill="#CDA97B"/>
<path d="M16.8457 71.512L21.5264 44.7501L24.192 45.2158L19.5107 71.9778L16.8457 71.512Z" fill="#CDA97B"/>
</svg>
