<svg width="80" height="80" viewBox="0 0 80 80" fill="none" xmlns="http://www.w3.org/2000/svg">
<path d="M71.3054 52.2494C71.2281 52.12 71.1466 51.9961 71.0654 51.8867C70.2574 50.7573 69.056 50.0108 67.6854 49.7853C66.3213 49.56 64.9387 49.8812 63.8134 50.6894L48.9066 61.3334H33.3333C32.5987 61.3334 32.0001 60.7361 32.0001 60.0002C32.0001 59.2642 32.5987 58.6669 33.3333 58.6669H42.0001C44.5733 58.6669 46.6668 56.5736 46.6668 54.0002C46.6668 53.9855 46.6654 53.8628 46.6641 53.8495C46.5815 51.2775 44.4121 49.2722 41.8935 49.3336H24.5482C23.0108 49.3469 21.5135 49.8977 20.3335 50.8816L13.8135 56.3083C13.5094 56.563 13.3335 56.9377 13.3335 57.3336V73.3336C13.3335 74.0709 13.9308 74.6669 14.6668 74.6669H47.7482C49.9135 74.6642 52.0229 73.9016 53.6896 72.5216L69.8537 59.1656C72.0495 57.6012 72.6868 54.5641 71.3054 52.2494ZM68.2321 57.052L51.9907 70.4667C50.7987 71.4534 49.2907 71.9973 47.7466 72H16.0001V57.9586L22.0413 52.9292C22.7507 52.3386 23.648 52.0078 24.5601 51.9998L41.936 51.9986C43.0413 51.9972 43.964 52.8333 44.0001 54C44.0001 55.1027 43.1027 56 42.0001 56H33.3333C31.128 56 29.3333 57.7947 29.3333 60C29.3333 62.2053 31.128 64 33.3333 64H49.3334C49.6107 64 49.8813 63.9133 50.1107 63.752L65.3666 52.8573C65.916 52.4627 66.584 52.3094 67.2534 52.4159C67.9213 52.5266 68.5054 52.8892 68.9066 53.4492C68.9466 53.5039 68.9826 53.5598 69.0173 53.6172C69.6921 54.7467 69.3787 56.2306 68.2321 57.052Z" fill="#CDA97B"/>
<path d="M14.6267 54.6667H0V57.3335H13.2933V77.3335H0V80H14.6267C15.3627 80 15.96 79.4041 15.96 78.6667V56C15.96 55.2627 15.3627 54.6667 14.6267 54.6667Z" fill="#CDA97B"/>
<path d="M6.66675 66.6667C4.46144 66.6667 2.66675 68.4614 2.66675 70.6667C2.66675 72.8721 4.46144 74.6667 6.66675 74.6667C8.87206 74.6667 10.6667 72.8721 10.6667 70.6667C10.6667 68.4614 8.87206 66.6667 6.66675 66.6667ZM6.66675 72C5.93206 72 5.33347 71.4027 5.33347 70.6667C5.33347 69.9308 5.93206 69.3335 6.66675 69.3335C7.40144 69.3335 8.00003 69.9308 8.00003 70.6667C8.00003 71.4027 7.40144 72 6.66675 72Z" fill="#CDA97B"/>
<path d="M78.6667 41.3333H1.33328C0.597344 41.3333 0 41.9292 0 42.6665C0 47.8119 4.18672 51.9998 9.33328 51.9998H70.6666C75.8119 51.9998 79.9998 47.8119 79.9998 42.6665C80 41.9293 79.4041 41.3333 78.6667 41.3333ZM70.6667 49.3333H9.33328C6.11328 49.3333 3.42 47.0386 2.80125 44H77.1986C76.58 47.0386 73.8867 49.3333 70.6667 49.3333Z" fill="#CDA97B"/>
<path d="M40 6.66675C20.8853 6.66675 5.33325 22.2188 5.33325 41.3335V42.6667C5.33325 43.4041 5.9306 44 6.66653 44H73.3332C74.0706 44 74.6665 43.4041 74.6665 42.6667V41.3335C74.6667 22.2186 59.1159 6.66675 40 6.66675ZM7.99997 41.3333C7.99997 23.6892 22.3559 9.33331 40 9.33331C57.644 9.33331 71.9999 23.6892 71.9999 41.3333H7.99997Z" fill="#CDA97B"/>
<path d="M18.0694 21.876C17.1374 22.9239 16.2735 24.0454 15.5015 25.2107L17.7241 26.6839C18.4282 25.6225 19.2147 24.5999 20.0627 23.6466L18.0694 21.876Z" fill="#CDA97B"/>
<path d="M40 12C32.5121 12.0041 25.3827 14.8333 19.9268 19.9627L21.7535 21.9053C26.7135 17.2412 33.1947 14.6706 40.0014 14.6667L40 12Z" fill="#CDA97B"/>
<path d="M44 0H36V2.66672H44V0Z" fill="#CDA97B"/>
<path d="M41.3335 1.33331H38.6667V8.00003H41.3335V1.33331Z" fill="#CDA97B"/>
</svg>
