<svg width="80" height="69" viewBox="0 0 80 69" fill="none" xmlns="http://www.w3.org/2000/svg">
<path d="M23.75 24H28.75C29.4412 24 30 23.4412 30 22.75V17.75C30 17.0588 29.4412 16.5 28.75 16.5H23.75C23.0588 16.5 22.5 17.0588 22.5 17.75V22.75C22.5 23.4412 23.0588 24 23.75 24ZM25 19H27.5V21.5H25V19Z" fill="#CDA97B"/>
<path d="M37.5 24H42.5C43.1912 24 43.75 23.4412 43.75 22.75V17.75C43.75 17.0588 43.1912 16.5 42.5 16.5H37.5C36.8088 16.5 36.25 17.0588 36.25 17.75V22.75C36.25 23.4412 36.8088 24 37.5 24ZM38.75 19H41.25V21.5H38.75V19Z" fill="#CDA97B"/>
<path d="M51.25 24H56.25C56.9412 24 57.5 23.4412 57.5 22.75V17.75C57.5 17.0588 56.9412 16.5 56.25 16.5H51.25C50.5588 16.5 50 17.0588 50 17.75V22.75C50 23.4412 50.5588 24 51.25 24ZM52.5 19H55V21.5H52.5V19Z" fill="#CDA97B"/>
<path d="M23.75 34H28.75C29.4412 34 30 33.4412 30 32.75V27.75C30 27.0588 29.4412 26.5 28.75 26.5H23.75C23.0588 26.5 22.5 27.0588 22.5 27.75V32.75C22.5 33.4412 23.0588 34 23.75 34ZM25 29H27.5V31.5H25V29Z" fill="#CDA97B"/>
<path d="M37.5 34H42.5C43.1912 34 43.75 33.4412 43.75 32.75V27.75C43.75 27.0588 43.1912 26.5 42.5 26.5H37.5C36.8088 26.5 36.25 27.0588 36.25 27.75V32.75C36.25 33.4412 36.8088 34 37.5 34ZM38.75 29H41.25V31.5H38.75V29Z" fill="#CDA97B"/>
<path d="M51.25 34H56.25C56.9412 34 57.5 33.4412 57.5 32.75V27.75C57.5 27.0588 56.9412 26.5 56.25 26.5H51.25C50.5588 26.5 50 27.0588 50 27.75V32.75C50 33.4412 50.5588 34 51.25 34ZM52.5 29H55V31.5H52.5V29Z" fill="#CDA97B"/>
<path d="M23.75 44H28.75C29.4412 44 30 43.4412 30 42.75V37.75C30 37.0588 29.4412 36.5 28.75 36.5H23.75C23.0588 36.5 22.5 37.0588 22.5 37.75V42.75C22.5 43.4412 23.0588 44 23.75 44ZM25 39H27.5V41.5H25V39Z" fill="#CDA97B"/>
<path d="M37.5 44H42.5C43.1912 44 43.75 43.4412 43.75 42.75V37.75C43.75 37.0588 43.1912 36.5 42.5 36.5H37.5C36.8088 36.5 36.25 37.0588 36.25 37.75V42.75C36.25 43.4412 36.8088 44 37.5 44ZM38.75 39H41.25V41.5H38.75V39Z" fill="#CDA97B"/>
<path d="M51.25 44H56.25C56.9412 44 57.5 43.4412 57.5 42.75V37.75C57.5 37.0588 56.9412 36.5 56.25 36.5H51.25C50.5588 36.5 50 37.0588 50 37.75V42.75C50 43.4412 50.5588 44 51.25 44ZM52.5 39H55V41.5H52.5V39Z" fill="#CDA97B"/>
<path d="M72.5 52.75C76.0413 52.1525 78.75 49.0725 78.75 45.3625C78.75 41.2262 75.3863 37.8625 71.25 37.8625C67.1137 37.8625 63.75 41.2262 63.75 45.3625C63.75 49.0713 66.4587 52.1512 70 52.75V65.25H62.5V14H63.75C64.4404 14 65 13.4404 65 12.75C65 12.0596 64.4404 11.5 63.75 11.5H52.5V7.75C52.5 7.05875 51.9412 6.5 51.25 6.5H28.75C28.0588 6.5 27.5 7.05875 27.5 7.75V11.5H16.25C15.5596 11.5 15 12.0596 15 12.75C15 13.4404 15.5596 14 16.25 14H17.5V65.25H10V52.75C13.5413 52.1525 16.25 49.0725 16.25 45.3625C16.25 41.2262 12.8862 37.8625 8.75 37.8625C4.61375 37.8625 1.25 41.2262 1.25 45.3625C1.25 49.0713 3.95875 52.1512 7.5 52.75V65.25H2.5C1.80964 65.25 1.25 65.8096 1.25 66.5C1.25 67.1904 1.80964 67.75 2.5 67.75H77.5C78.1904 67.75 78.75 67.1904 78.75 66.5C78.75 65.8096 78.1904 65.25 77.5 65.25H72.5V52.75ZM66.25 45.3625C66.25 42.605 68.4925 40.3625 71.25 40.3625C74.0075 40.3625 76.25 42.605 76.25 45.3625C76.25 47.6862 74.6513 49.6263 72.5 50.185V47.13L73.75 45.88C74.2381 45.3919 74.2381 44.6006 73.75 44.1125C73.2619 43.6244 72.4706 43.6244 71.9825 44.1125L71.25 44.845L70.5175 44.1125C70.0294 43.6244 69.2381 43.6244 68.75 44.1125C68.2619 44.6006 68.2619 45.3919 68.75 45.88L70 47.13V50.185C67.8487 49.6263 66.25 47.6862 66.25 45.3625ZM3.75 45.3625C3.75 42.605 5.9925 40.3625 8.75 40.3625C11.5075 40.3625 13.75 42.605 13.75 45.3625C13.75 47.6862 12.1512 49.6263 10 50.185V47.13L11.25 45.88C11.7381 45.3919 11.7381 44.6006 11.25 44.1125C10.7619 43.6244 9.97058 43.6244 9.4825 44.1125L8.75 44.845L8.0175 44.1125C7.52942 43.6244 6.73808 43.6244 6.25 44.1125C5.76192 44.6006 5.76192 45.3919 6.25 45.88L7.5 47.13V50.185C5.34875 49.6263 3.75 47.6862 3.75 45.3625ZM30 9H50V11.5H30V9ZM20 14H60V65.25H55V52.75H56.25C56.9404 52.75 57.5 52.1904 57.5 51.5C57.5 50.8096 56.9404 50.25 56.25 50.25H23.75C23.0596 50.25 22.5 50.8096 22.5 51.5C22.5 52.1904 23.0596 52.75 23.75 52.75H25V65.25H20V14ZM47.5 65.25H43.75V57.75H47.5V65.25ZM48.75 55.25H42.5C41.8088 55.25 41.25 55.8088 41.25 56.5V65.25H38.75V56.5C38.75 55.8088 38.1912 55.25 37.5 55.25H31.25C30.5588 55.25 30 55.8088 30 56.5V65.25H27.5V52.75H52.5V65.25H50V56.5C50 55.8088 49.4412 55.25 48.75 55.25ZM36.25 65.25H32.5V57.75H36.25V65.25Z" fill="#CDA97B"/>
</svg>
