<svg width="80" height="101" viewBox="0 0 80 101" fill="none" xmlns="http://www.w3.org/2000/svg">
<path d="M59.9996 9C57.2381 9 55 11.239 55 14.0004C55 16.7619 57.2381 19 59.9996 19C62.761 19 65 16.7619 65 14.0004C65 11.239 62.761 9 59.9996 9ZM59.9996 15.6672C59.0791 15.6672 58.3328 14.9209 58.3328 14.0004C58.3328 13.0799 59.0791 12.3336 59.9996 12.3336C60.9201 12.3336 61.6664 13.0799 61.6664 14.0004C61.6664 14.9209 60.9201 15.6672 59.9996 15.6672Z" fill="#CDA97B"/>
<path d="M21.0004 27C17.1345 27 14 30.1343 14 34C14 37.8657 17.1345 41 21.0004 41C24.8664 41 28 37.8657 28 34C28 30.1343 24.8664 27 21.0004 27ZM21.0004 37.5C19.0666 37.5 17.5002 35.9329 17.5002 34C17.5002 32.0671 19.0666 30.5 21.0004 30.5C22.9334 30.5 24.4998 32.0671 24.4998 34C24.4998 35.9329 22.9326 37.5 21.0004 37.5Z" fill="#CDA97B"/>
<path d="M43.9996 16C39.0291 16 35 20.0291 35 24.9996C35 29.97 39.0291 34 43.9996 34C48.97 34 53 29.97 53 24.9996C52.9938 20.0317 48.9674 16.0053 43.9996 16ZM43.9996 30.3998C41.0173 30.3998 38.5993 27.9818 38.5993 24.9996C38.5993 22.0173 41.0173 19.5993 43.9996 19.5993C46.9818 19.5993 49.3998 22.0173 49.3998 24.9996C49.3998 27.9818 46.9818 30.3998 43.9996 30.3998Z" fill="#CDA97B"/>
<path d="M10.9996 17C8.23814 17 6 19.239 6 22.0004C6 24.7619 8.23814 27 10.9996 27C13.761 27 16 24.7619 16 22.0004C16 19.239 13.761 17 10.9996 17ZM10.9996 23.6672C10.0791 23.6672 9.33279 22.9209 9.33279 22.0004C9.33279 21.0799 10.0791 20.3336 10.9996 20.3336C11.9201 20.3336 12.6664 21.0799 12.6664 22.0004C12.6664 22.9209 11.9201 23.6672 10.9996 23.6672Z" fill="#CDA97B"/>
<path d="M46.9182 64.6375L49.4782 63.7668L58.229 89.4856L55.6684 90.3563L46.9182 64.6375Z" fill="#CDA97B"/>
<path d="M39.9966 66.9848L42.5566 66.1134L51.3075 91.8322L48.7468 92.7036L39.9966 66.9848Z" fill="#CDA97B"/>
<path d="M53.8391 62.2777L56.3998 61.407L65.1473 87.1258L62.5873 87.9965L53.8391 62.2777Z" fill="#CDA97B"/>
<path d="M79.5903 71.1745L73.1972 52.3786C71.8423 48.3936 67.5137 46.2617 63.5287 47.6167C63.5281 47.6173 63.5274 47.6173 63.5268 47.6173L59.8602 48.8646L59.6237 48.167C57.9001 43.0893 52.387 40.3701 47.31 42.0937C45.4826 42.7134 43.8819 43.8635 42.7119 45.3976C40.3448 45.2205 38.0332 46.1738 36.4787 47.9681C36.1867 47.8723 35.8888 47.7977 35.5862 47.7435C34.586 47.5697 33.5613 47.5975 32.5717 47.8248C28.6977 44.1159 22.5517 44.25 18.8429 48.124C17.5117 49.5147 16.6231 51.2707 16.2921 53.1674L16.1646 53.8941L12.3494 53.2268C8.20322 52.5014 4.25456 55.2742 3.52851 59.4204V59.4217L0.113648 78.9767C-0.605792 83.1229 2.16627 87.0689 6.30982 87.7983L10.1237 88.4648L10.0021 89.1605C8.15103 89.5926 7.00085 91.4437 7.43291 93.2948C7.74737 94.6399 8.83545 95.6672 10.197 95.9037L39.0143 100.943C39.2105 100.978 39.4087 100.996 39.6069 100.996C40.9519 100.99 42.1702 100.202 42.7271 98.9776C43.3289 99.1151 43.9579 99.0801 44.5412 98.8772L72.24 89.4538C74.0402 88.8414 75.0028 86.8852 74.3904 85.085C73.9464 83.7796 72.7665 82.8652 71.3917 82.7609L71.1644 82.0943L74.829 80.847C78.8114 79.4867 80.9406 75.1602 79.5903 71.1745ZM57.5037 50.3193L57.978 51.7153L48.6689 54.8824L48.1899 53.4865L57.5037 50.3193ZM34.9896 51.3513C35.5598 51.1577 36.161 51.0718 36.7628 51.0989C37.2576 51.1233 37.7247 50.8736 37.979 50.4495L37.9837 50.4508C39.0453 48.6935 41.09 47.7851 43.1056 48.1749C43.654 48.2799 44.2109 48.0381 44.5075 47.5645C45.3545 46.2022 46.6487 45.1769 48.1681 44.6629C51.3366 43.5894 54.8221 44.9034 56.4929 47.8016L46.0323 51.3612C45.3267 51.6036 44.9508 52.372 45.1919 53.0782L47.2102 59.0134C47.4943 59.9555 46.9598 60.9491 46.0177 61.2332C45.1226 61.5027 44.1712 61.0343 43.8389 60.1603L43.1624 58.1823C42.9451 57.4675 42.1887 57.0645 41.4738 57.2825C40.759 57.5005 40.356 58.2563 40.5741 58.9711C40.5826 58.9995 40.5919 59.0273 40.6025 59.055C40.9024 59.9925 40.3851 60.9953 39.4477 61.2946C38.534 61.5866 37.5529 61.1023 37.2286 60.1993L35.8756 56.242C35.6344 55.5358 34.8668 55.1579 34.1599 55.3977L31.6858 56.2394C31.5748 54.0559 32.9218 52.0628 34.9896 51.3513ZM34.2319 59.7996L32.8353 60.2739L32.3623 58.878L33.7569 58.4043L34.2319 59.7996ZM27.0705 47.9371L27.0745 47.9384C28.6587 48.2092 30.0982 49.0225 31.1487 50.2381C31.2193 50.3147 31.2999 50.3828 31.3865 50.4409C30.3321 51.4292 29.5783 52.6957 29.2123 54.0943L19.3357 52.3257C20.5381 49.2062 23.7759 47.3689 27.0705 47.9371ZM18.7286 54.9789L29.0069 56.8161C29.0604 57.3274 29.1667 57.8315 29.3233 58.3204L18.4756 56.4263L18.7286 54.9789ZM6.76896 85.1326C4.09864 84.6582 2.31557 82.1141 2.77868 79.4424L6.20015 59.8861C6.6659 57.2131 9.21004 55.4235 11.883 55.8892C11.8856 55.8899 11.8883 55.8899 11.8909 55.8905L15.7035 56.5565L15.4505 58.0092L12.6659 57.5223C10.2248 57.0949 7.89932 58.728 7.47189 61.1691C7.47123 61.1711 7.47123 61.173 7.47057 61.175L4.41047 78.6728C3.98501 81.1152 5.62077 83.4407 8.06316 83.8668L10.8478 84.3537L10.5947 85.8064L6.76896 85.1326ZM14.9834 60.6749L11.3102 81.6827L8.52363 81.1958C7.55513 81.026 6.90704 80.1031 7.07682 79.1346C7.07682 79.1346 7.07748 79.1346 7.07748 79.1339L10.1376 61.6355C10.31 60.6676 11.2309 60.0215 12.1994 60.1874L14.9834 60.6749ZM40.3356 97.6782C40.2649 98.0792 39.8824 98.3474 39.4813 98.2767V98.2794L10.6635 93.238C10.2605 93.1818 9.97902 92.8092 10.0352 92.4062C10.092 92.0026 10.4646 91.7212 10.8676 91.778C10.8848 91.7799 10.9013 91.7833 10.9178 91.7866C11.6544 91.9147 12.3547 91.4225 12.4835 90.6866L18.0118 59.0808L30.3096 61.2318L39.7383 88.955L38.6357 95.2582C38.5736 95.6117 38.6549 95.975 38.8617 96.269C39.0684 96.5623 39.3829 96.7619 39.737 96.8233C40.138 96.894 40.4062 97.2765 40.3356 97.6782ZM71.8297 85.957C71.9612 86.3415 71.7564 86.7597 71.3719 86.8912C71.3712 86.8912 71.3712 86.8919 71.3712 86.8919L43.6725 96.3159C43.2866 96.4481 42.8678 96.2426 42.7357 95.8568C42.6035 95.471 42.809 95.0521 43.1948 94.92C43.9024 94.6795 44.2809 93.9112 44.0404 93.2036V93.203L33.708 62.8286L35.3206 62.2803C36.7793 64.2734 39.5771 64.7068 41.5696 63.2481C41.8121 63.0711 42.0361 62.8696 42.2382 62.6469C42.6115 63.0453 43.0528 63.3723 43.5423 63.6135C45.766 64.7075 48.4562 63.7918 49.5509 61.5681C50.0761 60.5005 50.156 59.2684 49.7728 58.142L49.535 57.445L58.8454 54.2766L69.1792 84.651C69.4197 85.3585 70.1874 85.7377 70.8956 85.4979C70.8962 85.4972 70.8969 85.4972 70.8975 85.4966C71.2814 85.3678 71.6982 85.5732 71.8297 85.957ZM62.0806 55.3805L64.7562 54.4702C65.6871 54.153 66.6992 54.6505 67.0163 55.5814C67.0163 55.582 67.0169 55.5833 67.0169 55.5847L72.7388 72.4007C73.0545 73.3322 72.5564 74.3436 71.6256 74.6614L68.9493 75.5717L62.0806 55.3805ZM73.9603 78.2804L70.2957 79.5277L69.8154 78.1317L72.4923 77.2207C74.837 76.4193 76.0902 73.8726 75.2948 71.5266L69.5716 54.7093C68.7696 52.3667 66.2242 51.1134 63.8782 51.9062L61.2026 52.8166L60.7289 51.422L64.4034 50.1799C66.9746 49.3053 69.7678 50.6801 70.6432 53.2513L77.0316 72.0433C77.9023 74.6132 76.5282 77.403 73.9603 78.2804Z" fill="#CDA97B"/>
<path d="M24.0368 93.7778L28.7175 67.0184L31.3832 67.4848L26.7019 94.2442L24.0368 93.7778Z" fill="#CDA97B"/>
<path d="M31.253 95.0449L33.8771 79.13L36.5461 79.57L33.9214 95.4849L31.253 95.0449Z" fill="#CDA97B"/>
<path d="M16.8457 92.512L21.5264 65.7501L24.1921 66.2158L19.5108 92.9778L16.8457 92.512Z" fill="#CDA97B"/>
</svg>
