<svg width="66" height="65" viewBox="0 0 66 65" fill="none" xmlns="http://www.w3.org/2000/svg">
<g clip-path="url(#clip0)">
<path d="M58.3571 1.06177C57.5988 0.334762 56.6035 -0.0406439 55.5542 0.00349232C46.1402 0.403198 36.7605 2.93731 28.4297 7.33309C20.1004 11.7279 12.7187 18.0359 7.08314 25.5752C6.45382 26.4168 6.20239 27.4518 6.37547 28.4887C6.54904 29.5262 7.12281 30.4238 7.99165 31.0159L13.1035 34.4992L13.104 34.4997L16.139 36.5676V39.2163C16.139 39.9175 16.7073 40.4859 17.4085 40.4859C18.1098 40.4859 18.6781 39.9175 18.6781 39.2163V35.8967C18.6781 35.4766 18.4703 35.0839 18.1236 34.8473L15.5975 33.126C16.7172 31.5674 17.9223 30.0737 19.2032 28.6444C20.5199 27.1751 21.9223 25.7756 23.4026 24.4699C24.8274 23.2132 26.3112 22.026 27.8604 20.9256C29.4701 19.7825 31.1443 18.7371 32.8691 17.7765C34.5969 16.8135 36.3891 15.9575 38.218 15.2037C38.4471 15.1095 38.6772 15.0163 38.9078 14.9245C38.8955 15.8806 39.0819 16.8363 39.4707 17.7403C40.1992 19.4339 41.5436 20.7426 43.2565 21.4245C44.0832 21.7542 44.9481 21.9184 45.8119 21.9184C46.7378 21.9184 47.6627 21.7294 48.5385 21.353C50.232 20.624 51.5402 19.2796 52.2226 17.5672C52.905 15.8544 52.8792 13.9788 52.1507 12.2853C52.0535 12.0586 51.9429 11.8385 51.8224 11.6237C53.5388 11.4115 55.2655 11.285 56.9943 11.2434V43.1603C54.9328 43.8675 53.3116 45.5323 52.6531 47.6101C51.9241 49.9107 52.482 52.4879 54.0897 54.2856C54.8738 55.1624 55.882 55.8284 56.9943 56.2093V61.3345L51.0275 57.2685C50.6382 57.0037 50.1348 56.975 49.7188 57.1951C49.3032 57.4153 49.0428 57.8473 49.0428 58.3179V61.2611C49.0428 61.9043 48.5196 62.427 47.8769 62.427C47.2342 62.427 46.711 61.9038 46.711 61.2611V54.9987C46.711 54.843 46.6823 54.6913 46.6292 54.5499C48.417 52.5846 48.955 49.6925 47.87 47.1708C46.3664 43.6751 42.2984 42.0544 38.8022 43.5585C37.3566 44.1804 36.1778 45.2853 35.4459 46.651L33.7275 45.4802C33.3387 45.2154 32.8354 45.1871 32.4193 45.4068C32.0033 45.627 31.7429 46.0589 31.7429 46.529V51.4118C31.7429 52.0545 31.2202 52.5772 30.5775 52.5772C29.9348 52.5772 29.4116 52.054 29.4116 51.4118V43.2104C29.4116 42.7904 29.2038 42.3976 28.8572 42.161L22.994 38.1665C22.6057 37.9017 22.1019 37.8729 21.6858 38.0931C21.2697 38.3128 21.0099 38.7452 21.0099 39.2153V56.184C21.0099 56.8272 20.4867 57.3499 19.844 57.3499C19.2013 57.3499 18.6786 56.8267 18.6786 56.184V49.3731C18.6786 48.6719 18.1098 48.1036 17.4085 48.1036C16.7073 48.1036 16.139 48.6719 16.139 49.3731V56.184C16.139 58.2271 17.8013 59.8889 19.844 59.8889C21.8866 59.8889 23.5489 58.2271 23.5489 56.184V41.617L26.8725 43.8814V51.4118C26.8725 53.4545 28.5343 55.1163 30.5775 55.1163C32.6202 55.1163 34.2825 53.4545 34.2825 51.4118V48.9308L35.3338 49.6474C35.3343 49.6474 35.3343 49.6478 35.3348 49.6478L44.0301 55.573L44.172 55.6697V61.2611C44.172 63.3038 45.8338 64.9661 47.8769 64.9661C49.9196 64.9661 51.5819 63.3038 51.5819 61.2611V60.7186L57.5492 64.7851C58.3774 65.3494 59.5339 64.7335 59.5339 63.7357V3.81855C59.5334 2.76771 59.1158 1.78878 58.3571 1.06177ZM37.558 48.0902C38.0013 47.1078 38.7898 46.3277 39.8055 45.8908C42.0157 44.9401 44.5865 45.9642 45.5377 48.174C46.2409 49.8095 45.866 51.6915 44.6654 52.9333L39.9681 49.7326L37.558 48.0902ZM8.88032 28.0712C8.8223 27.7235 8.90661 27.3774 9.11687 27.0952C14.5283 19.8559 21.6164 13.7988 29.6144 9.57858C37.615 5.35737 46.6213 2.92392 55.6613 2.54058C55.6801 2.53959 55.699 2.53909 55.7173 2.53909C56.0476 2.53909 56.3595 2.66407 56.6 2.89466C56.8539 3.13865 56.9938 3.46645 56.9938 3.81805V8.70181C54.964 8.74792 52.9362 8.9086 50.9243 9.17838C50.3505 9.25574 49.7758 9.33657 49.205 9.4308C46.1353 9.93911 43.0914 10.7147 40.158 11.7363C38.0826 12.4588 36.0524 13.3282 34.0752 14.2858C32.0687 15.2568 30.1213 16.3671 28.2551 17.5861C26.4198 18.7852 24.6568 20.0875 22.9717 21.4894C21.2717 22.9043 19.6679 24.4312 18.1484 26.0374C16.6567 27.6149 15.2682 29.2926 13.9768 31.0367C13.8152 31.2549 13.655 31.4741 13.4968 31.6943L9.42137 28.9172C9.13076 28.7193 8.93835 28.4188 8.88032 28.0712ZM49.8636 16.627C49.4321 17.7096 48.6054 18.5596 47.5347 19.0203C46.4641 19.4805 45.2788 19.4968 44.1963 19.0654C43.1137 18.6344 42.2637 17.8073 41.803 16.7366C41.4196 15.8449 41.3448 14.8729 41.5798 13.9476C43.4846 13.3088 45.4286 12.7718 47.3959 12.3631C47.9335 12.2515 48.4715 12.1449 49.0116 12.0482C49.3488 12.4102 49.6191 12.8253 49.8179 13.2885C50.2786 14.3592 50.2945 15.5444 49.8636 16.627ZM55.2283 51.4093C54.7676 50.3391 54.7518 49.1534 55.1827 48.0708C55.5418 47.1698 56.175 46.4304 56.9943 45.9419V53.4287C56.2187 52.965 55.5968 52.2658 55.2283 51.4093Z" fill="#CDA97B"/>
<path d="M27.2916 37.5307C28.1182 37.86 28.9831 38.0241 29.847 38.0241C30.7729 38.0241 31.6977 37.8357 32.5735 37.4588C36.0692 35.9547 37.6899 31.8867 36.1858 28.391C35.4573 26.6975 34.1128 25.3888 32.4 24.7069C30.6876 24.0245 28.8115 24.0498 27.118 24.7788C25.4244 25.5073 24.1162 26.8517 23.4339 28.5646C22.7515 30.277 22.7773 32.153 23.5058 33.8466C24.2343 35.5401 25.5787 36.8483 27.2916 37.5307ZM25.7929 29.5043C26.2239 28.4218 27.051 27.5718 28.1217 27.1111C28.6752 26.873 29.2598 26.7535 29.845 26.7535C30.391 26.7535 30.9375 26.8577 31.4602 27.0659C32.5428 27.4969 33.3928 28.3241 33.8535 29.3943C34.8041 31.604 33.7796 34.1754 31.5698 35.126C30.4996 35.5867 29.3139 35.6026 28.2313 35.1716C27.1487 34.7402 26.2987 33.913 25.8385 32.8428C25.3778 31.7722 25.3615 30.5864 25.7929 29.5043Z" fill="#CDA97B"/>
<path d="M46.0976 40.1322C46.9243 40.462 47.7891 40.6261 48.653 40.6261C49.5789 40.6261 50.5038 40.4372 51.3796 40.0603C53.0731 39.3318 54.3813 37.9874 55.0637 36.275C55.7461 34.5621 55.7208 32.6866 54.9918 30.9925C54.2633 29.2995 52.9189 27.9908 51.2065 27.3084C49.4936 26.626 47.6176 26.6518 45.9245 27.3803C44.231 28.1088 42.9222 29.4532 42.2399 31.1661C41.558 32.879 41.5833 34.7545 42.3118 36.4481C43.0403 38.1416 44.3847 39.4503 46.0976 40.1322ZM44.5989 32.1059C45.0299 31.0233 45.8571 30.1738 46.9277 29.7131C47.4812 29.475 48.0659 29.3555 48.651 29.3555C49.197 29.3555 49.7435 29.4592 50.2662 29.6675C51.3488 30.0989 52.1988 30.9261 52.6595 31.9963C53.1197 33.0669 53.1361 34.2527 52.7046 35.3352C52.2732 36.4173 51.4465 37.2673 50.3758 37.728C49.3056 38.1882 48.1199 38.2046 47.0373 37.7732C45.9548 37.3422 45.1048 36.515 44.6441 35.4448C44.1839 34.3742 44.168 33.1884 44.5989 32.1059Z" fill="#CDA97B"/>
<path d="M17.4095 45.5649C17.9466 45.5649 18.4356 45.2123 18.6096 44.706C18.7842 44.1987 18.6106 43.6125 18.1821 43.2867C17.771 42.9743 17.2007 42.9431 16.7569 43.2064C16.2977 43.4786 16.0582 44.0306 16.1668 44.5528C16.2883 45.1345 16.8144 45.5649 17.4095 45.5649Z" fill="#CDA97B"/>
</g>
<defs>
<clipPath id="clip0">
<rect width="65" height="65" fill="white" transform="translate(0.355713)"/>
</clipPath>
</defs>
</svg>
