<svg width="60" height="60" viewBox="0 0 60 60" fill="none" xmlns="http://www.w3.org/2000/svg">
<g clip-path="url(#clip0)">
<path d="M45.9758 26.4927C45.9758 24.5932 44.4306 23.0481 42.5311 23.0481H36.2004C37.7384 21.3193 38.7437 19.3506 38.9379 17.5845C39.0564 16.5058 38.7232 15.435 38.0232 14.6467C37.3835 13.9261 36.5087 13.5245 35.5599 13.5157C35.5489 13.5156 35.5379 13.5156 35.527 13.5156C34.6093 13.5156 33.748 13.8691 33.0979 14.5131C32.4478 15.1573 32.088 16.0155 32.0838 16.9313C32.0504 17.1318 31.6977 17.8231 30.8346 18.6439C30.1279 19.3161 28.9073 20.2401 27.1051 20.8252C26.3984 21.0547 25.7526 21.4771 25.1857 22.0809C24.8881 22.3975 24.4426 22.8348 23.891 23.2738C23.6203 23.1304 23.3124 23.0484 22.9854 23.0484H16.9728C15.9022 23.0484 15.0312 23.9193 15.0312 24.9899V41.0233C15.0312 42.0939 15.9022 42.9649 16.9728 42.9649H22.9854C23.7152 42.9649 24.3516 42.5596 24.6833 41.9628H40.0258C41.649 41.9628 42.9695 40.6423 42.9695 39.0192C42.9695 38.4734 42.8203 37.962 42.5604 37.5233C43.4061 37.0055 43.9715 36.0729 43.9715 35.0108C43.9715 34.465 43.8224 33.9536 43.5624 33.5149C44.4082 32.9971 44.9736 32.0645 44.9736 31.0024C44.9736 30.3881 44.7845 29.8171 44.4614 29.3446C45.3746 28.7243 45.9758 27.6774 45.9758 26.4927ZM42.5311 28.0585H42.03C41.5112 28.0585 41.0905 28.4791 41.0905 28.998C41.0905 29.5168 41.5111 29.9375 42.03 29.9375C42.6171 29.9375 43.0947 30.4151 43.0947 31.0022C43.0947 31.5893 42.6171 32.067 42.03 32.067H41.0279C40.5091 32.067 40.0884 32.4876 40.0884 33.0065C40.0884 33.5253 40.509 33.946 41.0279 33.946C41.615 33.946 42.0927 34.4236 42.0927 35.0108C42.0927 35.5979 41.615 36.0755 41.0279 36.0755H40.0258C39.507 36.0755 39.0863 36.4961 39.0863 37.015C39.0863 37.5338 39.5069 37.9545 40.0258 37.9545C40.6129 37.9545 41.0906 38.4322 41.0906 39.0193C41.0906 39.6064 40.6129 40.084 40.0258 40.084H24.9269V31.0026C24.9269 30.4838 24.5063 30.0631 23.9874 30.0631C23.4685 30.0631 23.0479 30.4837 23.0479 31.0026V41.0234C23.0479 41.058 23.0199 41.086 22.9854 41.086H16.9728C16.9382 41.086 16.9102 41.058 16.9102 41.0234V24.9896C16.9102 24.955 16.9382 24.927 16.9728 24.927H22.9854C23.0199 24.927 23.0479 24.955 23.0479 24.9896V26.9938C23.0479 27.5126 23.4685 27.9333 23.9874 27.9333C24.5063 27.9333 24.9269 27.5127 24.9269 26.9938V24.9896C24.9269 24.944 24.9232 24.8993 24.92 24.8546C25.6244 24.3093 26.1877 23.7581 26.5552 23.3669C26.9029 22.9965 27.2831 22.7426 27.6852 22.6122C29.8965 21.8943 31.3847 20.7384 32.2435 19.8951C33.32 18.8382 33.9625 17.7364 33.9625 16.9476C33.9625 16.5309 34.1251 16.1403 34.4203 15.8478C34.7191 15.5516 35.1148 15.3952 35.5425 15.3946C36.0691 15.3995 36.4179 15.6689 36.6179 15.8942C36.9608 16.2803 37.1295 16.8355 37.0699 17.3792C36.8647 19.2459 35.3718 21.5533 33.2667 23.2574C32.9574 23.5079 32.8394 23.926 32.9722 24.3011C33.105 24.6762 33.4598 24.927 33.8578 24.927H42.5308C43.3943 24.927 44.0966 25.6293 44.0966 26.4927C44.0966 27.3562 43.3944 28.0585 42.5311 28.0585Z" fill="#585554"/>
<path d="M19.9793 37.0671C19.4605 37.0671 19.0349 37.4928 19.0349 38.0116C19.0349 38.5303 19.4605 38.956 19.9793 38.956C20.4981 38.956 20.9237 38.5303 20.9237 38.0116C20.9239 37.4929 20.4982 37.0671 19.9793 37.0671Z" fill="#585554"/>
<path d="M58.3252 30.0004L59.9391 25.7298C60.0566 25.4191 60.0012 25.0695 59.7934 24.8102L56.9389 21.2472L57.154 16.6869C57.1697 16.3552 57.0089 16.0397 56.7314 15.8574L52.9156 13.3509L51.7111 8.94724C51.6235 8.62685 51.3732 8.37654 51.0529 8.289L46.6492 7.08455L44.1427 3.2688C43.9603 2.99119 43.6449 2.83111 43.3132 2.84623L38.7529 3.06138L35.1899 0.206812C34.9307 -0.000844609 34.5811 -0.0562743 34.2703 0.0611476L29.9997 1.67505L25.7292 0.0612647C25.4183 -0.0562743 25.0689 -0.000844623 24.8097 0.206929L21.2467 3.0615L16.6864 2.84634C16.3531 2.83064 16.0391 2.99142 15.8569 3.26892L13.3505 7.08478L8.94682 8.28923C8.62643 8.37689 8.37612 8.6272 8.28858 8.94747L7.08413 13.3511L3.26827 15.8576C2.99065 16.0399 2.82999 16.3554 2.84569 16.687L3.06085 21.2474L0.206276 24.8103C-0.00138021 25.0695 -0.0568099 25.4191 0.060612 25.7299L1.6744 30.0004L0.0604948 34.271C-0.0570443 34.5816 -0.00161458 34.9312 0.206159 35.1906L3.06073 38.7535L2.84557 43.3139C2.82987 43.6455 2.99065 43.9611 3.26815 44.1433L7.08401 46.6499L8.28846 51.0535C8.37612 51.3739 8.62643 51.6242 8.94671 51.7118L13.3504 52.9162L15.8568 56.7321C16.0391 57.0097 16.3552 57.1693 16.6862 57.1547L21.2466 56.9395L24.8096 59.7941C25.0688 60.0018 25.4185 60.0573 25.7291 59.9397L29.9998 58.3258L34.2705 59.9397C34.3783 59.9804 34.4907 60.0003 34.6024 60.0003C34.8129 60.0003 35.0207 59.9297 35.1899 59.7941L38.7529 56.9395L43.3132 57.1547C43.6459 57.1694 43.9603 57.0096 44.1427 56.7321L46.6492 52.9162L51.0529 51.7118C51.3733 51.6241 51.6236 51.3738 51.7111 51.0535L52.9156 46.6499L56.7314 44.1433C57.009 43.961 57.1697 43.6455 57.154 43.3139L56.9389 38.7535L59.7934 35.1906C60.0011 34.9313 60.0565 34.5818 59.9391 34.271L58.3252 30.0004ZM56.4421 30.3326L57.992 34.434L55.2505 37.8558C55.1074 38.0342 55.0344 38.2589 55.0452 38.4874L55.2519 42.867L51.5874 45.2742C51.3962 45.3997 51.2573 45.5908 51.1969 45.8116L50.0401 50.0408L45.811 51.1975C45.5903 51.2579 45.3993 51.3968 45.2735 51.588L42.8664 55.2526L38.4867 55.0459C38.2581 55.0353 38.0336 55.1081 37.8551 55.2512L34.4333 57.9927L30.3319 56.4427C30.2249 56.4023 30.1123 56.3822 29.9998 56.3822C29.8873 56.3822 29.7747 56.4024 29.6677 56.4427L25.5662 57.9927L22.1445 55.2512C21.966 55.1081 21.741 55.0353 21.5128 55.0459L17.1332 55.2526L14.726 51.588C14.6005 51.3969 14.4094 51.2579 14.1886 51.1975L9.95944 50.0408L8.80268 45.8116C8.74233 45.5909 8.60346 45.3999 8.41221 45.2742L4.74764 42.867L4.95436 38.4874C4.96514 38.2588 4.89214 38.0342 4.74905 37.8558L2.00757 34.434L3.5576 30.3326C3.63846 30.1186 3.63846 29.8823 3.5576 29.6683L2.00757 25.5669L4.74905 22.1451C4.89214 21.9667 4.96514 21.742 4.95436 21.5135L4.74764 17.1338L8.41221 14.7267C8.60335 14.6012 8.74233 14.4101 8.80268 14.1893L9.95944 9.96009L14.1886 8.80333C14.4093 8.74298 14.6003 8.60412 14.726 8.41287L17.1332 4.7483L21.5128 4.95501C21.7411 4.96568 21.966 4.89279 22.1445 4.7497L25.5662 2.00822L29.6677 3.55826C29.8818 3.63912 30.1179 3.63912 30.3319 3.55826L34.4333 2.00822L37.8551 4.7497C38.0336 4.8929 38.2583 4.9658 38.4867 4.95501L42.8664 4.7483L45.2735 8.41287C45.399 8.604 45.5902 8.74298 45.811 8.80333L50.0401 9.96009L51.1969 14.1893C51.2573 14.4099 51.3961 14.601 51.5874 14.7267L55.2519 17.1338L55.0452 21.5135C55.0344 21.7421 55.1074 21.9667 55.2505 22.1451L57.992 25.5669L56.442 29.6683C56.3612 29.8824 56.3612 30.1186 56.4421 30.3326Z" fill="#585554"/>
<path d="M47.6524 13.7782C47.4187 13.5237 47.1762 13.2705 46.9314 13.0259C46.6866 12.7812 46.4336 12.5386 46.179 12.3048C45.7969 11.9539 45.2026 11.9792 44.8517 12.3615C44.5008 12.7437 44.5261 13.338 44.9084 13.6889C45.1431 13.9045 45.3768 14.1284 45.6027 14.3543C45.8285 14.5801 46.0525 14.8139 46.2682 15.0487C46.4535 15.2505 46.7066 15.3528 46.9606 15.3528C47.1876 15.3528 47.4153 15.271 47.5956 15.1055C47.9779 14.7547 48.0033 14.1603 47.6524 13.7782Z" fill="#585554"/>
<path d="M42.8429 9.74127C38.3124 6.85494 32.8578 5.57221 27.4844 6.1285C22.0323 6.69334 16.8913 9.14279 13.0081 13.0258C8.73466 17.2993 6.24654 22.9763 6.00209 29.0111C5.75916 35.0104 7.74619 40.8351 11.5973 45.412C11.7831 45.6328 12.0488 45.7465 12.3167 45.7465C12.5302 45.7465 12.7449 45.6741 12.9211 45.526C13.318 45.1919 13.3691 44.5993 13.0351 44.2024C9.48654 39.9849 7.6556 34.617 7.87943 29.0873C8.10466 23.5253 10.3978 18.2931 14.3366 14.3545C17.9155 10.7754 22.6536 8.51783 27.6779 7.9974C32.632 7.48412 37.6589 8.66643 41.8332 11.3259C42.2709 11.6047 42.8515 11.476 43.1302 11.0384C43.4092 10.6007 43.2804 10.0201 42.8429 9.74127Z" fill="#585554"/>
<path d="M50.2162 17.1145C49.9374 16.6768 49.3564 16.5482 48.919 16.827C48.4814 17.1057 48.3528 17.6865 48.6316 18.124C51.291 22.2984 52.4731 27.3256 51.9601 32.2793C51.4396 37.3036 49.182 42.0416 45.6031 45.6207C41.6643 49.5594 36.4321 51.8527 30.8703 52.0779C25.3415 52.3027 19.9726 50.4709 15.7552 46.9225C15.3583 46.5884 14.7657 46.6395 14.4316 47.0365C14.0975 47.4334 14.1486 48.026 14.5456 48.3601C18.8723 52.0005 24.3133 53.9754 29.9635 53.9753C30.2903 53.9753 30.6185 53.9686 30.9466 53.9554C36.9814 53.711 42.6583 51.2229 46.9319 46.9494C50.815 43.0663 53.2646 37.9252 53.8292 32.473C54.3856 27.0993 53.1025 21.6449 50.2162 17.1145Z" fill="#585554"/>
</g>
<defs>
<clipPath id="clip0">
<rect width="60" height="60" fill="white"/>
</clipPath>
</defs>
</svg>
