<svg width="62" height="61" viewBox="0 0 62 61" fill="none" xmlns="http://www.w3.org/2000/svg">
<g clip-path="url(#clip0)">
<path d="M12.1953 20.7325C9.59602 20.7325 7.57434 18.7168 7.57434 16.1253C7.57434 13.5337 9.59602 11.5181 12.1953 11.5181C14.7946 11.5181 16.8163 13.5337 16.8163 16.1253C16.8163 18.4289 14.7946 20.7325 12.1953 20.7325ZM12.1953 12.9578C10.4625 12.9578 9.0184 14.3976 9.0184 15.8373C9.0184 17.565 10.4625 19.0048 12.1953 19.0048C13.9282 19.0048 15.3723 17.565 15.3723 15.8373C15.3723 14.3976 13.9282 12.9578 12.1953 12.9578Z" fill="#585554"/>
<path d="M6.99668 38.8734C6.70787 38.8734 6.13025 38.5855 6.13025 38.0096V27.6434C6.13025 27.3554 6.41906 26.7795 6.99668 26.7795C7.2855 26.7795 7.86312 27.0675 7.86312 27.6434V38.2975C7.57431 38.5855 7.2855 38.8734 6.99668 38.8734Z" fill="#585554"/>
<path d="M17.3938 60.7579H13.3505C13.0616 60.7579 12.484 60.4699 12.484 59.894V43.7688C12.484 43.4809 12.484 43.4809 12.1952 43.4809C12.1952 43.4809 11.9064 43.1929 11.6176 43.4809C11.3288 43.4809 11.04 43.7688 11.04 44.0568V59.894C11.04 60.182 10.7512 60.7579 10.1735 60.7579H6.9966C6.41898 60.7579 6.13017 60.4699 6.13017 60.182V40.6014C5.55254 40.8893 4.97492 40.8893 4.3973 40.8893C3.24205 40.3134 2.66443 39.4496 2.66443 38.0098V25.916C2.66443 23.9003 4.3973 22.1726 6.41898 22.1726H11.04C11.3288 22.1726 11.6176 22.1726 11.9064 22.1726C12.1952 22.1726 12.7728 22.1726 13.3505 22.1726H17.105C18.2603 22.1726 19.1267 22.7485 19.9931 23.3244L24.9029 29.0834C25.1917 29.3714 25.4805 29.6593 26.0582 29.6593H30.6791C32.1232 29.6593 33.2785 30.8111 33.2785 32.2508C33.2785 33.6906 32.1232 34.8424 30.6791 34.8424H24.9029C24.0365 34.8424 23.4589 34.5544 22.8812 33.9785L18.2603 29.6593V60.4699C18.2603 60.4699 17.6826 60.7579 17.3938 60.7579ZM14.2169 59.3181H16.5274V27.6437C16.5274 27.3557 16.8162 27.0678 17.105 27.0678C17.3938 27.0678 17.6826 27.0678 17.9714 27.3557L23.7477 32.8267C24.0365 33.1147 24.3253 33.1147 24.6141 33.1147H30.3903C30.968 33.1147 31.5456 32.5388 31.5456 31.9629C31.5456 31.387 30.968 30.8111 30.3903 30.8111H25.7694C24.9029 30.8111 24.0365 30.5232 23.4589 29.6593L19.1267 24.1883C18.5491 23.6124 17.9714 23.3244 17.3938 23.3244H13.6393C13.0616 23.3244 12.7728 23.3244 12.1952 23.3244C11.9064 23.3244 11.6176 23.3244 11.3288 23.3244H6.70779C5.26373 23.3244 4.10849 24.4762 4.10849 25.916V38.2978C4.10849 38.8737 4.3973 39.1616 4.97492 39.4496C5.26373 39.4496 5.55254 39.4496 5.84136 39.1616C6.13017 38.8737 6.13017 38.5857 6.13017 38.2978C6.13017 37.7219 6.41898 37.4339 6.9966 37.4339C7.28541 37.4339 7.86304 37.7219 7.86304 38.2978V59.3181H10.1735V44.0568C10.1735 42.905 11.04 42.0411 11.9064 42.0411C12.484 42.0411 13.0616 42.0411 13.6393 42.617C14.2169 42.905 14.5057 43.4809 14.5057 44.0568V59.3181H14.2169Z" fill="#585554"/>
<path d="M20.282 60.7576H1.22044C0.642815 60.7576 0.354004 60.4697 0.354004 60.1817C0.354004 59.8938 0.642815 59.3179 1.22044 59.3179H20.5708C20.8596 59.3179 21.4372 59.6058 21.4372 60.1817C21.1484 60.4697 20.8596 60.7576 20.282 60.7576Z" fill="#585554"/>
<path d="M50.0296 20.7325C47.4303 20.7325 45.4086 18.7168 45.4086 16.1253C45.4086 13.5337 47.4303 11.5181 50.0296 11.5181C52.6289 11.5181 54.6505 13.5337 54.6505 16.1253C54.6505 18.4289 52.6289 20.7325 50.0296 20.7325ZM50.0296 12.9578C48.2967 12.9578 46.8526 14.3976 46.8526 16.1253C46.8526 17.853 48.2967 19.2927 50.0296 19.2927C51.7624 19.2927 53.2065 17.853 53.2065 16.1253C53.2065 14.3976 51.7624 12.9578 50.0296 12.9578Z" fill="#585554"/>
<path d="M55.5169 38.8734C55.2281 38.8734 54.6505 38.5855 54.6505 38.0096V27.6434C54.6505 27.3554 54.9393 26.7795 55.5169 26.7795C55.8058 26.7795 56.3834 27.0675 56.3834 27.6434V38.2975C56.0946 38.5855 55.8058 38.8734 55.5169 38.8734Z" fill="#585554"/>
<path d="M61.2932 60.7575H41.9428C41.654 60.7575 41.0764 60.4695 41.0764 59.8936C41.0764 59.6057 41.3652 59.0298 41.9428 59.0298H61.2932C61.582 59.0298 62.1597 59.3177 62.1597 59.8936C61.8708 60.4695 61.582 60.7575 61.2932 60.7575Z" fill="#585554"/>
<path d="M55.517 60.7577H51.4736C51.1848 60.7577 50.6072 60.4698 50.6072 59.8939V44.0567C50.6072 43.7687 50.3184 43.4808 50.0295 43.4808C49.7407 43.4808 49.7407 43.4808 49.4519 43.4808L49.1631 43.7687V59.8939C49.1631 60.1818 48.8743 60.7577 48.2967 60.7577H44.2533C43.9645 60.7577 43.3869 60.4698 43.3869 59.8939V29.3712L38.7659 33.6905C38.1883 34.2664 37.6106 34.5543 36.7442 34.5543H30.968C30.6792 34.5543 30.3904 34.5543 30.1015 34.2664C29.8127 34.2664 29.5239 33.9784 29.5239 33.6905C29.5239 33.4025 29.8127 33.1146 30.1015 33.1146C30.3904 32.8266 30.6792 32.5387 30.6792 32.2507C30.6792 31.9628 30.3904 31.3869 30.1015 31.3869C29.8127 31.3869 29.5239 31.0989 29.5239 30.811C29.5239 30.523 29.8127 30.2351 30.1015 30.2351C30.3904 30.2351 30.6792 29.9471 30.968 29.9471H35.589C35.8778 29.9471 36.4554 29.6592 36.7442 29.3712L42.2316 23.0363C43.0981 22.1725 43.9645 21.8845 45.1197 21.8845H48.8743C49.4519 21.8845 49.7407 21.8845 50.3183 21.8845C50.6072 21.8845 50.896 21.8845 51.1848 21.8845H55.8058C57.8275 21.8845 59.5603 23.6122 59.5603 25.6279V38.0097C59.5603 39.1615 58.6939 40.3133 57.5386 40.6013C56.961 40.8892 56.3834 40.6013 55.8058 40.3133V59.8939C56.0946 60.4698 55.8058 60.7577 55.517 60.7577ZM52.34 59.318H54.6505V38.2977C54.6505 38.0097 54.9393 37.4338 55.517 37.4338C55.8058 37.4338 56.3834 37.7218 56.3834 38.2977C56.3834 38.5856 56.6722 38.8736 56.6722 39.1615C56.961 39.4495 57.2498 39.4495 57.5386 39.4495C58.1163 39.4495 58.4051 38.8736 58.4051 38.2977V25.9158C58.4051 24.4761 57.2498 23.6122 56.0946 23.6122H51.4736C51.1848 23.6122 50.896 23.6122 50.6072 23.6122C50.0295 23.6122 49.7407 23.6122 49.1631 23.6122H45.4086C44.8309 23.6122 44.2533 23.9002 43.6757 24.4761L39.0547 29.9471C38.4771 30.523 37.6106 31.0989 36.7442 31.0989H33.2785C33.5673 31.3869 33.5673 31.6748 33.5673 32.2507C33.5673 32.5387 33.5673 33.1146 33.2785 33.4025H37.8995C38.1883 33.4025 38.4771 33.4025 38.7659 33.1146L44.5421 27.6435C44.8309 27.3556 45.1197 27.3556 45.4086 27.3556C45.6974 27.3556 45.9862 27.6435 45.9862 27.9315V59.6059H48.2967V44.3446C48.2967 43.7687 48.5855 43.1928 49.1631 42.9049C49.7407 42.6169 50.3184 42.329 50.896 42.329C51.7624 42.6169 52.6288 43.4807 52.6288 44.3446V59.318H52.34Z" fill="#585554"/>
<path d="M31.2568 23.6119C24.6141 23.6119 19.4155 18.4288 19.4155 11.8059C19.4155 5.18309 24.6141 0 31.2568 0C37.8995 0 43.0981 5.18309 43.0981 11.8059C43.0981 18.4288 37.6107 23.6119 31.2568 23.6119ZM31.2568 1.43975C25.4806 1.43975 20.8596 6.04694 20.8596 11.8059C20.8596 17.5649 25.4806 22.1721 31.2568 22.1721C37.033 22.1721 41.654 17.5649 41.654 11.8059C41.654 6.04694 37.033 1.43975 31.2568 1.43975Z" fill="#585554"/>
<path d="M31.2568 23.6121C30.1016 23.6121 28.9463 23.3241 27.7911 23.0362C27.5023 23.0362 27.2134 23.0362 27.2134 22.7482C25.7694 20.1567 24.903 16.1254 24.903 11.8061C24.903 7.4869 25.7694 3.45561 27.2134 0.864059C27.2134 0.576109 27.5023 0.576109 27.5023 0.576109C29.8127 -0.28774 32.4121 -0.28774 34.7225 0.576109C35.0114 0.576109 35.0114 0.864059 35.0114 0.864059C36.4554 3.45561 37.3219 7.4869 37.3219 11.8061C37.3219 16.1254 36.4554 20.1567 35.0114 22.7482C35.0114 23.0362 35.0114 23.0362 34.7225 23.0362C33.5673 23.6121 32.4121 23.6121 31.2568 23.6121ZM28.3687 21.8844C30.1016 22.4603 32.1232 22.4603 34.1449 21.8844C35.3002 19.5808 36.1666 15.8374 36.1666 11.8061C36.1666 8.0628 35.3002 4.31946 34.1449 1.72791C32.4121 1.15201 30.3904 1.15201 28.3687 1.72791C26.9246 4.31946 26.347 8.0628 26.347 11.8061C26.347 15.8374 26.9246 19.2928 28.3687 21.8844Z" fill="#585554"/>
<path d="M31.2568 18.1409C26.9246 18.1409 22.8813 17.277 20.282 15.8373C19.9931 15.8373 19.9931 15.5493 19.9931 15.5493C19.4155 14.3975 19.1267 12.9578 19.1267 11.806C19.1267 10.6542 19.4155 9.50238 19.7043 8.35058C19.7043 8.06263 19.9931 8.06263 19.9931 8.06263C22.5924 6.62288 26.6358 5.75903 30.968 5.75903C35.3002 5.75903 39.3435 6.62288 41.9428 8.06263C42.2316 8.06263 42.2316 8.35058 42.2316 8.35058C42.5204 9.50238 42.8092 10.6542 42.8092 11.806C42.8092 12.9578 42.8092 14.3975 42.5204 15.5493C42.5204 15.8373 42.2316 15.8373 42.2316 15.8373C39.6323 17.277 35.589 18.1409 31.2568 18.1409ZM21.1484 14.6855C23.4589 15.8373 27.2134 16.7011 31.2568 16.7011C35.0113 16.7011 38.7659 15.8373 41.3652 14.6855C41.654 13.8216 41.654 12.6698 41.654 11.806C41.654 10.9421 41.654 9.79033 41.3652 8.92648C39.0547 7.77468 35.3001 6.91083 31.2568 6.91083C27.2134 6.91083 23.4589 7.77468 21.1484 8.92648C20.8596 9.79033 20.8596 10.9421 20.8596 11.806C20.8596 12.9578 20.8596 13.8216 21.1484 14.6855Z" fill="#585554"/>
<path d="M31.2568 23.6119C30.968 23.6119 30.3904 23.3239 30.3904 22.748V0.863849C30.3904 0.575899 30.6792 0 31.2568 0C31.5456 0 32.1232 0.28795 32.1232 0.863849V23.036C31.8344 23.3239 31.5456 23.6119 31.2568 23.6119Z" fill="#585554"/>
<path d="M42.2316 12.6698H19.9931C19.7043 12.6698 19.1267 12.3819 19.1267 11.806C19.1267 11.518 19.4155 10.9421 19.9931 10.9421H42.2316C42.5204 10.9421 43.0981 11.2301 43.0981 11.806C43.0981 12.3819 42.8093 12.6698 42.2316 12.6698Z" fill="#585554"/>
</g>
<defs>
<clipPath id="clip0">
<rect width="61.5169" height="60.7574" fill="white" transform="translate(0.354004)"/>
</clipPath>
</defs>
</svg>
