<svg width="52" height="65" viewBox="0 0 52 65" fill="none" xmlns="http://www.w3.org/2000/svg">
<g clip-path="url(#clip0)">
<path d="M26.1575 14.3058C22.6909 14.3058 19.8545 11.466 19.8545 7.99515C19.8545 4.83981 22.6909 2 26.1575 2C29.6242 2 32.1454 4.83981 32.1454 7.99515C32.1454 11.466 29.309 14.3058 26.1575 14.3058ZM26.1575 3.57767C23.6363 3.57767 21.7454 5.47087 21.7454 7.99515C21.7454 10.5194 23.6363 12.4126 26.1575 12.4126C28.6787 12.4126 30.5696 10.5194 30.5696 7.99515C30.5696 5.78641 28.3636 3.57767 26.1575 3.57767Z" fill="#585554"/>
<path d="M36.8727 33.5536C36.5575 33.5536 35.9272 33.238 35.9272 32.607V23.1409C35.9272 20.3011 33.7212 17.7769 30.8848 17.4613C29.6242 17.4613 28.0484 17.1458 25.8424 17.1458C23.6363 17.1458 22.0606 17.1458 20.7999 17.4613C18.2787 17.7769 16.0727 19.9856 16.0727 23.1409V32.9225C16.0727 33.238 15.7575 33.5536 15.1272 33.5536C14.8121 33.5536 14.1818 33.238 14.1818 32.607V23.1409C14.1818 19.3545 17.0181 16.1992 20.7999 15.8836C22.0606 15.8836 23.6363 15.5681 25.8424 15.5681C28.0484 15.5681 29.6242 15.5681 30.8848 15.8836C34.6666 16.1992 37.503 19.3545 37.503 23.1409V32.9225C37.503 33.238 37.1878 33.5536 36.8727 33.5536Z" fill="#585554"/>
<path d="M49.1636 47.3303C48.8484 47.3303 48.8484 47.3303 48.5333 47.0148C48.2181 46.6992 48.2181 46.0682 48.5333 45.7526C49.7939 44.4905 50.4242 42.9128 50.4242 41.0196V24.9274C50.4242 23.6652 49.1636 22.4031 47.903 22.4031C46.6424 22.4031 45.3818 23.3497 45.3818 24.9274V35.9711C45.3818 38.1798 44.4363 40.3885 42.8606 42.2817L40.0242 45.1216C39.709 45.4371 39.0787 45.4371 38.7636 45.1216C38.4484 44.806 38.4484 44.1749 38.7636 43.8594L41.5999 41.0196C42.8606 39.7575 43.806 37.8643 43.806 35.9711V24.9274C43.806 22.7186 45.6969 20.8254 47.903 20.8254C50.109 20.8254 51.9999 22.7186 51.9999 24.9274V41.0196C51.9999 43.2283 51.0545 45.4371 49.4787 47.0148C49.4787 47.3303 49.1636 47.3303 49.1636 47.3303Z" fill="#585554"/>
<path d="M40.3394 56.1652C40.0243 56.1652 40.0243 56.1652 39.7091 55.8497C39.394 55.5341 39.394 54.9031 39.7091 54.5875L41.2849 53.0098C41.6001 52.6943 42.2304 52.6943 42.5455 53.0098C42.8607 53.3254 42.8607 53.9565 42.5455 54.272L40.9697 55.8497C40.6546 56.1652 40.3394 56.1652 40.3394 56.1652Z" fill="#585554"/>
<path d="M43.4909 52.6939C43.1758 52.6939 43.1758 52.6939 42.8606 52.3783C42.5455 52.0628 42.5455 51.4317 42.8606 51.1162L44.7515 49.223C45.0667 48.9074 45.697 48.9074 46.0121 49.223C46.3273 49.5385 46.3273 50.1696 46.0121 50.4851L44.1212 52.6939C44.1212 52.6939 43.8061 52.6939 43.4909 52.6939Z" fill="#585554"/>
<path d="M47.5879 48.5922C47.2727 48.5922 47.2727 48.5922 46.9576 48.2767C46.6424 47.9611 46.6424 47.3301 46.9576 47.0145L48.5333 45.4368C48.8485 45.1213 49.4788 45.1213 49.7939 45.4368C50.1091 45.7524 50.1091 46.3835 49.7939 46.699L48.2182 48.2767C47.903 48.5922 47.903 48.5922 47.5879 48.5922Z" fill="#585554"/>
<path d="M38.4485 65.0001H26.1576C25.8425 65.0001 25.2122 64.6846 25.2122 64.0535V51.7477C25.2122 49.539 26.1576 47.3302 27.7334 45.7526L37.1879 36.2865C37.8182 35.6555 39.0788 35.0244 40.0243 35.0244C40.9697 35.0244 42.2303 35.3399 42.8607 36.2865C43.491 36.9176 44.1213 38.1798 44.1213 39.1264C44.1213 40.073 43.8061 41.0196 42.8607 41.9662L37.1879 47.3302C36.8728 47.6458 36.2425 47.6458 35.9273 47.3302C35.6122 47.0147 35.6122 46.3836 35.9273 46.0681L41.2849 40.704C41.6 40.3885 41.9152 39.7574 41.9152 39.1264C41.9152 38.4953 41.6 37.8642 41.2849 37.5487C40.6546 36.9176 40.3394 36.9176 39.7091 36.9176C39.0788 36.9176 38.4485 37.2331 38.1334 37.5487L28.6788 47.0147C27.4182 48.2768 26.7879 49.8545 26.7879 51.7477V63.1069H37.5031V58.6895C37.5031 57.4273 38.1334 56.1652 39.0788 55.5341L39.7091 54.9031C40.0243 54.5875 40.6546 54.5875 40.9697 54.9031C41.2849 55.2186 41.2849 55.8497 40.9697 56.1652L40.3394 56.7963C39.7091 57.4273 39.394 58.0584 39.394 59.005V64.3691C39.0788 64.3691 38.7637 65.0001 38.4485 65.0001Z" fill="#585554"/>
<path d="M26.1576 65.0002H13.8667C13.5515 65.0002 12.9212 64.6847 12.9212 64.0536V58.6895C12.9212 57.7429 12.6061 57.1119 11.9758 56.7963L2.52121 47.0148C0.945455 45.4371 0 43.2284 0 41.0196V24.9274C0 22.7186 1.89091 20.8254 4.09697 20.8254C6.30303 20.8254 8.19394 22.7186 8.19394 24.9274V35.9711C8.19394 36.6021 8.19394 36.9177 8.50909 37.2332C8.82424 36.9177 8.82424 36.6021 9.13939 36.2866C10.0848 35.34 11.0303 35.0245 11.9758 35.0245C12.9212 35.0245 14.1818 35.34 14.8121 36.2866L24.2667 45.7526C25.8424 47.3303 26.7879 49.539 26.7879 51.7478V64.0536C26.7879 64.3691 26.4727 65.0002 26.1576 65.0002ZM14.497 63.107H25.2121V51.7478C25.2121 49.8546 24.5818 48.2769 23.3212 47.0148L13.8667 37.5487C13.5515 37.2332 12.9212 36.9177 12.2909 36.9177C11.6606 36.9177 11.0303 37.2332 10.7152 37.5487C10.0848 38.1798 10.0848 38.4953 10.0848 39.1264C10.0848 39.4419 10.0848 40.073 10.4 40.3886C10.4 40.7041 10.7152 40.7041 10.7152 41.0196L13.5515 43.8594L15.7576 46.0682C16.0727 46.3837 16.0727 47.0148 15.7576 47.3303C15.4424 47.6458 14.8121 47.6458 14.497 47.3303L9.13939 41.9662C9.13939 41.9662 8.82424 41.6507 8.82424 41.3352C7.56364 39.7575 6.93333 37.8643 6.93333 35.6555V24.6118C6.93333 23.3497 5.67273 22.0876 4.41212 22.0876C3.15152 22.0876 1.89091 23.3497 1.89091 24.6118V41.0196C1.89091 42.9128 2.52121 44.4905 3.78182 45.7526L13.2364 55.2187C14.1818 56.1653 14.8121 57.1119 14.8121 58.374V63.107H14.497Z" fill="#585554"/>
<path d="M20.7999 33.5535C20.4848 33.5535 19.8545 33.238 19.8545 32.6069V26.9273C19.8545 26.6118 20.1696 25.9807 20.7999 25.9807C21.1151 25.9807 21.7454 26.2962 21.7454 26.9273V32.9225C21.7454 33.238 21.1151 33.5535 20.7999 33.5535Z" fill="#585554"/>
<path d="M31.2 33.5535C30.8848 33.5535 30.2545 33.238 30.2545 32.6069V26.9273C30.2545 26.6118 30.5697 25.9807 31.2 25.9807C31.5151 25.9807 32.1454 26.2962 32.1454 26.9273V32.9225C32.1454 33.238 31.8303 33.5535 31.2 33.5535Z" fill="#585554"/>
</g>
<defs>
<clipPath id="clip0">
<rect width="51.7893" height="65" fill="white"/>
</clipPath>
</defs>
</svg>
