<svg width="56" height="56" viewBox="0 0 56 56" fill="none" xmlns="http://www.w3.org/2000/svg">
<g clip-path="url(#clip0)">
<path d="M30.8 0C26.3419 0 22.6576 3.48414 22.4126 7.9316C22.3841 8.44621 22.7784 8.88645 23.293 8.91488C23.8109 8.94113 24.2479 8.54902 24.2763 8.03441C24.4675 4.5757 27.3328 1.86676 30.8 1.86676C34.3514 1.86676 37.22 4.6457 37.33 8.19301C37.3458 8.69832 37.7603 9.09727 38.2624 9.09727C38.2722 9.09727 38.2821 9.09672 38.2919 9.09672C38.8071 9.08086 39.2118 8.6502 39.1959 8.13504C39.054 3.57328 35.3664 0 30.8 0Z" fill="#585554"/>
<path d="M47.5954 8.3071C47.5478 7.83022 47.1458 7.46655 46.6668 7.46655H37.7743C37.2591 7.46655 36.8411 7.88464 36.8411 8.39979C36.8411 8.91495 37.2591 9.33304 37.7743 9.33304H45.8224L50.3024 54.133H42.8356C42.3205 54.133 41.9024 54.5511 41.9024 55.0663C41.9024 55.5814 42.3205 55.9995 42.8356 55.9995H51.3333C51.5968 55.9995 51.8484 55.888 52.0253 55.6924C52.2022 55.4969 52.2881 55.2355 52.2618 54.9733L47.5954 8.3071Z" fill="#585554"/>
<path d="M42.9285 8.3071C42.8809 7.83022 42.479 7.46655 41.9999 7.46655H9.33315C8.85381 7.46655 8.45241 7.82995 8.40456 8.3071L3.7378 54.9739C3.71155 55.2361 3.79741 55.4975 3.97432 55.693C4.15124 55.8885 4.4028 56.0001 4.66639 56.0001H46.6664C46.93 56.0001 47.1815 55.8885 47.3585 55.693C47.5354 55.4975 47.6212 55.2361 47.595 54.9739L42.9285 8.3071ZM5.6978 54.1333L10.1778 9.33331H41.1553L45.6353 54.1333H5.6978Z" fill="#585554"/>
<path d="M26.1333 0C21.5015 0 17.7333 3.76824 17.7333 8.4V15.8668C17.7333 16.3819 18.1514 16.8 18.6665 16.8C19.1817 16.8 19.5998 16.3819 19.5998 15.8668V8.4C19.5998 4.79746 22.5305 1.86676 26.133 1.86676C29.7355 1.86676 32.6662 4.79746 32.6662 8.4V15.8668C32.6662 16.3819 33.0843 16.8 33.5995 16.8C34.1146 16.8 34.5327 16.3819 34.5327 15.8668V8.4C34.5333 3.76824 30.765 0 26.1333 0Z" fill="#585554"/>
<g clip-path="url(#clip1)">
<path d="M37.6393 30.1281C37.6393 29.7879 37.3819 29.5764 36.8667 29.4936L29.9431 28.4869L26.8398 22.2112C26.6652 21.8342 26.4398 21.6458 26.164 21.6458C25.8882 21.6458 25.6629 21.8342 25.4882 22.2112L22.3847 28.4869L15.4608 29.4936C14.946 29.5764 14.6885 29.7879 14.6885 30.1281C14.6885 30.3213 14.8035 30.542 15.0334 30.7903L20.0539 35.6729L18.8678 42.5691C18.8494 42.6979 18.8402 42.7901 18.8402 42.845C18.8402 43.0381 18.8884 43.2012 18.985 43.3347C19.0814 43.4683 19.2262 43.5348 19.4194 43.5348C19.585 43.5348 19.7688 43.4798 19.9711 43.3694L26.1638 40.114L32.3568 43.3691C32.5501 43.4795 32.734 43.5348 32.9084 43.5348C33.2858 43.5348 33.4743 43.3053 33.4743 42.8453C33.4743 42.726 33.4696 42.634 33.4604 42.5692L32.2743 35.6733L37.2809 30.7906C37.5199 30.5512 37.6393 30.3304 37.6393 30.1281ZM30.3708 35.0522L31.3636 40.8591L26.1638 38.1141L20.9501 40.8591L21.957 35.0522L17.7364 30.9556L23.557 30.1005L26.1638 24.8316L28.7704 30.1005L34.5915 30.9556L30.3708 35.0522Z" fill="#585554"/>
</g>
</g>
<defs>
<clipPath id="clip0">
<rect width="56" height="56" fill="white"/>
</clipPath>
<clipPath id="clip1">
<rect width="22.9508" height="22.9508" fill="white" transform="translate(14.6885 21.1147)"/>
</clipPath>
</defs>
</svg>
