<svg width="11" height="15" viewBox="0 0 11 15" fill="none" xmlns="http://www.w3.org/2000/svg">
<path d="M1.17193 4.32431C1.22177 4.13754 1.32296 3.93853 1.39783 3.76429C2.29366 1.6114 4.25103 0.839844 5.8315 0.839844C7.94726 0.839844 10.2775 2.25855 10.5886 5.18284V5.78028C10.5886 5.80522 10.58 6.02919 10.5678 6.14123C10.3934 7.53487 9.29374 9.01601 8.47244 10.4096C7.58885 11.9028 6.672 13.3716 5.76364 14.8398C5.20352 13.8817 4.64543 12.911 4.09807 11.9777C3.9489 11.7038 3.77574 11.43 3.6264 11.1686C3.52686 10.9945 3.33671 10.8204 3.24983 10.6585C2.36627 9.04078 0.944085 7.4106 0.944085 5.80519V5.14567C0.944053 4.97162 1.15979 4.36184 1.17193 4.32431ZM5.79277 7.32349C6.41469 7.32349 7.09543 7.01251 7.43144 6.15369C7.48151 6.01699 7.47747 5.74302 7.47747 5.71792V5.33214C7.47747 4.2373 6.54785 3.73943 5.73913 3.73943C4.7435 3.73943 3.97347 4.53598 3.97347 5.53161C3.97347 6.5272 4.79714 7.32349 5.79277 7.32349Z" fill="#CDA97B"/>
</svg>
