<svg width="13" height="13" viewBox="0 0 13 13" fill="none" xmlns="http://www.w3.org/2000/svg">
<path d="M12.6751 10.3098L10.8218 8.45638C10.4527 8.08874 9.84145 8.09991 9.45946 8.48203L8.52581 9.41548C8.46682 9.38297 8.40576 9.34901 8.34157 9.31298C7.75198 8.9863 6.94502 8.53853 6.09586 7.68876C5.24419 6.83719 4.79601 6.02899 4.46832 5.43901C4.43375 5.37651 4.40061 5.31625 4.3679 5.25902L4.99452 4.63333L5.30259 4.32488C5.68516 3.94221 5.69571 3.3311 5.32744 2.96239L3.47423 1.10876C3.10597 0.740569 2.49442 0.751739 2.11185 1.13441L1.58955 1.65971L1.60382 1.67388C1.42869 1.89735 1.28234 2.15508 1.17343 2.43302C1.07304 2.69758 1.01054 2.95005 0.981957 3.20302C0.737253 5.23168 1.66429 7.08572 4.18015 9.60161C7.65783 13.079 10.4604 12.8163 10.5813 12.8035C10.8446 12.772 11.097 12.7091 11.3534 12.6095C11.6289 12.5019 11.8865 12.3558 12.1098 12.181L12.1213 12.1911L12.6504 11.673C13.0322 11.2904 13.0432 10.6791 12.6751 10.3098Z" fill="#CDA97B"/>
</svg>
