<svg width="13" height="10" viewBox="0 0 13 10" fill="none" xmlns="http://www.w3.org/2000/svg">
<path d="M12.9441 7.76288C12.9441 8.00572 12.8701 8.23083 12.7516 8.4289L8.96267 4.51576L12.7105 1.48899C12.8563 1.70256 12.9441 1.95342 12.9441 2.22452V7.76288ZM6.9441 5.22627L12.1591 1.0143C11.9451 0.906162 11.7041 0.839844 11.4441 0.839844H2.44408C2.18381 0.839844 1.94275 0.906162 1.72961 1.0143L6.9441 5.22627ZM8.398 4.97145L7.19088 5.94703C7.12027 6.00381 7.03235 6.03216 6.9441 6.03216C6.85581 6.03216 6.76789 6.00381 6.69728 5.94703L5.48989 4.97141L1.65307 8.93456C1.88305 9.06775 2.15257 9.14754 2.44406 9.14754H11.4441C11.7356 9.14754 12.0052 9.06775 12.2351 8.93456L8.398 4.97145ZM1.17776 1.48897C1.03199 1.70253 0.944092 1.9534 0.944092 2.22452V7.76291C0.944092 8.00574 1.01774 8.23086 1.13673 8.42892L4.92517 4.5151L1.17776 1.48897Z" fill="#CDA97B"/>
</svg>
