<svg width="16" height="16" viewBox="0 0 16 16" fill="none" xmlns="http://www.w3.org/2000/svg">
<path d="M15.2396 2.76028C15.1772 2.69793 15.0973 2.66659 15.0001 2.66659H11.7812L11.0521 0.9271C10.9479 0.670095 10.7604 0.451327 10.4897 0.27076C10.2188 0.0902289 9.94432 0 9.66663 0H6.33319C6.0555 0 5.78113 0.0902289 5.5103 0.27076C5.23943 0.451327 5.05193 0.670058 4.94773 0.9271L4.21856 2.66659H0.9998C0.902493 2.66659 0.822735 2.69793 0.760199 2.76028C0.697845 2.82278 0.666504 2.90269 0.666504 2.99988V3.66662C0.666504 3.76382 0.697699 3.84372 0.760199 3.90611C0.822735 3.96858 0.902639 3.99981 0.9998 3.99981H1.99972V13.9166C1.99972 14.4932 2.16292 14.9844 2.48929 15.3905C2.81573 15.797 3.20809 16 3.66646 16H12.3333C12.7918 16 13.1841 15.79 13.5105 15.3699C13.8369 14.9496 14 14.4514 14 13.8751V3.99981H15.0001C15.0972 3.99981 15.1772 3.96858 15.2395 3.90611C15.3019 3.84376 15.3333 3.76382 15.3333 3.66662V2.99988C15.3334 2.90269 15.3019 2.82278 15.2396 2.76028ZM6.177 1.44768C6.22556 1.38521 6.28463 1.3469 6.35406 1.33311H9.65616C9.72559 1.34701 9.78477 1.38529 9.83326 1.44768L10.3334 2.66644H5.66657L6.177 1.44768ZM12.6668 13.8752C12.6668 14.0279 12.6425 14.1686 12.5938 14.297C12.5452 14.4253 12.4947 14.5191 12.4427 14.5781C12.3905 14.6373 12.3543 14.6667 12.3334 14.6667H3.6665C3.64566 14.6667 3.6094 14.6373 3.55719 14.5781C3.50505 14.5191 3.45466 14.4253 3.40603 14.297C3.35746 14.1686 3.33316 14.0277 3.33316 13.8752V3.99981H12.6667V13.8752H12.6668Z" fill="#333333"/>
<path d="M4.99992 12.6668H5.66655C5.76386 12.6668 5.8438 12.6356 5.90615 12.5731C5.96851 12.5104 5.99985 12.4308 5.99985 12.3334V6.3332C5.99985 6.23604 5.96851 6.15614 5.90615 6.0936C5.84362 6.03125 5.76389 6.00002 5.66655 6.00002H4.99992C4.90261 6.00002 4.82282 6.03121 4.76032 6.0936C4.69789 6.15614 4.66663 6.23604 4.66663 6.3332V12.3334C4.66663 12.4308 4.69779 12.5105 4.76032 12.5731C4.82282 12.6355 4.90261 12.6668 4.99992 12.6668Z" fill="#333333"/>
<path d="M7.66667 12.6668H8.3333C8.43057 12.6668 8.51047 12.6356 8.57279 12.5731C8.63547 12.5104 8.66652 12.4308 8.66652 12.3334V6.3332C8.66652 6.23604 8.63543 6.15614 8.57279 6.0936C8.51047 6.03125 8.43057 6.00002 8.3333 6.00002H7.66667C7.56947 6.00002 7.48957 6.03121 7.42707 6.0936C7.36453 6.15614 7.33337 6.23604 7.33337 6.3332V12.3334C7.33337 12.4308 7.36453 12.5105 7.42707 12.5731C7.48953 12.6355 7.56947 12.6668 7.66667 12.6668Z" fill="#333333"/>
<path d="M10.3335 12.6668H11C11.0974 12.6668 11.1773 12.6356 11.2397 12.5731C11.3021 12.5104 11.3332 12.4308 11.3332 12.3334V6.3332C11.3332 6.23604 11.3021 6.15614 11.2397 6.0936C11.1773 6.03125 11.0974 6.00002 11 6.00002H10.3335C10.2361 6.00002 10.1564 6.03121 10.0937 6.0936C10.0313 6.15614 10.0001 6.23604 10.0001 6.3332V12.3334C10.0001 12.4308 10.0313 12.5105 10.0937 12.5731C10.1564 12.6355 10.2361 12.6668 10.3335 12.6668Z" fill="#333333"/>
</svg>
