<svg width="16" height="13" viewBox="0 0 16 13" fill="none" xmlns="http://www.w3.org/2000/svg">
<path d="M1.53568 4.04817C1.73808 4.19737 2.34818 4.64052 3.36602 5.37737C4.38389 6.11422 5.16365 6.68157 5.70532 7.07947C5.76484 7.12308 5.89127 7.21789 6.08469 7.36403C6.27815 7.51026 6.43889 7.62843 6.5668 7.71857C6.6948 7.80867 6.84953 7.90975 7.03117 8.02165C7.21274 8.13345 7.38389 8.21754 7.5446 8.27321C7.70535 8.32934 7.85414 8.35714 7.99102 8.35714H8.00901C8.14589 8.35714 8.29475 8.32931 8.45549 8.27321C8.61614 8.21754 8.78745 8.13335 8.96886 8.02165C9.15037 7.90962 9.30511 7.80864 9.43311 7.71857C9.56111 7.62843 9.72173 7.51026 9.91524 7.36403C10.1086 7.21776 10.2352 7.12308 10.2947 7.07947C10.8423 6.68157 12.2352 5.67104 14.4733 4.04797C14.9078 3.73097 15.2708 3.34846 15.5624 2.90071C15.8542 2.45316 16 1.98365 16 1.49245C16 1.08198 15.8586 0.73061 15.5758 0.438373C15.293 0.14607 14.9582 0 14.5714 0H1.42851C0.970209 0 0.617514 0.161654 0.370489 0.484961C0.123496 0.808333 0 1.21253 0 1.69753C0 2.08928 0.163745 2.5138 0.491077 2.97083C0.818379 3.42789 1.1667 3.78703 1.53568 4.04817Z" fill="#08B87D"/>
<path d="M15.107 5.40496C13.1548 6.70134 11.6725 7.70884 10.6607 8.42725C10.3215 8.67243 10.0462 8.86383 9.83485 9.00098C9.62348 9.13823 9.34237 9.27839 8.99111 9.4214C8.63998 9.56463 8.31274 9.63603 8.00912 9.63603H7.99104C7.68747 9.63603 7.36005 9.56463 7.00892 9.4214C6.65779 9.27839 6.37649 9.13823 6.16518 9.00098C5.95393 8.86383 5.67861 8.67243 5.33936 8.42725C4.53574 7.84912 3.0566 6.84156 0.901876 5.40496C0.562504 5.18318 0.26191 4.92897 0 4.64286V11.5982C0 11.9839 0.139821 12.3137 0.419618 12.5882C0.699353 12.8628 1.03572 13 1.4286 13H14.5715C14.9643 13 15.3006 12.8628 15.5804 12.5882C15.8602 12.3136 16 11.9839 16 11.5982V4.64286C15.744 4.92305 15.4465 5.17726 15.107 5.40496Z" fill="#08B87D"/>
</svg>
