<svg width="16" height="16" viewBox="0 0 16 16" fill="none" xmlns="http://www.w3.org/2000/svg">
<g opacity="0.7" clip-path="url(#clip0)">
<path d="M9.64367 6.49428C9.46824 6.31781 9.27372 6.16137 9.06372 6.02785C8.50752 5.67169 7.86091 5.48243 7.20044 5.48243C6.28374 5.48072 5.40428 5.84495 4.75721 6.49428L1.61803 9.63593C0.97205 10.2831 0.608978 11.1601 0.608399 12.0745C0.607184 13.9827 2.15306 15.5305 4.06126 15.5318C4.97654 15.5349 5.85519 15.1724 6.50203 14.5249L9.09334 11.9335C9.14042 11.8869 9.16671 11.8232 9.16633 11.7569C9.16555 11.6206 9.05441 11.5107 8.91811 11.5115H8.8194C8.278 11.5134 7.74143 11.4095 7.23995 11.2055C7.14754 11.1675 7.04135 11.1889 6.97095 11.2598L5.10767 13.1255C4.52908 13.7041 3.591 13.7041 3.01241 13.1255C2.43382 12.547 2.43382 11.6089 3.01241 11.0303L6.16395 7.88124C6.74207 7.30383 7.67862 7.30383 8.25675 7.88124C8.64637 8.24793 9.25411 8.24793 9.6437 7.88124C9.81133 7.71347 9.91295 7.49095 9.92999 7.25438C9.94801 6.97168 9.84375 6.69482 9.64367 6.49428Z" fill="#828282"/>
<path d="M14.4043 1.7337C13.055 0.38434 10.8672 0.38434 9.51789 1.7337L6.92904 4.32006C6.85795 4.39149 6.83744 4.49894 6.87721 4.59154C6.91651 4.68441 7.00837 4.74401 7.10918 4.74207H7.20049C7.74125 4.74109 8.27695 4.84587 8.77748 5.05057C8.86988 5.0886 8.97608 5.06714 9.04648 4.99629L10.9048 3.14041C11.4834 2.56182 12.4215 2.56182 13.0001 3.14041C13.5787 3.719 13.5787 4.65707 13.0001 5.23566L10.6852 7.54809L10.6654 7.5703L9.85594 8.37485C9.27781 8.95225 8.34127 8.95225 7.76314 8.37485C7.37352 8.00816 6.76578 8.00816 6.37619 8.37485C6.20749 8.54389 6.10578 8.76834 6.0899 9.00662C6.07185 9.28932 6.17611 9.56618 6.37619 9.76675C6.66184 10.0536 6.99605 10.2876 7.36334 10.4578C7.41517 10.4824 7.46699 10.5022 7.51882 10.5244C7.57065 10.5466 7.62493 10.5639 7.67676 10.5836C7.72858 10.6034 7.78287 10.6206 7.83469 10.6354L7.98031 10.6749C8.07902 10.6996 8.17775 10.7193 8.27892 10.7366C8.40079 10.7547 8.52353 10.7663 8.64665 10.7712H8.81939H8.8342L8.98227 10.7539C9.03656 10.7514 9.09333 10.7391 9.1575 10.7391H9.2414L9.41169 10.7144L9.49067 10.6996L9.6338 10.67H9.66096C10.2672 10.5177 10.8207 10.2039 11.2626 9.7618L14.4043 6.62016C15.7537 5.2708 15.7537 3.08306 14.4043 1.7337Z" fill="#828282"/>
</g>
<defs>
<clipPath id="clip0">
<rect width="14.8101" height="14.8101" fill="white" transform="translate(0.607422 0.72168)"/>
</clipPath>
</defs>
</svg>
