<svg width="13" height="18" viewBox="0 0 13 18" fill="none" xmlns="http://www.w3.org/2000/svg">
<path d="M6.5 0C10.0841 0 13 2.92437 13 6.51889C13 10.9798 7.18314 17.5287 6.93548 17.8053C6.70286 18.0651 6.29672 18.0647 6.06452 17.8053C5.81686 17.5287 0 10.9798 0 6.51889C7.01085e-05 2.92437 2.91592 0 6.5 0ZM6.5 9.79873C8.30326 9.79873 9.77028 8.3274 9.77028 6.51889C9.77028 4.71038 8.30322 3.23909 6.5 3.23909C4.69678 3.23909 3.22976 4.71042 3.22976 6.51893C3.22976 8.32744 4.69678 9.79873 6.5 9.79873Z" fill="#08B87D"/>
</svg>
