<svg width="30" height="30" viewBox="0 0 30 30" fill="none" xmlns="http://www.w3.org/2000/svg">
<path d="M16.4162 11.3281H13.0178V7.92968C13.0178 7.61703 12.764 7.36328 12.4514 7.36328C12.1387 7.36328 11.885 7.61703 11.885 7.92968V11.3281H8.48657C8.17391 11.3281 7.92017 11.5818 7.92017 11.8945C7.92017 12.2071 8.17391 12.4609 8.48657 12.4609H11.885V15.8593C11.885 16.172 12.1387 16.4257 12.4514 16.4257C12.764 16.4257 13.0178 16.172 13.0178 15.8593V12.4609H16.4162C16.7288 12.4609 16.9826 12.2071 16.9826 11.8945C16.9826 11.5818 16.7288 11.3281 16.4162 11.3281Z" fill="white"/>
<path d="M29.2853 29.0411L20.8692 20.2885C23.0158 18.1356 24.3457 15.1677 24.3457 11.8944C24.3457 5.3355 19.0102 0 12.4513 0C5.89238 0 0.556885 5.3355 0.556885 11.8944C0.556885 18.4533 5.89238 23.7888 12.4513 23.7888C15.3303 23.7888 17.9726 22.7597 20.032 21.052L28.4686 29.8261C28.5796 29.9422 28.728 30 28.8769 30C29.0185 30 29.1596 29.9473 29.2695 29.842C29.4949 29.625 29.5017 29.2665 29.2853 29.0411ZM1.68969 11.8944C1.68969 5.96024 6.51712 1.1328 12.4513 1.1328C18.3855 1.1328 23.2129 5.96024 23.2129 11.8944C23.2129 17.8286 18.3855 22.656 12.4513 22.656C6.51712 22.656 1.68969 17.8286 1.68969 11.8944Z" fill="white"/>
</svg>
