<svg width="21" height="21" viewBox="0 0 21 21" fill="none" xmlns="http://www.w3.org/2000/svg">
<path d="M3.25301e-05 10.1874C3.25341e-05 10.0962 0.0367089 10.0088 0.101996 9.94432C0.167282 9.87986 0.255831 9.84365 0.34816 9.84365L19.4952 9.84365C19.8645 9.84365 20.2187 9.98851 20.4798 10.2464C20.741 10.5042 20.8877 10.8539 20.8877 11.2186C20.8877 11.5832 20.741 11.9329 20.4798 12.1908C20.2187 12.4486 19.8645 12.5935 19.4952 12.5935L0.34816 12.5935C0.255831 12.5935 0.167282 12.5573 0.101995 12.4928C0.0367088 12.4284 3.2436e-05 12.3409 3.244e-05 12.2498L3.25301e-05 10.1874ZM0.696287 11.906L18.2963 11.906C18.1696 11.6986 18.1027 11.4609 18.1027 11.2186C18.1027 10.9763 18.1696 10.7386 18.2963 10.5311L0.696287 10.5311L0.696287 11.906ZM20.1914 11.2186C20.1914 11.0826 20.1506 10.9497 20.0741 10.8366C19.9976 10.7236 19.8889 10.6355 19.7616 10.5834C19.6344 10.5314 19.4944 10.5178 19.3594 10.5443C19.2243 10.5708 19.1002 10.6363 19.0029 10.7325C18.9055 10.8286 18.8392 10.9511 18.8123 11.0845C18.7854 11.2178 18.7992 11.356 18.8519 11.4817C18.9046 11.6073 18.9939 11.7146 19.1084 11.7902C19.2229 11.8657 19.3575 11.906 19.4952 11.906C19.6798 11.9058 19.8567 11.8333 19.9872 11.7044C20.1178 11.5756 20.1912 11.4008 20.1914 11.2186Z" fill="#CDA97B"/>
<path d="M3.25301e-05 13.9869C3.25341e-05 13.8958 0.0367089 13.8083 0.101996 13.7439C0.167282 13.6794 0.255831 13.6432 0.34816 13.6432L19.4952 13.6432C19.8645 13.6432 20.2187 13.7881 20.4798 14.0459C20.741 14.3038 20.8877 14.6535 20.8877 15.0181C20.8877 15.3828 20.741 15.7325 20.4798 15.9904C20.2187 16.2482 19.8645 16.3931 19.4952 16.3931L0.34816 16.3931C0.255831 16.3931 0.167282 16.3569 0.101995 16.2924C0.0367088 16.2279 3.2436e-05 16.1405 3.244e-05 16.0493L3.25301e-05 13.9869ZM0.696287 15.7056L18.2963 15.7056C18.1696 15.4981 18.1027 15.2604 18.1027 15.0181C18.1027 14.7759 18.1696 14.5382 18.2963 14.3307L0.696287 14.3307L0.696287 15.7056ZM20.1914 15.0181C20.1914 14.8822 20.1506 14.7493 20.0741 14.6362C19.9976 14.5231 19.8889 14.435 19.7616 14.383C19.6344 14.331 19.4944 14.3174 19.3594 14.3439C19.2243 14.3704 19.1002 14.4359 19.0029 14.532C18.9055 14.6282 18.8392 14.7507 18.8123 14.884C18.7854 15.0174 18.7992 15.1556 18.8519 15.2812C18.9046 15.4068 18.9939 15.5142 19.1084 15.5897C19.2229 15.6653 19.3575 15.7056 19.4952 15.7056C19.6798 15.7054 19.8567 15.6329 19.9872 15.504C20.1178 15.3751 20.1912 15.2004 20.1914 15.0181Z" fill="#CDA97B"/>
<path d="M20.8877 5.37493C20.8868 5.65819 20.7973 5.93424 20.6312 6.16523C20.4652 6.39623 20.2308 6.57084 19.9603 6.66513L19.9606 6.66561C19.9382 6.67622 19.9149 6.68484 19.891 6.69139L15.3693 8.41817C14.6876 8.67814 13.9631 8.81174 13.2323 8.81226L0.34816 8.81225C0.255831 8.81225 0.167282 8.77604 0.101995 8.71158C0.0367088 8.64712 3.2436e-05 8.55969 3.244e-05 8.46852L3.25301e-05 6.40613C3.25341e-05 6.31497 0.0367089 6.22754 0.101996 6.16307C0.167282 6.09861 0.255831 6.0624 0.34816 6.0624L14.2036 6.0624L19.0063 4.08495C19.0389 4.0716 19.0735 4.06338 19.1087 4.06059C19.2339 4.02229 19.3641 4.00189 19.4952 4.00001C19.8644 4.00037 20.2184 4.14534 20.4794 4.40311C20.7405 4.66088 20.8873 5.01039 20.8877 5.37493ZM20.1914 5.37493C20.1914 5.23897 20.1506 5.10605 20.0741 4.993C19.9976 4.87995 19.8889 4.79183 19.7616 4.7398C19.6344 4.68777 19.4944 4.67415 19.3594 4.70068C19.2243 4.72721 19.1002 4.79268 19.0029 4.88882C18.9055 4.98497 18.8392 5.10746 18.8123 5.24082C18.7854 5.37417 18.7992 5.5124 18.8519 5.63801C18.9046 5.76363 18.9939 5.871 19.1084 5.94654C19.2229 6.02208 19.3575 6.0624 19.4952 6.0624C19.6798 6.06216 19.8567 5.98965 19.9872 5.86078C20.1178 5.73191 20.1912 5.55719 20.1914 5.37493ZM14.4072 6.72335C14.3648 6.74081 14.3192 6.74982 14.2733 6.74986L0.696287 6.74986L0.696287 8.12479L13.2323 8.12479C13.8776 8.12432 14.5172 8.00633 15.1191 7.77676L18.6233 6.43836C18.4314 6.29704 18.2828 6.10596 18.1942 5.88632C18.1055 5.66668 18.0802 5.42709 18.1212 5.19413L14.4072 6.72335Z" fill="#CDA97B"/>
</svg>
