<svg width="20" height="20" viewBox="0 0 20 20" fill="none" xmlns="http://www.w3.org/2000/svg">
<path d="M6.55533 8.38542C7.01533 8.38542 7.38866 8.01208 7.38866 7.55208V4.30208C7.38866 2.84917 8.57075 1.66667 10.0241 1.66667C11.477 1.66667 12.6595 2.84917 12.6595 4.30208V7.55208C12.6595 8.01208 13.0328 8.38542 13.4928 8.38542C13.9528 8.38542 14.3262 8.01208 14.3262 7.55208V4.30208C14.3262 1.93 12.3962 0 10.0241 0C7.65241 0 5.72241 1.93 5.72241 4.30208V7.55208C5.722 8.01208 6.09533 8.38542 6.55533 8.38542Z" fill="white"/>
<path d="M19.5832 6.51291H15.1595V7.55208C15.1595 8.47125 14.412 9.21875 13.4928 9.21875C12.5741 9.21875 11.8262 8.47125 11.8262 7.55208V6.51291H8.22241V7.55208C8.22241 8.47125 7.47491 9.21875 6.55574 9.21875C5.63657 9.21875 4.88907 8.47125 4.88907 7.55208V6.51291H0.416573C0.186573 6.51291 0.0444897 6.69416 0.099073 6.9175L3.01449 18.7917C3.19074 19.4592 3.89282 20 4.58324 20H15.4166C16.1074 20 16.8091 19.4587 16.9862 18.7917L19.9012 6.9175C19.9553 6.69375 19.8137 6.51291 19.5832 6.51291Z" fill="white"/>
</svg>
