<svg width="78" height="78" viewBox="0 0 78 78" fill="none" xmlns="http://www.w3.org/2000/svg">
<path d="M78 39.001C78 17.4602 60.5389 0.000534058 39.0005 0.000534058C17.4611 0.000534058 0 17.4601 0 39.001C0 60.5388 17.4611 77.9996 39.0005 77.9996C60.5389 77.9996 78 60.5388 78 39.001Z" fill="#08B87D"/>
<path d="M60.4737 25.9342C59.5556 23.5668 57.6848 23.9405 55.6576 24.3422C54.4469 24.5945 49.0623 26.1706 40.5424 35.1545C37.0068 38.883 34.6744 41.8554 33.1388 44.1224C32.2008 42.9707 31.1261 41.7385 29.9975 40.6094C26.5266 37.1395 22.656 34.7566 22.4933 34.6564C20.869 33.6635 18.7486 34.1744 17.7529 35.7974C16.7584 37.4205 17.2677 39.5443 18.8895 40.541C18.9227 40.5619 22.2465 42.617 25.1179 45.4892C28.0462 48.4178 30.6994 52.3783 30.7255 52.4167C31.3715 53.3879 32.4561 53.9546 33.5971 53.9546C33.793 53.9546 33.9907 53.9381 34.1875 53.904C35.5342 53.6701 36.6159 52.6632 36.9458 51.3365C36.9541 51.3046 38.3223 47.5233 45.5498 39.9032C51.371 33.7638 55.2531 31.8125 56.5982 31.2713C56.6111 31.2691 56.6203 31.2681 56.6378 31.2645C56.6313 31.2661 56.6813 31.243 56.7625 31.2065C56.9934 31.1199 57.1171 31.0867 57.1242 31.085C57.0579 31.1015 57.0234 31.1056 57.0234 31.1056L57.0212 31.0936C57.6436 30.8221 58.8088 30.3208 58.8343 30.3101C60.5887 29.5893 61.1593 27.7022 60.4737 25.9342Z" fill="white"/>
</svg>
