<svg width="154" height="54" viewBox="0 0 154 54" fill="none" xmlns="http://www.w3.org/2000/svg">
<g clip-path="url(#clip0)">
<path d="M78.7136 20.3567C78.1898 21.2209 77.4177 21.9101 76.3975 22.4246C75.3772 22.9392 74.1411 23.1966 72.6888 23.1966C70.5014 23.1966 68.6999 22.6636 67.285 21.5975C65.8688 20.5313 65.0972 19.0424 64.9684 17.1306H69.9869C70.0601 17.866 70.3222 18.445 70.7728 18.8678C71.223 19.2906 71.7973 19.5018 72.4961 19.5018C73.1028 19.5018 73.5803 19.3365 73.9299 19.0054C74.2787 18.6747 74.4537 18.2333 74.4537 17.6822C74.4537 17.1857 74.2926 16.7722 73.9711 16.441C73.6493 16.1104 73.2496 15.8394 72.7717 15.6278C72.2933 15.4166 71.6319 15.1637 70.7862 14.8696C69.5548 14.4468 68.5484 14.0383 67.7671 13.6428C66.9858 13.2477 66.3148 12.6596 65.7544 11.8778C65.1935 11.097 64.9133 10.0813 64.9133 8.83094C64.9133 7.67311 65.2074 6.67136 65.7956 5.8257C66.3838 4.98046 67.1975 4.33254 68.2358 3.88194C69.2742 3.43176 70.4648 3.20625 71.8065 3.20625C73.9754 3.20625 75.6986 3.72122 76.9764 4.75032C78.2541 5.78026 78.9757 7.19516 79.141 8.99671H74.0401C73.948 8.35342 73.7137 7.84308 73.3367 7.46611C72.9597 7.08956 72.4498 6.90107 71.8065 6.90107C71.2554 6.90107 70.8094 7.04833 70.4694 7.34241C70.1291 7.6365 69.9591 8.06859 69.9591 8.63825C69.9591 9.09768 70.111 9.48854 70.4143 9.80997C70.7177 10.1318 71.0988 10.3939 71.5587 10.5959C72.0177 10.7983 72.6795 11.0553 73.5437 11.3679C74.7937 11.7908 75.8139 12.209 76.6045 12.6225C77.3946 13.0361 78.0749 13.6382 78.6446 14.4283C79.2142 15.2188 79.4995 16.2484 79.4995 17.5164C79.4995 18.5464 79.2374 19.4926 78.7136 20.3567Z" fill="#093B3F"/>
<path d="M87.3852 3.5096V23.0035H82.6702V3.5096H87.3852Z" fill="#093B3F"/>
<path d="M108.506 23.0035H103.791L95.9049 11.0368V23.0035H91.1898V3.5096H95.9049L103.791 15.5866V3.5096H108.506V23.0035Z" fill="#093B3F"/>
<path d="M116.887 3.5096V14.7594C116.887 16.046 117.177 17.0296 117.756 17.7095C118.335 18.3898 119.176 18.7298 120.279 18.7298C121.382 18.7298 122.223 18.3898 122.802 17.7095C123.38 17.0296 123.67 16.046 123.67 14.7594V3.5096H128.385V14.7594C128.385 16.5976 128.027 18.1462 127.31 19.4055C126.593 20.6647 125.614 21.6109 124.373 22.2454C123.133 22.8794 121.731 23.1966 120.169 23.1966C118.606 23.1966 117.227 22.884 116.032 22.2593C114.838 21.6345 113.9 20.6874 113.22 19.4189C112.54 18.1509 112.2 16.5976 112.2 14.7594V3.5096H116.887Z" fill="#093B3F"/>
<path d="M154 3.6476V23.0035H149.285V10.8992L145.094 23.0035H141.013L136.794 10.8715V23.0035H132.079V3.6476H137.842L143.109 17.1306L148.265 3.6476H154Z" fill="#093B3F"/>
<path d="M70.2073 42.5391V49.3772H65.4927V29.8833H73.1301C75.4462 29.8833 77.2108 30.458 78.4241 31.6065C79.6375 32.7556 80.2442 34.3042 80.2442 36.2526C80.2442 37.4656 79.9724 38.546 79.4305 39.4922C78.8882 40.4393 78.0838 41.184 77.0181 41.7259C75.9515 42.2682 74.6557 42.5391 73.1301 42.5391H70.2073ZM75.4462 36.2526C75.4462 34.5432 74.4992 33.6883 72.6063 33.6883H70.2073V38.7618H72.6063C74.4992 38.7618 75.4462 37.9254 75.4462 36.2526Z" fill="#093B3F"/>
<path d="M87.826 42.5391V49.3772H83.111V29.8833H90.7488C93.0649 29.8833 94.8295 30.458 96.0428 31.6065C97.2558 32.7556 97.8625 34.3042 97.8625 36.2526C97.8625 37.4656 97.5911 38.546 97.0492 39.4922C96.5069 40.4393 95.7025 41.184 94.6363 41.7259C93.5702 42.2682 92.2744 42.5391 90.7488 42.5391H87.826ZM93.0649 36.2526C93.0649 34.5432 92.1179 33.6883 90.225 33.6883H87.826V38.7618H90.225C92.1179 38.7618 93.0649 37.9254 93.0649 36.2526Z" fill="#093B3F"/>
<path d="M34.8128 18.4273C33.3586 16.973 31.348 16.0728 29.1297 16.0728H24.1081V8.12297C24.1081 3.63678 20.4713 0 15.9851 0H8.25895C3.69766 0 0 3.69766 0 8.25895V16.029C0 20.4922 3.61818 24.1104 8.08142 24.1104H37.165C37.165 21.8921 36.2648 19.8815 34.8128 18.4273ZM16.0289 16.0313H10.614C9.21403 16.0313 8.07911 14.8963 8.07911 13.4964V8.07911H13.494C14.894 8.07911 16.0289 9.21403 16.0289 10.614V16.0313Z" fill="#08B87D"/>
<path d="M53.1941 24.0643H53.1941C48.7321 24.0643 45.115 20.4472 45.115 15.9852V8.07911H37.2089C32.7469 8.07911 29.1298 4.46197 29.1298 8.11617e-06V0H44.9351C49.4964 0 53.1941 3.69766 53.1941 8.25895V24.0643Z" fill="#08B87D"/>
<path d="M18.3811 34.8125C19.8353 36.2668 21.8459 37.167 24.0642 37.167H29.086V45.1169C29.086 49.6031 32.7228 53.2398 37.209 53.2398H44.9351C49.4964 53.2398 53.1941 49.5422 53.1941 44.9809V37.2109C53.1941 32.7476 49.5759 29.1295 45.1126 29.1295H16.0289C16.0289 31.3478 16.9292 33.3583 18.3811 34.8125ZM37.1651 37.2086H42.58C43.98 37.2086 45.115 38.3435 45.115 39.7435V45.1607H39.7C38.3 45.1607 37.1651 44.0258 37.1651 42.6258V37.2086Z" fill="#08B87D"/>
<path d="M0 29.1755H8.07346e-06C4.46197 29.1755 8.07911 32.7927 8.07911 37.2546V45.1607H15.9852C20.4472 45.1607 24.0643 48.7779 24.0643 53.2398V53.2398H8.25895C3.69766 53.2398 0 49.5422 0 44.9809V29.1755Z" fill="#08B87D"/>
<path d="M24.108 10.9834H16.0289V16.0313H24.108V10.9834Z" fill="#08B87D"/>
<path d="M29.0861 42.2564H37.1652V37.2086H29.0861V42.2564Z" fill="#08B87D"/>
</g>
<defs>
<clipPath id="clip0">
<rect width="154" height="53.2398" fill="white"/>
</clipPath>
</defs>
</svg>
