<svg width="14" height="14" viewBox="0 0 14 14" fill="none" xmlns="http://www.w3.org/2000/svg">
<path d="M10.1364 0H3.86339C1.73312 0 0 1.7332 0 3.86347V10.1364C0 12.2668 1.73312 13.9999 3.86339 13.9999H10.1364C12.2668 13.9999 13.9999 12.2667 13.9999 10.1364V3.86347C14 1.7332 12.2668 0 10.1364 0ZM12.7579 10.1364C12.7579 11.5819 11.5819 12.7578 10.1364 12.7578H3.86339C2.41803 12.7579 1.24214 11.5819 1.24214 10.1364V3.86347C1.24214 2.41812 2.41803 1.24214 3.86339 1.24214H10.1364C11.5818 1.24214 12.7578 2.41812 12.7578 3.86347V10.1364H12.7579Z" fill="white"/>
<path d="M7 3.39258C5.01084 3.39258 3.39258 5.01084 3.39258 7C3.39258 8.98908 5.01084 10.6073 7 10.6073C8.98917 10.6073 10.6074 8.98908 10.6074 7C10.6074 5.01084 8.98917 3.39258 7 3.39258ZM7 9.36504C5.69584 9.36504 4.63472 8.30408 4.63472 6.99992C4.63472 5.69567 5.69576 4.63464 7 4.63464C8.30425 4.63464 9.36529 5.69567 9.36529 6.99992C9.36529 8.30408 8.30417 9.36504 7 9.36504Z" fill="white"/>
<path d="M10.7588 2.33936C10.5195 2.33936 10.2844 2.43624 10.1154 2.606C9.94553 2.77493 9.8479 3.01011 9.8479 3.25026C9.8479 3.48966 9.94561 3.72476 10.1154 3.89452C10.2843 4.06345 10.5195 4.16116 10.7588 4.16116C10.9989 4.16116 11.2333 4.06345 11.403 3.89452C11.5728 3.72476 11.6697 3.48958 11.6697 3.25026C11.6697 3.01011 11.5728 2.77493 11.403 2.606C11.2341 2.43624 10.9989 2.33936 10.7588 2.33936Z" fill="white"/>
</svg>
