<svg width="8" height="14" viewBox="0 0 8 14" fill="none" xmlns="http://www.w3.org/2000/svg">
<path d="M7.49966 0.00291293L5.68418 0C3.64454 0 2.32644 1.35233 2.32644 3.44542V5.03399H0.501044C0.343309 5.03399 0.215576 5.16187 0.215576 5.3196V7.62126C0.215576 7.77899 0.343454 7.90672 0.501044 7.90672H2.32644V13.7145C2.32644 13.8723 2.45417 14 2.6119 14H4.99352C5.15125 14 5.27899 13.8721 5.27899 13.7145V7.90672H7.4133C7.57103 7.90672 7.69876 7.77899 7.69876 7.62126L7.69964 5.3196C7.69964 5.24386 7.66949 5.17133 7.61604 5.11773C7.56258 5.06414 7.48976 5.03399 7.41402 5.03399H5.27899V3.68734C5.27899 3.04008 5.43323 2.71151 6.27638 2.71151L7.49937 2.71107C7.65696 2.71107 7.78469 2.58319 7.78469 2.4256V0.288381C7.78469 0.130936 7.65711 0.00320423 7.49966 0.00291293Z" fill="white"/>
</svg>
