<svg width="15" height="28" viewBox="0 0 15 28" fill="none" xmlns="http://www.w3.org/2000/svg">
<path d="M13.7952 25.7411L13.9766 25.5695L3.02492 13.9993L13.9766 2.42915C14.3411 2.04397 14.3411 1.42992 13.9766 1.04473C13.6046 0.651757 13.0003 0.651757 12.6284 1.04473L1.01894 13.3098C0.659582 13.6895 0.659167 14.3096 1.02485 14.6896C1.02514 14.6899 1.02544 14.6902 1.02574 14.6905L12.632 26.9523C12.8155 27.1526 13.0635 27.25 13.305 27.25C13.5516 27.25 13.797 27.1436 13.9766 26.9539M13.7952 25.7411L13.9766 26.9539C13.9766 26.9539 13.9766 26.9539 13.9766 26.9539M13.7952 25.7411L13.9766 25.5695C14.3411 25.9547 14.3411 26.5687 13.9766 26.9539M13.7952 25.7411L13.9766 26.9539" fill="#333333" stroke="#333333" stroke-width="0.5"/>
</svg>
